<?xml version="1.0" encoding="UTF-8" standalone="no"?>
<svg
   xmlns:dc="http://purl.org/dc/elements/1.1/"
   xmlns:cc="http://creativecommons.org/ns#"
   xmlns:rdf="http://www.w3.org/1999/02/22-rdf-syntax-ns#"
   xmlns:svg="http://www.w3.org/2000/svg"
   xmlns="http://www.w3.org/2000/svg"
   xmlns:sodipodi="http://sodipodi.sourceforge.net/DTD/sodipodi-0.dtd"
   xmlns:inkscape="http://www.inkscape.org/namespaces/inkscape"
   id="Layer_1"
   data-name="Layer 1"
   viewBox="0 0 278.59436 232.3852"
   version="1.1"
   sodipodi:docname="anvil_logo_proposed_matisse_(035c94).svg"
   inkscape:version="0.92.2 5c3e80d, 2017-08-06"
   width="278.59436"
   height="232.38519">
  <metadata
     id="metadata64">
    <rdf:RDF>
      <cc:Work
         rdf:about="">
        <dc:format>image/svg+xml</dc:format>
        <dc:type
           rdf:resource="http://purl.org/dc/dcmitype/StillImage" />
        <dc:title>anvil logo final</dc:title>
      </cc:Work>
    </rdf:RDF>
  </metadata>
  <sodipodi:namedview
     pagecolor="#ffffff"
     bordercolor="#666666"
     borderopacity="1"
     objecttolerance="10"
     gridtolerance="10"
     guidetolerance="10"
     inkscape:pageopacity="0"
     inkscape:pageshadow="2"
     inkscape:window-width="1280"
     inkscape:window-height="756"
     id="namedview62"
     showgrid="false"
     inkscape:zoom="5.2543916"
     inkscape:cx="102.41663"
     inkscape:cy="131.11535"
     inkscape:window-x="0"
     inkscape:window-y="0"
     inkscape:window-maximized="0"
     inkscape:current-layer="layer1"
     fit-margin-left="1"
     fit-margin-top="1"
     fit-margin-right="1"
     fit-margin-bottom="1" />
  <defs
     id="defs10">
    <style
       id="style2">.cls-1,.cls-4,.cls-6{fill:none;}.cls-2{fill:#4152a4;}.cls-3{clip-path:url(#clip-path);}.cls-4{stroke:#4152a4;}.cls-4,.cls-6{stroke-miterlimit:10;stroke-width:5px;}.cls-5{clip-path:url(#clip-path-2);}.cls-6{stroke:#fff;}</style>
    <clipPath
       id="clip-path"
       transform="translate(-20.26 -25.5)">
      <rect
         class="cls-1"
         x="60.169998"
         y="22.23"
         width="129.84"
         height="91.57"
         id="rect4"
         style="fill:none" />
    </clipPath>
    <clipPath
       id="clip-path-2"
       transform="translate(-20.26 -25.5)">
      <rect
         class="cls-1"
         x="20.26"
         y="113.8"
         width="199.42"
         height="142.08"
         id="rect7"
         style="fill:none" />
    </clipPath>
    <clipPath
       clipPathUnits="userSpaceOnUse"
       id="clipPath4632">
      <path
         style="fill:#866e90;fill-opacity:1;stroke-width:1.65791869"
         d="M 54.828335,88.408314 H 167.8142 V 230.3 H 54.828335 Z"
         id="path4634"
         inkscape:connector-curvature="0" />
    </clipPath>
  </defs>
  <title
     id="title12">anvil logo final</title>
  <g
     inkscape:groupmode="layer"
     id="layer3"
     inkscape:label="Layer 3"
     style="display:inline"
     transform="translate(1,1.0051867)" />
  <g
     inkscape:groupmode="layer"
     id="layer1"
     inkscape:label="Layer 1"
     style="display:inline"
     transform="translate(1,1.0051867)">
    <path
       style="fill:#035c94;fill-opacity:1"
       id="path14"
       class="cls-2"
       d="M 195.78,113.8 H 20.26 v 12.7 c 0,0 123.74,46.27 39.93,117.83 v 11.55 h 154.1 v -11.54 c -17.18,-19.54 -59.54,-57.6 -31,-75.81 30.91,-18.42 51.45,-19.14 81.64,-29.79 30.19,-10.65 40.71,-17.46 24,-17.46 h -93.15 z"
       transform="translate(-20.26,-25.5)"
       inkscape:connector-curvature="0"
       inkscape:export-xdpi="400"
       inkscape:export-ydpi="400" />
    <path
       style="fill:none;stroke:#035c94;stroke-width:5px;stroke-miterlimit:10;stroke-opacity:1"
       inkscape:connector-curvature="0"
       id="path15"
       d="m 85.05,90.15 c 0,0 -22.31,-23.39 7.14,-53.91 29.45,-30.52 11,-38.59 18.67,-31.16 1.33,1.28 17.48,16.87 17.06,30.36 -0.55,17.23 -17.94,33.06 -17.94,33.06 0,0 25.35,-13.94 26.33,-22.18 0.84,-7.06 16.54,25 -2.28,43.82"
       class="cls-4" />
    <path
       style="fill:none;stroke:#035c94;stroke-width:5px;stroke-miterlimit:10;stroke-opacity:1"
       inkscape:connector-curvature="0"
       id="path17"
       d="m 136.31,46.32 c 0,0 -2.12,15 -54,37.14"
       class="cls-4" />
    <path
       style="fill:none;stroke:#035c94;stroke-width:5px;stroke-miterlimit:10;stroke-opacity:1"
       inkscape:connector-curvature="0"
       id="path19"
       d="m 143.2,64.5 c 0,0 -1.34,12.22 -47.52,29.71"
       class="cls-4" />
    <path
       style="fill:none;stroke:#035c94;stroke-width:5px;stroke-miterlimit:10;stroke-opacity:1"
       inkscape:connector-curvature="0"
       id="path21"
       d="m 126.98,28.91 c 0,0 -2,13.17 -50,32.66"
       class="cls-4" />
    <path
       style="fill:none;stroke:#ffffff;stroke-width:5px;stroke-miterlimit:10"
       inkscape:connector-curvature="0"
       id="path35"
       d="M 89.74,23.95"
       class="cls-6" />
  </g>
  <g
     inkscape:groupmode="layer"
     id="layer2"
     inkscape:label="Layer 2"
     style="display:inline"
     transform="translate(1,1.0051867)">
    <g
       style="display:inline"
       id="g3772"
       clip-path="url(#clipPath4632)">
      <path
         class="cls-6"
         d="M 109.96,42.86 C 86.55,64.12 82.79,69.62 82.74,81.14 c 0,7.49 3,17.67 26.87,37.91 23.87,20.24 26.88,30.58 26.85,37.91 -0.05,11.49 -3.71,17.06 -27.2,38.28"
         id="path25"
         inkscape:connector-curvature="0"
         style="fill:none;stroke:#ffffff;stroke-width:5px;stroke-miterlimit:10" />
      <path
         class="cls-6"
         d="m 109.26,195.25 c -40.45,-34.45 -30.42,-49.94 0.35,-76.2 24.13,-20.55 27.13,-30.79 27.21,-38.27 0.05,-11.52 -3.64,-17 -26.86,-37.91"
         id="path27"
         inkscape:connector-curvature="0"
         style="fill:none;stroke:#ffffff;stroke-width:5px;stroke-miterlimit:10" />
      <line
         class="cls-6"
         x1="82.739998"
         y1="81.139999"
         x2="136.83"
         y2="80.769997"
         id="line29"
         style="fill:none;stroke:#ffffff;stroke-width:5px;stroke-miterlimit:10" />
      <line
         class="cls-6"
         x1="136.46001"
         y1="156.97"
         x2="82.599998"
         y2="157.33"
         id="line31"
         style="fill:none;stroke:#ffffff;stroke-width:5px;stroke-miterlimit:10" />
      <line
         class="cls-6"
         x1="88.419998"
         y1="140.44"
         x2="130.22"
         y2="140.16"
         id="line33"
         style="fill:none;stroke:#ffffff;stroke-width:5px;stroke-miterlimit:10" />
      <line
         class="cls-6"
         x1="89.010002"
         y1="174.14999"
         x2="130.62"
         y2="173.86"
         id="line37"
         style="fill:none;stroke:#ffffff;stroke-width:5px;stroke-miterlimit:10" />
      <line
         class="cls-6"
         x1="88.629997"
         y1="64.25"
         x2="131.09"
         y2="63.959999"
         id="line39"
         style="fill:none;stroke:#ffffff;stroke-width:5px;stroke-miterlimit:10" />
      <line
         class="cls-6"
         x1="88.959999"
         y1="97.949997"
         x2="130.46001"
         y2="97.669998"
         id="line41"
         style="fill:none;stroke:#ffffff;stroke-width:5px;stroke-miterlimit:10" />
      <path
         class="cls-6"
         d="m 109.24,195.25 c -23.41,21.25 -27.17,26.77 -27.22,38.25 0,7.49 3,17.67 26.87,37.91 23.87,20.24 26.85,30.62 26.85,37.95 -0.05,11.49 -3.71,17.06 -27.2,38.28"
         id="path43"
         inkscape:connector-curvature="0"
         style="fill:none;stroke:#ffffff;stroke-width:5px;stroke-miterlimit:10" />
      <path
         class="cls-6"
         d="m 108.54,347.64 c -40.45,-34.45 -30.42,-49.94 0.35,-76.2 24.1,-20.57 27.18,-30.8 27.21,-38.28 0.05,-11.52 -3.64,-17 -26.86,-37.91"
         id="path45"
         inkscape:connector-curvature="0"
         style="fill:none;stroke:#ffffff;stroke-width:5px;stroke-miterlimit:10" />
      <line
         class="cls-6"
         x1="88.629997"
         y1="216.64"
         x2="131.09"
         y2="216.35001"
         id="line55"
         style="fill:none;stroke:#ffffff;stroke-width:5px;stroke-miterlimit:10" />
    </g>
  </g>
</svg>
