<?xml version="1.0" encoding="UTF-8"?>
<svg width="20px" height="20px" viewBox="0 0 20 20" version="1.1" xmlns="http://www.w3.org/2000/svg" xmlns:xlink="http://www.w3.org/1999/xlink">
    <!-- Generator: Sketch 52.3 (67297) - http://www.bohemiancoding.com/sketch -->
    <title>icon_clinical_assessment</title>
    <desc>Created with Sketch.</desc>
    <defs>
        <path d="M10,0 C15.523,0 20,4.477 20,10 C20,15.522 15.523,20 10,20 C4.477,20 0,15.522 0,10 C0,4.478 4.477,0 10,0 Z" id="path-1"></path>
        <path d="M12.56,9.43384615 C13.22,10.1478462 13.111,11.3970769 12.337,12.2284615 C11.896,12.6732308 10.782,13.4076923 9.798,12.5224615 L9.798,13.3883077 C9.798,13.7135385 9.548,13.9827692 9.246,13.9827692 L0.552,13.9827692 C0.249,13.9827692 0,13.7135385 0,13.3883077 L0,1.67676923 C0,1.35046154 0.249,1.08230769 0.552,1.08230769 L2.486,1.08230769 L2.486,0.605230769 C2.486,0.278923077 2.735,0.0107692308 3.038,0.0107692308 L6.765,0.0107692308 C7.068,0.0107692308 7.317,0.278923077 7.317,0.605230769 L7.317,1.08230769 L9.249,1.08230769 C9.551,1.08230769 9.8,1.35046154 9.8,1.67676923 L9.8,6.46261538 L12.56,9.43384615 Z M3.59,1.17061538 L3.59,2.18184615 L6.211,2.18184615 L6.211,1.17061538 L3.59,1.17061538 Z M1.077,12.8218462 L1.077,12.8250769 L8.694,12.8250769 L8.694,11.3389231 L6.32,8.78230769 C6.237,8.694 6.182,8.60461538 6.182,8.48507692 L5.712,5.75076923 C5.659,5.14769231 6.147,5.01953846 6.32,5.09707692 L8.694,5.56769231 L8.694,2.27123077 L7.314,2.27123077 L7.314,2.77415385 C7.288,3.07030769 7.039,3.33953846 6.763,3.33953846 L3.038,3.33953846 C2.735,3.33953846 2.486,3.07030769 2.486,2.74507692 L2.486,2.27123077 L1.077,2.27123077 L1.077,12.8218462 Z M11.565,11.3970769 C11.952,10.9792308 11.979,10.4741538 11.788,10.2652308 L8.477,6.69953846 L6.903,6.37323077 L7.206,8.09630769 L10.488,11.634 C10.878,11.9312308 11.344,11.6049231 11.565,11.3970769 Z" id="path-3"></path>
    </defs>
    <g id="Page-1" stroke="none" stroke-width="1" fill="none" fill-rule="evenodd">
        <g id="icon_clinical_assessment">
            <g id="Group-1752">
                <g id="Fill-1750-Clipped">
                    <mask id="mask-2" fill="white">
                        <use xlink:href="#path-1"></use>
                    </mask>
                    <use id="path-1" fill="#3283C8" xlink:href="#path-1"></use>
                </g>
            </g>
            <g id="Group-1755" transform="translate(5.000000, 3.000000)">
                <g id="Fill-1753-Clipped">
                    <mask id="mask-4" fill="white">
                        <use xlink:href="#path-3"></use>
                    </mask>
                    <use id="path-3" fill="#FFFFFF" xlink:href="#path-3"></use>
                </g>
            </g>
        </g>
    </g>
</svg>