<?xml version="1.0" encoding="UTF-8"?>
<svg width="20px" height="20px" viewBox="0 0 20 20" version="1.1" xmlns="http://www.w3.org/2000/svg" xmlns:xlink="http://www.w3.org/1999/xlink">
    <!-- Generator: Sketch 53.2 (72643) - https://sketchapp.com -->
    <title>Group 22</title>
    <desc>Created with Sketch.</desc>
    <g id="Symbols" stroke="none" stroke-width="1" fill="none" fill-rule="evenodd">
        <g id="Group-22" fill-rule="nonzero">
            <path d="M10,0 C15.5225192,0 20,4.47748082 20,10 C20,15.5218764 15.5225192,20 10,20 C4.47748082,20 0,15.5224478 0,10 C0,4.47755224 4.47683803,0 10,0 Z" id="Shape-Copy" fill="#FF8585"></path>
            <g id="Group-6" transform="translate(3.700000, 4.000000)" fill="#FFFFFF">
                <path d="M8.87915449,4.5985906 L9.18025222,4.29766832 C9.20881357,4.26868496 9.22020108,4.22629795 9.2084201,4.18717504 C9.19615307,4.14844568 9.16356443,4.11902248 9.12412477,4.11061916 L7.82550918,3.84837994 C7.78882382,3.84092575 7.75128207,3.85247743 7.72489639,3.87875228 C7.69915877,3.90525862 7.68689174,3.9430157 7.69457599,3.9792912 L7.95672011,5.27752349 C7.96535332,5.31734088 7.99435443,5.35021338 8.03284514,5.36195025 C8.07219221,5.37394177 8.11519626,5.36289939 8.14417422,5.33366138 L8.44439243,5.03317895 L9.14805705,5.73655786 C9.1910611,5.7800792 9.26170067,5.7800792 9.30475101,5.73681251 L9.58281912,5.45922508 C9.60355735,5.43841354 9.61538462,5.41005522 9.61538462,5.38067832 C9.61538462,5.35120882 9.60355735,5.32287365 9.58281912,5.30206211 L8.87915449,4.5985906 Z" id="Path"></path>
                <path d="M12.4380118,10.024029 L11.7907383,8.13332126 C11.7268451,7.94740336 11.5536401,7.82256014 11.3587178,7.82256014 L11.2602433,7.82256014 C11.6179387,7.70808281 11.8795702,7.3735297 11.8795702,6.97469086 L11.8795702,0.893427467 C11.8795702,0.40073531 11.4826643,0 10.9951558,0 L1.50472021,0 C1.01725446,0 0.620305863,0.40073531 0.620305863,0.893427467 L0.620305863,6.97464775 C0.620305863,7.37346505 0.882044041,7.70803971 1.23969671,7.82251704 L1.14160622,7.82251704 C0.946726587,7.82251704 0.77347891,7.94731715 0.709628363,8.13327816 L0.0622909048,10.024029 C-0.0575168715,10.3729134 -0.00241297438,10.7584339 0.209597296,11.0592601 C0.421628901,11.3598709 0.764305594,11.5384615 1.12991558,11.5384615 L11.3700031,11.5384615 C11.7356344,11.5384615 12.0782471,11.3598709 12.2903001,11.0592601 C12.5023103,10.7586494 12.5573929,10.3729134 12.4380118,10.024029 Z M6.25018335,0.20619712 C6.37329779,0.20619712 6.47350027,0.307399218 6.47350027,0.431768321 C6.47350027,0.556374482 6.37331912,0.657339523 6.25018335,0.657339523 C6.12702625,0.657339523 6.0268451,0.556352932 6.0268451,0.431768321 C6.02682377,0.307399218 6.12700492,0.20619712 6.25018335,0.20619712 Z M1.50472021,0.863493541 L11.0248304,0.893427467 L11.0248304,7.00410756 L1.47506693,6.97464775 L1.50472021,0.863493541 Z M7.97101214,10.6638047 C7.94758818,10.6988246 7.90837759,10.7197073 7.86664967,10.7197073 L4.6337597,10.7197073 C4.59198912,10.7197073 4.55277852,10.6988246 4.52939723,10.6638047 C4.50646394,10.628871 4.50183462,10.5845413 4.51730125,10.5456207 L4.82908734,9.76621798 C4.89253255,9.60833754 5.0444256,9.50482951 5.21306529,9.50482951 L7.28740808,9.50482951 C7.45598377,9.50482951 7.60791948,9.60833754 7.67132203,9.76621798 L7.98310812,10.5456207 C7.99851076,10.5845628 7.99394543,10.6288279 7.97101214,10.6638047 Z" id="Shape"></path>
            </g>
        </g>
    </g>
</svg>