<?xml version="1.0" encoding="UTF-8"?>
<svg width="20px" height="20px" viewBox="0 0 20 20" version="1.1" xmlns="http://www.w3.org/2000/svg" xmlns:xlink="http://www.w3.org/1999/xlink">
    <!-- Generator: Sketch 52.2 (67145) - http://www.bohemiancoding.com/sketch -->
    <title>icon_data_file</title>
    <desc>Created with Sketch.</desc>
    <g id="icon_data_file" stroke="none" stroke-width="1" fill="none" fill-rule="evenodd">
        <path d="M10,0 C15.5225192,0 20,4.47748082 20,10 C20,15.5218764 15.5225192,20 10,20 C4.47748082,20 0,15.5224478 0,10 C0,4.47755224 4.47683803,0 10,0 Z" id="Shape" fill="#7EC500" fill-rule="nonzero"></path>
        <g id="Group-15" transform="translate(6.000000, 3.000000)">
            <g id="Group-8">
                <path d="M6.68155248e-05,6.74827979 C4.14089215e-05,5.01256296 -9.40428511e-06,3.27682028 9.22221281e-05,1.54110345 C0.000143035335,1.13462274 0.192420209,0.937675895 0.589576232,0.937339897 C2.08404345,0.935995903 3.57853608,0.935039599 5.0730033,0.93333376 C5.22137786,0.933152838 5.34325334,0.99047936 5.44693768,1.09598291 C6.54244501,2.21072272 7.63828263,3.32515238 8.73401861,4.43960789 C8.83765215,4.54498221 8.89174281,4.67036136 8.89166659,4.82114717 C8.89001516,7.20717628 8.88915133,9.59320539 8.887881,11.9792603 C8.88770316,12.28016 8.75386117,12.480441 8.50558784,12.5460899 C8.45330105,12.5599434 8.39697461,12.5628381 8.34247745,12.5628381 C5.74300083,12.5636135 3.1434734,12.5637427 0.543971379,12.5632517 C0.20535217,12.5632 0.000371694764,12.3531492 0.000295474955,12.0070707 C-0.000187250508,10.2541145 6.68155248e-05,8.50118425 6.68155248e-05,6.74827979 Z" id="Fill-1" fill="#FFFFFF"></path>
                <rect id="Rectangle-8" fill="#7EC500" fill-rule="nonzero" x="4.3" y="0.933333333" width="1" height="4.06666667"></rect>
                <rect id="Rectangle-8" fill="#7EC500" fill-rule="nonzero" transform="translate(6.650000, 5.000000) rotate(-270.000000) translate(-6.650000, -5.000000) " x="6.15" y="2.65" width="1" height="4.7"></rect>
            </g>
        </g>
    </g>
</svg>