<?xml version="1.0" encoding="UTF-8"?>
<svg width="20px" height="20px" viewBox="0 0 20 20" version="1.1" xmlns="http://www.w3.org/2000/svg" xmlns:xlink="http://www.w3.org/1999/xlink">
    <!-- Generator: Sketch 52.3 (67297) - http://www.bohemiancoding.com/sketch -->
    <title>Group 2</title>
    <desc>Created with Sketch.</desc>
    <defs>
        <path d="M10,0 C15.523,0 20,4.477 20,10 C20,15.522 15.523,20 10,20 C4.477,20 0,15.522 0,10 C0,4.478 4.477,0 10,0 Z" id="path-1"></path>
        <path d="M12.56,8.76 C13.22,9.423 13.111,10.583 12.337,11.355 C11.896,11.768 10.782,12.45 9.798,11.628 L9.798,12.432 C9.798,12.734 9.548,12.984 9.246,12.984 L0.552,12.984 C0.249,12.984 0,12.734 0,12.432 L0,1.557 C0,1.254 0.249,1.005 0.552,1.005 L2.486,1.005 L2.486,0.562 C2.486,0.259 2.735,0.01 3.038,0.01 L6.765,0.01 C7.068,0.01 7.317,0.259 7.317,0.562 L7.317,1.005 L9.249,1.005 C9.551,1.005 9.8,1.254 9.8,1.557 L9.8,6.001 L12.56,8.76 Z M3.59,1.087 L3.59,2.026 L6.211,2.026 L6.211,1.087 L3.59,1.087 Z M1.077,11.906 L1.077,11.909 L8.694,11.909 L8.694,10.529 L6.32,8.155 C6.237,8.073 6.182,7.99 6.182,7.879 L5.712,5.34 C5.659,4.78 6.147,4.661 6.32,4.733 L8.694,5.17 L8.694,2.109 L7.314,2.109 L7.314,2.576 C7.288,2.851 7.039,3.101 6.763,3.101 L3.038,3.101 C2.735,3.101 2.486,2.851 2.486,2.549 L2.486,2.109 L1.077,2.109 L1.077,11.906 Z M11.565,10.583 C11.952,10.195 11.979,9.726 11.788,9.532 L8.477,6.221 L6.903,5.918 L7.206,7.518 L10.488,10.803 C10.878,11.079 11.344,10.776 11.565,10.583 Z" id="path-3"></path>
    </defs>
    <g id="Page-2" stroke="none" stroke-width="1" fill="none" fill-rule="evenodd">
        <g id="Group-2">
            <g id="Group-1752">
                <mask id="mask-2" fill="white">
                    <use xlink:href="#path-1"></use>
                </mask>
                <g id="Clip-1751"></g>
                <polygon id="Fill-1750" fill="#3283C8" mask="url(#mask-2)" points="-5 -5 25 -5 25 25 -5 25"></polygon>
            </g>
            <g id="Group-1755" transform="translate(5.000000, 3.000000)">
                <mask id="mask-4" fill="white">
                    <use xlink:href="#path-3"></use>
                </mask>
                <g id="Clip-1754"></g>
                <polygon id="Fill-1753" fill="#FFFFFF" mask="url(#mask-4)" points="-5 -4.99 17.994 -4.99 17.994 17.984 -5 17.984"></polygon>
            </g>
        </g>
    </g>
</svg>