<?xml version="1.0" encoding="UTF-8"?>
<svg width="20px" height="20px" viewBox="0 0 20 20" version="1.1" xmlns="http://www.w3.org/2000/svg" xmlns:xlink="http://www.w3.org/1999/xlink">
    <!-- Generator: Sketch 53.2 (72643) - https://sketchapp.com -->
    <title>Group 21</title>
    <desc>Created with Sketch.</desc>
    <g id="Symbols" stroke="none" stroke-width="1" fill="none" fill-rule="evenodd">
        <g id="Group-21">
            <path d="M10,0 C15.5225192,0 20,4.47748082 20,10 C20,15.5218764 15.5225192,20 10,20 C4.47748082,20 0,15.5224478 0,10 C0,4.47755224 4.47683803,0 10,0 Z" id="Shape-Copy-2" fill="#733EA3" fill-rule="nonzero"></path>
            <g id="Group-17" transform="translate(4.000000, 5.500000)">
                <path d="M10.8,0 L1.2,0 C0.54,0 0,0.45 0,1 L0,10 L2.4,8 L10.8,8 C11.46,8 12,7.55 12,7 L12,1 C12,0.45 11.46,0 10.8,0 Z" id="Shape" fill="#FFFFFF" fill-rule="nonzero"></path>
                <circle id="Oval" fill="#733EA3" cx="3.4" cy="4" r="1"></circle>
                <circle id="Oval-Copy" fill="#733EA3" cx="6.4" cy="4" r="1"></circle>
                <circle id="Oval-Copy-2" fill="#733EA3" cx="9.4" cy="4" r="1"></circle>
            </g>
        </g>
    </g>
</svg>