<?xml version="1.0" encoding="UTF-8"?>
<svg width="20px" height="20px" viewBox="0 0 20 20" version="1.1" xmlns="http://www.w3.org/2000/svg" xmlns:xlink="http://www.w3.org/1999/xlink">
    <!-- Generator: Sketch 53.2 (72643) - https://sketchapp.com -->
    <title>Group 19</title>
    <desc>Created with Sketch.</desc>
    <g id="Symbols" stroke="none" stroke-width="1" fill="none" fill-rule="evenodd">
        <g id="Group-19" fill-rule="nonzero">
            <path d="M10,0 C15.5225192,0 20,4.47748082 20,10 C20,15.5218764 15.5225192,20 10,20 C4.47748082,20 0,15.5224478 0,10 C0,4.47755224 4.47683803,0 10,0 Z" id="Shape" fill="#7EC500"></path>
            <path d="M15.8098739,5 L4.19012612,5 C4.08513848,5 4,5.08990913 4,5.20086936 L4,14.7991306 C4,14.9100909 4.08513848,15 4.19012612,15 L15.8098739,15 C15.9149376,15 16,14.9100909 16,14.7991306 L16,5.20086936 C16,5.08990913 15.9149376,5 15.8098739,5 Z M15,13 L12.3094139,10.2159504 C12.2796776,10.1852615 12.2310431,10.1832677 12.1989592,10.2114937 L10.3328116,11.8526263 L7.94757023,8.91818156 C7.93207606,8.89902544 7.90942171,8.88807908 7.88379372,8.8886264 C7.85910478,8.88913462 7.83605916,8.90098015 7.8213084,8.92076178 L5,12.7033146 L5,6 L15,6 L15,13 L15,13 Z" id="Shape" fill="#FFFFFF"></path>
        </g>
    </g>
</svg>