<?xml version="1.0" encoding="UTF-8"?>
<svg width="20px" height="20px" viewBox="0 0 20 20" version="1.1" xmlns="http://www.w3.org/2000/svg" xmlns:xlink="http://www.w3.org/1999/xlink">
    <!-- Generator: Sketch 53.2 (72643) - https://sketchapp.com -->
    <title>Group 20</title>
    <desc>Created with Sketch.</desc>
    <g id="Symbols" stroke="none" stroke-width="1" fill="none" fill-rule="evenodd">
        <g id="Group-20" fill-rule="nonzero">
            <path d="M10,0 C15.5225192,0 20,4.47748082 20,10 C20,15.5218764 15.5225192,20 10,20 C4.47748082,20 0,15.5224478 0,10 C0,4.47755224 4.47683803,0 10,0 Z" id="Shape" fill="#05B8EE"></path>
            <g id="Group-2" transform="translate(4.500000, 3.000000)" fill="#FFFFFF">
                <path d="M5.50003548,6.72975273 C6.88066956,6.72975273 8,5.57362658 8,3.85024222 C8,2.1268214 7.63250738,0.729752726 5.50003548,0.729752726 C3.36756358,0.729752726 3,2.1268214 3,3.85024222 C3,5.57362658 4.11933044,6.72975273 5.50003548,6.72975273 Z" id="Path"></path>
                <path d="M10.9938424,11.9030477 C10.9399119,8.55697782 10.4954917,7.60352955 7.0946479,7 C7.0946479,7 6.61592706,7.59983165 5.50012398,7.59983165 C4.3843209,7.59983165 3.9055174,7 3.9055174,7 C0.541784383,7.59694648 0.0703369199,8.53625334 0.00834786006,11.7943458 C0.00326475715,12.0603913 0.000909172878,12.0743701 0,12.0434866 C0.0002066302,12.1013526 0.000454586439,12.2083885 0.000454586439,12.3950308 C0.000454586439,12.3950308 0.809990382,14.4566881 5.5,14.4566881 C10.189927,14.4566881 10.9997934,12.3950308 10.9997934,12.3950308 C10.9997934,12.2751132 10.999876,12.1917276 11,12.1349994 C10.9990908,12.1540985 10.9972725,12.1170788 10.9938424,11.9030477 Z" id="Path"></path>
            </g>
        </g>
    </g>
</svg>