<svg width="14" height="11" xmlns="http://www.w3.org/2000/svg"><g fill="#FFF" fill-rule="evenodd"><path d="M2.5.9h.72c.013.005.026.015.038.016.261.015.522.023.782.044.466.037.93.101 1.385.253.377.126.73.322 1.018.707.038.05.057.1.057.177-.002 2.565-.001 5.13-.001 7.696V9.9c-.018-.007-.025-.008-.031-.012-.078-.056-.157-.11-.234-.17a3.81 3.81 0 0 0-1.973-.803c-.51-.053-1.023-.07-1.534-.101-.07-.005-.142-.001-.22-.001V1.036C2.507.99 2.502.946 2.5.9m8.28 0h.72c-.002.045-.007.09-.007.135v7.63c0 .044-.003.088-.004.136h-.077a12.62 12.62 0 0 0-1.784.118 3.978 3.978 0 0 0-1.863.79c-.084.064-.17.123-.265.191v-.107c0-2.569 0-5.138.002-7.707 0-.051.02-.115.045-.15.147-.207.319-.366.509-.484.33-.205.68-.304 1.035-.375.506-.1 1.015-.14 1.526-.158.054-.002.108-.013.162-.019"/><path d="M.5 1.9h.983v8.114h.12c.61.012 1.22.01 1.828.039.717.033 1.434.105 2.121.374.316.123.618.295.925.446.01.004.016.018.023.027h-6v-9Zm8 9c.006-.01.011-.022.019-.028.5-.36 1.027-.598 1.584-.702a9.748 9.748 0 0 1 1.686-.148l.799-.008h.093V1.9h.819v9h-5Z"/></g></svg>