<svg width="31" height="31" xmlns="http://www.w3.org/2000/svg"><g transform="translate(1 1)" fill="none" fill-rule="evenodd"><circle stroke="#FFF" stroke-width="2" cx="14.5" cy="14.5" r="14.5"/><path d="m6 5 17 20" stroke="#FFF" stroke-width="2" stroke-linecap="square"/><path d="m15.988 17.139-1.536-1.537 1.084-1.085c1.92 1.036 4.357.764 5.98-.858a5.077 5.077 0 0 0 0-7.173 5.07 5.07 0 0 0-7.172 0c-1.62 1.622-1.891 4.062-.856 5.982l-7.066 7.071a1.456 1.456 0 0 0 0 2.05c.26.261.614.432 1.096.432.482 0 .644-.156.982-.48.338-.325.443-.446.83-.813l1.536 1.537a.724.724 0 0 0 1.025 0l1.024-1.024a.724.724 0 0 0 0-1.025l-1.537-1.537 1.025-1.028 1.537 1.54a.724.724 0 0 0 1.024 0l1.024-1.025a.728.728 0 0 0 0-1.027Zm.39-8.587a2.18 2.18 0 0 1 3.079 0 2.178 2.178 0 0 1 0 3.074 2.183 2.183 0 0 1-3.078 0 2.178 2.178 0 0 1 0-3.074Z" fill="#FFF" fill-rule="nonzero"/></g></svg>