<svg width="60" height="60" xmlns="http://www.w3.org/2000/svg"><g fill="#606060" fill-rule="nonzero"><path d="M37.037 15.376h2.492c.335 1.117 1.406 1.94 2.685 1.94 1.54 0 2.786-1.198 2.786-2.658C45 13.189 43.745 12 42.214 12c-1.271 0-2.35.822-2.685 1.94h-2.492c-1.674 0-3.037 1.3-3.037 2.896v4.438c0 .399.343.726.761.726s.761-.327.761-.726v-4.438c-.008-.806.67-1.46 1.515-1.46Zm5.17-1.94c.702 0 1.27.543 1.27 1.214 0 .67-.568 1.213-1.27 1.213-.704 0-1.272-.543-1.272-1.213 0-.663.577-1.213 1.271-1.213ZM26.239 22c.418 0 .761-.327.761-.726v-4.438c0-1.596-1.363-2.897-3.037-2.897h-2.492C21.136 12.822 20.065 12 18.786 12 17.246 12 16 13.197 16 14.658c0 1.468 1.255 2.657 2.786 2.657 1.271 0 2.35-.822 2.685-1.94h2.484c.837 0 1.523.655 1.523 1.453v4.438c0 .415.343.734.76.734Zm-7.453-6.113c-.703 0-1.272-.543-1.272-1.213s.569-1.214 1.272-1.214c.702 0 1.271.543 1.271 1.214 0 .662-.577 1.213-1.271 1.213ZM29.991 22c.45 0 .82-.343.82-.762v-9.77c1.234-.327 2.152-1.374 2.188-2.613a2.682 2.682 0 0 0-.828-1.993A3.087 3.087 0 0 0 30.072 6H30c-1.612 0-2.963 1.222-3 2.721-.017.745.28 1.457.83 1.993.378.368.846.628 1.36.762v9.77c-.019.42.35.754.801.754ZM28.622 8.755c.018-.687.63-1.24 1.369-1.24h.036c.37.009.703.151.955.394.252.243.387.57.378.913-.018.686-.63 1.239-1.369 1.239h-.036A1.409 1.409 0 0 1 29 9.667a1.215 1.215 0 0 1-.378-.912Z"/><path d="M57.49 27H54v-6.268A2.736 2.736 0 0 0 51.268 18H50V0H10v2H7v2H4v7H2.732A2.736 2.736 0 0 0 0 13.732v43.687h.006c-.005.563.17 1.114.522 1.575A2.546 2.546 0 0 0 2.565 60h44.759c1.157 0 2.175-.78 2.449-1.813L60 30.149v-.177C60 28.25 58.944 27 57.49 27Zm-6.222-7c.404 0 .732.328.732.732V27h-2v-7h1.268ZM48 2v25H12.731a2.56 2.56 0 0 0-.674.098c-.018.005-.039.003-.057.008V2h36ZM10 4v25.585l-.063.173L9 32.326V4h1ZM6 6h1v31.81l-1 2.741V6Zm-4 7.732c0-.404.329-.732.732-.732H4v32.943l-2 5.455V13.732Zm45.868 43.852a.562.562 0 0 1-.544.416H2.565a.552.552 0 0 1-.448-.222c-.063-.082-.16-.256-.123-.408L4 51.87v.001l3-8.225 3-8.225v.003l1.932-5.301.068-.185.16-.439.026-.082a.566.566 0 0 1 .545-.417H57.49c.379 0 .477.546.501.819L47.868 57.584Z"/></g></svg>