<?xml version="1.0" encoding="iso-8859-1"?>
<!-- Generator: Adobe Illustrator 19.0.0, SVG Export Plug-In . SVG Version: 6.00 Build 0)  -->
<svg version="1.1" id="Capa_1" xmlns="http://www.w3.org/2000/svg" xmlns:xlink="http://www.w3.org/1999/xlink" x="0px" y="0px"
	 viewBox="0 0 512 512" style="enable-background:new 0 0 512 512;" xml:space="preserve">
<g>
	<g>
		<path d="M296.078,260.98h-80.157c-12.983,0-23.546,10.563-23.546,23.546v75.147c0,4.151,3.365,7.515,7.515,7.515H312.11
			c4.151,0,7.515-3.364,7.515-7.515c0-0.515,0-75.147,0-75.147C319.624,271.542,309.062,260.98,296.078,260.98z M248.485,352.158
			h-41.08v-67.632c0-4.696,3.82-8.517,8.517-8.517h12.274l20.29,27.053V352.158z M246.982,276.009h18.035L256,288.033
			L246.982,276.009z M304.595,352.158h-41.08v-49.096l20.29-27.053h12.274c4.696,0,8.517,3.82,8.517,8.517V352.158z"/>
	</g>
</g>
<g>
	<g>
		<path d="M256,156.776c-27.828,0-43.615,12.431-51.957,22.859c-9.054,11.318-11.424,22.778-11.521,23.26
			c-0.916,4.58,2.701,8.989,7.368,8.989h9.116c3.614,22.684,23.309,40.078,46.994,40.078c26.242,0,47.593-21.351,47.593-47.593
			S282.242,156.776,256,156.776z M256,236.933c-15.369,0-28.276-10.706-31.679-25.049h63.358
			C284.276,226.227,271.369,236.933,256,236.933z M210.671,196.854c5.19-10.109,17.559-25.049,45.329-25.049
			c15.37,0,28.287,10.704,31.689,25.049H210.671z"/>
	</g>
</g>
<g>
	<g>
		<path d="M464.407,20.51c-21.823,0-39.577,17.754-39.577,39.577c0,21.824,17.755,39.577,39.577,39.577s39.577-17.755,39.577-39.577
			S486.23,20.51,464.407,20.51z M464.407,84.635c-13.536,0-24.548-11.013-24.548-24.548c0-13.535,11.012-24.548,24.548-24.548
			s24.548,11.011,24.548,24.548S477.943,84.635,464.407,84.635z"/>
	</g>
</g>
<g>
	<g>
		<path d="M496.47,108.682h-64.125c-8.564,0-15.53,6.967-15.53,15.53v72.141c0,4.151,3.364,7.515,7.515,7.515h80.157
			c4.151,0,7.515-3.364,7.515-7.515v-72.141C512,115.649,505.033,108.682,496.47,108.682z M496.971,188.839h-65.127v-64.626
			c0-0.276,0.225-0.501,0.501-0.501h64.125c0.276,0,0.501,0.225,0.501,0.501V188.839z"/>
	</g>
</g>
<g>
	<g>
		<path d="M47.593,293.042c-21.823,0-39.577,17.754-39.577,39.577c0,21.824,17.755,39.577,39.577,39.577S87.17,354.442,87.17,332.62
			S69.416,293.042,47.593,293.042z M47.593,357.168c-13.535,0-24.548-11.013-24.548-24.548c0-13.535,11.013-24.548,24.548-24.548
			s24.548,11.011,24.548,24.548S61.128,357.168,47.593,357.168z"/>
	</g>
</g>
<g>
	<g>
		<path d="M79.656,381.215H15.53c-8.564,0-15.53,6.967-15.53,15.53v72.141c0,4.151,3.365,7.515,7.515,7.515h80.157
			c4.15,0,7.515-3.364,7.515-7.515v-72.141C95.186,388.181,88.219,381.215,79.656,381.215z M80.157,461.371H15.029v-64.626
			c0-0.276,0.224-0.501,0.501-0.501h64.125c0.277,0,0.501,0.225,0.501,0.501V461.371z"/>
	</g>
</g>
<g>
	<g>
		<path d="M472.423,260.98c-4.151,0-7.515,3.364-7.515,7.515c0,1.934-0.026,3.887-0.079,5.805c-0.113,4.149,3.156,7.605,7.305,7.718
			c0.07,0.002,0.14,0.003,0.21,0.003c4.055,0,7.396-3.23,7.508-7.308c0.057-2.057,0.085-4.149,0.085-6.218
			C479.937,264.343,476.574,260.98,472.423,260.98z"/>
	</g>
</g>
<g>
	<g>
		<path d="M467.431,315.535c-4.015-1.034-8.118,1.378-9.157,5.396c-0.98,3.79-2.083,7.607-3.278,11.342
			c-1.201,3.749,0.794,7.897,4.468,9.307c3.977,1.526,8.548-0.671,9.845-4.724c1.283-4.006,2.466-8.099,3.518-12.165
			C473.864,320.674,471.449,316.574,467.431,315.535z"/>
	</g>
</g>
<g>
	<g>
		<path d="M409.415,421.329c-2.838-3.03-7.594-3.185-10.621-0.347c-2.593,2.429-5.247,4.792-7.961,7.087
			c-2.086,1.764-3.611,3.764-3.56,6.631c0.109,6.174,7.58,9.604,12.333,5.627c3.208-2.682,6.391-5.501,9.461-8.376
			C412.096,429.113,412.252,424.358,409.415,421.329z"/>
	</g>
</g>
<g>
	<g>
		<path d="M445.951,372.569c-3.566-2.12-8.179-0.952-10.301,2.612c-2.004,3.367-4.13,6.719-6.319,9.964
			c-2.32,3.442-1.411,8.112,2.029,10.432c1.289,0.869,2.749,1.285,4.195,1.285c2.415,0,4.785-1.161,6.238-3.315
			c2.346-3.479,4.623-7.073,6.771-10.679C450.687,379.304,449.517,374.692,445.951,372.569z"/>
	</g>
</g>
<g>
	<g>
		<path d="M303.898,479.733c-0.772-4.078-4.712-6.749-8.782-5.985c-3.839,0.727-7.755,1.355-11.64,1.864
			c-4.004,0.526-6.946,4.273-6.49,8.288c0.469,4.125,4.324,7.148,8.444,6.614c4.165-0.547,8.365-1.219,12.481-1.999
			C301.99,487.743,304.669,483.811,303.898,479.733z"/>
	</g>
</g>
<g>
	<g>
		<path d="M360.807,458.041c-1.885-3.696-6.409-5.167-10.108-3.283c-3.491,1.778-7.071,3.477-10.638,5.046
			c-3.551,1.561-5.358,5.722-4.061,9.381c1.439,4.059,6.159,6.117,10.11,4.376c3.828-1.683,7.668-3.504,11.413-5.412
			C361.221,466.264,362.691,461.739,360.807,458.041z"/>
	</g>
</g>
<g>
	<g>
		<path d="M236.384,476.494c-3.9-0.363-7.84-0.843-11.713-1.425c-4.097-0.611-7.931,2.211-8.548,6.314
			c-0.617,4.105,2.21,7.932,6.314,8.549c4.151,0.623,8.374,1.137,12.554,1.526c0.237,0.021,0.472,0.032,0.705,0.032
			c3.835,0,7.111-2.923,7.474-6.818C243.554,480.54,240.516,476.877,236.384,476.494z"/>
	</g>
</g>
<g>
	<g>
		<path d="M179.219,462.843c-3.64-1.44-7.287-3.003-10.839-4.646c-3.767-1.742-8.233-0.102-9.975,3.665
			c-1.742,3.766-0.101,8.232,3.665,9.974c3.808,1.762,7.719,3.439,11.623,4.983c4.015,1.585,8.653-0.639,9.938-4.753
			C184.788,468.362,182.827,464.27,179.219,462.843z"/>
	</g>
</g>
<g>
	<g>
		<path d="M128.107,433.693c-1.529-1.187-3.055-2.404-4.536-3.618c-3.209-2.633-7.944-2.166-10.577,1.043
			c-2.632,3.208-2.165,7.943,1.043,10.576c1.586,1.302,3.22,2.606,4.857,3.875c1.37,1.064,2.991,1.577,4.6,1.577
			c2.242,0,4.463-1,5.944-2.909C131.984,440.956,131.387,436.236,128.107,433.693z"/>
	</g>
</g>
<g>
	<g>
		<path d="M39.865,254.971c-4.17-0.139-7.604,3.156-7.718,7.305c-0.056,2.056-0.084,4.148-0.084,6.218
			c0,4.15,3.365,7.515,7.515,7.515c4.15,0,7.515-3.364,7.515-7.515c0-1.934,0.027-3.887,0.079-5.805
			C47.285,258.54,44.014,255.084,39.865,254.971z"/>
	</g>
</g>
<g>
	<g>
		<path d="M234.234,53.023c-0.554-4.112-4.331-6.993-8.451-6.444c-4.146,0.559-8.332,1.244-12.442,2.037
			c-3.706,0.715-6.37,4.206-6.068,7.972c0.309,3.852,3.615,6.924,7.484,6.924c0.472,0,0.952-0.044,1.432-0.137
			c3.833-0.739,7.736-1.379,11.603-1.9C231.904,60.92,234.789,57.137,234.234,53.023z"/>
	</g>
</g>
<g>
	<g>
		<path d="M288.624,46.919c-4.137-0.605-8.352-1.099-12.527-1.471c-4.141-0.347-7.784,2.686-8.152,6.819
			c-0.368,4.133,2.686,7.783,6.819,8.151c3.897,0.347,7.829,0.809,11.69,1.371c4.105,0.6,8.02-2.375,8.539-6.49
			C295.497,51.29,292.628,47.502,288.624,46.919z"/>
	</g>
</g>
<g>
	<g>
		<path d="M348.921,64.688c-3.8-1.735-7.709-3.39-11.619-4.913c-3.865-1.507-8.223,0.405-9.731,4.273
			c-1.506,3.866,0.407,8.222,4.273,9.73c3.644,1.42,7.288,2.961,10.832,4.58c1.012,0.462,2.073,0.681,3.117,0.681
			c3.612,0,6.791-2.675,7.41-6.234C353.783,69.482,351.988,66.089,348.921,64.688z"/>
	</g>
</g>
<g>
	<g>
		<path d="M175.226,67.507c-1.681-3.793-6.119-5.509-9.915-3.824c-3.142,1.392-6.252,2.859-9.326,4.395
			c-2.375,1.187-4.549,2.327-5.589,4.925c-1.944,4.855,1.747,10.314,6.982,10.314c1.153,0,2.326-0.268,3.424-0.83
			c3.478-1.784,7.044-3.487,10.6-5.064C175.195,75.741,176.909,71.302,175.226,67.507z"/>
	</g>
</g>
<g>
	<g>
		<path d="M52.087,195.411c-3.952-1.261-8.182,0.919-9.444,4.872c-1.274,3.99-2.452,8.074-3.5,12.136
			c-1.036,4.02,1.382,8.117,5.401,9.155c3.968,1.023,8.131-1.436,9.153-5.401c0.978-3.788,2.075-7.596,3.263-11.316
			C58.222,200.902,56.04,196.674,52.087,195.411z"/>
	</g>
</g>
<g>
	<g>
		<path d="M122.615,97.884c-2.671-3.178-7.41-3.588-10.588-0.919c-3.204,2.693-6.372,5.511-9.418,8.374
			c-2.786,2.621-3.133,7.056-0.791,10.078c2.677,3.453,7.901,3.866,11.087,0.872c2.843-2.674,5.801-5.304,8.791-7.818
			C124.873,105.802,125.285,101.06,122.615,97.884z"/>
	</g>
</g>
<g>
	<g>
		<path d="M80.46,141.661c-3.444-2.318-8.114-1.404-10.43,2.04c-2.334,3.47-4.602,7.058-6.742,10.665
			c-2.116,3.569-0.94,8.179,2.629,10.297c3.525,2.09,8.208,0.892,10.297-2.628c1.996-3.364,4.111-6.709,6.287-9.944
			C84.818,148.645,83.904,143.976,80.46,141.661z"/>
	</g>
</g>
<g>
	<g>
		<path d="M397.001,94.513c-1.607-1.305-3.249-2.6-4.879-3.849c-3.293-2.524-8.012-1.901-10.537,1.392
			c-2.524,3.293-1.902,8.011,1.392,10.537c1.521,1.166,3.054,2.375,4.556,3.593c3.401,2.76,8.569,1.954,10.992-1.679
			C400.649,101.325,399.967,96.918,397.001,94.513z"/>
	</g>
</g>
<g>
	<g>
		<path d="M256,116.698c-83.701,0-151.796,68.096-151.796,151.796S172.299,420.291,256,420.291
			c83.7,0,151.796-68.096,151.796-151.797S339.7,116.698,256,116.698z M256,405.262c-75.413,0-136.767-61.353-136.767-136.767
			c0-75.414,61.354-136.767,136.767-136.767c75.414,0,136.767,61.353,136.767,136.767C392.767,343.909,331.414,405.262,256,405.262z
			"/>
	</g>
</g>
<g>
</g>
<g>
</g>
<g>
</g>
<g>
</g>
<g>
</g>
<g>
</g>
<g>
</g>
<g>
</g>
<g>
</g>
<g>
</g>
<g>
</g>
<g>
</g>
<g>
</g>
<g>
</g>
<g>
</g>
</svg>
