<svg width="12" height="8" xmlns="http://www.w3.org/2000/svg"><g fill="#4A4A4A"><path d="M11.854 3.647 9.766 1.563a5.332 5.332 0 0 0-7.532 0L.146 3.647a.498.498 0 0 0 0 .706l2.088 2.084a5.332 5.332 0 0 0 7.532 0l2.088-2.084a.498.498 0 0 0 0-.706ZM9.058 5.731a4.331 4.331 0 0 1-6.116 0L1.207 4l1.735-1.731a4.331 4.331 0 0 1 6.116 0L10.793 4 9.058 5.731Z"/><path d="M6 1.505C4.62 1.505 3.5 2.622 3.5 4A2.498 2.498 0 0 0 6 6.495c1.38 0 2.5-1.117 2.5-2.495A2.498 2.498 0 0 0 6 1.505Zm0 3.992c-.828 0-1.5-.67-1.5-1.497 0-.827.672-1.497 1.5-1.497S7.5 3.173 7.5 4c0 .827-.672 1.497-1.5 1.497Z"/></g></svg>