<svg width="21" height="20" xmlns="http://www.w3.org/2000/svg"><g opacity=".696"><path d="M9.643 4.715c.016 0 .033.003.053.003a.335.335 0 0 0 .332-.279l.003-.02c.03-.2.074-.4.13-.59a.325.325 0 0 0-.233-.403.34.34 0 0 0-.412.226c-.06.217-.11.446-.15.685-.004.017-.004.036-.004.053 0 .158.12.299.28.325ZM13.74.836c.016 0 .036 0 .056-.003.208-.036.426-.063.643-.082a.332.332 0 0 0 .308-.354.332.332 0 0 0-.362-.299c-.247.02-.481.05-.702.089a.326.326 0 0 0-.278.318.33.33 0 0 0 .335.33Zm3.972.167c.201.043.412.09.646.148.027.003.054.007.084.007.15 0 .285-.102.321-.246a.324.324 0 0 0-.24-.397A22.595 22.595 0 0 0 17.85.36a.342.342 0 0 0-.399.252.332.332 0 0 0 .261.39ZM6.945 18.597a8.79 8.79 0 0 1-.646.055.33.33 0 0 0-.322.328v.017c.01.173.158.311.335.311h.017c.238-.013.472-.033.703-.059a.33.33 0 0 0 .288-.367.339.339 0 0 0-.375-.285Zm4.719-6.554a11.48 11.48 0 0 0-.167-.663.342.342 0 0 0-.408-.232.33.33 0 0 0-.238.402 10.933 10.933 0 0 1 .157.63l.004.013a.336.336 0 0 0 .325.246.275.275 0 0 0 .07-.01.332.332 0 0 0 .264-.32.191.191 0 0 0-.007-.047h.004l-.004-.02Zm-.19 3.042a.336.336 0 0 0-.402.243 4.65 4.65 0 0 1-.184.593.281.281 0 0 0-.023.118.331.331 0 0 0 .334.325.338.338 0 0 0 .315-.21 5.46 5.46 0 0 0 .21-.675.328.328 0 0 0-.25-.394Zm-1.393-6.433a.328.328 0 0 0 .321-.42c-.063-.225-.12-.432-.167-.625a.335.335 0 0 0-.401-.243.328.328 0 0 0-.251.393c.05.207.11.43.177.66.04.137.174.235.321.235Z"/><path d="M20.082 1.64a.327.327 0 0 0 .108-.638 26.511 26.511 0 0 0-.323-.107h-.006l-.017-.006a.34.34 0 0 0-.226.014c-.07-.225-.143-.451-.224-.681a.338.338 0 0 0-.425-.204.327.327 0 0 0-.208.417c.45 1.284.736 2.487.865 3.583L16.328.788l.075.006a.335.335 0 0 0 .372-.289.319.319 0 0 0-.073-.243.323.323 0 0 0-.221-.121 11.46 11.46 0 0 0-.696-.056.34.34 0 0 0-.16.037.335.335 0 0 0-.4.048.323.323 0 0 0 0 .463l4.473 4.382c.026.928-.077 1.76-.31 2.479L12.75.99a.324.324 0 0 0-.001-.247.35.35 0 0 0-.439-.177c-.224.092-.442.2-.646.315a.329.329 0 0 0-.167.285c0 .06.016.115.047.164.06.099.17.16.287.16.06 0 .12-.012.171-.042.056-.032.115-.062.174-.092l6.944 6.802a3.99 3.99 0 0 1-.852 1.168 3.736 3.736 0 0 1-.441.347l-7.143-6.998a3.8 3.8 0 0 1 .354-.456.33.33 0 0 0-.026-.466.353.353 0 0 0-.476.03c-.16.177-.308.37-.438.57a.34.34 0 0 0-.045.134c-.006.005-.015.008-.021.014a.323.323 0 0 0 0 .463l7.195 7.049c-.68.308-1.486.453-2.396.435L9.95 5.666c-.026-.164-.168-.297-.34-.28a.33.33 0 0 0-.321.339c.01.225.027.455.053.688a.33.33 0 0 0 .331.289h.04a.332.332 0 0 0 .222-.123l3.865 3.786c-.9-.125-1.88-.386-2.927-.784l-.045-.115a.344.344 0 0 0-.432-.19.35.35 0 0 0-.123.084c-3.399-1.219-6.182-1.034-7.87.54C1.234 10.99.68 12.687.745 14.79a14.176 14.176 0 0 0 .474 3.112.329.329 0 0 0-.128-.077 24.976 24.976 0 0 1-.313-.102.338.338 0 0 0-.426.204.327.327 0 0 0 .209.416c.108.037.216.072.323.106a.335.335 0 0 0 .422-.21c.002-.006 0-.011.002-.017.113.402.237.81.384 1.229a.335.335 0 0 0 .425.203.327.327 0 0 0 .208-.416c-.05-.141-.092-.279-.137-.418.006.003.011.008.018.01l.023.003c.221.056.442.105.65.15a.335.335 0 0 0 .398-.252.318.318 0 0 0-.047-.245.339.339 0 0 0-.211-.145 19.544 19.544 0 0 1-.646-.147.338.338 0 0 0-.345.116 15.417 15.417 0 0 1-.556-2.643l2.97 2.908-.107-.01-.004.016-.003-.017a.339.339 0 0 0-.375.286c-.004.013-.004.025-.004.042 0 .164.128.302.295.324.234.03.465.053.69.07h.026a.327.327 0 0 0 .169-.052.336.336 0 0 0 .193.068.337.337 0 0 0 .236-.096.323.323 0 0 0 0-.464l-4.153-4.068c-.02-.92.09-1.747.326-2.463l6.335 6.206a.321.321 0 0 0-.073.324c.043.134.17.223.318.223.036 0 .07-.003.103-.016l.02-.007c.228-.075.446-.16.647-.253a.324.324 0 0 0 .16-.436.344.344 0 0 0-.445-.157c-.025.012-.052.021-.078.033l-6.716-6.579c.225-.451.51-.846.862-1.174.134-.125.28-.237.43-.342l7.04 6.896c-.021.016-.045.03-.062.051-.13.157-.275.305-.428.443a.315.315 0 0 0-.11.242c0 .079.03.157.086.22a.343.343 0 0 0 .472.026l.03-.03c.17-.154.328-.318.472-.491a.327.327 0 0 0 .067-.204.323.323 0 0 0 .131-.54L3.89 9.688c.673-.315 1.469-.469 2.364-.467l4.966 4.865v.006a.328.328 0 0 0 .331.321h.004c.18 0 .331-.144.335-.321V14l-.002-.048v-.007a7.162 7.162 0 0 0-.022-.545.33.33 0 0 0-.358-.305.347.347 0 0 0-.231.115l-.002.003-4.008-3.927c.947.116 1.983.383 3.092.805l.088.224a.336.336 0 0 0 .314.216.29.29 0 0 0 .114-.023.329.329 0 0 0 .18-.16c1.31.46 2.522.71 3.612.751.009 0 .017.005.026.005l.013-.003c1.663.055 3.039-.378 4.025-1.299a4.68 4.68 0 0 0 1.09-1.573l.014-.03c.391-.913.565-2.016.524-3.263a.311.311 0 0 0-.003-.126c-.044-.996-.225-2.082-.543-3.24l.161.052a.352.352 0 0 0 .109.017Z"/></g></svg>