<svg width="23" height="24" xmlns="http://www.w3.org/2000/svg"><path d="m13.513 16.55-2.078-2.096 1.466-1.48c2.6 1.413 5.895 1.043 8.092-1.168 2.676-2.702 2.676-7.082 0-9.78a6.823 6.823 0 0 0-9.704 0C9.096 4.238 8.73 7.564 10.13 10.181L.57 19.82a1.995 1.995 0 0 0 0 2.795c.352.357.831.59 1.483.59.653 0 .872-.213 1.33-.655.457-.443.6-.607 1.122-1.108l2.079 2.096a.974.974 0 0 0 1.386 0l1.385-1.397a.992.992 0 0 0 0-1.397l-2.078-2.096 1.385-1.401 2.08 2.1a.974.974 0 0 0 1.386 0l1.385-1.398a.998.998 0 0 0 0-1.4Zm.529-11.707a2.931 2.931 0 0 1 4.164 0 2.986 2.986 0 0 1 0 4.191 2.938 2.938 0 0 1-4.164 0 2.985 2.985 0 0 1 0-4.191Z" fill="#FFF"/></svg>