<svg width="12" height="12" xmlns="http://www.w3.org/2000/svg"><path d="M7.54 5.807c-.091-.111-.131-.15-.13-.29.005-.942.002-1.957.002-2.9 0-.737-.001-1.475.002-2.212C7.415.05 7.366 0 6.985 0H5.12c-.278 0-.362.08-.362.344V2.74c.005.798.004 2.431-.004 2.777a.436.436 0 0 1-.092.251C3.347 7.384 2.032 9 .702 10.605c-.218.263-.272.501-.101.787.006.01.262.52.456.579.13.039 3.279.039 9.447 0 .206 0 .628-.137.892-.437.107-.122.202-.715-.095-1.06C9.98 8.856 8.863 7.423 7.54 5.807Z" fill="#FFF" fill-rule="evenodd"/></svg>