<!-- Generated by IcoMoon.io -->
<svg version="1.1" xmlns="http://www.w3.org/2000/svg" width="32" height="32" viewBox="0 0 32 32">
<title>list</title>
<path fill="#fff" d="M7 24h-6c-0.553 0-1 0.447-1 1v6c0 0.553 0.447 1 1 1h6c0.553 0 1-0.447 1-1v-6c0-0.553-0.447-1-1-1zM6 29c0 0.553-0.447 1-1 1h-2c-0.553 0-1-0.447-1-1v-2c0-0.553 0.447-1 1-1h2c0.553 0 1 0.447 1 1v2zM31 26h-18c-0.553 0-1 0.447-1 1v2c0 0.553 0.447 1 1 1h18c0.553 0 1-0.447 1-1v-2c0-0.553-0.447-1-1-1zM31 14h-18c-0.553 0-1 0.447-1 1v2c0 0.553 0.447 1 1 1h18c0.553 0 1-0.447 1-1v-2c0-0.553-0.447-1-1-1zM7 0h-6c-0.553 0-1 0.447-1 1v6c0 0.553 0.447 1 1 1h6c0.553 0 1-1.447 1-2v-5c0-0.553-0.447-1-1-1zM6 5c0 0.553-0.447 1-1 1h-2c-0.553 0-1-0.447-1-1v-2c0-0.553 0.447-1 1-1h2c0.553 0 1 0.447 1 1v2zM7 12h-6c-0.553 0-1 0.447-1 1v6c0 0.553 0.447 1 1 1h6c0.553 0 1-0.447 1-1v-6c0-0.553-0.447-1-1-1zM6 17c0 0.553-0.447 1-1 1h-2c-0.553 0-1-0.447-1-1v-2c0-0.553 0.447-1 1-1h2c0.553 0 1 0.447 1 1v2zM31 2h-18c-0.553 0-1 0.447-1 1v2c0 0.553 0.447 1 1 1h18c0.553 0 1-0.447 1-1v-2c0-0.553-0.447-1-1-1z"></path>
</svg>
