<?xml version="1.0" encoding="UTF-8"?>
<svg width="11px" height="21px" viewBox="0 0 11 21" version="1.1" xmlns="http://www.w3.org/2000/svg" xmlns:xlink="http://www.w3.org/1999/xlink">
    <!-- Generator: Sketch 52.3 (67297) - http://www.bohemiancoding.com/sketch -->
    <title>?</title>
    <desc>Created with Sketch.</desc>
    <g id="Page-1" stroke="none" stroke-width="1" fill="none" fill-rule="evenodd">
        <g id="info" transform="translate(-14.000000, -9.000000)" fill="#FFFFFF" fill-rule="nonzero">
            <path d="M17.396,22.98 C17.3026662,22.3079966 17.3259993,21.6920028 17.466,21.132 C17.6060007,20.5719972 17.811332,20.058669 18.082,19.592 C18.352668,19.125331 18.6606649,18.6913353 19.006,18.29 C19.3513351,17.8886647 19.6779985,17.4966686 19.986,17.114 C20.2940015,16.7313314 20.5506656,16.3533352 20.756,15.98 C20.9613344,15.6066648 21.064,15.2053355 21.064,14.776 C21.064,14.1039966 20.8633353,13.5626687 20.462,13.152 C20.0606647,12.7413313 19.5053369,12.536 18.796,12.536 C18.2173304,12.536 17.694669,12.6666654 17.228,12.928 C16.761331,13.1893346 16.3226687,13.5439978 15.912,13.992 L14.12,12.34 C14.7360031,11.6306631 15.4686624,11.0473356 16.318,10.59 C17.1673376,10.1326644 18.1239947,9.904 19.188,9.904 C19.9160036,9.904 20.5879969,10.001999 21.204,10.198 C21.8200031,10.394001 22.3473311,10.687998 22.786,11.08 C23.2246689,11.472002 23.5699987,11.9573304 23.822,12.536 C24.0740013,13.1146696 24.2,13.7866628 24.2,14.552 C24.2,15.1493363 24.0926677,15.6859976 23.878,16.162 C23.6633323,16.6380024 23.3973349,17.0906645 23.08,17.52 C22.7626651,17.9493355 22.4220018,18.359998 22.058,18.752 C21.6939982,19.144002 21.3673348,19.5546645 21.078,19.984 C20.7886652,20.4133355 20.5553342,20.8706642 20.378,21.356 C20.2006658,21.8413358 20.149333,22.3826637 20.224,22.98 L17.396,22.98 Z M18.824,29.336 C18.2266637,29.336 17.732002,29.1306687 17.34,28.72 C16.947998,28.3093313 16.752,27.7866698 16.752,27.152 C16.752,26.5173302 16.947998,25.9946687 17.34,25.584 C17.732002,25.1733313 18.2266637,24.968 18.824,24.968 C19.4213363,24.968 19.9206647,25.1733313 20.322,25.584 C20.7233353,25.9946687 20.924,26.5173302 20.924,27.152 C20.924,27.7866698 20.7233353,28.3093313 20.322,28.72 C19.9206647,29.1306687 19.4213363,29.336 18.824,29.336 Z" id="?"></path>
        </g>
    </g>
</svg>