<svg width="12" height="8" xmlns="http://www.w3.org/2000/svg"><g transform="translate(.5)" fill="#FFF" fill-rule="evenodd"><rect width="5" height="2" rx=".5"/><path d="M6.5 0h4a.5.5 0 0 1 .5.5v1a.5.5 0 0 1-.5.5h-4a.5.5 0 0 1-.5-.5v-1a.5.5 0 0 1 .5-.5Z"/><rect y="3" width="5" height="2" rx=".5"/><path d="M6.5 3h4a.5.5 0 0 1 .5.5v1a.5.5 0 0 1-.5.5h-4a.5.5 0 0 1-.5-.5v-1a.5.5 0 0 1 .5-.5Z"/><rect y="6" width="5" height="2" rx=".5"/><path d="M6.5 6h4a.5.5 0 0 1 .5.5v1a.5.5 0 0 1-.5.5h-4a.5.5 0 0 1-.5-.5v-1a.5.5 0 0 1 .5-.5Z"/></g></svg>