<svg width="31" height="31" xmlns="http://www.w3.org/2000/svg"><path d="M15.464 0C6.937 0 0 6.937 0 15.464 0 23.991 6.937 30.93 15.464 30.93c8.527 0 15.465-6.938 15.465-15.465C30.929 6.937 23.99 0 15.464 0Zm0 28.55c-4.16 0-7.873-1.952-10.271-4.988 2.263-2.09 5.213-3.432 8.412-3.807a1.19 1.19 0 0 0 .251-2.305 4.91 4.91 0 0 1-3.299-4.636 4.912 4.912 0 0 1 4.907-4.907 4.912 4.912 0 0 1 4.907 4.907 4.91 4.91 0 0 1-3.299 4.636 1.19 1.19 0 0 0 .251 2.305c3.2.375 6.15 1.717 8.413 3.807-2.399 3.036-6.111 4.987-10.272 4.987ZM20.58 18a7.287 7.287 0 0 0 2.17-5.186c0-4.017-3.268-7.286-7.286-7.286-4.017 0-7.286 3.269-7.286 7.286 0 1.992.813 3.846 2.17 5.187a17.126 17.126 0 0 0-6.468 3.543 13.003 13.003 0 0 1-1.5-6.08C2.38 8.25 8.25 2.38 15.463 2.38c7.215 0 13.085 5.87 13.085 13.085 0 2.194-.543 4.262-1.5 6.08a17.124 17.124 0 0 0-6.469-3.543Z" fill="#FFF"/></svg>