<?xml version="1.0" encoding="UTF-8"?>
<svg width="14px" height="17px" viewBox="0 0 14 17" version="1.1" xmlns="http://www.w3.org/2000/svg" xmlns:xlink="http://www.w3.org/1999/xlink">
    <!-- Generator: Sketch 51.3 (57544) - http://www.bohemiancoding.com/sketch -->
    <title>Fill 1</title>
    <desc>Created with Sketch.</desc>
    <defs></defs>
    <g id="Symbols" stroke="none" stroke-width="1" fill="none" fill-rule="evenodd">
        <g id="-subject" transform="translate(-77.000000, -13.000000)" fill="#FFFFFF">
            <path d="M83.3225337,29.4120686 C83.2483601,29.4077802 83.1742155,29.4031886 83.1000274,29.3992323 C82.5453067,29.3696466 81.9896474,29.3520742 81.4360962,29.3080206 C80.536859,29.2364749 79.6455921,29.1093821 78.7824669,28.833379 C78.3573803,28.697435 77.9494473,28.5232708 77.5951121,28.2438745 C77.3032405,28.0137155 77.0851381,27.7320378 77.0230934,27.3564051 C76.9989945,27.2104692 76.999601,27.059422 77.0001786,26.9107572 C77.0008572,26.7308462 76.9970597,26.5484372 77.0244073,26.3716306 C77.0738756,26.051906 77.2436648,25.7852739 77.4450323,25.5390586 C77.8210982,25.079246 78.2893433,24.7271922 78.7845173,24.4088826 C79.5978709,23.8860145 80.4698183,23.4808682 81.3695754,23.1320777 C81.5120747,23.0768482 81.6618369,23.0270189 81.7870238,22.9430557 C82.1093474,22.7268737 82.229163,22.4059506 82.2064936,22.0265348 C82.2023496,21.9572272 82.1890945,21.8883239 82.1778176,21.8196083 C82.1471056,21.6324922 82.0608321,21.4804775 81.9316023,21.3364909 C81.1619702,20.4789971 80.6604864,19.4798846 80.3907066,18.3617219 C80.2601628,17.8206461 80.2054098,17.2723363 80.2333061,16.7167781 C80.2771865,15.8422606 80.5112873,15.0315493 81.0648674,14.335932 C81.5564605,13.7181846 82.1954621,13.3232901 82.9585389,13.1341237 C83.8346447,12.916931 84.6995892,12.9576348 85.5395396,13.2993646 C86.4320916,13.6625075 87.0599318,14.2999498 87.4343662,15.1852678 C87.6862993,15.7809522 87.785337,16.4071175 87.7690208,17.0509563 C87.7277972,18.6783711 87.1310443,20.0893295 86.0828101,21.3181677 C85.9829061,21.4352832 85.9185222,21.5554597 85.8836374,21.7001104 C85.815947,21.980734 85.7706371,22.2623106 85.8500954,22.547598 C85.9211501,22.8026789 86.0753018,22.9764821 86.3346566,23.0637086 C87.2927043,23.3858879 88.216156,23.7863848 89.0815336,24.3126317 C89.6011385,24.628631 90.0921107,24.9821864 90.4926508,25.4463597 C90.7294518,25.7207456 90.9188782,26.0220315 90.9811106,26.3873837 C90.9939759,26.4628568 91.0007189,26.5404524 90.9999392,26.6169796 C90.9975567,26.8525388 91.0079673,27.0901339 90.9806341,27.3231085 C90.9379811,27.6868291 90.7370901,27.9699217 90.4625454,28.2027375 C90.1061166,28.5050342 89.6860258,28.6868656 89.2482184,28.8312131 C88.7130626,29.0076443 88.1634822,29.126478 87.6048773,29.1929555 C87.0322954,29.261108 86.4577065,29.3145181 85.8829155,29.3610409 C85.5523615,29.3877821 85.2196561,29.3878109 84.8879326,29.4005606 C84.8377423,29.4024955 84.787682,29.4081412 84.737564,29.4120686 L83.3225337,29.4120686 Z" id="Fill-1"></path>
        </g>
    </g>
</svg>