<svg width="35" height="26" xmlns="http://www.w3.org/2000/svg"><path d="M2.33 7.12c-.647 0-1.15-.287-1.51-.86C.46 5.687.28 4.863.28 3.79c0-1.073.18-1.89.54-2.45C1.18.78 1.683.5 2.33.5c.64 0 1.14.28 1.5.84.36.56.54 1.377.54 2.45 0 1.073-.18 1.897-.54 2.47-.36.573-.86.86-1.5.86zm0-.66a.87.87 0 00.505-.155c.15-.103.28-.263.39-.48a3.02 3.02 0 00.255-.83c.06-.337.09-.738.09-1.205 0-.467-.03-.867-.09-1.2a2.868 2.868 0 00-.255-.815c-.11-.21-.24-.365-.39-.465a.89.89 0 00-.505-.15.914.914 0 00-.51.15c-.153.1-.285.255-.395.465-.11.21-.195.482-.255.815-.06.333-.09.733-.09 1.2 0 .933.115 1.612.345 2.035.23.423.532.635.905.635zM6.6 7v-.68h1.46v-4.7H6.9v-.53a4.93 4.93 0 00.765-.195c.217-.077.412-.168.585-.275h.63v5.7h1.32V7H6.6zm7.67.12c-.647 0-1.15-.287-1.51-.86-.36-.573-.54-1.397-.54-2.47 0-1.073.18-1.89.54-2.45.36-.56.863-.84 1.51-.84.64 0 1.14.28 1.5.84.36.56.54 1.377.54 2.45 0 1.073-.18 1.897-.54 2.47-.36.573-.86.86-1.5.86zm0-.66a.87.87 0 00.505-.155c.15-.103.28-.263.39-.48a3.02 3.02 0 00.255-.83c.06-.337.09-.738.09-1.205 0-.467-.03-.867-.09-1.2a2.868 2.868 0 00-.255-.815c-.11-.21-.24-.365-.39-.465a.89.89 0 00-.505-.15.914.914 0 00-.51.15c-.153.1-.285.255-.395.465-.11.21-.195.482-.255.815-.06.333-.09.733-.09 1.2 0 .933.115 1.612.345 2.035.23.423.532.635.905.635zm4.27.54v-.68H20v-4.7h-1.16v-.53a4.93 4.93 0 00.765-.195c.217-.077.412-.168.585-.275h.63v5.7h1.32V7h-3.6zm7.67.12c-.647 0-1.15-.287-1.51-.86-.36-.573-.54-1.397-.54-2.47 0-1.073.18-1.89.54-2.45.36-.56.863-.84 1.51-.84.64 0 1.14.28 1.5.84.36.56.54 1.377.54 2.45 0 1.073-.18 1.897-.54 2.47-.36.573-.86.86-1.5.86zm0-.66a.87.87 0 00.505-.155c.15-.103.28-.263.39-.48a3.02 3.02 0 00.255-.83c.06-.337.09-.738.09-1.205 0-.467-.03-.867-.09-1.2a2.868 2.868 0 00-.255-.815c-.11-.21-.24-.365-.39-.465a.89.89 0 00-.505-.15.914.914 0 00-.51.15c-.153.1-.285.255-.395.465-.11.21-.195.482-.255.815-.06.333-.09.733-.09 1.2 0 .933.115 1.612.345 2.035.23.423.532.635.905.635zm4.27.54v-.68h1.46v-4.7h-1.16v-.53a4.93 4.93 0 00.765-.195c.217-.077.412-.168.585-.275h.63v5.7h1.32V7h-3.6zM2.33 25.12c-.647 0-1.15-.287-1.51-.86-.36-.573-.54-1.397-.54-2.47 0-1.073.18-1.89.54-2.45.36-.56.863-.84 1.51-.84.64 0 1.14.28 1.5.84.36.56.54 1.377.54 2.45 0 1.073-.18 1.897-.54 2.47-.36.573-.86.86-1.5.86zm0-.66a.87.87 0 00.505-.155c.15-.103.28-.263.39-.48a3.02 3.02 0 00.255-.83c.06-.337.09-.738.09-1.205 0-.467-.03-.867-.09-1.2a2.868 2.868 0 00-.255-.815c-.11-.21-.24-.365-.39-.465a.89.89 0 00-.505-.15.914.914 0 00-.51.15c-.153.1-.285.255-.395.465-.11.21-.195.482-.255.815-.06.333-.09.733-.09 1.2 0 .933.115 1.612.345 2.035.23.423.532.635.905.635zM6.6 25v-.68h1.46v-4.7H6.9v-.53a4.93 4.93 0 00.765-.195c.217-.077.412-.168.585-.275h.63v5.7h1.32V25H6.6zm7.67.12c-.647 0-1.15-.287-1.51-.86-.36-.573-.54-1.397-.54-2.47 0-1.073.18-1.89.54-2.45.36-.56.863-.84 1.51-.84.64 0 1.14.28 1.5.84.36.56.54 1.377.54 2.45 0 1.073-.18 1.897-.54 2.47-.36.573-.86.86-1.5.86zm0-.66a.87.87 0 00.505-.155c.15-.103.28-.263.39-.48a3.02 3.02 0 00.255-.83c.06-.337.09-.738.09-1.205 0-.467-.03-.867-.09-1.2a2.868 2.868 0 00-.255-.815c-.11-.21-.24-.365-.39-.465a.89.89 0 00-.505-.15.914.914 0 00-.51.15c-.153.1-.285.255-.395.465-.11.21-.195.482-.255.815-.06.333-.09.733-.09 1.2 0 .933.115 1.612.345 2.035.23.423.532.635.905.635zm4.27.54v-.68H20v-4.7h-1.16v-.53a4.93 4.93 0 00.765-.195c.217-.077.412-.168.585-.275h.63v5.7h1.32V25h-3.6zm7.67.12c-.647 0-1.15-.287-1.51-.86-.36-.573-.54-1.397-.54-2.47 0-1.073.18-1.89.54-2.45.36-.56.863-.84 1.51-.84.64 0 1.14.28 1.5.84.36.56.54 1.377.54 2.45 0 1.073-.18 1.897-.54 2.47-.36.573-.86.86-1.5.86zm0-.66a.87.87 0 00.505-.155c.15-.103.28-.263.39-.48a3.02 3.02 0 00.255-.83c.06-.337.09-.738.09-1.205 0-.467-.03-.867-.09-1.2a2.868 2.868 0 00-.255-.815c-.11-.21-.24-.365-.39-.465a.89.89 0 00-.505-.15.914.914 0 00-.51.15c-.153.1-.285.255-.395.465-.11.21-.195.482-.255.815-.06.333-.09.733-.09 1.2 0 .933.115 1.612.345 2.035.23.423.532.635.905.635zm4.27.54v-.68h1.46v-4.7h-1.16v-.53a4.93 4.93 0 00.765-.195c.217-.077.412-.168.585-.275h.63v5.7h1.32V25h-3.6zM.63 16v-.68h1.46v-4.7H.93v-.53a4.93 4.93 0 00.765-.195c.217-.077.412-.168.585-.275h.63v5.7h1.32V16H.63zm7.67.12c-.647 0-1.15-.287-1.51-.86-.36-.573-.54-1.397-.54-2.47 0-1.073.18-1.89.54-2.45.36-.56.863-.84 1.51-.84.64 0 1.14.28 1.5.84.36.56.54 1.377.54 2.45 0 1.073-.18 1.897-.54 2.47-.36.573-.86.86-1.5.86zm0-.66a.87.87 0 00.505-.155c.15-.103.28-.263.39-.48a3.02 3.02 0 00.255-.83c.06-.337.09-.738.09-1.205 0-.467-.03-.867-.09-1.2a2.868 2.868 0 00-.255-.815c-.11-.21-.24-.365-.39-.465a.89.89 0 00-.505-.15.914.914 0 00-.51.15c-.153.1-.285.255-.395.465-.11.21-.195.482-.255.815-.06.333-.09.733-.09 1.2 0 .933.115 1.612.345 2.035.23.423.532.635.905.635zm4.27.54v-.68h1.46v-4.7h-1.16v-.53a4.93 4.93 0 00.765-.195c.217-.077.412-.168.585-.275h.63v5.7h1.32V16h-3.6zm7.67.12c-.647 0-1.15-.287-1.51-.86-.36-.573-.54-1.397-.54-2.47 0-1.073.18-1.89.54-2.45.36-.56.863-.84 1.51-.84.64 0 1.14.28 1.5.84.36.56.54 1.377.54 2.45 0 1.073-.18 1.897-.54 2.47-.36.573-.86.86-1.5.86zm0-.66a.87.87 0 00.505-.155c.15-.103.28-.263.39-.48a3.02 3.02 0 00.255-.83c.06-.337.09-.738.09-1.205 0-.467-.03-.867-.09-1.2a2.868 2.868 0 00-.255-.815c-.11-.21-.24-.365-.39-.465a.89.89 0 00-.505-.15.914.914 0 00-.51.15c-.153.1-.285.255-.395.465-.11.21-.195.482-.255.815-.06.333-.09.733-.09 1.2 0 .933.115 1.612.345 2.035.23.423.532.635.905.635zm4.27.54v-.68h1.46v-4.7h-1.16v-.53a4.93 4.93 0 00.765-.195c.217-.077.412-.168.585-.275h.63v5.7h1.32V16h-3.6zm7.67.12c-.647 0-1.15-.287-1.51-.86-.36-.573-.54-1.397-.54-2.47 0-1.073.18-1.89.54-2.45.36-.56.863-.84 1.51-.84.64 0 1.14.28 1.5.84.36.56.54 1.377.54 2.45 0 1.073-.18 1.897-.54 2.47-.36.573-.86.86-1.5.86zm0-.66a.87.87 0 00.505-.155c.15-.103.28-.263.39-.48a3.02 3.02 0 00.255-.83c.06-.337.09-.738.09-1.205 0-.467-.03-.867-.09-1.2a2.868 2.868 0 00-.255-.815c-.11-.21-.24-.365-.39-.465a.89.89 0 00-.505-.15.914.914 0 00-.51.15c-.153.1-.285.255-.395.465-.11.21-.195.482-.255.815-.06.333-.09.733-.09 1.2 0 .933.115 1.612.345 2.035.23.423.532.635.905.635z" fill-rule="evenodd"/></svg>