<?xml version="1.0" encoding="UTF-8"?>
<svg width="35px" height="26px" viewBox="0 0 35 26" version="1.1" xmlns="http://www.w3.org/2000/svg" xmlns:xlink="http://www.w3.org/1999/xlink">
    <!-- Generator: Sketch 49.3 (51167) - http://www.bohemiancoding.com/sketch -->
    <title>0 1 0 1 0 1 1 0 1 0</title>
    <desc>Created with Sketch.</desc>
    <defs></defs>
    <g id="Symbols" stroke="none" stroke-width="1" fill="none" fill-rule="evenodd">
        <g id="0-1-0-1-0-1-1-0-1-0" transform="translate(-1.000000, -1.000000)" fill="#000000">
            <path d="M3.33,8.12 C2.6833301,8.12 2.1800018,7.8333362 1.82,7.26 C1.4599982,6.6866638 1.28,5.8633387 1.28,4.79 C1.28,3.7166613 1.4599982,2.9000028 1.82,2.34 C2.1800018,1.7799972 2.6833301,1.5 3.33,1.5 C3.9700032,1.5 4.4699982,1.7799972 4.83,2.34 C5.1900018,2.9000028 5.37,3.7166613 5.37,4.79 C5.37,5.8633387 5.1900018,6.6866638 4.83,7.26 C4.4699982,7.8333362 3.9700032,8.12 3.33,8.12 Z M3.33,7.46 C3.5166676,7.46 3.68499925,7.40833385 3.835,7.305 C3.98500075,7.20166615 4.11499945,7.04166775 4.225,6.825 C4.33500055,6.60833225 4.4199997,6.33166835 4.48,5.995 C4.5400003,5.65833165 4.57,5.256669 4.57,4.79 C4.57,4.323331 4.5400003,3.923335 4.48,3.59 C4.4199997,3.256665 4.33500055,2.98500105 4.225,2.775 C4.11499945,2.56499895 3.98500075,2.4100005 3.835,2.31 C3.68499925,2.2099995 3.5166676,2.16 3.33,2.16 C3.1433324,2.16 2.9733341,2.2099995 2.82,2.31 C2.6666659,2.4100005 2.53500055,2.56499895 2.425,2.775 C2.31499945,2.98500105 2.2300003,3.256665 2.17,3.59 C2.1099997,3.923335 2.08,4.323331 2.08,4.79 C2.08,5.723338 2.19499885,6.40166455 2.425,6.825 C2.65500115,7.24833545 2.9566648,7.46 3.33,7.46 Z M7.6,8 L7.6,7.32 L9.06,7.32 L9.06,2.62 L7.9,2.62 L7.9,2.09 C8.1933348,2.0366664 8.44833225,1.97166705 8.665,1.895 C8.88166775,1.81833295 9.0766658,1.7266672 9.25,1.62 L9.88,1.62 L9.88,7.32 L11.2,7.32 L11.2,8 L7.6,8 Z M15.27,8.12 C14.6233301,8.12 14.1200018,7.8333362 13.76,7.26 C13.3999982,6.6866638 13.22,5.8633387 13.22,4.79 C13.22,3.7166613 13.3999982,2.9000028 13.76,2.34 C14.1200018,1.7799972 14.6233301,1.5 15.27,1.5 C15.9100032,1.5 16.4099982,1.7799972 16.77,2.34 C17.1300018,2.9000028 17.31,3.7166613 17.31,4.79 C17.31,5.8633387 17.1300018,6.6866638 16.77,7.26 C16.4099982,7.8333362 15.9100032,8.12 15.27,8.12 Z M15.27,7.46 C15.4566676,7.46 15.6249993,7.40833385 15.775,7.305 C15.9250008,7.20166615 16.0549995,7.04166775 16.165,6.825 C16.2750006,6.60833225 16.3599997,6.33166835 16.42,5.995 C16.4800003,5.65833165 16.51,5.256669 16.51,4.79 C16.51,4.323331 16.4800003,3.923335 16.42,3.59 C16.3599997,3.256665 16.2750006,2.98500105 16.165,2.775 C16.0549995,2.56499895 15.9250008,2.4100005 15.775,2.31 C15.6249993,2.2099995 15.4566676,2.16 15.27,2.16 C15.0833324,2.16 14.9133341,2.2099995 14.76,2.31 C14.6066659,2.4100005 14.4750006,2.56499895 14.365,2.775 C14.2549995,2.98500105 14.1700003,3.256665 14.11,3.59 C14.0499997,3.923335 14.02,4.323331 14.02,4.79 C14.02,5.723338 14.1349989,6.40166455 14.365,6.825 C14.5950012,7.24833545 14.8966648,7.46 15.27,7.46 Z M19.54,8 L19.54,7.32 L21,7.32 L21,2.62 L19.84,2.62 L19.84,2.09 C20.1333348,2.0366664 20.3883323,1.97166705 20.605,1.895 C20.8216678,1.81833295 21.0166658,1.7266672 21.19,1.62 L21.82,1.62 L21.82,7.32 L23.14,7.32 L23.14,8 L19.54,8 Z M27.21,8.12 C26.5633301,8.12 26.0600018,7.8333362 25.7,7.26 C25.3399982,6.6866638 25.16,5.8633387 25.16,4.79 C25.16,3.7166613 25.3399982,2.9000028 25.7,2.34 C26.0600018,1.7799972 26.5633301,1.5 27.21,1.5 C27.8500032,1.5 28.3499982,1.7799972 28.71,2.34 C29.0700018,2.9000028 29.25,3.7166613 29.25,4.79 C29.25,5.8633387 29.0700018,6.6866638 28.71,7.26 C28.3499982,7.8333362 27.8500032,8.12 27.21,8.12 Z M27.21,7.46 C27.3966676,7.46 27.5649992,7.40833385 27.715,7.305 C27.8650007,7.20166615 27.9949994,7.04166775 28.105,6.825 C28.2150005,6.60833225 28.2999997,6.33166835 28.36,5.995 C28.4200003,5.65833165 28.45,5.256669 28.45,4.79 C28.45,4.323331 28.4200003,3.923335 28.36,3.59 C28.2999997,3.256665 28.2150005,2.98500105 28.105,2.775 C27.9949994,2.56499895 27.8650007,2.4100005 27.715,2.31 C27.5649992,2.2099995 27.3966676,2.16 27.21,2.16 C27.0233324,2.16 26.8533341,2.2099995 26.7,2.31 C26.5466659,2.4100005 26.4150006,2.56499895 26.305,2.775 C26.1949994,2.98500105 26.1100003,3.256665 26.05,3.59 C25.9899997,3.923335 25.96,4.323331 25.96,4.79 C25.96,5.723338 26.0749989,6.40166455 26.305,6.825 C26.5350011,7.24833545 26.8366648,7.46 27.21,7.46 Z M31.48,8 L31.48,7.32 L32.94,7.32 L32.94,2.62 L31.78,2.62 L31.78,2.09 C32.0733348,2.0366664 32.3283322,1.97166705 32.545,1.895 C32.7616677,1.81833295 32.9566658,1.7266672 33.13,1.62 L33.76,1.62 L33.76,7.32 L35.08,7.32 L35.08,8 L31.48,8 Z M3.33,26.12 C2.6833301,26.12 2.1800018,25.8333362 1.82,25.26 C1.4599982,24.6866638 1.28,23.8633387 1.28,22.79 C1.28,21.7166613 1.4599982,20.9000028 1.82,20.34 C2.1800018,19.7799972 2.6833301,19.5 3.33,19.5 C3.9700032,19.5 4.4699982,19.7799972 4.83,20.34 C5.1900018,20.9000028 5.37,21.7166613 5.37,22.79 C5.37,23.8633387 5.1900018,24.6866638 4.83,25.26 C4.4699982,25.8333362 3.9700032,26.12 3.33,26.12 Z M3.33,25.46 C3.5166676,25.46 3.68499925,25.4083339 3.835,25.305 C3.98500075,25.2016661 4.11499945,25.0416677 4.225,24.825 C4.33500055,24.6083323 4.4199997,24.3316684 4.48,23.995 C4.5400003,23.6583317 4.57,23.256669 4.57,22.79 C4.57,22.323331 4.5400003,21.923335 4.48,21.59 C4.4199997,21.256665 4.33500055,20.9850011 4.225,20.775 C4.11499945,20.5649989 3.98500075,20.4100005 3.835,20.31 C3.68499925,20.2099995 3.5166676,20.16 3.33,20.16 C3.1433324,20.16 2.9733341,20.2099995 2.82,20.31 C2.6666659,20.4100005 2.53500055,20.5649989 2.425,20.775 C2.31499945,20.9850011 2.2300003,21.256665 2.17,21.59 C2.1099997,21.923335 2.08,22.323331 2.08,22.79 C2.08,23.723338 2.19499885,24.4016645 2.425,24.825 C2.65500115,25.2483354 2.9566648,25.46 3.33,25.46 Z M7.6,26 L7.6,25.32 L9.06,25.32 L9.06,20.62 L7.9,20.62 L7.9,20.09 C8.1933348,20.0366664 8.44833225,19.9716671 8.665,19.895 C8.88166775,19.8183329 9.0766658,19.7266672 9.25,19.62 L9.88,19.62 L9.88,25.32 L11.2,25.32 L11.2,26 L7.6,26 Z M15.27,26.12 C14.6233301,26.12 14.1200018,25.8333362 13.76,25.26 C13.3999982,24.6866638 13.22,23.8633387 13.22,22.79 C13.22,21.7166613 13.3999982,20.9000028 13.76,20.34 C14.1200018,19.7799972 14.6233301,19.5 15.27,19.5 C15.9100032,19.5 16.4099982,19.7799972 16.77,20.34 C17.1300018,20.9000028 17.31,21.7166613 17.31,22.79 C17.31,23.8633387 17.1300018,24.6866638 16.77,25.26 C16.4099982,25.8333362 15.9100032,26.12 15.27,26.12 Z M15.27,25.46 C15.4566676,25.46 15.6249993,25.4083339 15.775,25.305 C15.9250008,25.2016661 16.0549995,25.0416677 16.165,24.825 C16.2750006,24.6083323 16.3599997,24.3316684 16.42,23.995 C16.4800003,23.6583317 16.51,23.256669 16.51,22.79 C16.51,22.323331 16.4800003,21.923335 16.42,21.59 C16.3599997,21.256665 16.2750006,20.9850011 16.165,20.775 C16.0549995,20.5649989 15.9250008,20.4100005 15.775,20.31 C15.6249993,20.2099995 15.4566676,20.16 15.27,20.16 C15.0833324,20.16 14.9133341,20.2099995 14.76,20.31 C14.6066659,20.4100005 14.4750006,20.5649989 14.365,20.775 C14.2549995,20.9850011 14.1700003,21.256665 14.11,21.59 C14.0499997,21.923335 14.02,22.323331 14.02,22.79 C14.02,23.723338 14.1349989,24.4016645 14.365,24.825 C14.5950012,25.2483354 14.8966648,25.46 15.27,25.46 Z M19.54,26 L19.54,25.32 L21,25.32 L21,20.62 L19.84,20.62 L19.84,20.09 C20.1333348,20.0366664 20.3883323,19.9716671 20.605,19.895 C20.8216678,19.8183329 21.0166658,19.7266672 21.19,19.62 L21.82,19.62 L21.82,25.32 L23.14,25.32 L23.14,26 L19.54,26 Z M27.21,26.12 C26.5633301,26.12 26.0600018,25.8333362 25.7,25.26 C25.3399982,24.6866638 25.16,23.8633387 25.16,22.79 C25.16,21.7166613 25.3399982,20.9000028 25.7,20.34 C26.0600018,19.7799972 26.5633301,19.5 27.21,19.5 C27.8500032,19.5 28.3499982,19.7799972 28.71,20.34 C29.0700018,20.9000028 29.25,21.7166613 29.25,22.79 C29.25,23.8633387 29.0700018,24.6866638 28.71,25.26 C28.3499982,25.8333362 27.8500032,26.12 27.21,26.12 Z M27.21,25.46 C27.3966676,25.46 27.5649992,25.4083339 27.715,25.305 C27.8650007,25.2016661 27.9949994,25.0416677 28.105,24.825 C28.2150005,24.6083323 28.2999997,24.3316684 28.36,23.995 C28.4200003,23.6583317 28.45,23.256669 28.45,22.79 C28.45,22.323331 28.4200003,21.923335 28.36,21.59 C28.2999997,21.256665 28.2150005,20.9850011 28.105,20.775 C27.9949994,20.5649989 27.8650007,20.4100005 27.715,20.31 C27.5649992,20.2099995 27.3966676,20.16 27.21,20.16 C27.0233324,20.16 26.8533341,20.2099995 26.7,20.31 C26.5466659,20.4100005 26.4150005,20.5649989 26.305,20.775 C26.1949994,20.9850011 26.1100003,21.256665 26.05,21.59 C25.9899997,21.923335 25.96,22.323331 25.96,22.79 C25.96,23.723338 26.0749988,24.4016645 26.305,24.825 C26.5350011,25.2483354 26.8366648,25.46 27.21,25.46 Z M31.48,26 L31.48,25.32 L32.94,25.32 L32.94,20.62 L31.78,20.62 L31.78,20.09 C32.0733348,20.0366664 32.3283322,19.9716671 32.545,19.895 C32.7616677,19.8183329 32.9566658,19.7266672 33.13,19.62 L33.76,19.62 L33.76,25.32 L35.08,25.32 L35.08,26 L31.48,26 Z M1.63,17 L1.63,16.32 L3.09,16.32 L3.09,11.62 L1.93,11.62 L1.93,11.09 C2.2233348,11.0366664 2.47833225,10.9716671 2.695,10.895 C2.91166775,10.8183329 3.1066658,10.7266672 3.28,10.62 L3.91,10.62 L3.91,16.32 L5.23,16.32 L5.23,17 L1.63,17 Z M9.3,17.12 C8.6533301,17.12 8.1500018,16.8333362 7.79,16.26 C7.4299982,15.6866638 7.25,14.8633387 7.25,13.79 C7.25,12.7166613 7.4299982,11.9000028 7.79,11.34 C8.1500018,10.7799972 8.6533301,10.5 9.3,10.5 C9.9400032,10.5 10.4399982,10.7799972 10.8,11.34 C11.1600018,11.9000028 11.34,12.7166613 11.34,13.79 C11.34,14.8633387 11.1600018,15.6866638 10.8,16.26 C10.4399982,16.8333362 9.9400032,17.12 9.3,17.12 Z M9.3,16.46 C9.4866676,16.46 9.65499925,16.4083338 9.805,16.305 C9.95500075,16.2016662 10.0849994,16.0416678 10.195,15.825 C10.3050005,15.6083323 10.3899997,15.3316684 10.45,14.995 C10.5100003,14.6583317 10.54,14.256669 10.54,13.79 C10.54,13.323331 10.5100003,12.923335 10.45,12.59 C10.3899997,12.256665 10.3050005,11.9850011 10.195,11.775 C10.0849994,11.5649989 9.95500075,11.4100005 9.805,11.31 C9.65499925,11.2099995 9.4866676,11.16 9.3,11.16 C9.1133324,11.16 8.9433341,11.2099995 8.79,11.31 C8.6366659,11.4100005 8.50500055,11.5649989 8.395,11.775 C8.28499945,11.9850011 8.2000003,12.256665 8.14,12.59 C8.0799997,12.923335 8.05,13.323331 8.05,13.79 C8.05,14.723338 8.16499885,15.4016645 8.395,15.825 C8.62500115,16.2483354 8.9266648,16.46 9.3,16.46 Z M13.57,17 L13.57,16.32 L15.03,16.32 L15.03,11.62 L13.87,11.62 L13.87,11.09 C14.1633348,11.0366664 14.4183322,10.9716671 14.635,10.895 C14.8516677,10.8183329 15.0466658,10.7266672 15.22,10.62 L15.85,10.62 L15.85,16.32 L17.17,16.32 L17.17,17 L13.57,17 Z M21.24,17.12 C20.5933301,17.12 20.0900018,16.8333362 19.73,16.26 C19.3699982,15.6866638 19.19,14.8633387 19.19,13.79 C19.19,12.7166613 19.3699982,11.9000028 19.73,11.34 C20.0900018,10.7799972 20.5933301,10.5 21.24,10.5 C21.8800032,10.5 22.3799982,10.7799972 22.74,11.34 C23.1000018,11.9000028 23.28,12.7166613 23.28,13.79 C23.28,14.8633387 23.1000018,15.6866638 22.74,16.26 C22.3799982,16.8333362 21.8800032,17.12 21.24,17.12 Z M21.24,16.46 C21.4266676,16.46 21.5949993,16.4083338 21.745,16.305 C21.8950007,16.2016662 22.0249994,16.0416678 22.135,15.825 C22.2450006,15.6083323 22.3299997,15.3316684 22.39,14.995 C22.4500003,14.6583317 22.48,14.256669 22.48,13.79 C22.48,13.323331 22.4500003,12.923335 22.39,12.59 C22.3299997,12.256665 22.2450006,11.9850011 22.135,11.775 C22.0249994,11.5649989 21.8950007,11.4100005 21.745,11.31 C21.5949993,11.2099995 21.4266676,11.16 21.24,11.16 C21.0533324,11.16 20.8833341,11.2099995 20.73,11.31 C20.5766659,11.4100005 20.4450005,11.5649989 20.335,11.775 C20.2249994,11.9850011 20.1400003,12.256665 20.08,12.59 C20.0199997,12.923335 19.99,13.323331 19.99,13.79 C19.99,14.723338 20.1049989,15.4016645 20.335,15.825 C20.5650012,16.2483354 20.8666648,16.46 21.24,16.46 Z M25.51,17 L25.51,16.32 L26.97,16.32 L26.97,11.62 L25.81,11.62 L25.81,11.09 C26.1033348,11.0366664 26.3583323,10.9716671 26.575,10.895 C26.7916678,10.8183329 26.9866658,10.7266672 27.16,10.62 L27.79,10.62 L27.79,16.32 L29.11,16.32 L29.11,17 L25.51,17 Z M33.18,17.12 C32.5333301,17.12 32.0300018,16.8333362 31.67,16.26 C31.3099982,15.6866638 31.13,14.8633387 31.13,13.79 C31.13,12.7166613 31.3099982,11.9000028 31.67,11.34 C32.0300018,10.7799972 32.5333301,10.5 33.18,10.5 C33.8200032,10.5 34.3199982,10.7799972 34.68,11.34 C35.0400018,11.9000028 35.22,12.7166613 35.22,13.79 C35.22,14.8633387 35.0400018,15.6866638 34.68,16.26 C34.3199982,16.8333362 33.8200032,17.12 33.18,17.12 Z M33.18,16.46 C33.3666676,16.46 33.5349992,16.4083338 33.685,16.305 C33.8350007,16.2016662 33.9649995,16.0416678 34.075,15.825 C34.1850005,15.6083323 34.2699997,15.3316684 34.33,14.995 C34.3900003,14.6583317 34.42,14.256669 34.42,13.79 C34.42,13.323331 34.3900003,12.923335 34.33,12.59 C34.2699997,12.256665 34.1850005,11.9850011 34.075,11.775 C33.9649995,11.5649989 33.8350007,11.4100005 33.685,11.31 C33.5349992,11.2099995 33.3666676,11.16 33.18,11.16 C32.9933324,11.16 32.8233341,11.2099995 32.67,11.31 C32.5166659,11.4100005 32.3850006,11.5649989 32.275,11.775 C32.1649994,11.9850011 32.0800003,12.256665 32.02,12.59 C31.9599997,12.923335 31.93,13.323331 31.93,13.79 C31.93,14.723338 32.0449988,15.4016645 32.275,15.825 C32.5050011,16.2483354 32.8066648,16.46 33.18,16.46 Z"></path>
        </g>
    </g>
</svg>
