<svg width="13" height="13" xmlns="http://www.w3.org/2000/svg"><path d="M12.56 8.76 9.8 6V1.558a.555.555 0 0 0-.551-.552H7.317V.562A.555.555 0 0 0 6.765.01H3.038a.555.555 0 0 0-.552.552v.443H.552A.555.555 0 0 0 0 1.557v10.875c0 .302.25.552.552.552h8.694c.302 0 .552-.25.552-.552v-.804c.984.822 2.098.14 2.539-.273.774-.772.883-1.932.223-2.595ZM3.59 1.087h2.62v.94H3.59v-.94Zm-2.513 10.82V2.108h1.409v.44c0 .302.25.552.552.552h3.725c.276 0 .525-.25.551-.525v-.467h1.38V5.17L6.32 4.733c-.173-.072-.661.047-.608.607l.47 2.539c0 .111.055.194.138.276l2.374 2.374v1.38H1.077v-.003Zm10.488-1.324c-.22.193-.687.496-1.077.22L7.206 7.518l-.303-1.6 1.574.303 3.31 3.31c.192.195.165.664-.222 1.052Z" fill="#FFF"/></svg>