<svg width="12" height="14" xmlns="http://www.w3.org/2000/svg"><path d="M9 0H3.864c-.906 0-1.712.849-1.712 1.749l-.494.011c-.905 0-1.645.837-1.645 1.737v8.743c0 .9.806 1.749 1.711 1.749h6.419c.905 0 1.711-.849 1.711-1.749h.428c.905 0 1.711-.848 1.711-1.749V3.508L9 0zm-.856 13.114H1.725c-.449 0-.855-.429-.855-.874V3.497c0-.445.366-.86.815-.86l.468-.014v7.868c0 .9.806 1.749 1.712 1.749h5.134c0 .445-.406.874-.855.874zm2.995-2.623c0 .446-.407.875-.856.875H3.865c-.45 0-.856-.43-.856-.875V1.75c0-.446.407-.875.856-.875h4.279c-.007 1.007 0 1.76 0 1.76 0 .908.8 1.737 1.711 1.737h1.284v6.12zM9.855 3.497c-.456 0-.856-.846-.856-1.3V.888l2.14 2.61H9.855zm-.856 2.63H5.15a.432.432 0 00-.428.438c0 .24.191.436.427.436H9a.432.432 0 00.428-.436A.432.432 0 009 6.128zm0 2.184H5.15a.432.432 0 00-.428.437c0 .241.191.437.427.437H9a.432.432 0 00.428-.437A.432.432 0 009 8.311z" fill="#FFF"/></svg>