<svg width="31" height="31" xmlns="http://www.w3.org/2000/svg"><g transform="translate(1 1)" fill="none" fill-rule="evenodd"><circle stroke="#FFF" stroke-width="2" cx="14.5" cy="14.5" r="14.5"/><path d="M6 5l17 20" stroke="#FFF" stroke-width="2" stroke-linecap="square"/><path d="M15.988 17.139l-1.536-1.537 1.084-1.085c1.92 1.036 4.357.764 5.98-.858a5.077 5.077 0 000-7.173 5.07 5.07 0 00-7.172 0c-1.62 1.622-1.891 4.062-.856 5.982l-7.066 7.071a1.456 1.456 0 000 2.05c.26.261.614.432 1.096.432.482 0 .644-.156.982-.48.338-.325.443-.446.83-.813l1.536 1.537a.724.724 0 001.025 0l1.024-1.024a.724.724 0 000-1.025l-1.537-1.537 1.025-1.028 1.537 1.54a.724.724 0 001.024 0l1.024-1.025a.728.728 0 000-1.027zm.39-8.587a2.18 2.18 0 013.079 0 2.178 2.178 0 010 3.074 2.183 2.183 0 01-3.078 0 2.178 2.178 0 010-3.074z" fill="#FFF" fill-rule="nonzero"/></g></svg>