<svg width="105" height="100" xmlns="http://www.w3.org/2000/svg"><g fill="none" fill-rule="evenodd"><circle fill="#E7E7E7" fill-rule="nonzero" cx="54.078" cy="54.922" r="44.922"/><path fill="#183651" fill-rule="nonzero" d="M47.154 24h31.154v3.091H47.154zm51.029 15.555V72.17H19.287V37.636H16v39.426c0 4.496 3.687 8.154 8.218 8.154h9.862v6.523h-6.574V95h62.458v-3.261H83.39v-6.523h9.862c4.531 0 8.218-3.658 8.218-8.154V39.555h-3.287zm-18.08 52.184H37.366v-6.523h42.735v6.523zm13.149-9.785H24.218c-2.718 0-4.93-2.195-4.93-4.892v-1.63h78.895v1.63c0 2.697-2.213 4.892-4.931 4.892z"/><rect stroke="#183651" stroke-width="2" fill="#3283C8" x="76" y="19" width="28" height="22" rx="2"/><rect stroke="#183651" stroke-width="2" fill="#3283C8" x="6" y="3" width="40" height="34" rx="2"/><path fill="#FFF" fill-rule="nonzero" d="M12 9h3.111v3.111H12zm6.222 0H40v3.111H18.222zm18.667 18.667H40v3.111h-3.111zm-24.889 0h21.778v3.111H12zm0-6.223h28v3.111H12zm0-6.222h28v3.111H12zm70.444 10.111h3.111v3.111h-3.111zm6.223 0H98v3.111h-9.333zm6.222 6.223H98v3.111h-3.111zm-12.445 0h9.333v3.111h-9.333z"/><rect fill="#05B8EE" y="44" width="27.871" height="22" rx="2"/><path fill="#FFF" fill-rule="nonzero" d="M6 50.667h3.111v3.111H6zm6.222 0h9.333v3.111h-9.333zm6.222 6.222h3.111V60h-3.111zM6 56.889h9.333V60H6z"/><rect fill="#FFF" x="55" y="37" width="27.871" height="27.818" rx="2"/><path fill="#183651" fill-rule="nonzero" d="M61.333 43.444h15.556v3.111H61.333zm0 6.223h15.556v3.111H61.333zm0 6.222h15.556V59H61.333zM24 90h-3v-3h3zm-8 0h-3v-3h3zm-9 0H4v-3h3zm43-27h-3v-3h3zm-8 0h-3v-3h3zm-9 0h-3v-3h3z"/><rect fill="#05B8EE" x="61" width="24.902" height="14.914" rx="2"/><path fill="#FFF" fill-rule="nonzero" d="M67 6h12v3H67z"/></g></svg>