<?xml version="1.0" encoding="UTF-8"?>
<svg width="105px" height="100px" viewBox="0 0 105 100" version="1.1" xmlns="http://www.w3.org/2000/svg" xmlns:xlink="http://www.w3.org/1999/xlink">
    <!-- Generator: Sketch 50 (54983) - http://www.bohemiancoding.com/sketch -->
    <title>explore</title>
    <desc>Created with Sketch.</desc>
    <defs></defs>
    <g id="Welcome" stroke="none" stroke-width="1" fill="none" fill-rule="evenodd">
        <g id="1-index-1440" transform="translate(-823.000000, -526.000000)">
            <g id="explore" transform="translate(823.000000, 526.000000)">
                <g id="Group-14">
                    <circle id="Oval" fill="#E7E7E7" fill-rule="nonzero" cx="54.0780594" cy="54.9219406" r="44.9219406"></circle>
                    <rect id="Rectangle-path" fill="#183651" fill-rule="nonzero" x="47.1538462" y="24" width="31.1538462" height="3.09090909"></rect>
                    <path d="M98.1825958,39.5548799 L98.1825958,72.1696564 L19.2873038,72.1696564 L19.2873038,37.6363636 L16,37.6363636 L16,77.0618729 C16,81.5578199 19.6867112,85.215567 24.2182596,85.215567 L34.0801711,85.215567 L34.0801711,91.7385223 L27.5055634,91.7385223 L27.5055634,95 L89.9643362,95 L89.9643362,91.7385223 L83.3897286,91.7385223 L83.3897286,85.215567 L93.2516401,85.215567 C97.7831884,85.215567 101.4699,81.5578199 101.4699,77.0618729 L101.4699,39.5548799 L98.1825958,39.5548799 Z M80.1024247,91.7385223 L37.3674749,91.7385223 L37.3674749,85.215567 L80.1024247,85.215567 L80.1024247,91.7385223 Z M93.2516401,81.9540894 L24.2182596,81.9540894 C21.4996593,81.9540894 19.2873038,79.7591149 19.2873038,77.0618729 L19.2873038,75.4311341 L98.1825958,75.4311341 L98.1825958,77.0618729 C98.1825958,79.7591149 95.9702404,81.9540894 93.2516401,81.9540894 Z" id="Shape" fill="#183651" fill-rule="nonzero"></path>
                    <rect id="Rectangle-3" stroke="#183651" stroke-width="2" fill="#3283C8" x="76" y="19" width="28" height="22" rx="2"></rect>
                    <rect id="Rectangle-3" stroke="#183651" stroke-width="2" fill="#3283C8" x="6" y="3" width="40" height="34" rx="2"></rect>
                    <rect id="Rectangle-path" fill="#FFFFFF" fill-rule="nonzero" x="12" y="9" width="3.11111111" height="3.11111111"></rect>
                    <rect id="Rectangle-path" fill="#FFFFFF" fill-rule="nonzero" x="18.2222222" y="9" width="21.7777778" height="3.11111111"></rect>
                    <rect id="Rectangle-path" fill="#FFFFFF" fill-rule="nonzero" x="36.8888889" y="27.6666667" width="3.11111111" height="3.11111111"></rect>
                    <rect id="Rectangle-path" fill="#FFFFFF" fill-rule="nonzero" x="12" y="27.6666667" width="21.7777778" height="3.11111111"></rect>
                    <rect id="Rectangle-path" fill="#FFFFFF" fill-rule="nonzero" x="12" y="21.4444444" width="28" height="3.11111111"></rect>
                    <rect id="Rectangle-path" fill="#FFFFFF" fill-rule="nonzero" x="12" y="15.2222222" width="28" height="3.11111111"></rect>
                    <rect id="Rectangle-path" fill="#FFFFFF" fill-rule="nonzero" x="82.4444444" y="25.3333333" width="3.11111111" height="3.11111111"></rect>
                    <rect id="Rectangle-path" fill="#FFFFFF" fill-rule="nonzero" x="88.6666667" y="25.3333333" width="9.33333333" height="3.11111111"></rect>
                    <rect id="Rectangle-path" fill="#FFFFFF" fill-rule="nonzero" x="94.8888889" y="31.5555556" width="3.11111111" height="3.11111111"></rect>
                    <rect id="Rectangle-path" fill="#FFFFFF" fill-rule="nonzero" x="82.4444444" y="31.5555556" width="9.33333333" height="3.11111111"></rect>
                    <rect id="Rectangle-3" fill="#05B8EE" x="0" y="44" width="27.8709677" height="22" rx="2"></rect>
                    <rect id="Rectangle-path" fill="#FFFFFF" fill-rule="nonzero" x="6" y="50.6666667" width="3.11111111" height="3.11111111"></rect>
                    <rect id="Rectangle-path" fill="#FFFFFF" fill-rule="nonzero" x="12.2222222" y="50.6666667" width="9.33333333" height="3.11111111"></rect>
                    <rect id="Rectangle-path" fill="#FFFFFF" fill-rule="nonzero" x="18.4444444" y="56.8888889" width="3.11111111" height="3.11111111"></rect>
                    <rect id="Rectangle-path" fill="#FFFFFF" fill-rule="nonzero" x="6" y="56.8888889" width="9.33333333" height="3.11111111"></rect>
                    <rect id="Rectangle-3" fill="#FFFFFF" x="55" y="37" width="27.8709677" height="27.8181818" rx="2"></rect>
                    <rect id="Rectangle-path" fill="#183651" fill-rule="nonzero" x="61.3333333" y="43.4444444" width="15.5555556" height="3.11111111"></rect>
                    <rect id="Rectangle-path" fill="#183651" fill-rule="nonzero" x="61.3333333" y="49.6666667" width="15.5555556" height="3.11111111"></rect>
                    <rect id="Rectangle-path" fill="#183651" fill-rule="nonzero" x="61.3333333" y="55.8888889" width="15.5555556" height="3.11111111"></rect>
                    <g id="Group-3" transform="translate(4.000000, 87.000000)" fill="#183651" fill-rule="nonzero">
                        <rect id="Rectangle-path" transform="translate(18.500000, 1.500000) rotate(-180.000000) translate(-18.500000, -1.500000) " x="17" y="0" width="3" height="3"></rect>
                        <rect id="Rectangle-path" transform="translate(10.500000, 1.500000) rotate(-180.000000) translate(-10.500000, -1.500000) " x="9" y="0" width="3" height="3"></rect>
                        <rect id="Rectangle-path" transform="translate(1.500000, 1.500000) rotate(-180.000000) translate(-1.500000, -1.500000) " x="0" y="0" width="3" height="3"></rect>
                    </g>
                    <rect id="Rectangle-path" fill="#183651" fill-rule="nonzero" transform="translate(48.500000, 61.500000) rotate(-180.000000) translate(-48.500000, -61.500000) " x="47" y="60" width="3" height="3"></rect>
                    <rect id="Rectangle-path" fill="#183651" fill-rule="nonzero" transform="translate(40.500000, 61.500000) rotate(-180.000000) translate(-40.500000, -61.500000) " x="39" y="60" width="3" height="3"></rect>
                    <rect id="Rectangle-path" fill="#183651" fill-rule="nonzero" transform="translate(31.500000, 61.500000) rotate(-180.000000) translate(-31.500000, -61.500000) " x="30" y="60" width="3" height="3"></rect>
                    <rect id="Rectangle-3" fill="#05B8EE" x="61" y="0" width="24.9022711" height="14.9137375" rx="2"></rect>
                    <rect id="Rectangle-path" fill="#FFFFFF" fill-rule="nonzero" x="67" y="6" width="12" height="3"></rect>
                </g>
            </g>
        </g>
    </g>
</svg>
