<svg width="90" height="90" xmlns="http://www.w3.org/2000/svg"><g fill="none"><path d="M44.922 89.844C20.215 89.844 0 69.629 0 44.922 0 20.215 20.215 0 44.922 0c24.707 0 44.922 20.215 44.922 44.922 0 24.707-20.215 44.922-44.922 44.922z" fill="#E7E7E7"/><path fill="#FFF" d="M61.935 56.81l-5.062 5.062-7.445-7.445 5.062-5.062z"/><path d="M56.854 63.312c-.421 0-.702-.14-.983-.421l-7.58-7.44a1.357 1.357 0 010-1.966l5.054-5.054a1.357 1.357 0 011.965 0l7.44 7.44a1.357 1.357 0 010 1.966l-5.053 5.054c-.14.28-.562.42-.843.42zm-5.475-8.844l5.475 5.475 3.088-3.089-5.474-5.475-3.089 3.089z" fill="#183651"/><path d="M63.733 54.889l-8.704 8.704 18.952 21.899c3.088 3.65 8.703 3.79 12.072.421 3.37-3.37 3.23-8.984-.42-12.073l-21.9-18.951z" fill="#3283C8"/><path d="M72.858 86.474L53.906 64.716a1.687 1.687 0 010-1.966l8.704-8.703a1.357 1.357 0 011.965 0l21.9 18.951c4.211 3.65 4.492 10.248.42 14.178-3.93 3.79-10.388 3.51-14.037-.702zM56.854 63.733l18.11 20.917c2.526 2.948 7.159 3.228 10.107.28 2.807-2.807 2.667-7.44-.281-10.107L63.733 56.854l-6.879 6.879z" fill="#183651"/><circle fill="#FFF" cx="34.393" cy="34.393" r="28.638"/><path d="M34.393 64.435c-16.705 0-30.182-13.477-30.182-30.042S17.688 4.352 34.253 4.352s30.182 13.476 30.182 30.182c0 16.424-13.477 29.9-30.042 29.9zm0-57.416c-7.3 0-14.178 2.808-19.372 8.002-5.194 5.194-8.002 12.073-8.002 19.372 0 15.021 12.213 27.375 27.234 27.375v1.403-1.403c15.02 0 27.234-12.213 27.234-27.234.14-15.302-12.073-27.515-27.094-27.515z" fill="#183651"/><path d="M34.393 56.714c-12.353 0-22.46-10.108-22.46-22.461 0-12.354 10.107-22.461 22.46-22.461 12.354 0 22.461 10.107 22.461 22.46-.14 12.495-10.107 22.462-22.46 22.462z" fill="#05B8EE"/><path d="M49.414 35.797c-.842 0-1.404-.561-1.404-1.404 0-7.44-6.176-13.617-13.617-13.617-.842 0-1.403-.561-1.403-1.403 0-.843.561-1.404 1.403-1.404 9.125 0 16.425 7.44 16.425 16.424 0 .702-.702 1.404-1.404 1.404z" fill="#FFF"/><path d="M67.728 69.624l-1.985-1.986 1.985-1.985 1.986 1.985zm5.829 5.92l-1.985-1.987 1.987-1.984 1.984 1.986zm5.829 5.925L77.4 79.483l1.986-1.985 1.985 1.985z" fill="#183651"/></g></svg>