<svg width="90" height="90" xmlns="http://www.w3.org/2000/svg"><g fill="none"><circle fill="#E7E7E7" cx="44.922" cy="44.922" r="44.922"/><g fill="#183651"><path d="M60.785 34.815h2.808v2.808h-2.808zm8.563 0h2.808v2.808h-2.808zm8.423 0h2.808v2.808h-2.808zM9.265 52.222h2.808v2.808H9.265zm8.423 0h2.808v2.808h-2.808zm8.563 0h2.808v2.808h-2.808zm-.141-40.57l-1.965-1.966 2.527-2.667-2.527-2.667 1.966-1.965 4.632 4.632z"/><path d="M19.934 5.615h8.704v2.808h-8.704z"/></g><path fill="#3283C8" d="M35.657 77.069h18.53V88.44h-18.53z"/><path d="M54.187 89.844h-18.53c-.843 0-1.404-.562-1.404-1.404V77.069c0-.842.561-1.404 1.404-1.404h18.53c.842 0 1.404.562 1.404 1.404v11.37c0 .843-.562 1.405-1.404 1.405zm-17.126-2.808h15.722v-8.563H37.061v8.563z" fill="#183651"/><path fill="#FFF" d="M35.657 58.118h18.53v11.371h-18.53z"/><path d="M54.187 70.892h-18.53c-.843 0-1.404-.561-1.404-1.403V58.118c0-.843.561-1.404 1.404-1.404h18.53c.842 0 1.404.561 1.404 1.404v11.37c0 .843-.562 1.404-1.404 1.404zm-17.126-2.807h15.722v-8.563H37.061v8.563z" fill="#183651"/><path fill="#3283C8" d="M35.657 39.307h18.53v11.371h-18.53z"/><path d="M54.187 51.94h-18.53c-.843 0-1.404-.56-1.404-1.403v-11.37c0-.843.561-1.405 1.404-1.405h18.53c.842 0 1.404.562 1.404 1.404v11.371c0 .842-.562 1.404-1.404 1.404zm-17.126-2.807h15.722V40.57H37.061v8.563z" fill="#183651"/><path fill="#FFF" d="M35.657 20.355h18.53v11.371h-18.53z"/><path d="M54.187 33.13h-18.53c-.843 0-1.404-.562-1.404-1.404v-11.37c0-.843.561-1.405 1.404-1.405h18.53c.842 0 1.404.562 1.404 1.404v11.371c0 .702-.562 1.404-1.404 1.404zm-17.126-2.808h15.722V21.76H37.061v8.563z" fill="#183651"/><path fill="#3283C8" d="M35.657 1.404h18.53v11.371h-18.53z"/><g fill="#183651"><path d="M54.187 14.178h-18.53c-.843 0-1.404-.561-1.404-1.403V1.404c0-.842.561-1.404 1.404-1.404h18.53c.842 0 1.404.562 1.404 1.404v11.37c0 .702-.562 1.404-1.404 1.404zm-17.126-2.807h15.722V2.808H37.061v8.563zm23.303 75.525l-1.966-1.966 2.527-2.527-2.527-2.667 1.966-1.965 4.492 4.632z"/><path d="M54.187 81h8.704v2.808h-8.704zm-26.953 5.334l-2.106-1.965 2.667-2.667-2.667-2.668 2.106-1.965 4.492 4.633z"/><path d="M29.62 83.105H11.37A10.365 10.365 0 01.984 72.717c0-5.755 4.773-10.248 10.528-10.248h24.146v2.808H11.51a7.549 7.549 0 00-7.58 7.58 7.55 7.55 0 007.58 7.581h18.25v2.667h-.14zm-2.386-34.674l-2.106-1.965 2.667-2.527-2.667-2.667 2.106-1.965 4.492 4.632z"/><path d="M29.62 45.343H11.37A10.365 10.365 0 01.984 34.955c0-5.756 4.773-10.388 10.528-10.388h24.146v2.807H11.51a7.549 7.549 0 00-7.58 7.58 7.55 7.55 0 007.58 7.581h18.25v2.808h-.14zm32.99 22.742l-4.492-4.633 4.492-4.492 2.106 1.965-2.668 2.527 2.668 2.667z"/><path d="M78.332 64.856h-18.25v-2.808h18.25a7.548 7.548 0 007.58-7.58v-.702a7.548 7.548 0 00-7.58-7.58H54.187v-2.808h24.145a10.365 10.365 0 0110.389 10.388v.702a10.365 10.365 0 01-10.389 10.388zM62.61 30.322l-4.492-4.632 4.492-4.633 2.106 1.966-2.668 2.667 2.668 2.667z"/><path d="M78.332 27.094h-18.25v-2.808h18.25c4.212 0 7.58-3.37 7.58-7.58v-.702a7.547 7.547 0 00-7.58-7.58H54.187v-2.81h24.145a10.365 10.365 0 0110.389 10.388v.702a10.365 10.365 0 01-10.389 10.389z"/></g><path fill="#05B8EE" d="M69.91 77.069h18.53V88.44H69.91z"/><path d="M88.44 89.844H69.91c-.843 0-1.404-.562-1.404-1.404V77.069c0-.842.561-1.404 1.404-1.404h18.53c.842 0 1.404.562 1.404 1.404v11.37c0 .843-.562 1.405-1.404 1.405zm-17.126-2.808h15.722v-8.563H71.314v8.563z" fill="#183651"/><path fill="#05B8EE" d="M1.404 1.404h18.53v11.371H1.404z"/><path d="M19.934 14.178H1.404C.562 14.178 0 13.617 0 12.775V1.404C0 .562.562 0 1.404 0h18.53c.842 0 1.404.562 1.404 1.404v11.37c0 .702-.562 1.404-1.404 1.404zM2.808 11.371H18.53V2.808H2.808v8.563z" fill="#183651"/></g></svg>