<svg width="90" height="90" xmlns="http://www.w3.org/2000/svg"><g fill="none"><circle fill="#E7E7E7" cx="44.922" cy="44.922" r="44.922"/><path fill="#FFF" d="M69.769 1.404h8.423v62.61h-8.423z"/><path d="M78.192 65.418H69.77c-.842 0-1.404-.562-1.404-1.404V1.404C68.365.562 68.927 0 69.77 0h8.423c.842 0 1.404.562 1.404 1.404v62.61c0 .702-.702 1.404-1.404 1.404zm-7.019-2.808h5.615V2.808h-5.615V62.61z" fill="#183651"/><path fill="#3283C8" d="M69.77 15.723v48.29h8.422v-48.29"/><path d="M78.192 65.418H69.77c-.842 0-1.404-.562-1.404-1.404V15.723c0-.843.562-1.404 1.404-1.404.843 0 1.404.561 1.404 1.404V62.61h5.615V15.723c0-.843.562-1.404 1.404-1.404.842 0 1.404.561 1.404 1.404v48.29c0 .703-.702 1.405-1.404 1.405z" fill="#183651"/><path fill="#FFF" d="M40.71 1.404h8.423v62.61H40.71z"/><path d="M49.133 65.418H40.71c-.842 0-1.404-.562-1.404-1.404V1.404C39.306.562 39.868 0 40.71 0h8.423c.842 0 1.404.562 1.404 1.404v62.61c0 .702-.562 1.404-1.404 1.404zm-7.019-2.808h5.616V2.808h-5.616V62.61z" fill="#183651"/><path fill="#05B8EE" d="M40.71 26.672v37.342h8.423V26.672"/><path d="M49.133 65.418H40.71c-.842 0-1.404-.562-1.404-1.404V26.672c0-.842.562-1.403 1.404-1.403.843 0 1.404.561 1.404 1.403V62.61h5.615V26.672c0-.842.562-1.403 1.404-1.403.842 0 1.404.561 1.404 1.403v37.342c0 .702-.562 1.404-1.404 1.404z" fill="#183651"/><path fill="#FFF" d="M11.652 1.404h8.423v62.61h-8.423z"/><path d="M20.074 65.418h-8.422c-.843 0-1.404-.562-1.404-1.404V1.404c0-.842.561-1.404 1.404-1.404h8.422c.843 0 1.404.562 1.404 1.404v62.61c0 .702-.561 1.404-1.404 1.404zm-7.019-2.808h5.616V2.808h-5.616V62.61z" fill="#183651"/><path fill="#E1E6E7" d="M11.652 37.341v26.673h8.422V37.34"/><path d="M20.074 65.418h-8.422c-.843 0-1.404-.562-1.404-1.404V37.34c0-.842.561-1.404 1.404-1.404.842 0 1.403.562 1.403 1.404v25.27h5.616V37.34c0-.842.561-1.404 1.403-1.404.843 0 1.404.562 1.404 1.404v26.673c0 .702-.561 1.404-1.404 1.404zm37.903-12.073h2.808v2.808h-2.808zm0-8.423h2.808v2.808h-2.808zm0-8.423h2.808v2.808h-2.808zm0-8.423h2.808v2.808h-2.808zm0-8.422h2.808v2.808h-2.808zm0-8.424h2.808v2.809h-2.808zM29.058 53.345h2.808v2.808h-2.808zm0-8.423h2.808v2.808h-2.808zm0-8.423h2.808v2.808h-2.808zm0-8.423h2.808v2.808h-2.808zm0-8.422h2.808v2.808h-2.808zm0-8.424h2.808v2.809h-2.808z" fill="#183651"/><path d="M85.07 77.49l-11.09-6.036-11.09 6.036c-2.105 1.123-3.369 3.37-3.369 5.756v5.194h29.06v-5.194c-.141-2.387-1.405-4.633-3.51-5.756z" fill="#3283C8"/><path d="M88.44 89.844H59.38c-.842 0-1.404-.562-1.404-1.404v-5.194c0-2.948 1.545-5.616 4.071-7.02l11.09-6.036c.422-.28.983-.28 1.404 0l11.09 6.037c2.527 1.403 4.071 4.07 4.071 7.019v5.194c.14.842-.42 1.404-1.263 1.404zm-27.655-2.808h26.251v-3.79c0-1.825-.983-3.65-2.667-4.492L73.84 72.998l-10.528 5.756c-1.685.842-2.668 2.667-2.668 4.492v3.79h.14z" fill="#183651"/><path d="M56.012 77.49l-11.09-6.036-11.09 6.036c-2.106 1.123-3.37 3.37-3.37 5.756v5.194h29.06v-5.194c-.14-2.387-1.404-4.633-3.51-5.756z" fill="#9B9B9B"/><path d="M59.381 89.844H30.463c-.843 0-1.404-.562-1.404-1.404v-5.194c0-2.948 1.544-5.616 4.07-7.02l11.09-6.036a1.28 1.28 0 011.405 0l11.09 6.037c2.527 1.403 4.07 4.07 4.07 7.019v5.194c0 .842-.56 1.404-1.403 1.404zm-27.515-2.808h26.252v-3.79c0-1.825-.983-3.65-2.668-4.492l-10.528-5.756-10.529 5.756c-1.684.842-2.667 2.667-2.667 4.492v3.79h.14z" fill="#183651"/><path d="M81.28 64.856c0 4.913-3.228 10.529-7.3 10.529-4.07 0-7.3-5.475-7.3-10.529 0-4.913 3.23-7.44 7.3-7.44 4.072 0 7.3 2.527 7.3 7.44z" fill="#FFF"/><path d="M73.98 76.788c-4.913 0-8.703-6.317-8.703-11.932 0-5.334 3.51-8.844 8.704-8.844 5.194 0 8.703 3.51 8.703 8.844 0 5.615-3.79 11.932-8.703 11.932zm0-17.828c-3.65 0-5.895 2.246-5.895 6.036 0 4.493 2.948 9.125 5.896 9.125s5.896-4.632 5.896-9.125c0-3.79-2.246-6.036-5.896-6.036z" fill="#183651"/><path d="M52.222 64.856c0 4.913-3.229 10.529-7.3 10.529s-7.3-5.475-7.3-10.529c0-4.913 3.229-7.44 7.3-7.44s7.3 2.527 7.3 7.44z" fill="#FFF"/><path d="M44.922 76.788c-4.913 0-8.704-6.317-8.704-11.932 0-5.334 3.51-8.844 8.704-8.844 5.194 0 8.704 3.51 8.704 8.844 0 5.615-3.79 11.932-8.704 11.932zm0-17.828c-3.65 0-5.896 2.246-5.896 6.036 0 4.493 2.948 9.125 5.896 9.125s5.896-4.632 5.896-9.125c0-3.79-2.246-6.036-5.896-6.036z" fill="#183651"/><path d="M27.094 77.49l-11.09-6.036-11.09 6.036c-2.106 1.123-3.37 3.37-3.37 5.756v5.194h29.059v-5.194c-.14-2.387-1.544-4.633-3.51-5.756z" fill="#05B8EE"/><path d="M30.463 89.844H1.403C.563 89.844 0 89.282 0 88.44v-5.194c0-2.948 1.544-5.616 4.071-7.02l11.09-6.036c.421-.28.983-.28 1.404 0l11.09 6.037c2.527 1.403 4.071 4.07 4.071 7.019v5.194c.14.842-.561 1.404-1.263 1.404zM2.808 87.036h26.25v-3.79c0-1.825-.982-3.65-2.666-4.492l-10.529-5.756-10.529 5.756c-1.684.842-2.667 2.667-2.667 4.492v3.79h.14z" fill="#183651"/><path d="M23.163 64.856c0 4.913-3.229 10.529-7.3 10.529s-7.3-5.475-7.3-10.529c0-4.913 3.229-7.44 7.3-7.44s7.3 2.527 7.3 7.44z" fill="#FFF"/><path d="M15.863 76.788c-4.913 0-8.704-6.317-8.704-11.932 0-5.334 3.51-8.844 8.704-8.844 5.194 0 8.704 3.65 8.704 8.844 0 5.615-3.65 11.932-8.704 11.932zm0-17.828c-3.65 0-5.896 2.246-5.896 6.036 0 4.493 2.948 9.125 5.896 9.125s5.896-4.632 5.896-9.125c0-3.79-2.106-6.036-5.896-6.036z" fill="#183651"/></g></svg>