<?xml version="1.0" encoding="UTF-8"?>
<svg width="90px" height="90px" viewBox="0 0 90 90" version="1.1" xmlns="http://www.w3.org/2000/svg" xmlns:xlink="http://www.w3.org/1999/xlink">
    <!-- Generator: Sketch 49.3 (51167) - http://www.bohemiancoding.com/sketch -->
    <title>planning</title>
    <desc>Created with Sketch.</desc>
    <defs></defs>
    <g id="Welcome" stroke="none" stroke-width="1" fill="none" fill-rule="evenodd">
        <g id="1-index-1440" transform="translate(-210.000000, -530.000000)" fill-rule="nonzero">
            <g id="Group-5" transform="translate(110.000000, 461.000000)">
                <g id="planning" transform="translate(100.000000, 69.000000)">
                    <circle id="Oval" fill="#E7E7E7" cx="44.9219406" cy="44.9219406" r="44.9219406"></circle>
                    <g id="Group" transform="translate(9.089109, 2.316832)" fill="#183651">
                        <rect id="Rectangle-path" x="51.6958218" y="32.4976634" width="2.80764356" height="2.80764356"></rect>
                        <rect id="Rectangle-path" x="60.2590099" y="32.4976634" width="2.80764356" height="2.80764356"></rect>
                        <rect id="Rectangle-path" x="68.6819406" y="32.4976634" width="2.80764356" height="2.80764356"></rect>
                        <rect id="Rectangle-path" x="0.176079208" y="49.9049109" width="2.80764356" height="2.80764356"></rect>
                        <rect id="Rectangle-path" x="8.59883168" y="49.9049109" width="2.80764356" height="2.80764356"></rect>
                        <rect id="Rectangle-path" x="17.1620198" y="49.9049109" width="2.80764356" height="2.80764356"></rect>
                        <polygon id="Shape" points="17.0217624 9.33469307 15.0563762 7.36948515 17.5833267 4.70227723 15.0563762 2.03489109 17.0217624 0.0696831683 21.6543564 4.70227723"></polygon>
                        <rect id="Rectangle-path" x="10.8449109" y="3.29845545" width="8.70362376" height="2.80764356"></rect>
                    </g>
                    <rect id="Rectangle-path" fill="#3283C8" x="35.6567525" y="77.0690495" width="18.530198" height="11.3708317"></rect>
                    <path d="M54.1869505,89.843703 L35.6567525,89.843703 C34.814495,89.843703 34.2529307,89.2821386 34.2529307,88.4398812 L34.2529307,77.0690495 C34.2529307,76.2267921 34.814495,75.6652277 35.6567525,75.6652277 L54.1869505,75.6652277 C55.0292079,75.6652277 55.5907723,76.2267921 55.5907723,77.0690495 L55.5907723,88.4398812 C55.5907723,89.2821386 55.0292079,89.843703 54.1869505,89.843703 Z M37.0605743,87.0360594 L52.7833069,87.0360594 L52.7833069,78.4728713 L37.0605743,78.4728713 L37.0605743,87.0360594 Z" id="Shape" fill="#183651"></path>
                    <rect id="Rectangle-path" fill="#FFFFFF" x="35.6567525" y="58.1177228" width="18.530198" height="11.3708317"></rect>
                    <path d="M54.1869505,70.8923762 L35.6567525,70.8923762 C34.814495,70.8923762 34.2529307,70.3308119 34.2529307,69.4885545 L34.2529307,58.1177228 C34.2529307,57.2754653 34.814495,56.713901 35.6567525,56.713901 L54.1869505,56.713901 C55.0292079,56.713901 55.5907723,57.2754653 55.5907723,58.1177228 L55.5907723,69.4885545 C55.5907723,70.3308119 55.0292079,70.8923762 54.1869505,70.8923762 Z M37.0605743,68.0847327 L52.7833069,68.0847327 L52.7833069,59.5215446 L37.0605743,59.5215446 L37.0605743,68.0847327 Z" id="Shape" fill="#183651"></path>
                    <rect id="Rectangle-path" fill="#3283C8" x="35.6567525" y="39.3066535" width="18.530198" height="11.3708317"></rect>
                    <path d="M54.1869505,51.9408713 L35.6567525,51.9408713 C34.814495,51.9408713 34.2529307,51.3793069 34.2529307,50.5370495 L34.2529307,39.1662178 C34.2529307,38.3239604 34.814495,37.762396 35.6567525,37.762396 L54.1869505,37.762396 C55.0292079,37.762396 55.5907723,38.3239604 55.5907723,39.1662178 L55.5907723,50.5370495 C55.5907723,51.3793069 55.0292079,51.9408713 54.1869505,51.9408713 Z M37.0605743,49.1332277 L52.7833069,49.1332277 L52.7833069,40.5700396 L37.0605743,40.5700396 L37.0605743,49.1332277 Z" id="Shape" fill="#183651"></path>
                    <rect id="Rectangle-path" fill="#FFFFFF" x="35.6567525" y="20.3551485" width="18.530198" height="11.3708317"></rect>
                    <path d="M54.1869505,33.129802 L35.6567525,33.129802 C34.814495,33.129802 34.2529307,32.5682376 34.2529307,31.7259802 L34.2529307,20.3551485 C34.2529307,19.5128911 34.814495,18.9513267 35.6567525,18.9513267 L54.1869505,18.9513267 C55.0292079,18.9513267 55.5907723,19.5128911 55.5907723,20.3551485 L55.5907723,31.7259802 C55.5907723,32.4279802 55.0292079,33.129802 54.1869505,33.129802 Z M37.0605743,30.3223366 L52.7833069,30.3223366 L52.7833069,21.7591485 L37.0605743,21.7591485 L37.0605743,30.3223366 Z" id="Shape" fill="#183651"></path>
                    <rect id="Rectangle-path" fill="#3283C8" x="35.6567525" y="1.40382178" width="18.530198" height="11.3708317"></rect>
                    <g id="Group" transform="translate(0.891089, 0.000000)" fill="#183651">
                        <path d="M53.2958614,14.1784752 L34.7656634,14.1784752 C33.9234059,14.1784752 33.3618416,13.6169109 33.3618416,12.7746535 L33.3618416,1.40382178 C33.3618416,0.561564356 33.9234059,0 34.7656634,0 L53.2958614,0 C54.1381188,0 54.6996832,0.561564356 54.6996832,1.40382178 L54.6996832,12.7746535 C54.6996832,13.4764752 54.1381188,14.1784752 53.2958614,14.1784752 Z M36.1694851,11.3708317 L51.8922178,11.3708317 L51.8922178,2.80764356 L36.1694851,2.80764356 L36.1694851,11.3708317 Z" id="Shape"></path>
                        <polygon id="Shape" points="59.4727129 86.895802 57.5073267 84.9304158 60.034099 82.4034653 57.5073267 79.7362574 59.4727129 77.7710495 63.9648713 82.4034653"></polygon>
                        <rect id="Rectangle-path" x="53.2958614" y="80.9996436" width="8.70362376" height="2.80764356"></rect>
                        <polygon id="Shape" points="26.3427327 86.3342376 24.2370891 84.3688515 26.904297 81.7016436 24.2370891 79.0344356 26.3427327 77.0690495 30.8348911 81.7016436"></polygon>
                        <path d="M28.7292475,83.1054653 L10.4797426,83.1054653 C4.72419802,83.1054653 0.0916039604,78.4728713 0.0916039604,72.7173267 C0.0916039604,66.9617822 4.86463366,62.4694455 10.6201782,62.4694455 L34.7656634,62.4694455 L34.7656634,65.2770891 L10.6201782,65.2770891 C6.40871287,65.2770891 3.03968317,68.646297 3.03968317,72.8575842 C3.03968317,77.0688713 6.40889109,80.4380792 10.6201782,80.4380792 L28.8696832,80.4380792 L28.8696832,83.1052871 L28.7292475,83.1052871 L28.7292475,83.1054653 Z" id="Shape"></path>
                        <polygon id="Shape" points="26.3427327 48.4314059 24.2370891 46.4660198 26.904297 43.9392475 24.2370891 41.2720396 26.3427327 39.3066535 30.8348911 43.9392475"></polygon>
                        <path d="M28.7292475,45.3430693 L10.4797426,45.3430693 C4.72419802,45.3430693 0.0916039604,40.7104752 0.0916039604,34.9549307 C0.0916039604,29.1993861 4.86463366,24.5667921 10.6201782,24.5667921 L34.7656634,24.5667921 L34.7656634,27.3742574 L10.6201782,27.3742574 C6.40871287,27.3742574 3.03968317,30.7434653 3.03968317,34.9547525 C3.03968317,39.1660396 6.40889109,42.5352475 10.6201782,42.5352475 L28.8696832,42.5352475 L28.8696832,45.3428911 L28.7292475,45.3428911 L28.7292475,45.3430693 Z" id="Shape"></path>
                        <polygon id="Shape" points="61.7187921 68.0847327 57.2266337 63.4521386 61.7187921 58.9599802 63.8244356 60.9251881 61.1572277 63.4521386 63.8244356 66.1193465"></polygon>
                        <path d="M77.4413465,64.8559604 L59.1918416,64.8559604 L59.1918416,62.0483168 L77.4413465,62.0483168 C81.6528119,62.0483168 85.0218416,58.6791089 85.0218416,54.4678218 L85.0218416,53.766 C85.0218416,49.5545347 81.6526337,46.185505 77.4413465,46.185505 L53.2958614,46.185505 L53.2958614,43.3778614 L77.4413465,43.3778614 C83.1968911,43.3778614 87.8294851,48.0104554 87.8294851,53.766 L87.8294851,54.4678218 C87.8296634,60.2233663 83.1970693,64.8559604 77.4413465,64.8559604 Z" id="Shape"></path>
                        <polygon id="Shape" points="61.7187921 30.3223366 57.2266337 25.6897426 61.7187921 21.0571485 63.8244356 23.0225347 61.1572277 25.6897426 63.8244356 28.3569505"></polygon>
                        <path d="M77.4413465,27.0935644 L59.1918416,27.0935644 L59.1918416,24.2859208 L77.4413465,24.2859208 C81.6528119,24.2859208 85.0218416,20.9167129 85.0218416,16.7054257 L85.0218416,16.003604 C85.0218416,11.7921386 81.6526337,8.42310891 77.4413465,8.42310891 L53.2958614,8.42310891 L53.2958614,5.61528713 L77.4413465,5.61528713 C83.1968911,5.61528713 87.8294851,10.2478812 87.8294851,16.0034257 L87.8294851,16.7052475 C87.8296634,22.4609703 83.1970693,27.0935644 77.4413465,27.0935644 Z" id="Shape"></path>
                    </g>
                    <rect id="Rectangle-path" fill="#05B8EE" x="69.9096832" y="77.0690495" width="18.530198" height="11.3708317"></rect>
                    <path d="M88.4398812,89.843703 L69.9096832,89.843703 C69.0674257,89.843703 68.5058614,89.2821386 68.5058614,88.4398812 L68.5058614,77.0690495 C68.5058614,76.2267921 69.0674257,75.6652277 69.9096832,75.6652277 L88.4398812,75.6652277 C89.2821386,75.6652277 89.843703,76.2267921 89.843703,77.0690495 L89.843703,88.4398812 C89.843703,89.2821386 89.2821386,89.843703 88.4398812,89.843703 Z M71.313505,87.0360594 L87.0362376,87.0360594 L87.0362376,78.4728713 L71.313505,78.4728713 L71.313505,87.0360594 Z" id="Shape" fill="#183651"></path>
                    <rect id="Rectangle-path" fill="#05B8EE" x="1.40382178" y="1.40382178" width="18.530198" height="11.3708317"></rect>
                    <path d="M19.9340198,14.1784752 L1.40382178,14.1784752 C0.561564356,14.1784752 0,13.6169109 0,12.7746535 L0,1.40382178 C0,0.561564356 0.561564356,0 1.40382178,0 L19.9340198,0 C20.7762772,0 21.3378416,0.561564356 21.3378416,1.40382178 L21.3378416,12.7746535 C21.3378416,13.4764752 20.7762772,14.1784752 19.9340198,14.1784752 Z M2.80764356,11.3708317 L18.5303762,11.3708317 L18.5303762,2.80764356 L2.80764356,2.80764356 L2.80764356,11.3708317 Z" id="Shape" fill="#183651"></path>
                </g>
            </g>
        </g>
    </g>
</svg>
