<svg width="90" height="90" xmlns="http://www.w3.org/2000/svg"><g fill="none"><circle fill="#2EA0DA" cx="62.469" cy="62.469" r="27.374"/><path fill="#EF8523" d="M1.404 1.404h81.982v62.61H1.404z"/><path d="M83.386 65.418H1.404C.562 65.418 0 64.856 0 64.014V1.404C0 .562.562 0 1.404 0h81.982c.842 0 1.404.562 1.404 1.404v62.61c0 .702-.702 1.404-1.404 1.404zM2.808 62.61h79.174V2.808H2.808V62.61z" fill="#183651"/><g transform="translate(6.95 6.95)" fill="#FFF"><path d="M.069.069h70.752v51.379H.069z"/><circle cx="55.519" cy="55.519" r="21.899"/></g><path d="M62.47 85.773c-12.916 0-23.304-10.529-23.304-23.304 0-12.915 10.529-23.303 23.303-23.303 12.916 0 23.304 10.529 23.304 23.303a23.246 23.246 0 01-23.304 23.304zm0-43.8c-11.371 0-20.496 9.266-20.496 20.496 0 11.23 9.125 20.496 20.495 20.496a20.43 20.43 0 0020.496-20.496 20.43 20.43 0 00-20.496-20.495z" fill="#183651"/><path d="M62.47 45.764c-9.266 0-16.706 7.58-16.706 16.705H62.47V45.764z" fill="#D2D2D2"/><path d="M62.47 62.47v16.705c9.265 0 16.705-7.58 16.705-16.706H62.469z" fill="#4A90E2"/><path d="M62.47 62.47H45.763c0 9.265 7.58 16.705 16.705 16.705V62.469z" fill="#05B8EE"/><path d="M62.47 45.764V62.47l11.79-11.793c-2.947-3.088-7.159-4.913-11.792-4.913z" fill="#EF8523"/><path d="M74.261 50.677L62.47 62.47h16.706c0-4.632-1.825-8.844-4.914-11.792z" fill="#E7E7E7"/><path d="M39.166 28.778c-.42 0-.702-.14-.982-.421l-10.81-10.67-7.861 7.862a1.357 1.357 0 01-1.965 0 1.357 1.357 0 010-1.965l8.844-8.844a1.357 1.357 0 011.965 0l10.669 10.669 8.002-7.861a1.357 1.357 0 011.965 0 1.357 1.357 0 010 1.965l-8.844 8.844c-.28.28-.702.421-.983.421z" fill="#183651"/><circle fill="#FFF" cx="39.166" cy="27.374" r="4.211"/><path d="M39.166 32.99c-3.088 0-5.615-2.527-5.615-5.616 0-3.088 2.527-5.615 5.615-5.615 3.089 0 5.616 2.527 5.616 5.615 0 3.089-2.527 5.616-5.616 5.616zm0-8.423a2.816 2.816 0 00-2.807 2.807 2.816 2.816 0 002.807 2.808 2.816 2.816 0 002.808-2.808 2.816 2.816 0 00-2.808-2.807z" fill="#183651"/><circle fill="#FFF" cx="51.099" cy="15.442" r="4.211"/><path d="M51.099 21.198c-3.089 0-5.616-2.527-5.616-5.616 0-3.088 2.527-5.615 5.616-5.615 3.088 0 5.615 2.527 5.615 5.615 0 3.089-2.527 5.616-5.615 5.616zm0-8.564a2.816 2.816 0 00-2.808 2.808 2.816 2.816 0 002.808 2.808 2.816 2.816 0 002.807-2.808 2.816 2.816 0 00-2.807-2.808z" fill="#183651"/><circle fill="#FFF" cx="15.442" cy="27.374" r="4.211"/><path d="M15.442 32.99c-3.088 0-5.615-2.527-5.615-5.616 0-3.088 2.526-5.615 5.615-5.615 3.088 0 5.615 2.527 5.615 5.615 0 3.089-2.527 5.616-5.615 5.616zm0-8.423a2.816 2.816 0 00-2.808 2.807 2.816 2.816 0 002.808 2.808 2.816 2.816 0 002.808-2.808 2.816 2.816 0 00-2.808-2.807z" fill="#183651"/><circle fill="#FFF" cx="27.374" cy="15.442" r="4.211"/><path d="M27.374 21.198c-3.088 0-5.615-2.527-5.615-5.616 0-3.088 2.527-5.615 5.615-5.615 3.089 0 5.616 2.527 5.616 5.615 0 3.089-2.527 5.616-5.616 5.616zm0-8.564a2.816 2.816 0 00-2.807 2.808 2.816 2.816 0 002.807 2.808 2.816 2.816 0 002.808-2.808 2.816 2.816 0 00-2.808-2.808zm36.219 1.404H73.7v2.808H63.593zm0 6.458H73.7v2.808H63.593zm0 6.457H73.7v2.808H63.593zm-51.52 10.809h18.951v2.808H12.073zm0 7.02h18.95v2.808h-18.95zm0 7.158h2.808v2.809h-2.808zm8.002 0h2.808v2.809h-2.808zm8.142 0h2.808v2.809h-2.808z" fill="#183651"/></g></svg>