<?xml version="1.0" encoding="UTF-8"?>
<svg width="90px" height="90px" viewBox="0 0 90 90" version="1.1" xmlns="http://www.w3.org/2000/svg" xmlns:xlink="http://www.w3.org/1999/xlink">
    <!-- Generator: Sketch 49.3 (51167) - http://www.bohemiancoding.com/sketch -->
    <title>analytics</title>
    <desc>Created with Sketch.</desc>
    <defs></defs>
    <g id="Welcome" stroke="none" stroke-width="1" fill="none" fill-rule="evenodd">
        <g id="1-index-1440" transform="translate(-1140.000000, -532.000000)" fill-rule="nonzero">
            <g id="Group-6" transform="translate(1040.000000, 461.000000)">
                <g id="analytics" transform="translate(100.000000, 71.000000)">
                    <circle id="Oval" fill="#2EA0DA" cx="62.4694455" cy="62.4694455" r="27.3742574"></circle>
                    <rect id="Rectangle-path" fill="#EF8523" x="1.40382178" y="1.40382178" width="81.9823366" height="62.6098812"></rect>
                    <path d="M83.3861584,65.4175248 L1.40382178,65.4175248 C0.561564356,65.4175248 0,64.8559604 0,64.013703 L0,1.40382178 C0,0.561564356 0.561564356,0 1.40382178,0 L83.3861584,0 C84.2284158,0 84.7899802,0.561564356 84.7899802,1.40382178 L84.7899802,64.013703 C84.7899802,64.7155248 84.0881584,65.4175248 83.3861584,65.4175248 Z M2.80764356,62.6098812 L81.9823366,62.6098812 L81.9823366,2.80764356 L2.80764356,2.80764356 L2.80764356,62.6098812 Z" id="Shape" fill="#183651"></path>
                    <g id="Group" transform="translate(6.950495, 6.950495)" fill="#FFFFFF">
                        <rect id="Rectangle-path" x="0.0686138614" y="0.0686138614" width="70.7519406" height="51.3793069"></rect>
                        <circle id="Oval" cx="55.5189505" cy="55.5189505" r="21.8994059"></circle>
                    </g>
                    <path d="M62.4694455,85.7726733 C49.5543564,85.7726733 39.1662178,75.244099 39.1662178,62.4694455 C39.1662178,49.5543564 49.6947921,39.1662178 62.4694455,39.1662178 C75.3845347,39.1662178 85.7726733,49.6947921 85.7726733,62.4694455 C85.7726733,75.3845347 75.3845347,85.7726733 62.4694455,85.7726733 Z M62.4694455,41.9738614 C51.0986139,41.9738614 41.9738614,51.2390495 41.9738614,62.4694455 C41.9738614,73.6998416 51.0986139,82.9650297 62.4694455,82.9650297 C73.8402772,82.9650297 82.9650297,73.8402772 82.9650297,62.4694455 C82.9650297,51.0986139 73.8402772,41.9738614 62.4694455,41.9738614 Z" id="Shape" fill="#183651"></path>
                    <path d="M62.4694455,45.764198 C53.2042574,45.764198 45.764198,53.3446931 45.764198,62.4694455 L62.4694455,62.4694455 L62.4694455,45.764198 Z" id="Shape" fill="#D2D2D2"></path>
                    <path d="M62.4694455,62.4694455 L62.4694455,79.1746931 C71.7346337,79.1746931 79.1746931,71.594198 79.1746931,62.4694455 L62.4694455,62.4694455 Z" id="Shape" fill="#4A90E2"></path>
                    <path d="M62.4694455,62.4694455 L45.764198,62.4694455 C45.764198,71.7346337 53.3446931,79.1746931 62.4694455,79.1746931 L62.4694455,62.4694455 Z" id="Shape" fill="#05B8EE"></path>
                    <path d="M62.4694455,45.764198 L62.4694455,62.4694455 L74.2614059,50.6774851 C71.313505,47.5891485 67.1020396,45.764198 62.4694455,45.764198 Z" id="Shape" fill="#EF8523"></path>
                    <path d="M74.2614059,50.6774851 L62.4694455,62.4694455 L79.1746931,62.4694455 C79.1746931,57.8368515 77.3497426,53.6253861 74.2614059,50.6774851 Z" id="Shape" fill="#E7E7E7"></path>
                    <path d="M39.1662178,28.7780792 C38.7450891,28.7780792 38.464396,28.6376436 38.1835248,28.3569505 L27.3742574,17.6879406 L19.5128911,25.5493069 C18.9513267,26.1108713 18.1090693,26.1108713 17.547505,25.5493069 C16.9859406,24.9877426 16.9859406,24.1454851 17.547505,23.5839208 L26.3915644,14.7398614 C26.9531287,14.178297 27.7953861,14.178297 28.3569505,14.7398614 L39.0259604,25.4088713 L47.0275842,17.547505 C47.5891485,16.9859406 48.4314059,16.9859406 48.9929703,17.547505 C49.5545347,18.1090693 49.5545347,18.9513267 48.9929703,19.5128911 L40.1489109,28.3569505 C39.8682178,28.6376436 39.4470891,28.7780792 39.1662178,28.7780792 Z" id="Shape" fill="#183651"></path>
                    <circle id="Oval" fill="#FFFFFF" cx="39.1662178" cy="27.3742574" r="4.21146535"></circle>
                    <path d="M39.1662178,32.9895446 C36.0778812,32.9895446 33.5509307,30.4627723 33.5509307,27.3742574 C33.5509307,24.2857426 36.077703,21.7589703 39.1662178,21.7589703 C42.2547327,21.7589703 44.781505,24.2857426 44.781505,27.3742574 C44.781505,30.4627723 42.2545545,32.9895446 39.1662178,32.9895446 Z M39.1662178,24.5666139 C37.6219604,24.5666139 36.3585743,25.83 36.3585743,27.3742574 C36.3585743,28.9185149 37.6219604,30.181901 39.1662178,30.181901 C40.7104752,30.181901 41.9738614,28.9185149 41.9738614,27.3742574 C41.9738614,25.83 40.7104752,24.5666139 39.1662178,24.5666139 Z" id="Shape" fill="#183651"></path>
                    <circle id="Oval" fill="#FFFFFF" cx="51.0986139" cy="15.4418614" r="4.21146535"></circle>
                    <path d="M51.0986139,21.1975842 C48.0102772,21.1975842 45.4833267,18.6708119 45.4833267,15.582297 C45.4833267,12.4937822 48.010099,9.9670099 51.0986139,9.9670099 C54.1869505,9.9670099 56.713901,12.4937822 56.713901,15.582297 C56.713901,18.6708119 54.1869505,21.1975842 51.0986139,21.1975842 Z M51.0986139,12.6342178 C49.5543564,12.6342178 48.2909703,13.897604 48.2909703,15.4418614 C48.2909703,16.9861188 49.5543564,18.249505 51.0986139,18.249505 C52.6428713,18.249505 53.9062574,16.9861188 53.9062574,15.4418614 C53.9062574,13.897604 52.6428713,12.6342178 51.0986139,12.6342178 Z" id="Shape" fill="#183651"></path>
                    <circle id="Oval" fill="#FFFFFF" cx="15.4418614" cy="27.3742574" r="4.21146535"></circle>
                    <path d="M15.4418614,32.9895446 C12.3535248,32.9895446 9.82657426,30.4627723 9.82657426,27.3742574 C9.82657426,24.2857426 12.3533465,21.7589703 15.4418614,21.7589703 C18.5303762,21.7589703 21.0571485,24.2857426 21.0571485,27.3742574 C21.0571485,30.4627723 18.530198,32.9895446 15.4418614,32.9895446 Z M15.4418614,24.5666139 C13.897604,24.5666139 12.6342178,25.83 12.6342178,27.3742574 C12.6342178,28.9185149 13.897604,30.181901 15.4418614,30.181901 C16.9861188,30.181901 18.249505,28.9185149 18.249505,27.3742574 C18.249505,25.83 16.9861188,24.5666139 15.4418614,24.5666139 Z" id="Shape" fill="#183651"></path>
                    <circle id="Oval" fill="#FFFFFF" cx="27.3742574" cy="15.4418614" r="4.21146535"></circle>
                    <path d="M27.3742574,21.1975842 C24.2859208,21.1975842 21.7589703,18.6708119 21.7589703,15.582297 C21.7589703,12.4937822 24.2857426,9.9670099 27.3742574,9.9670099 C30.4627723,9.9670099 32.9895446,12.4937822 32.9895446,15.582297 C32.9895446,18.6708119 30.4625941,21.1975842 27.3742574,21.1975842 Z M27.3742574,12.6342178 C25.83,12.6342178 24.5666139,13.897604 24.5666139,15.4418614 C24.5666139,16.9861188 25.83,18.249505 27.3742574,18.249505 C28.9185149,18.249505 30.181901,16.9861188 30.181901,15.4418614 C30.181901,13.897604 28.9185149,12.6342178 27.3742574,12.6342178 Z" id="Shape" fill="#183651"></path>
                    <rect id="Rectangle-path" fill="#183651" x="63.5925743" y="14.0380396" width="10.1074455" height="2.80764356"></rect>
                    <rect id="Rectangle-path" fill="#183651" x="63.5925743" y="20.4955842" width="10.1074455" height="2.80764356"></rect>
                    <rect id="Rectangle-path" fill="#183651" x="63.5925743" y="26.9531287" width="10.1074455" height="2.80764356"></rect>
                    <rect id="Rectangle-path" fill="#183651" x="12.0728317" y="37.762396" width="18.9513267" height="2.80764356"></rect>
                    <g id="Group" transform="translate(11.940594, 44.732673)" fill="#183651">
                        <rect id="Rectangle-path" x="0.132237624" y="0.0488316832" width="18.9513267" height="2.80764356"></rect>
                        <rect id="Rectangle-path" x="0.132237624" y="7.20819802" width="2.80764356" height="2.80764356"></rect>
                        <rect id="Rectangle-path" x="8.13386139" y="7.20819802" width="2.80764356" height="2.80764356"></rect>
                        <rect id="Rectangle-path" x="16.2759208" y="7.20819802" width="2.80764356" height="2.80764356"></rect>
                    </g>
                </g>
            </g>
        </g>
    </g>
</svg>