<svg width="115" height="104" xmlns="http://www.w3.org/2000/svg"><g fill="none"><circle fill="#E7E7E7" cx="58.922" cy="52.922" r="44.922"/><path fill="#183651" d="M36.849 41.757h42.16v23.411h-42.16z"/><path d="M79.178 66.816h-42.33c-1.015 0-1.693-.66-1.693-1.648V41.757c0-.99.678-1.649 1.694-1.649h42.329c1.016 0 1.693.66 1.693 1.649v23.41c0 .99-.846 1.65-1.693 1.65zM38.542 63.52h38.943V43.406H38.542v20.113z" fill="#183651"/><path fill="#FFF" d="M43.621 48.187h28.615v10.387H43.621z"/><path fill="#183651" d="M48.112 51.721h3.439v3.349h-3.439zm8.168 0h3.439v3.349H56.28zm8.169 0h3.439v3.349h-3.439z"/><path fill="#05B8EE" d="M70.849 9.662h42.16v23.594h-42.16z"/><path d="M113.178 34.917h-42.33c-1.015 0-1.693-.665-1.693-1.662V9.662c0-.997.678-1.662 1.694-1.662h42.329c1.016 0 1.693.665 1.693 1.662v23.593c0 .997-.846 1.662-1.693 1.662zm-40.636-3.323h38.943v-20.27H72.542v20.27z" fill="#183651"/><path fill="#FFF" d="M77.621 16.308h28.615v10.468H77.621z"/><path fill="#183651" d="M82.112 19.813h3.439v3.375h-3.439zm8.168 0h3.439v3.375H90.28zm8.169 0h3.439v3.375h-3.439z"/><path fill="#3283C8" d="M2.849 9.747h42.16v23.411H2.849z"/><path d="M45.178 34.972H2.848c-1.015 0-1.693-.66-1.693-1.649V9.747c0-.989.678-1.648 1.694-1.648h42.329c1.016 0 1.693.66 1.693 1.648v23.411c0 .99-.846 1.814-1.693 1.814zM4.542 31.674h38.943V11.396H4.542v20.278z" fill="#183651"/><path fill="#FFF" d="M9.621 16.342h28.615v10.387H9.621z"/><path fill="#183651" d="M14.112 19.93h3.439v3.349h-3.439zm8.168 0h3.439v3.349H22.28zm8.169 0h3.439v3.349h-3.439zM.5 74.5v-3h3v3zm0-8v-3h3v3zm0-9v-3h3v3zm56-37v-3h3v3zm0-8v-3h3v3zm0-9v-3h3v3zm55 71v-3h3v3zm0-8v-3h3v3zm0-9v-3h3v3z"/><path fill="#FFF" d="M15.116 79.263h8.417V51.796h5.117L19.242 40 10 51.796h5.116z"/><path d="M23.199 81.76h-8.417c-.99 0-1.65-.674-1.65-1.685V54.292H9.664c-.66 0-1.155-.337-1.485-1.01-.33-.506-.165-1.349.165-1.854l9.242-11.796c.66-.843 1.98-.843 2.64 0l9.078 11.627c.33.337.495.843.495 1.348 0 1.011-.66 1.685-1.65 1.685h-3.466v25.783c.165 1.01-.66 1.685-1.485 1.685zm-6.767-3.37h5.116V52.606c0-1.01.66-1.685 1.65-1.685h1.65l-5.94-7.414-5.777 7.414h1.65c.99 0 1.651.674 1.651 1.685V78.39z" fill="#183651"/><path fill="#FFF" d="M54.116 100.263h8.417V83.796h5.117L58.242 72 49 83.796h5.116z"/><path d="M62.199 103.76h-8.417c-.99 0-1.65-.674-1.65-1.685V86.292h-3.467c-.66 0-1.155-.337-1.485-1.01-.33-.506-.165-1.349.165-1.854l9.242-11.796c.66-.843 1.98-.843 2.64 0l9.078 11.627c.33.337.495.843.495 1.348 0 1.011-.66 1.685-1.65 1.685h-3.466v15.783c.165 1.01-.66 1.685-1.485 1.685zm-6.767-3.37h5.116V84.606c0-1.01.66-1.685 1.65-1.685h1.65l-5.94-7.414-5.777 7.414h1.65c.99 0 1.651.674 1.651 1.685v25.782-10z" fill="#183651"/><path fill="#FFF" d="M94.116 79.263h8.417V51.796h5.117L98.242 40 89 51.796h5.116z"/><path d="M102.199 81.76h-8.417c-.99 0-1.65-.674-1.65-1.685V54.292h-3.467c-.66 0-1.155-.337-1.485-1.01-.33-.506-.165-1.349.165-1.854l9.242-11.796c.66-.843 1.98-.843 2.64 0l9.078 11.627c.33.337.495.843.495 1.348 0 1.011-.66 1.685-1.65 1.685h-3.466v25.783c.165 1.01-.66 1.685-1.485 1.685zm-6.767-3.37h5.116V52.606c0-1.01.66-1.685 1.65-1.685h1.65l-5.94-7.414-5.777 7.414h1.65c.99 0 1.651.674 1.651 1.685V78.39z" fill="#183651"/></g></svg>