<svg width="14" height="18" xmlns="http://www.w3.org/2000/svg"><path d="M12.775 2.117h-2.361V.557A.553.553 0 009.856 0c-.03 0-.05.01-.06.02a.075.075 0 00-.04-.02H4.127a.545.545 0 00-.547.557v1.56H1.209c-.678 0-1.206.537-1.206 1.226V5.35h1.046v11.418c0 .69.518 1.216 1.196 1.216h9.494c.677 0 1.205-.527 1.205-1.216V5.35h1.036V3.343c0-.689-.528-1.226-1.205-1.226zm-8.1-1.003h4.633v1.003H4.675V1.114zm7.163 15.653c0 .071-.03.102-.1.102H2.246c-.07 0-.1-.03-.1-.102V5.35h9.693v11.418zm1.036-12.532H1.11v-.892c0-.07.03-.111.1-.111h11.566c.07 0 .1.04.1.111v.892z"/><path d="M8.999 6.656h1.106v9.219H8.999zm-2.55 0h1.106v9.219H6.449zm-2.551 0h1.106v9.219H3.898z"/></svg>