<svg width="28" height="40" xmlns="http://www.w3.org/2000/svg"><path d="m24.646 22.219-3.654-1.41-1.868-1.867a.583.583 0 0 0-.453-.17V17.18a6.804 6.804 0 0 0 1.755-3.456c.003-.012.023-.032.036-.037.163.01.328 0 .491-.034.85-.174 1.468-.964 1.468-1.88v-.486a1.92 1.92 0 0 0-.598-1.395c.601-3.208.126-5.82-1.382-7.56C18.993.658 16.654-.141 13.68.021c-2.793.15-4.577 1.451-5.107 1.893-.744.093-2.947.627-2.947 3.69 0 1.734.287 3.169.481 3.943-.659.29-1.106.966-1.106 1.746v.48c0 .915.617 1.705 1.468 1.88.163.033.328.044.491.033.013.005.033.025.036.036A6.806 6.806 0 0 0 8.75 17.18v1.593a.583.583 0 0 0-.453.17L6.429 20.81l-3.654 1.41a4.334 4.334 0 0 0-2.771 4.218L.52 39.361a.585.585 0 0 0 1.169-.047L1.172 26.39a3.16 3.16 0 0 1 .15-1.096l2.126 2.127c.598.598.927 1.393.927 2.238v9.678a.585.585 0 0 0 1.17 0V29.66a4.306 4.306 0 0 0-1.27-3.065L1.91 24.229a3.16 3.16 0 0 1 1.286-.919l3.439-1.326 2.618 3.928a1.828 1.828 0 0 0 1.529.817c.37 0 .728-.112 1.031-.319l-.562 12.902a.585.585 0 1 0 1.169.05l.519-11.921h1.544l.519 11.922a.585.585 0 1 0 1.168-.051l-.56-12.902a1.824 1.824 0 0 0 1.214.31 1.829 1.829 0 0 0 1.346-.808l2.618-3.928 3.439 1.326c.511.198.95.518 1.286.919l-2.366 2.365a4.307 4.307 0 0 0-1.27 3.065v9.678a.585.585 0 0 0 1.17 0V29.66c0-.845.33-1.64.927-2.238l2.127-2.127c.112.347.165.717.15 1.096l-.518 12.924a.585.585 0 1 0 1.169.047l.517-12.924a4.335 4.335 0 0 0-2.772-4.218Zm-16.5-8.708a1.216 1.216 0 0 0-1.266-.992.653.653 0 0 1-.178-.012c-.303-.063-.532-.378-.532-.734v-.48c0-.355.232-.663.54-.717a.663.663 0 0 1 .652.25c.112.146.261.25.431.302.25.075.524.03.735-.118a4.797 4.797 0 0 0 1.29-1.362.585.585 0 0 0-.989-.626c-.209.33-.46.618-.75.86a1.829 1.829 0 0 0-.788-.428c-.17-.63-.496-2.078-.496-3.85 0-2.44 1.816-2.537 2.02-2.54a.585.585 0 0 0 .404-.163c.017-.016 1.652-1.558 4.523-1.713 2.6-.14 4.612.52 5.815 1.909 1.225 1.414 1.624 3.588 1.165 6.306a2.777 2.777 0 0 0-.688.046l-.653-1.57a.585.585 0 0 0-.688-.34c-.063.016-6.284 1.594-8.905-1.669a.585.585 0 1 0-.912.732C11.524 9.9 16.83 9.125 18.49 8.784l.512 1.229c.193.463.686.716 1.173.601.215-.05.436-.057.535-.037.308.061.54.366.54.709v.487c0 .356-.228.671-.532.733a.653.653 0 0 1-.178.012 1.218 1.218 0 0 0-1.265.993 5.657 5.657 0 0 1-5.565 4.634 5.657 5.657 0 0 1-5.565-4.634Zm3.104 11.853a.662.662 0 0 1-1.024-.101l-2.638-3.958 1.149-1.15 4.118 3.604-1.605 1.605Zm1.74.907.045-1.037.675-.676.676.676.045 1.037H12.99Zm.72-3.317-3.79-3.317v-1.472a6.81 6.81 0 0 0 3.79 1.15 6.8 6.8 0 0 0 3.791-1.15v1.472l-3.79 3.317Zm3.485 2.309a.663.663 0 0 1-1.024.101l-1.605-1.605 4.118-3.603 1.15 1.15-2.64 3.957Z" fill="#4A4A4A"/></svg>