<svg xmlns="http://www.w3.org/2000/svg" viewBox="0 0 512 512"><path d="M296.078 260.98h-80.157c-12.983 0-23.546 10.563-23.546 23.546v75.147a7.515 7.515 0 007.515 7.515h112.22a7.514 7.514 0 007.515-7.515v-75.147c-.001-12.984-10.563-23.546-23.547-23.546zm-47.593 91.178h-41.08v-67.632c0-4.696 3.82-8.517 8.517-8.517h12.274l20.29 27.053v49.096zm-1.503-76.149h18.035L256 288.033l-9.018-12.024zm57.613 76.149h-41.08v-49.096l20.29-27.053h12.274c4.696 0 8.517 3.82 8.517 8.517v67.632zM256 156.776c-27.828 0-43.615 12.431-51.957 22.859-9.054 11.318-11.424 22.778-11.521 23.26-.916 4.58 2.701 8.989 7.368 8.989h9.116c3.614 22.684 23.309 40.078 46.994 40.078 26.242 0 47.593-21.351 47.593-47.593S282.242 156.776 256 156.776zm0 80.157c-15.369 0-28.276-10.706-31.679-25.049h63.358c-3.403 14.343-16.31 25.049-31.679 25.049zm-45.329-40.079c5.19-10.109 17.559-25.049 45.329-25.049 15.37 0 28.287 10.704 31.689 25.049h-77.018zM464.407 20.51c-21.823 0-39.577 17.754-39.577 39.577 0 21.824 17.755 39.577 39.577 39.577s39.577-17.755 39.577-39.577S486.23 20.51 464.407 20.51zm0 64.125c-13.536 0-24.548-11.013-24.548-24.548 0-13.535 11.012-24.548 24.548-24.548s24.548 11.011 24.548 24.548-11.012 24.548-24.548 24.548zm32.063 24.047h-64.125c-8.564 0-15.53 6.967-15.53 15.53v72.141a7.514 7.514 0 007.515 7.515h80.157a7.514 7.514 0 007.515-7.515v-72.141c-.002-8.563-6.969-15.53-15.532-15.53zm.501 80.157h-65.127v-64.626c0-.276.225-.501.501-.501h64.125c.276 0 .501.225.501.501v64.626zM47.593 293.042c-21.823 0-39.577 17.754-39.577 39.577 0 21.824 17.755 39.577 39.577 39.577S87.17 354.442 87.17 332.62s-17.754-39.578-39.577-39.578zm0 64.126c-13.535 0-24.548-11.013-24.548-24.548 0-13.535 11.013-24.548 24.548-24.548s24.548 11.011 24.548 24.548-11.013 24.548-24.548 24.548zm32.063 24.047H15.53c-8.564 0-15.53 6.967-15.53 15.53v72.141a7.515 7.515 0 007.515 7.515h80.157a7.515 7.515 0 007.515-7.515v-72.141c-.001-8.564-6.968-15.53-15.531-15.53zm.501 80.156H15.029v-64.626c0-.276.224-.501.501-.501h64.125c.277 0 .501.225.501.501v64.626zM472.423 260.98a7.514 7.514 0 00-7.515 7.515c0 1.934-.026 3.887-.079 5.805a7.514 7.514 0 007.515 7.721 7.514 7.514 0 007.508-7.308c.057-2.057.085-4.149.085-6.218a7.513 7.513 0 00-7.514-7.515zm-4.992 54.555c-4.015-1.034-8.118 1.378-9.157 5.396-.98 3.79-2.083 7.607-3.278 11.342-1.201 3.749.794 7.897 4.468 9.307 3.977 1.526 8.548-.671 9.845-4.724a224.102 224.102 0 003.518-12.165 7.517 7.517 0 00-5.396-9.156zm-58.016 105.794a7.512 7.512 0 00-10.621-.347 209.779 209.779 0 01-7.961 7.087c-2.086 1.764-3.611 3.764-3.56 6.631.109 6.174 7.58 9.604 12.333 5.627a225.58 225.58 0 009.461-8.376 7.515 7.515 0 00.348-10.622zm36.536-48.76c-3.566-2.12-8.179-.952-10.301 2.612a209.472 209.472 0 01-6.319 9.964 7.516 7.516 0 0012.462 8.402 226.617 226.617 0 006.771-10.679 7.513 7.513 0 00-2.613-10.299zM303.898 479.733c-.772-4.078-4.712-6.749-8.782-5.985a208.198 208.198 0 01-11.64 1.864c-4.004.526-6.946 4.273-6.49 8.288.469 4.125 4.324 7.148 8.444 6.614a223.986 223.986 0 0012.481-1.999 7.516 7.516 0 005.987-8.782zm56.909-21.692a7.517 7.517 0 00-10.108-3.283 208.753 208.753 0 01-10.638 5.046c-3.551 1.561-5.358 5.722-4.061 9.381 1.439 4.059 6.159 6.117 10.11 4.376a222.691 222.691 0 0011.413-5.412 7.516 7.516 0 003.284-10.108zm-124.423 18.453c-3.9-.363-7.84-.843-11.713-1.425-4.097-.611-7.931 2.211-8.548 6.314a7.515 7.515 0 006.314 8.549c4.151.623 8.374 1.137 12.554 1.526a7.517 7.517 0 008.179-6.786 7.514 7.514 0 00-6.786-8.178zm-57.165-13.651a209.56 209.56 0 01-10.839-4.646 7.514 7.514 0 10-6.31 13.639 223.85 223.85 0 0011.623 4.983c4.015 1.585 8.653-.639 9.938-4.753 1.157-3.704-.804-7.796-4.412-9.223zm-51.112-29.15a219.875 219.875 0 01-4.536-3.618 7.515 7.515 0 10-9.534 11.619 223.415 223.415 0 004.857 3.875 7.472 7.472 0 004.6 1.577c2.242 0 4.463-1 5.944-2.909a7.512 7.512 0 00-1.331-10.544zM39.865 254.971c-4.17-.139-7.604 3.156-7.718 7.305a229.438 229.438 0 00-.084 6.218 7.516 7.516 0 0015.03 0c0-1.934.027-3.887.079-5.805a7.515 7.515 0 00-7.307-7.718zM234.234 53.023a7.515 7.515 0 00-8.451-6.444 223.85 223.85 0 00-12.442 2.037c-3.706.715-6.37 4.206-6.068 7.972.309 3.852 3.615 6.924 7.484 6.924a7.53 7.53 0 001.432-.137 208.898 208.898 0 0111.603-1.9 7.515 7.515 0 006.442-8.452zm54.39-6.104a224.898 224.898 0 00-12.527-1.471c-4.141-.347-7.784 2.686-8.152 6.819a7.516 7.516 0 006.819 8.151c3.897.347 7.829.809 11.69 1.371 4.105.6 8.02-2.375 8.539-6.49.504-4.009-2.365-7.797-6.369-8.38zm60.297 17.769c-3.8-1.735-7.709-3.39-11.619-4.913a7.515 7.515 0 00-5.458 14.003 207.494 207.494 0 0110.832 4.58 7.49 7.49 0 003.117.681c3.612 0 6.791-2.675 7.41-6.234.58-3.323-1.215-6.716-4.282-8.117zm-173.695 2.819a7.512 7.512 0 00-9.915-3.824 222.513 222.513 0 00-9.326 4.395c-2.375 1.187-4.549 2.327-5.589 4.925-1.944 4.855 1.747 10.314 6.982 10.314a7.503 7.503 0 003.424-.83 208.755 208.755 0 0110.6-5.064 7.515 7.515 0 003.824-9.916zM52.087 195.411a7.516 7.516 0 00-9.444 4.872 224.326 224.326 0 00-3.5 12.136 7.517 7.517 0 005.401 9.155c3.968 1.023 8.131-1.436 9.153-5.401a209.602 209.602 0 013.263-11.316 7.517 7.517 0 00-4.873-9.446zm70.528-97.527a7.516 7.516 0 00-10.588-.919 228.208 228.208 0 00-9.418 8.374c-2.786 2.621-3.133 7.056-.791 10.078 2.677 3.453 7.901 3.866 11.087.872a212.399 212.399 0 018.791-7.818 7.514 7.514 0 00.919-10.587zM80.46 141.661a7.513 7.513 0 00-10.43 2.04 223.773 223.773 0 00-6.742 10.665 7.517 7.517 0 002.629 10.297c3.525 2.09 8.208.892 10.297-2.628a208.729 208.729 0 016.287-9.944 7.514 7.514 0 00-2.041-10.43zm316.541-47.148a221.155 221.155 0 00-4.879-3.849 7.518 7.518 0 00-10.537 1.392 7.517 7.517 0 001.392 10.537 213.375 213.375 0 014.556 3.593c3.401 2.76 8.569 1.954 10.992-1.679 2.124-3.182 1.442-7.589-1.524-9.994z"/><path d="M256 116.698c-83.701 0-151.796 68.096-151.796 151.796S172.299 420.291 256 420.291c83.7 0 151.796-68.096 151.796-151.797S339.7 116.698 256 116.698zm0 288.564c-75.413 0-136.767-61.353-136.767-136.767 0-75.414 61.354-136.767 136.767-136.767 75.414 0 136.767 61.353 136.767 136.767 0 75.414-61.353 136.767-136.767 136.767z"/></svg>