<svg width="14" height="14" xmlns="http://www.w3.org/2000/svg"><g fill="#4A4A4A" fill-rule="evenodd"><path d="M1.918 9.146a.582.582 0 1 0 .824-.824L1.406 6.987l2.02-2.02A5.032 5.032 0 0 1 8.03 3.601a.582.582 0 1 0 .24-1.14A6.196 6.196 0 0 0 2.6 4.144L.172 6.575a.582.582 0 0 0 0 .824l1.747 1.747Zm11.885-2.571-1.748-1.748a.582.582 0 1 0-.823.824l1.336 1.335-2.02 2.02a5.032 5.032 0 0 1-4.605 1.367.582.582 0 1 0-.24 1.14 6.196 6.196 0 0 0 5.669-1.684l2.43-2.43a.582.582 0 0 0 0-.824Z"/><path d="M4.076 6.987a.582.582 0 1 0 1.164 0c0-.965.782-1.747 1.747-1.747a.582.582 0 1 0 0-1.164 2.911 2.911 0 0 0-2.911 2.91Zm4.657 0c0 .964-.782 1.746-1.746 1.746a.582.582 0 1 0 0 1.165 2.911 2.911 0 0 0 2.91-2.911.582.582 0 1 0-1.164 0ZM13.802.17a.582.582 0 0 0-.823 0L.171 12.98a.582.582 0 0 0 .823.822L13.802.994a.582.582 0 0 0 0-.823Z"/></g></svg>