<svg width="18" height="15" xmlns="http://www.w3.org/2000/svg"><path d="M17.247 4.898H16.2V2.979a.829.829 0 0 0-.82-.836H7.954L6.455 0H.82A.83.83 0 0 0 0 .836V14.21h.002a.79.79 0 0 0 .156.482c.147.196.37.308.611.308h13.428a.764.764 0 0 0 .735-.555L18 5.862v-.054c0-.527-.317-.91-.753-.91ZM1 1.211A.21.21 0 0 1 1.207 1H6.22l1.412 2.017h7.282a.21.21 0 0 1 .207.211v1.807H4.031a.716.716 0 0 0-.692.522L1 12.067V1.211Zm13.206 12.674a.16.16 0 0 1-.155.115H1.364a.158.158 0 0 1-.127-.061c-.018-.023-.045-.07-.035-.113l2.889-7.711A.16.16 0 0 1 4.245 6h12.688c.107 0 .135.15.142.226l-2.87 7.659Z" fill="#606060"/></svg>