<?xml version="1.0" encoding="utf-8"?>
<!-- Generator: Adobe Illustrator 22.1.0, SVG Export Plug-In . SVG Version: 6.00 Build 0)  -->
<svg version="1.1"
	 id="Layer_1" inkscape:version="0.92.3 (2405546, 2018-03-11)" sodipodi:docname="galaxy_logo_hub_white.svg" xmlns:cc="http://creativecommons.org/ns#" xmlns:dc="http://purl.org/dc/elements/1.1/" xmlns:inkscape="http://www.inkscape.org/namespaces/inkscape" xmlns:rdf="http://www.w3.org/1999/02/22-rdf-syntax-ns#" xmlns:sodipodi="http://sodipodi.sourceforge.net/DTD/sodipodi-0.dtd" xmlns:svg="http://www.w3.org/2000/svg"
	 xmlns="http://www.w3.org/2000/svg" xmlns:xlink="http://www.w3.org/1999/xlink" x="0px" y="0px" viewBox="0 0 605.3 127.8"
	 style="enable-background:new 0 0 605.3 127.8;" xml:space="preserve">
<style type="text/css">
	.st0{fill:url(#path4242_1_);}
</style>
<sodipodi:namedview  bordercolor="#666666" borderopacity="1" gridtolerance="10" guidetolerance="10" id="namedview4261" inkscape:current-layer="Layer_1" inkscape:cx="306" inkscape:cy="97" inkscape:pagecheckerboard="true" inkscape:pageopacity="0" inkscape:pageshadow="2" inkscape:window-height="904" inkscape:window-maximized="0" inkscape:window-width="1423" inkscape:window-x="277" inkscape:window-y="142" inkscape:zoom="1.8267974" objecttolerance="10" pagecolor="#ffffff" showgrid="false">
	</sodipodi:namedview>
<path id="path4233" d="M84.8,42.2H1.9c-1.1,0-1.9-0.9-1.9-1.9V18.7c0-1.1,0.9-1.9,1.9-1.9h82.9c1.1,0,1.9,0.9,1.9,1.9V40
	C86.7,41.1,86,42.2,84.8,42.2z"/>
<path id="path4235" d="M62.6,75.5H2.1C1,75.5,0,74.6,0,73.4V52.2c0-1.1,0.9-2.1,2.1-2.1h60.5c1.1,0,2.1,0.9,2.1,2.1v21.2
	C64.7,74.6,63.8,75.5,62.6,75.5z"/>
<linearGradient id="path4242_1_" gradientUnits="userSpaceOnUse" x1="-14.717" y1="72.7526" x2="99.6101" y2="72.7526" gradientTransform="matrix(0.7601 0 0 -0.7601 40.8761 150.8993)">
	<stop  offset="0.1656" style="stop-color:#D0BD2B"/>
	<stop  offset="1" style="stop-color:#D0BD2B;stop-opacity:0"/>
</linearGradient>
<path id="path4242" class="st0" d="M114.6,108.3H31.7c-1.1,0-2.1-0.9-2.1-2.1V85c0-1.1,0.9-2.1,2.1-2.1h82.7c1.1,0,2.1,0.9,2.1,2.1
	v21.2C116.5,107.4,115.6,108.3,114.6,108.3z"/>
<g id="g4256">
	<path id="path4244" d="M228.5,95.6c-4.4,1.6-10.1,3.4-17.1,4.9c-7.2,1.6-14.3,2.5-21.3,2.5c-16.4,0-29.3-4.4-38.6-13.4
		c-9.3-9-13.9-21.3-13.9-37c0-15,4.8-27.2,14.1-36.3C161,7.1,174.3,2.5,191,2.5c6.3,0,12.3,0.5,18.2,1.8c5.8,1.1,12.2,3.4,19.2,6.9
		v22.6h-2.8c-1.2-0.9-3-2.1-5.3-3.9c-2.3-1.8-4.6-3.2-6.7-4.2c-2.5-1.4-5.5-2.6-8.8-3.5c-3.4-1.1-6.9-1.6-10.8-1.6
		c-4.4,0-8.5,0.7-12,1.9c-3.5,1.2-6.9,3.4-9.7,6c-2.8,2.6-4.9,6-6.5,9.9c-1.6,4.1-2.3,8.6-2.3,13.8c0,10.8,2.8,18.9,8.5,24.5
		c5.6,5.6,14.1,8.5,25.2,8.5c1.1,0,1.9,0,3.2,0c1.1,0,2.1,0,3.2-0.2V66h-19.2V47.8h44.5L228.5,95.6L228.5,95.6z"/>
	<path id="path4246" d="M287.6,93.5c-1.2,1.1-2.8,2.1-4.8,3.4c-1.8,1.4-3.7,2.5-5.3,3.2c-2.3,1.1-4.8,1.8-7.2,2.3
		c-2.5,0.5-5.1,0.7-8.1,0.7c-6.9,0-12.7-2.1-17.5-6.5c-4.8-4.2-7.1-9.7-7.1-16.4c0-5.3,1.2-9.7,3.5-13.1c2.3-3.4,5.8-6,10.1-7.9
		c4.2-1.9,9.7-3.4,16-4.2c6.3-0.9,13.1-1.4,19.9-1.8v-0.4c0-4.1-1.6-6.9-4.9-8.3c-3.4-1.6-8.1-2.3-14.5-2.3c-3.9,0-7.9,0.7-12.3,2.1
		c-4.4,1.4-7.6,2.5-9.3,3.2H244V29.8c2.5-0.7,6.5-1.4,12.2-2.3c5.5-0.9,11.1-1.4,16.8-1.4c13.2,0,22.9,2.1,28.7,6.2
		c5.8,4.1,8.8,10.4,8.8,19.2v49.6h-23.1L287.6,93.5L287.6,93.5z M287.6,82V67c-3.2,0.2-6.5,0.5-10.2,1.1s-6.5,1.1-8.3,1.6
		c-2.3,0.7-4.1,1.8-5.3,3.2c-1.2,1.4-1.8,3.4-1.8,5.5c0,1.6,0.2,2.8,0.4,3.7c0.2,1.1,0.9,1.8,1.9,2.8c1.1,0.9,2.1,1.6,3.5,1.9
		c1.4,0.4,3.5,0.5,6.5,0.5c2.3,0,4.8-0.5,7.2-1.4C283.7,84.9,285.8,83.6,287.6,82z"/>
	<path id="path4248" d="M349.9,101.1h-23.5V0h23.5V101.1z"/>
	<path id="path4250" d="M410,93.5c-1.2,1.1-2.8,2.1-4.8,3.4c-1.8,1.4-3.7,2.5-5.3,3.2c-2.3,1.1-4.8,1.8-7.2,2.3
		c-2.5,0.5-5.1,0.7-8.1,0.7c-6.9,0-12.7-2.1-17.5-6.5c-4.8-4.2-7.1-9.7-7.1-16.4c0-5.3,1.2-9.7,3.5-13.1c2.3-3.4,5.8-6,10.1-7.9
		c4.4-1.9,9.7-3.4,16-4.2c6.3-0.9,13.1-1.4,19.9-1.8v-0.4c0-4.1-1.6-6.9-4.9-8.3c-3.4-1.6-8.1-2.3-14.5-2.3c-3.9,0-7.9,0.7-12.3,2.1
		c-4.4,1.4-7.6,2.5-9.3,3.2h-2.1V29.8c2.5-0.7,6.5-1.4,12.2-2.3c5.5-0.9,11.1-1.4,16.8-1.4c13.2,0,22.9,2.1,28.7,6.2
		c6,4.1,8.8,10.4,8.8,19.2v49.6h-23.1L410,93.5L410,93.5z M410,82V67c-3.2,0.2-6.5,0.5-10.2,1.1s-6.5,1.1-8.3,1.6
		c-2.3,0.7-4.1,1.8-5.3,3.2c-1.2,1.4-1.8,3.4-1.8,5.5c0,1.6,0.2,2.8,0.4,3.7c0.2,1.1,0.9,1.8,1.9,2.8c1.1,0.9,2.1,1.6,3.5,1.9
		c1.4,0.4,3.5,0.5,6.5,0.5c2.3,0,4.8-0.5,7.2-1.4C406.1,84.9,408.2,83.6,410,82z"/>
	<path id="path4252" d="M525,101.1h-27.3l-15.5-21.7l-16,21.9h-26.8L468,64.8l-28.2-36.5h27.3l15.4,21.5l15.3-21.5h26.8l-28.4,36
		L525,101.1z"/>
	<path id="path4254" d="M564.7,75.3l16.6-47.1h24l-40.6,99.6h-25.4l11.6-27.3l-28.2-72.3h24.5L564.7,75.3z"/>
</g>
</svg>
