<?xml version="1.0" encoding="UTF-8"?>
<svg width="60px" height="32px" viewBox="0 0 60 32" version="1.1" xmlns="http://www.w3.org/2000/svg" xmlns:xlink="http://www.w3.org/1999/xlink">
    <!-- Generator: Sketch 49.3 (51167) - http://www.bohemiancoding.com/sketch -->
    <title>gen3</title>
    <desc>Created with Sketch.</desc>
    <defs>
        <polygon id="path-1" points="0.0129230769 0.430730159 13.8108718 0.430730159 13.8108718 22.5974349 0.0129230769 22.5974349"></polygon>
        <polygon id="path-3" points="0 0.231365079 3.76907692 0.231365079 3.76907692 5.48850794 0 5.48850794"></polygon>
        <polygon id="path-5" points="0.369179487 0.343111111 4.03841026 0.343111111 4.03841026 4.57142857 0.369179487 4.57142857"></polygon>
        <polygon id="path-7" points="0.312564103 0.343111111 3.98179487 0.343111111 3.98179487 4.57142857 0.312564103 4.57142857"></polygon>
        <polygon id="path-9" points="0.225076923 0.124647619 4.25584615 0.124647619 4.25584615 5.58730159 0.225076923 5.58730159"></polygon>
        <polygon id="path-11" points="0.266205128 0.34295873 3.94261538 0.34295873 3.94261538 4.57142857 0.266205128 4.57142857"></polygon>
        <polygon id="path-13" points="0.181282051 0.34295873 3.85820513 0.34295873 3.85820513 4.57142857 0.181282051 4.57142857"></polygon>
        <polygon id="path-15" points="0.147897436 0.34295873 3.6094359 0.34295873 3.6094359 4.57142857 0.147897436 4.57142857"></polygon>
    </defs>
    <g id="Symbols" stroke="none" stroke-width="1" fill="none" fill-rule="evenodd">
        <g id="footer" transform="translate(-820.000000, -34.000000)">
            <g id="gen3" transform="translate(820.000000, 34.000000)">
                <g id="Page-1">
                    <path d="M0.838358974,11.8135365 C0.838358974,4.5911873 5.14605128,0.994996825 9.73015385,0.994996825 C12.4993846,0.994996825 14.0993846,1.78737778 15.7609231,3.3111873 L14.1609231,4.95639365 C12.8686154,3.76833016 11.484,3.21975873 9.73015385,3.21975873 C6.65374359,3.21975873 3.69989744,5.35309206 3.69989744,11.8135365 C3.69989744,17.9087746 5.63835897,20.4377905 9.33066667,20.4377905 C10.8070769,20.4377905 12.1609231,20.1025524 13.3609231,19.4325841 L13.3609231,13.0630603 L9.20707692,13.0630603 L8.89989744,10.8382984 L16.0378462,10.8382984 L16.0378462,20.833981 C14.1301538,21.9006476 12.0993846,22.6625524 9.11528205,22.6625524 C4.06912821,22.6625524 0.838358974,19.0663619 0.838358974,11.8135365" id="Fill-1" fill="#FEFEFE"></path>
                    <polygon id="Fill-3" fill="#FEFEFE" points="20.0821538 14.1126095 25.5970256 14.1126095 25.5970256 15.6272762 20.0821538 15.6272762 20.0821538 20.8336254 26.8462564 20.8336254 26.8462564 22.3274667 18.2293333 22.3274667 18.2293333 7.62575238 26.6524103 7.62575238 26.4370256 9.16226032 20.0821538 9.16226032"></polygon>
                    <path d="M30.0325641,9.4184127 C30.075641,10.0584127 30.2910256,12.704254 30.2910256,14.9660952 L30.2910256,22.327619 L28.5464103,22.327619 L28.5464103,7.62590476 L31.0879487,7.62590476 L36.4089744,20.5991111 C36.3874359,20.0017778 36.1505128,17.6332698 36.1505128,14.9874286 L36.1505128,7.62590476 L37.895641,7.62590476 L37.895641,22.327619 L35.2674359,22.327619 L30.0325641,9.4184127 Z" id="Fill-5" fill="#FEFEFE"></path>
                    <g id="Group-9" transform="translate(42.051282, 0.077156)">
                        <mask id="mask-2" fill="white">
                            <use xlink:href="#path-1"></use>
                        </mask>
                        <g id="Clip-8"></g>
                        <path d="M6.22471795,12.2919111 L6.22471795,9.52822857 C7.60779487,9.52822857 8.5385641,9.37533968 9.01497436,9.0695619 C9.86574359,8.53267302 10.2913846,7.67172063 10.2913846,6.48619683 C10.2913846,5.56987937 9.98266667,4.82422857 9.36574359,4.25026032 C8.75753846,3.66714921 7.96779487,3.37508571 6.996,3.37508571 C6.08882051,3.37508571 5.38779487,3.59299048 4.89241026,4.02778413 C4.416,4.47222857 4.06010256,5.22245079 3.82676923,6.27794286 L0.573435897,6.27794286 C0.910358974,4.25991111 1.60164103,2.78029206 2.64882051,1.84060952 C3.69548718,0.900926984 5.15907692,0.430577778 7.03805128,0.430577778 C8.93548718,0.430577778 10.4826667,0.986260317 11.6795897,2.0976254 C12.876,3.19933968 13.4744615,4.62054603 13.4744615,6.36124444 C13.4744615,8.32441905 12.6888205,9.85229206 11.1185641,10.9448635 C12.9134359,11.9912127 13.8108718,13.6902603 13.8108718,16.0420063 C13.8108718,17.9681016 13.1565128,19.5416889 11.8477949,20.7642921 C10.5385641,21.9863873 8.86112821,22.5974349 6.8134359,22.5974349 C4.20523077,22.5974349 2.27035897,21.6486095 1.00830769,19.7504508 C0.484717949,18.9540063 0.152923077,17.8522921 0.0129230769,16.4448 L3.16779487,16.4448 C3.336,17.4820063 3.74471795,18.2759111 4.39497436,18.8265143 C5.04420513,19.3776254 5.89292308,19.652927 6.94010256,19.652927 C7.996,19.652927 8.86984615,19.3060063 9.56215385,18.6111492 C10.2534359,17.8985143 10.5995897,16.9959111 10.5995897,15.9028317 C10.5995897,14.4587683 10.0811282,13.4307048 9.04317949,12.8196571 C8.43548718,12.4681651 7.496,12.2919111 6.22471795,12.2919111" id="Fill-7" fill="#DBCB32" mask="url(#mask-2)"></path>
                    </g>
                    <g id="Group-12" transform="translate(0.000000, 25.981917)">
                        <mask id="mask-4" fill="white">
                            <use xlink:href="#path-3"></use>
                        </mask>
                        <g id="Clip-11"></g>
                        <path d="M1.38446154,0.909460317 L0.892153846,0.909460317 L0.892153846,4.81803175 L1.39215385,4.81803175 C2.13061538,4.81803175 2.83061538,4.43707937 2.83061538,2.82946032 C2.83061538,1.16088889 2.09215385,0.909460317 1.38446154,0.909460317 M1.29984615,5.48850794 L-0.000153846154,5.48850794 L-0.000153846154,0.231365079 L1.21523077,0.231365079 C2.50753846,0.231365079 3.76907692,0.650412698 3.76907692,2.82946032 C3.76907692,5.01561905 2.48446154,5.48850794 1.29984615,5.48850794" id="Fill-10" fill="#FEFEFE" mask="url(#mask-4)"></path>
                    </g>
                    <g id="Group-15" transform="translate(4.615385, 26.997790)">
                        <mask id="mask-6" fill="white">
                            <use xlink:href="#path-5"></use>
                        </mask>
                        <g id="Clip-14"></g>
                        <path d="M2.87687179,3.4288254 L2.87687179,2.53739683 L2.39994872,2.53739683 C1.59225641,2.53739683 1.27687179,2.81930159 1.27687179,3.29168254 C1.27687179,3.71834921 1.50764103,3.94692063 1.96148718,3.94692063 C2.31533333,3.94692063 2.67687179,3.75644444 2.87687179,3.4288254 M4.03841026,3.99263492 L3.83841026,4.57168254 C3.44610256,4.52596825 3.14610256,4.36596825 2.99994872,4.01549206 C2.69994872,4.3888254 2.22302564,4.57168254 1.70764103,4.57168254 C0.876871795,4.57168254 0.369179487,4.0688254 0.369179487,3.32215873 C0.369179487,2.48406349 1.06148718,2.00406349 2.29994872,2.00406349 L2.87687179,2.00406349 L2.87687179,1.74501587 C2.87687179,1.21930159 2.54610256,1.0135873 1.97687179,1.0135873 C1.70764103,1.0135873 1.30764103,1.07453968 0.899948718,1.21930159 L0.684564103,0.617396825 C1.19225641,0.426920635 1.69225641,0.343111111 2.10764103,0.343111111 C3.19994872,0.343111111 3.73071795,0.845968254 3.73071795,1.69168254 L3.73071795,3.48977778 C3.73071795,3.80215873 3.82302564,3.92406349 4.03841026,3.99263492" id="Fill-13" fill="#FEFEFE" mask="url(#mask-6)"></path>
                    </g>
                    <path d="M12.5458462,31.569219 C11.5996923,31.569219 11.0996923,31.0435048 11.0996923,30.2511238 L11.0996923,28.0720762 L10.1996923,28.0720762 L10.1996923,27.4473143 L11.0996923,27.4473143 L11.0996923,26.5487746 L11.9612308,26.449219 L11.9612308,27.4473143 L13.3381538,27.4473143 L13.2381538,28.0720762 L11.9612308,28.0720762 L11.9612308,30.2435048 C11.9612308,30.6777905 12.1689231,30.8835048 12.6689231,30.8835048 C12.9612308,30.8835048 13.2150769,30.8073143 13.4227692,30.6930286 L13.7304615,31.2568381 C13.4304615,31.4473143 12.9996923,31.569219 12.5458462,31.569219" id="Fill-16" fill="#FEFEFE"></path>
                    <g id="Group-20" transform="translate(14.871795, 26.997790)">
                        <mask id="mask-8" fill="white">
                            <use xlink:href="#path-7"></use>
                        </mask>
                        <g id="Clip-19"></g>
                        <path d="M2.82025641,3.4288254 L2.82025641,2.53739683 L2.34333333,2.53739683 C1.53564103,2.53739683 1.22025641,2.81930159 1.22025641,3.29168254 C1.22025641,3.71834921 1.45102564,3.94692063 1.90487179,3.94692063 C2.25871795,3.94692063 2.62025641,3.75644444 2.82025641,3.4288254 M3.98179487,3.99263492 L3.78179487,4.57168254 C3.38948718,4.52596825 3.08948718,4.36596825 2.94333333,4.01549206 C2.64333333,4.3888254 2.16641026,4.57168254 1.65102564,4.57168254 C0.82025641,4.57168254 0.312564103,4.0688254 0.312564103,3.32215873 C0.312564103,2.48406349 1.00487179,2.00406349 2.24333333,2.00406349 L2.82025641,2.00406349 L2.82025641,1.74501587 C2.82025641,1.21930159 2.48948718,1.0135873 1.92025641,1.0135873 C1.65102564,1.0135873 1.25102564,1.07453968 0.843333333,1.21930159 L0.627948718,0.617396825 C1.13564103,0.426920635 1.63564103,0.343111111 2.05102564,0.343111111 C3.14333333,0.343111111 3.67410256,0.845968254 3.67410256,1.69168254 L3.67410256,3.48977778 C3.67410256,3.80215873 3.76641026,3.92406349 3.98179487,3.99263492" id="Fill-18" fill="#FEFEFE" mask="url(#mask-8)"></path>
                    </g>
                    <g id="Group-23" transform="translate(25.128205, 25.981917)">
                        <mask id="mask-10" fill="white">
                            <use xlink:href="#path-9"></use>
                        </mask>
                        <g id="Clip-22"></g>
                        <path d="M4.17892308,0.657980952 L3.71738462,1.20655238 C3.39430769,0.947504762 3.03276923,0.817980952 2.61738462,0.817980952 C1.82507692,0.817980952 1.15584615,1.36655238 1.15584615,2.85226667 C1.15584615,4.30750476 1.78661538,4.87131429 2.62507692,4.87131429 C3.19430769,4.87131429 3.53276923,4.6503619 3.82507692,4.42179048 L4.25584615,4.96274286 C3.902,5.3056 3.37123077,5.58750476 2.59430769,5.58750476 C1.24046154,5.58750476 0.225076923,4.63512381 0.225076923,2.85226667 C0.225076923,1.08464762 1.28661538,0.124647619 2.57892308,0.124647619 C3.302,0.124647619 3.74815385,0.31512381 4.17892308,0.657980952" id="Fill-21" fill="#FEFEFE" mask="url(#mask-10)"></path>
                    </g>
                    <g id="Group-26" transform="translate(30.256410, 26.997790)">
                        <mask id="mask-12" fill="white">
                            <use xlink:href="#path-11"></use>
                        </mask>
                        <g id="Clip-25"></g>
                        <path d="M1.17389744,2.46105397 C1.17389744,3.45914921 1.48158974,3.91629206 2.10466667,3.91629206 C2.72774359,3.91629206 3.0354359,3.45914921 3.0354359,2.45343492 C3.0354359,1.46295873 2.72774359,1.00581587 2.11235897,1.00581587 C1.48928205,1.00581587 1.17389744,1.46295873 1.17389744,2.46105397 M3.94261538,2.45343492 C3.94261538,3.73343492 3.28158974,4.57153016 2.10466667,4.57153016 C0.920051282,4.57153016 0.266205128,3.76391111 0.266205128,2.46105397 C0.266205128,1.20391111 0.92774359,0.34295873 2.11235897,0.34295873 C3.29697436,0.34295873 3.94261538,1.17343492 3.94261538,2.45343492" id="Fill-24" fill="#FEFEFE" mask="url(#mask-12)"></path>
                    </g>
                    <path d="M39.4458462,28.4836571 L39.4458462,31.4703238 L38.6843077,31.4703238 L38.6843077,28.5979429 C38.6843077,28.1788952 38.6535385,28.0036571 38.4150769,28.0036571 C38.2150769,28.0036571 38.0145641,28.1179429 37.8150769,28.4074667 L37.8150769,31.4703238 L37.1150769,31.4703238 L37.1150769,28.5979429 C37.1150769,28.1788952 37.0843077,28.0036571 36.8458462,28.0036571 C36.6381538,28.0036571 36.4458462,28.1179429 36.2458462,28.4074667 L36.2458462,31.4703238 L35.4766154,31.4703238 L35.4766154,27.4474667 L36.1227692,27.4474667 L36.1843077,27.8817524 C36.4150769,27.5617524 36.6612308,27.3408 37.0535385,27.3408 C37.3612308,27.3408 37.6299487,27.4703238 37.7458462,27.8512762 C37.9766154,27.5465143 38.2458462,27.3408 38.6381538,27.3408 C39.0991795,27.3408 39.4458462,27.5922286 39.4458462,28.4836571" id="Fill-27" fill="#FEFEFE"></path>
                    <path d="M44.5455385,28.4836571 L44.5455385,31.4703238 L43.784,31.4703238 L43.784,28.5979429 C43.784,28.1788952 43.7532308,28.0036571 43.5142564,28.0036571 C43.3147692,28.0036571 43.1147692,28.1179429 42.9142564,28.4074667 L42.9142564,31.4703238 L42.2147692,31.4703238 L42.2147692,28.5979429 C42.2147692,28.1788952 42.184,28.0036571 41.9455385,28.0036571 C41.7373333,28.0036571 41.5450256,28.1179429 41.3455385,28.4074667 L41.3455385,31.4703238 L40.5763077,31.4703238 L40.5763077,27.4474667 L41.2224615,27.4474667 L41.284,27.8817524 C41.5147692,27.5617524 41.7604103,27.3408 42.1532308,27.3408 C42.4609231,27.3408 42.7301538,27.4703238 42.8455385,27.8512762 C43.0763077,27.5465143 43.3450256,27.3408 43.7378462,27.3408 C44.1988718,27.3408 44.5455385,27.5922286 44.5455385,28.4836571" id="Fill-29" fill="#FEFEFE"></path>
                    <g id="Group-33" transform="translate(45.641026, 26.997790)">
                        <mask id="mask-14" fill="white">
                            <use xlink:href="#path-13"></use>
                        </mask>
                        <g id="Clip-32"></g>
                        <path d="M1.08897436,2.46105397 C1.08897436,3.45914921 1.39717949,3.91629206 2.01974359,3.91629206 C2.64282051,3.91629206 2.95051282,3.45914921 2.95051282,2.45343492 C2.95051282,1.46295873 2.64282051,1.00581587 2.0274359,1.00581587 C1.40435897,1.00581587 1.08897436,1.46295873 1.08897436,2.46105397 M3.85820513,2.45343492 C3.85820513,3.73343492 3.19666667,4.57153016 2.01974359,4.57153016 C0.835128205,4.57153016 0.181282051,3.76391111 0.181282051,2.46105397 C0.181282051,1.20391111 0.843333333,0.34295873 2.0274359,0.34295873 C3.2125641,0.34295873 3.85820513,1.17343492 3.85820513,2.45343492" id="Fill-31" fill="#FEFEFE" mask="url(#mask-14)"></path>
                    </g>
                    <path d="M51.1375897,27.4474667 L51.8837436,27.4474667 L51.9452821,27.973181 C52.2837436,27.5617524 52.768359,27.3408 53.2606667,27.3408 C54.014,27.3408 54.3914359,27.7827048 54.3914359,28.5369905 L54.3914359,31.4703238 L53.5298974,31.4703238 L53.5298974,28.9636571 C53.5298974,28.2627048 53.4452821,27.9960381 52.9529744,27.9960381 C52.5529744,27.9960381 52.2145128,28.2779429 51.9991282,28.5827048 L51.9991282,31.4703238 L51.1375897,31.4703238 L51.1375897,27.4474667 Z" id="Fill-34" fill="#FEFEFE"></path>
                    <g id="Group-38" transform="translate(55.897436, 26.997790)">
                        <mask id="mask-16" fill="white">
                            <use xlink:href="#path-15"></use>
                        </mask>
                        <g id="Clip-37"></g>
                        <path d="M2.69405128,3.38295873 C2.69405128,3.05533968 2.56328205,2.90295873 1.72482051,2.6896254 C0.917128205,2.48391111 0.386358974,2.20200635 0.386358974,1.50105397 C0.386358974,0.807720635 1.0094359,0.34295873 2.0094359,0.34295873 C2.69405128,0.34295873 3.18635897,0.541053968 3.55558974,0.807720635 L3.18635897,1.34867302 C2.87097436,1.14295873 2.5094359,0.991085714 2.03251282,0.991085714 C1.47866667,0.991085714 1.26328205,1.16581587 1.26328205,1.43248254 C1.26328205,1.73724444 1.48687179,1.85153016 2.29405128,2.07248254 C3.08635897,2.28581587 3.6094359,2.56010159 3.6094359,3.32200635 C3.6094359,4.19819683 2.74738462,4.57153016 1.81712821,4.57153016 C1.06328205,4.57153016 0.525333333,4.32772063 0.147897436,4.00772063 L0.60174359,3.4896254 C0.917128205,3.74105397 1.34020513,3.92391111 1.81712821,3.92391111 C2.35558974,3.92391111 2.69405128,3.71819683 2.69405128,3.38295873" id="Fill-36" fill="#FEFEFE" mask="url(#mask-16)"></path>
                    </g>
                </g>
            </g>
        </g>
    </g>
</svg>