<svg width="195" height="89" xmlns="http://www.w3.org/2000/svg"><g fill="none" fill-rule="evenodd"><path d="M194.765 61.404c0 15.197-12.205 27.527-27.396 27.527h-.125c-15.2 0-27.405-12.33-27.405-27.527 0-2.242 1.867-4.107 4.108-4.107 2.242 0 4.115 1.865 4.115 4.107a19.24 19.24 0 0019.307 19.305c10.584 0 19.18-8.59 19.18-19.305 0-10.215-9.47-19.303-20.427-19.303-1.498 0-2.994-.873-3.613-2.246-.752-1.367-.627-2.986.252-4.232L182.81 8.22h-38.863c-2.241 0-4.108-1.869-4.108-4.113 0-2.24 1.867-4.107 4.108-4.107h46.836c1.498 0 2.986.871 3.613 2.242.744 1.367.619 2.986-.25 4.232l-20.68 28.4c12.088 3.116 21.299 14.075 21.299 26.53" fill="#D9C92E"/><path d="M41.886 37.82v26.19c0 1.701-1.422 3.12-3.123 3.12-1.797 0-3.12-1.419-3.12-3.12v-1.044c-3.778 3.688-8.98 6.05-14.748 6.05C9.454 69.015 0 59.657 0 48.122V20.99C0 9.455 9.454 0 20.895 0c11.534 0 20.99 9.455 20.99 20.99 0 1.701-1.421 3.12-3.122 3.12-1.797 0-3.12-1.419-3.12-3.12 0-8.133-6.618-14.75-14.748-14.75-8.037 0-14.655 6.617-14.655 14.75v27.133c0 8.035 6.618 14.654 14.655 14.654 8.13 0 14.749-6.619 14.749-14.654V40.94H21.84c-1.701 0-3.12-1.418-3.12-3.119 0-1.703 1.419-3.123 3.12-3.123h16.922c1.7 0 3.123 1.42 3.123 3.123m15.602-.475v23.543h22.13c1.696 0 3.116 1.418 3.116 3.12 0 1.702-1.42 3.12-3.117 3.12h-25.25c-1.795 0-3.119-1.418-3.119-3.12V4.538c0-1.701 1.324-3.117 3.12-3.117h25.25c1.696 0 3.116 1.416 3.116 3.117 0 1.704-1.42 3.122-3.117 3.122H57.487v23.447h22.13c1.696 0 3.116 1.42 3.116 3.12 0 1.796-1.42 3.12-3.117 3.12H57.487zm65.053 28.187l-24.016-48.03v46.612c0 1.793-1.418 3.12-3.119 3.12-1.703 0-3.12-1.327-3.12-3.12V4.265c0-1.418.944-2.74 2.362-3.025 1.42-.379 2.932.285 3.498 1.607l24.11 48.125V4.265c0-1.703 1.324-3.12 3.121-3.12 1.7 0 3.117 1.417 3.117 3.12v59.85c0 1.512-1.039 2.74-2.457 3.12h-.66c-1.227 0-2.268-.569-2.836-1.702M5.1 85.567c2.545 0 4.397-1.869 4.397-4.432 0-2.545-1.852-4.397-4.397-4.397H2.815v8.83H5.1zM1.049 75.422c0-.173.138-.329.312-.329h3.98c3.343 0 6.077 2.718 6.077 6.042a6.083 6.083 0 01-6.076 6.077H1.36c-.174 0-.312-.156-.312-.33v-11.46zm18.991 7.67l-2.13-4.743h-.088l-2.11 4.743h4.327zm-7.844 3.67l5.315-11.65a.404.404 0 01.295-.192h.173c.086 0 .243.087.294.192l5.28 11.65c.104.226-.035.45-.294.45h-1.09a.403.403 0 01-.399-.26l-1.074-2.372h-5.66c-.347.797-.71 1.576-1.057 2.372a.434.434 0 01-.397.26H12.49c-.259 0-.397-.224-.294-.45zM26.305 76.72h-2.821a.329.329 0 01-.33-.327v-.97a.33.33 0 01.33-.33h7.444a.33.33 0 01.329.33v.97a.328.328 0 01-.33.328h-2.821v10.162a.34.34 0 01-.33.329h-1.142a.34.34 0 01-.33-.33v-10.16zm12.378 6.372l-2.13-4.743h-.086l-2.112 4.743h4.328zm-7.843 3.67l5.316-11.65a.4.4 0 01.294-.192h.172c.087 0 .243.087.294.192l5.282 11.65c.102.226-.036.45-.295.45h-1.091a.404.404 0 01-.4-.26L39.34 84.58h-5.661c-.346.797-.71 1.576-1.056 2.372a.434.434 0 01-.398.26h-1.091c-.26 0-.398-.224-.294-.45zM53.102 74.92c1.749 0 3.013.589 4.189 1.61a.32.32 0 01.018.486l-.762.779c-.121.154-.276.154-.432 0-.815-.711-1.922-1.161-2.996-1.161-2.475 0-4.345 2.078-4.345 4.502s1.887 4.483 4.362 4.483c1.264 0 2.148-.502 2.979-1.142.156-.121.31-.104.415-.017l.797.779c.137.12.103.346-.018.467-1.177 1.143-2.666 1.679-4.207 1.679-3.463 0-6.25-2.752-6.25-6.215a6.236 6.236 0 016.25-6.25m11.961 10.734c2.477 0 4.502-2.009 4.502-4.484 0-2.458-2.025-4.519-4.502-4.519-2.459 0-4.483 2.061-4.483 4.52a4.496 4.496 0 004.483 4.483m0-10.734a6.222 6.222 0 016.233 6.25c0 3.463-2.77 6.214-6.234 6.214a6.176 6.176 0 01-6.214-6.214c0-3.462 2.753-6.25 6.215-6.25m10.023.26c.034-.138.173-.26.312-.26h.277c.102 0 .259.087.293.192l3.618 8.845h.07l3.601-8.845c.035-.105.174-.192.294-.192h.277c.139 0 .278.122.312.26l2.13 11.634c.051.243-.07.398-.312.398h-1.126a.36.36 0 01-.329-.242l-1.281-7.738h-.052l-3.116 7.964c-.034.103-.139.189-.294.189h-.312c-.138 0-.259-.086-.294-.19l-3.133-7.963h-.07l-1.246 7.738c-.018.12-.174.242-.311.242h-1.126c-.243 0-.364-.155-.329-.398l2.147-11.634zm15.042 0c.035-.138.174-.26.312-.26h.277c.103 0 .26.087.295.192l3.617 8.845h.07l3.6-8.845c.035-.105.174-.192.295-.192h.277c.139 0 .278.122.312.26l2.13 11.634c.05.243-.071.398-.312.398h-1.126a.36.36 0 01-.33-.242l-1.28-7.738h-.052l-3.116 7.964c-.034.103-.14.189-.295.189h-.312c-.137 0-.258-.086-.293-.19l-3.133-7.963h-.071l-1.245 7.738c-.018.12-.174.242-.311.242H88.31c-.243 0-.365-.155-.33-.398l2.147-11.634zm19.06 10.474c2.475 0 4.5-2.009 4.5-4.484 0-2.458-2.025-4.519-4.5-4.519-2.459 0-4.484 2.061-4.484 4.52a4.497 4.497 0 004.484 4.483m0-10.734a6.222 6.222 0 016.231 6.25c0 3.463-2.77 6.214-6.231 6.214a6.175 6.175 0 01-6.215-6.214c0-3.462 2.752-6.25 6.215-6.25m8.707.311c0-.173.155-.312.329-.312h.431l7.514 8.692h.018v-8.189a.33.33 0 01.329-.329h1.108a.34.34 0 01.329.33v11.65c0 .174-.156.311-.33.311h-.45l-7.513-8.932h-.017v8.43a.328.328 0 01-.328.33h-1.091a.34.34 0 01-.33-.33v-11.65zm12.636 10.233c.155-.225.294-.485.45-.71.155-.226.398-.294.588-.14.105.088 1.437 1.196 2.771 1.196 1.193 0 1.956-.727 1.956-1.61 0-1.04-.9-1.697-2.615-2.406-1.766-.745-3.15-1.663-3.15-3.671 0-1.35 1.038-3.203 3.791-3.203 1.731 0 3.03.9 3.203 1.023a.41.41 0 01.104.588c-.139.207-.294.45-.433.658-.139.224-.363.329-.606.172-.122-.07-1.333-.865-2.337-.865-1.454 0-1.956.917-1.956 1.558 0 .986.761 1.593 2.198 2.18 2.008.815 3.722 1.767 3.722 3.879 0 1.8-1.61 3.272-3.86 3.272-2.112 0-3.446-1.108-3.722-1.367-.157-.138-.278-.26-.104-.554" fill="#FFF"/></g></svg>