<svg width="20" height="18" xmlns="http://www.w3.org/2000/svg"><path d="M10.185 7.715a.537.537 0 000 .762 2.243 2.243 0 010 3.17l-4.59 4.589a2.243 2.243 0 01-3.168 0l-.69-.69a2.243 2.243 0 010-3.17l4.589-4.59a.537.537 0 000-.762.537.537 0 00-.762 0l-4.59 4.59A3.3 3.3 0 000 13.961c0 .886.343 1.72.974 2.347l.69.69c.647.647 1.497.97 2.347.97.85 0 1.7-.323 2.347-.97l4.59-4.59a3.324 3.324 0 000-4.693.537.537 0 00-.763 0z"/><path d="M18.3 1.684l-.691-.69a3.324 3.324 0 00-4.694 0l-4.59 4.59a3.324 3.324 0 000 4.693.537.537 0 00.763 0 .537.537 0 000-.762 2.243 2.243 0 010-3.17l4.59-4.589a2.243 2.243 0 013.169 0l.69.69a2.243 2.243 0 010 3.17l-4.59 4.59a.542.542 0 00.38.922.526.526 0 00.379-.16l4.59-4.59a3.3 3.3 0 00.973-2.347c0-.886-.343-1.72-.97-2.347z"/></svg>