<?xml version="1.0" encoding="UTF-8"?>
<svg width="11px" height="14px" viewBox="0 0 11 14" version="1.1" xmlns="http://www.w3.org/2000/svg" xmlns:xlink="http://www.w3.org/1999/xlink">
    <!-- Generator: Sketch 53.2 (72643) - https://sketchapp.com -->
    <title>Path</title>
    <desc>Created with Sketch.</desc>
    <defs>
        <path d="M9.43585156,13.9338333 L1.51473438,13.9338333 C0.67821875,13.9338333 4.36983782e-12,13.2761667 4.36983782e-12,12.46475 L4.36983782e-12,7.7215 C4.36983782e-12,7.01391667 0.516226563,6.423 1.20338281,6.284 L1.20338281,4.14258333 C1.20338281,1.8585 3.11978906,-2.84217094e-14 5.47542188,-2.84217094e-14 C7.83088281,-2.84217094e-14 9.74728906,1.85833333 9.74728906,4.14258333 L9.74728906,6.284 C10.4341875,6.42341667 10.9504141,7.01391667 10.9504141,7.7215 L10.9504141,12.46475 L10.9505859,12.46475 C10.9505859,13.2760833 10.2723672,13.9338333 9.43585156,13.9338333 Z M5.48066406,2.16666667 C4.3539375,2.16666667 3.4375,3.05541667 3.4375,4.14791667 L3.4375,6.25783333 L7.52365625,6.25783333 L7.52365625,4.14791667 C7.52357031,3.05558333 6.60713281,2.16666667 5.48066406,2.16666667 Z M5.46545313,8.08333333 C4.72527344,8.08333333 4.125,8.66516667 4.125,9.38316667 C4.125,9.8645 4.39561719,10.28375 4.79677344,10.5085833 L4.79677344,11.9536667 L6.13413281,11.9536667 L6.13413281,10.5085833 C6.53528906,10.2838333 6.80590625,9.8645 6.80590625,9.38316667 C6.80590625,8.66516667 6.20571875,8.08333333 5.46545313,8.08333333 Z" id="path-1"></path>
    </defs>
    <g id="layouts" stroke="none" stroke-width="1" fill="none" fill-rule="evenodd">
        <g id="Authenticated-&amp;-Authorized---Mike" transform="translate(-275.000000, -2522.000000)">
            <g id="Group-21" transform="translate(112.000000, 2429.000000)">
                <g id="Path" transform="translate(163.000000, 93.000000)">
                    <g id="Path-+-Path-Mask">
                        <g id="lock">
                            <g id="Group-16">
                                <mask id="mask-2" fill="white">
                                    <use xlink:href="#path-1"></use>
                                </mask>
                                <use id="Combined-Shape" fill="#606060" fill-rule="nonzero" xlink:href="#path-1"></use>
                            </g>
                        </g>
                    </g>
                </g>
            </g>
        </g>
    </g>
</svg>