<svg width="11" height="14" xmlns="http://www.w3.org/2000/svg" xmlns:xlink="http://www.w3.org/1999/xlink"><defs><path d="M9.436 13.934H1.515c-.837 0-1.515-.658-1.515-1.47V7.722c0-.707.516-1.298 1.203-1.437V4.143C1.203 1.859 3.12 0 5.475 0c2.356 0 4.272 1.858 4.272 4.143v2.141c.687.14 1.203.73 1.203 1.438v4.743c0 .811-.678 1.469-1.514 1.469zM5.48 2.167c-1.127 0-2.043.888-2.043 1.98v2.11h4.086v-2.11c0-1.091-.917-1.98-2.043-1.98zm-.016 5.916c-.74 0-1.34.582-1.34 1.3 0 .482.27.9.672 1.126v1.445h1.337v-1.445c.401-.225.672-.645.672-1.126 0-.718-.6-1.3-1.34-1.3z" id="a"/></defs><use fill="#606060" xlink:href="#a"/></svg>