<svg width="12" height="12" xmlns="http://www.w3.org/2000/svg"><path d="M11.873 1.532c.198-.579.162-1.008-.106-1.276-.46-.459-1.272-.117-1.54-.005-.534.225-1.184.61-1.932 1.146A5.29 5.29 0 0 0 6 .878a5.292 5.292 0 0 0-4.76 7.618C.052 10.189-.277 11.26.231 11.769c.154.154.362.231.621.231.192 0 .41-.042.657-.126.443-.151.99-.44 1.627-.856.102-.067.206-.137.311-.21A5.28 5.28 0 0 0 6 11.46a5.292 5.292 0 0 0 4.668-7.798c.122-.172.238-.341.346-.506.418-.635.707-1.18.859-1.623ZM.787 11.212c-.042-.133.055-.716.894-1.976a5.308 5.308 0 0 0 1.06 1.106c-1.415.934-1.88.887-1.954.87Zm2.631-1.341A4.508 4.508 0 0 1 6 1.66a4.52 4.52 0 0 1 3.728 1.96C8.96 4.64 7.968 5.769 6.86 6.873 5.69 8.043 4.487 9.088 3.418 9.87Zm5.777-.514A4.493 4.493 0 0 1 6 10.678a4.514 4.514 0 0 1-1.838-.387c1.027-.777 2.15-1.765 3.253-2.866a33.087 33.087 0 0 0 2.727-3.058 4.51 4.51 0 0 1-.947 4.99Zm1.065-6.48-.051.075a5.32 5.32 0 0 0-1.171-1.12c.524-.36.998-.638 1.385-.813.528-.24.738-.218.787-.207.018.08.06.57-.95 2.065Z" fill="#9B9B9B"/></svg>