<svg xmlns="http://www.w3.org/2000/svg" viewBox="0 0 512.001 512.001"><path d="M454.275 85.672c-68.879 0-116.732-22.029-144.749-40.51-30.433-20.075-44.786-40.46-44.913-40.641A10.45 10.45 0 00256.02 0h-.027a10.475 10.475 0 00-8.589 4.499c-.141.204-14.495 20.589-44.927 40.664-28.016 18.481-75.87 40.51-144.748 40.51-5.771 0-10.449 4.678-10.449 10.449v158.065l.002.239c1.056 46.063 4.087 87.558 30.591 128.922 29.482 46.013 84.693 86.587 173.75 127.69a10.458 10.458 0 008.756 0c89.058-41.103 144.268-81.676 173.751-127.69 26.504-41.364 29.535-82.859 30.591-128.922l.002-.239V96.121c.001-5.771-4.677-10.449-10.448-10.449zm-10.449 168.396c-1.02 44.329-3.692 81.175-27.291 118.006-26.767 41.774-77.836 79.317-160.533 117.957-82.696-38.639-133.766-76.183-160.532-117.957-23.6-36.83-26.272-73.677-27.291-118.006V106.411c69.059-2.128 117.68-25.055 146.76-44.435 19.66-13.102 33.152-26.244 41.063-35.04 7.911 8.796 21.403 21.938 41.063 35.04 29.081 19.381 77.701 42.308 146.761 44.435v147.657z"/><path d="M208.563 99.101c-2.665-5.119-8.974-7.109-14.093-4.446-28.265 14.708-60.078 24.569-94.553 29.307-5.717.786-9.715 6.057-8.929 11.775.719 5.234 5.2 9.027 10.339 9.027.474 0 .954-.032 1.436-.098 36.855-5.066 70.955-15.654 101.354-31.472 5.119-2.664 7.109-8.974 4.446-14.093zm32.087-21.83c-3.424-4.647-9.965-5.637-14.61-2.214a214.754 214.754 0 01-3.758 2.708c-4.715 3.328-5.839 9.847-2.512 14.563a10.439 10.439 0 008.546 4.424c2.083 0 4.185-.621 6.016-1.913a255.667 255.667 0 004.103-2.958c4.647-3.423 5.638-9.964 2.215-14.61zm15.351 46.594c-74.902 0-135.84 60.938-135.84 135.841 0 74.902 60.938 135.839 135.84 135.839s135.84-60.937 135.84-135.839c0-74.903-60.938-135.841-135.84-135.841zm0 250.781c-36.545 0-69.16-17.145-90.228-43.813 19.88-18.358 45.799-30.142 73.897-33.436a10.45 10.45 0 002.207-20.251c-17.332-6.009-28.978-22.375-28.978-40.723 0-23.766 19.335-43.101 43.102-43.101 23.767 0 43.102 19.335 43.102 43.101 0 18.348-11.646 34.712-28.979 40.723a10.448 10.448 0 002.207 20.251c28.098 3.295 54.017 15.078 73.898 33.436-21.069 26.668-53.683 43.813-90.228 43.813zm44.94-92.661c11.926-11.776 19.06-28.061 19.06-45.561 0-35.289-28.71-63.999-64-63.999s-64 28.71-64 63.999c0 17.499 7.136 33.784 19.06 45.561-21.163 6.237-40.58 16.859-56.815 31.125-8.414-15.966-13.186-34.137-13.186-53.403 0-63.38 51.563-114.942 114.941-114.942s114.941 51.562 114.941 114.941c0 19.266-4.772 37.437-13.186 53.404-16.235-14.267-35.652-24.888-56.815-31.125z"/></svg>