<?xml version="1.0" encoding="iso-8859-1"?>
<!-- Generator: Adobe Illustrator 19.0.0, SVG Export Plug-In . SVG Version: 6.00 Build 0)  -->
<svg version="1.1" id="Layer_1" xmlns="http://www.w3.org/2000/svg" xmlns:xlink="http://www.w3.org/1999/xlink" x="0px" y="0px"
	 viewBox="0 0 512.001 512.001" style="enable-background:new 0 0 512.001 512.001;" xml:space="preserve">
<g>
	<g>
		<path d="M454.275,85.672c-68.879,0-116.732-22.029-144.749-40.51c-30.433-20.075-44.786-40.46-44.913-40.641
			c-1.944-2.83-5.16-4.512-8.593-4.521c-0.009,0-0.018,0-0.027,0c-3.422,0-6.636,1.688-8.589,4.499
			c-0.141,0.204-14.495,20.589-44.927,40.664c-28.016,18.481-75.87,40.51-144.748,40.51c-5.771,0-10.449,4.678-10.449,10.449
			v158.065c0,0.079,0.001,0.16,0.002,0.239c1.056,46.063,4.087,87.558,30.591,128.922c29.482,46.013,84.693,86.587,173.75,127.69
			c1.39,0.642,2.884,0.961,4.378,0.961s2.99-0.321,4.378-0.961c89.058-41.103,144.268-81.676,173.751-127.69
			c26.504-41.364,29.535-82.859,30.591-128.922c0.001-0.079,0.002-0.16,0.002-0.239V96.121
			C464.724,90.35,460.046,85.672,454.275,85.672z M443.826,254.068c-1.02,44.329-3.692,81.175-27.291,118.006
			c-26.767,41.774-77.836,79.317-160.533,117.957c-82.696-38.639-133.766-76.183-160.532-117.957
			c-23.6-36.83-26.272-73.677-27.291-118.006V106.411c69.059-2.128,117.68-25.055,146.76-44.435
			c19.66-13.102,33.152-26.244,41.063-35.04c7.911,8.796,21.403,21.938,41.063,35.04c29.081,19.381,77.701,42.308,146.761,44.435
			V254.068z"/>
	</g>
</g>
<g>
	<g>
		<path d="M208.563,99.101c-2.665-5.119-8.974-7.109-14.093-4.446c-28.265,14.708-60.078,24.569-94.553,29.307
			c-5.717,0.786-9.715,6.057-8.929,11.775c0.719,5.234,5.2,9.027,10.339,9.027c0.474,0,0.954-0.032,1.436-0.098
			c36.855-5.066,70.955-15.654,101.354-31.472C209.236,110.53,211.226,104.22,208.563,99.101z"/>
	</g>
</g>
<g>
	<g>
		<path d="M240.65,77.271c-3.424-4.647-9.965-5.637-14.61-2.214c-1.215,0.896-2.468,1.799-3.758,2.708
			c-4.715,3.328-5.839,9.847-2.512,14.563c2.036,2.883,5.265,4.424,8.546,4.424c2.083,0,4.185-0.621,6.016-1.913
			c1.409-0.995,2.776-1.981,4.103-2.958C243.082,88.458,244.073,81.917,240.65,77.271z"/>
	</g>
</g>
<g>
	<g>
		<path d="M256.001,123.865c-74.902,0-135.84,60.938-135.84,135.841c0,74.902,60.938,135.839,135.84,135.839
			s135.84-60.937,135.84-135.839C391.841,184.803,330.903,123.865,256.001,123.865z M256.001,374.646
			c-36.545,0-69.16-17.145-90.228-43.813c19.88-18.358,45.799-30.142,73.897-33.436c4.839-0.568,8.643-4.403,9.171-9.247
			c0.528-4.843-2.362-9.408-6.964-11.004c-17.332-6.009-28.978-22.375-28.978-40.723c0-23.766,19.335-43.101,43.102-43.101
			c23.767,0,43.102,19.335,43.102,43.101c0,18.348-11.646,34.712-28.979,40.723c-4.603,1.596-7.492,6.161-6.964,11.004
			c0.528,4.843,4.332,8.679,9.171,9.247c28.098,3.295,54.017,15.078,73.898,33.436C325.16,357.501,292.546,374.646,256.001,374.646z
			 M300.941,281.985c11.926-11.776,19.06-28.061,19.06-45.561c0-35.289-28.71-63.999-64-63.999c-35.29,0-64,28.71-64,63.999
			c0,17.499,7.136,33.784,19.06,45.561c-21.163,6.237-40.58,16.859-56.815,31.125c-8.414-15.966-13.186-34.137-13.186-53.403
			c0-63.38,51.563-114.942,114.941-114.942s114.941,51.562,114.941,114.941c0,19.266-4.772,37.437-13.186,53.404
			C341.521,298.843,322.104,288.222,300.941,281.985z"/>
	</g>
</g>
<g>
</g>
<g>
</g>
<g>
</g>
<g>
</g>
<g>
</g>
<g>
</g>
<g>
</g>
<g>
</g>
<g>
</g>
<g>
</g>
<g>
</g>
<g>
</g>
<g>
</g>
<g>
</g>
<g>
</g>
</svg>
