<svg width="11" height="21" xmlns="http://www.w3.org/2000/svg"><path d="M3.396 13.98c-.093-.672-.07-1.288.07-1.848s.345-1.073.616-1.54c.27-.467.579-.9.924-1.302.345-.401.672-.793.98-1.176.308-.383.565-.76.77-1.134a2.46 2.46 0 0 0 .308-1.204c0-.672-.2-1.213-.602-1.624-.401-.41-.957-.616-1.666-.616-.579 0-1.101.13-1.568.392a5.321 5.321 0 0 0-1.316 1.064L.12 3.34a7.747 7.747 0 0 1 2.198-1.75c.85-.457 1.806-.686 2.87-.686.728 0 1.4.098 2.016.294.616.196 1.143.49 1.582.882.439.392.784.877 1.036 1.456s.378 1.25.378 2.016c0 .597-.107 1.134-.322 1.61-.215.476-.48.929-.798 1.358-.317.43-.658.84-1.022 1.232s-.69.803-.98 1.232c-.29.43-.523.887-.7 1.372-.177.485-.229 1.027-.154 1.624H3.396Zm1.428 6.356c-.597 0-1.092-.205-1.484-.616-.392-.41-.588-.933-.588-1.568s.196-1.157.588-1.568c.392-.41.887-.616 1.484-.616s1.097.205 1.498.616c.401.41.602.933.602 1.568s-.2 1.157-.602 1.568c-.401.41-.9.616-1.498.616Z" fill="#FFF"/></svg>