<svg width="50" height="50" xmlns="http://www.w3.org/2000/svg"><g fill="none"><circle fill="#75AADB" cx="24.983" cy="24.983" r="24.983"/><path d="M33.524 34.177h2.71v2.105h-4.137l-6.855-10.274h-3.653v8.17h3.572v2.104H16.17v-2.105h3.09V16.073l-3.09-.38v-1.991c1.17.266 2.186.451 3.46.451 1.92 0 3.88-.451 5.798-.451 3.726 0 7.186 1.693 7.186 5.83 0 3.202-1.92 5.234-4.895 6.097l5.806 8.548zM21.59 23.976l1.96.04c4.782.073 6.62-1.766 6.62-4.218 0-2.863-2.072-3.992-4.701-3.992-1.242 0-2.524.113-3.88.267v7.903z" fill="#FFF"/></g></svg>