<?xml version="1.0" encoding="UTF-8"?>
<svg width="50px" height="50px" viewBox="0 0 50 50" version="1.1" xmlns="http://www.w3.org/2000/svg" xmlns:xlink="http://www.w3.org/1999/xlink">
    <!-- Generator: Sketch 54.1 (76490) - https://sketchapp.com -->
    <title>RStudio-Logo-flat</title>
    <desc>Created with Sketch.</desc>
    <g id="Page-1" stroke="none" stroke-width="1" fill="none" fill-rule="evenodd">
        <g id="RStudio-Logo-flat" fill-rule="nonzero">
            <circle id="Oval" fill="#75AADB" cx="24.9834677" cy="24.9834677" r="24.9834677"></circle>
            <path d="M33.5241935,34.1774194 L36.233871,34.1774194 L36.233871,36.2822581 L32.0967742,36.2822581 L25.2419355,26.0080645 L21.5887097,26.0080645 L21.5887097,34.1774194 L25.1612903,34.1774194 L25.1612903,36.2822581 L16.1693548,36.2822581 L16.1693548,34.1774194 L19.2580645,34.1774194 L19.2580645,16.0725806 L16.1693548,15.6935484 L16.1693548,13.7016129 C17.3387097,13.9677419 18.3548387,14.1532258 19.6290323,14.1532258 C21.5483871,14.1532258 23.5080645,13.7016129 25.4274194,13.7016129 C29.1532258,13.7016129 32.6129032,15.3951613 32.6129032,19.5322581 C32.6129032,22.733871 30.6935484,24.766129 27.7177419,25.6290323 L33.5241935,34.1774194 Z M21.5887097,23.9758065 L23.5483871,24.016129 C28.3306452,24.0887097 30.1693548,22.25 30.1693548,19.7983871 C30.1693548,16.9354839 28.0967742,15.8064516 25.4677419,15.8064516 C24.2258065,15.8064516 22.9435484,15.9193548 21.5887097,16.0725806 L21.5887097,23.9758065 Z" id="Shape" fill="#FFFFFF"></path>
        </g>
    </g>
</svg>
