<?xml version="1.0" encoding="utf-8"?>
<!-- Generator: Adobe Illustrator 22.1.0, SVG Export Plug-In . SVG Version: 6.00 Build 0)  -->
<svg version="1.1" id="Layer_1" xmlns="http://www.w3.org/2000/svg" xmlns:xlink="http://www.w3.org/1999/xlink" x="0px" y="0px"
	 viewBox="0 0 400 38" style="enable-background:new 0 0 400 38;" xml:space="preserve">
<style type="text/css">
	.st0{fill:#FFFFFF;}
</style>
<g>
	<rect x="186.4" y="1.1" class="st0" width="1.1" height="36.9"/>
	<g>
		<path class="st0" d="M195.4,8.6h3.2c2.6,0,4.4,1.8,4.4,4.1v0c0,2.3-1.8,4.2-4.4,4.2h-3.2V8.6z M198.6,15.2c1.5,0,2.5-1,2.5-2.5v0
			c0-1.5-1-2.5-2.5-2.5h-1.4v5H198.6z"/>
		<path class="st0" d="M204.5,8.2h1.9v1.6h-1.9V8.2z M204.6,10.5h1.8v6.4h-1.8V10.5z"/>
		<path class="st0" d="M207.3,10.5h1.9l1.4,4.3l1.4-4.3h1.9l-2.5,6.4h-1.6L207.3,10.5z"/>
		<path class="st0" d="M214.9,8.2h1.9v1.6h-1.9V8.2z M215,10.5h1.8v6.4H215V10.5z"/>
		<path class="st0" d="M218,16l0.8-1.2c0.7,0.5,1.4,0.8,2,0.8c0.5,0,0.8-0.2,0.8-0.5v0c0-0.4-0.6-0.5-1.3-0.7
			c-0.9-0.3-1.9-0.7-1.9-1.9v0c0-1.3,1-2,2.3-2c0.8,0,1.7,0.3,2.4,0.7l-0.7,1.2c-0.6-0.4-1.3-0.6-1.7-0.6c-0.4,0-0.7,0.2-0.7,0.4v0
			c0,0.4,0.6,0.5,1.3,0.8c0.9,0.3,1.9,0.7,1.9,1.9v0c0,1.4-1.1,2.1-2.4,2.1C219.8,17,218.8,16.7,218,16z"/>
		<path class="st0" d="M224.4,8.2h1.9v1.6h-1.9V8.2z M224.5,10.5h1.8v6.4h-1.8V10.5z"/>
		<path class="st0" d="M227.6,13.7L227.6,13.7c0-1.9,1.5-3.3,3.5-3.3c2,0,3.4,1.5,3.4,3.3v0c0,1.8-1.5,3.3-3.5,3.3
			C229,17,227.6,15.6,227.6,13.7z M232.7,13.7L232.7,13.7c0-1-0.7-1.8-1.7-1.8c-1,0-1.7,0.8-1.7,1.7v0c0,0.9,0.7,1.8,1.7,1.8
			C232.1,15.5,232.7,14.7,232.7,13.7z"/>
		<path class="st0" d="M235.7,10.5h1.8v0.9c0.4-0.5,1-1,1.9-1c1.4,0,2.2,0.9,2.2,2.4v4.1h-1.8v-3.6c0-0.9-0.4-1.3-1.1-1.3
			c-0.7,0-1.1,0.4-1.1,1.3v3.6h-1.8V10.5z"/>
		<path class="st0" d="M246.3,13.7L246.3,13.7c0-1.9,1.5-3.3,3.5-3.3c2,0,3.4,1.5,3.4,3.3v0c0,1.8-1.5,3.3-3.5,3.3
			C247.8,17,246.3,15.6,246.3,13.7z M251.4,13.7L251.4,13.7c0-1-0.7-1.8-1.7-1.8c-1,0-1.7,0.8-1.7,1.7v0c0,0.9,0.7,1.8,1.7,1.8
			C250.8,15.5,251.4,14.7,251.4,13.7z"/>
		<path class="st0" d="M254.7,12.1H254v-1.5h0.8v-0.4c0-0.7,0.2-1.2,0.5-1.5c0.3-0.3,0.8-0.5,1.5-0.5c0.6,0,1,0.1,1.3,0.2v1.5
			c-0.3-0.1-0.5-0.2-0.8-0.2c-0.4,0-0.7,0.2-0.7,0.7v0.2h1.5v1.5h-1.4v4.8h-1.8V12.1z"/>
		<path class="st0" d="M262.7,15.1v-3H262v-1.5h0.8V8.9h1.8v1.6h1.5v1.5h-1.5v2.7c0,0.4,0.2,0.6,0.6,0.6c0.3,0,0.6-0.1,0.9-0.2v1.5
			c-0.4,0.2-0.8,0.4-1.4,0.4C263.5,17,262.7,16.6,262.7,15.1z"/>
		<path class="st0" d="M267.4,8.2h1.8v3.2c0.4-0.5,1-1,1.9-1c1.4,0,2.2,0.9,2.2,2.4v4.1h-1.8v-3.6c0-0.9-0.4-1.3-1.1-1.3
			c-0.7,0-1.1,0.4-1.1,1.3v3.6h-1.8V8.2z"/>
		<path class="st0" d="M274.5,13.7L274.5,13.7c0-1.8,1.3-3.3,3.2-3.3c2.1,0,3.1,1.7,3.1,3.5c0,0.1,0,0.3,0,0.5h-4.4
			c0.2,0.8,0.7,1.2,1.6,1.2c0.6,0,1-0.2,1.5-0.7l1,0.9c-0.6,0.7-1.5,1.2-2.6,1.2C275.9,17,274.5,15.7,274.5,13.7z M279,13.2
			c-0.1-0.8-0.6-1.4-1.3-1.4c-0.8,0-1.2,0.5-1.4,1.4H279z"/>
		<path class="st0" d="M285.8,8.6h3.9c1,0,1.7,0.3,2.2,0.7c0.4,0.4,0.6,0.8,0.6,1.4v0c0,0.9-0.5,1.5-1.1,1.8c1,0.4,1.6,0.9,1.6,2v0
			c0,1.5-1.2,2.3-3.1,2.3h-4V8.6z M289.2,11.9c0.8,0,1.3-0.3,1.3-0.9v0c0-0.5-0.4-0.9-1.2-0.9h-1.8v1.8H289.2z M289.7,15.3
			c0.8,0,1.3-0.3,1.3-0.9v0c0-0.6-0.4-0.9-1.4-0.9h-2.1v1.8H289.7z"/>
		<path class="st0" d="M294.2,8.2h1.9v1.6h-1.9V8.2z M294.3,10.5h1.8v6.4h-1.8V10.5z"/>
		<path class="st0" d="M297.4,13.7L297.4,13.7c0-1.9,1.5-3.3,3.5-3.3c2,0,3.4,1.5,3.4,3.3v0c0,1.8-1.5,3.3-3.5,3.3
			C298.8,17,297.4,15.6,297.4,13.7z M302.5,13.7L302.5,13.7c0-1-0.7-1.8-1.7-1.8c-1,0-1.7,0.8-1.7,1.7v0c0,0.9,0.7,1.8,1.7,1.8
			C301.9,15.5,302.5,14.7,302.5,13.7z"/>
		<path class="st0" d="M305.6,8.2h1.8v8.7h-1.8V8.2z"/>
		<path class="st0" d="M308.7,13.7L308.7,13.7c0-1.9,1.5-3.3,3.5-3.3c2,0,3.4,1.5,3.4,3.3v0c0,1.8-1.5,3.3-3.5,3.3
			C310.2,17,308.7,15.6,308.7,13.7z M313.9,13.7L313.9,13.7c0-1-0.7-1.8-1.7-1.8c-1,0-1.7,0.8-1.7,1.7v0c0,0.9,0.7,1.8,1.7,1.8
			C313.2,15.5,313.9,14.7,313.9,13.7z"/>
		<path class="st0" d="M316.9,18.2l0.6-1.4c0.7,0.4,1.3,0.6,2.2,0.6c1.2,0,1.8-0.6,1.8-1.7v-0.3c-0.5,0.6-1.1,1-2.1,1
			c-1.5,0-2.8-1.1-2.8-3v0c0-1.9,1.4-3,2.8-3c1,0,1.6,0.4,2.1,1v-0.8h1.8v4.9c0,1.1-0.3,2-0.8,2.5c-0.6,0.6-1.5,0.9-2.7,0.9
			C318.7,18.8,317.7,18.6,316.9,18.2z M321.5,13.4L321.5,13.4c0-0.9-0.7-1.5-1.6-1.5c-0.9,0-1.5,0.6-1.5,1.5v0
			c0,0.9,0.7,1.5,1.5,1.5C320.8,14.9,321.5,14.3,321.5,13.4z"/>
		<path class="st0" d="M324.9,8.2h1.9v1.6h-1.9V8.2z M325,10.5h1.8v6.4H325V10.5z"/>
		<path class="st0" d="M328.1,13.7L328.1,13.7c0-1.8,1.4-3.3,3.3-3.3c1.2,0,2,0.4,2.5,1.1l-1.1,1.2c-0.4-0.4-0.8-0.7-1.5-0.7
			c-0.9,0-1.5,0.8-1.5,1.7v0c0,1,0.6,1.8,1.6,1.8c0.6,0,1-0.3,1.5-0.7l1.1,1.1c-0.6,0.7-1.3,1.2-2.6,1.2
			C329.5,17,328.1,15.6,328.1,13.7z"/>
		<path class="st0" d="M334.8,15.1L334.8,15.1c0-1.4,1.1-2.1,2.6-2.1c0.6,0,1.1,0.1,1.6,0.3v-0.1c0-0.7-0.5-1.2-1.4-1.2
			c-0.7,0-1.2,0.1-1.8,0.3l-0.5-1.4c0.7-0.3,1.4-0.5,2.5-0.5c1,0,1.7,0.3,2.2,0.7c0.5,0.5,0.7,1.2,0.7,2v3.7h-1.7v-0.7
			c-0.4,0.5-1,0.8-1.9,0.8C335.8,17,334.8,16.3,334.8,15.1z M338.9,14.6v-0.3c-0.3-0.1-0.7-0.2-1.2-0.2c-0.8,0-1.2,0.3-1.2,0.9v0
			c0,0.5,0.4,0.8,1,0.8C338.3,15.8,338.9,15.3,338.9,14.6z"/>
		<path class="st0" d="M342.3,8.2h1.8v8.7h-1.8V8.2z"/>
		<path class="st0" d="M348.9,15.7l1.1-1.3c0.7,0.6,1.5,1,2.5,1c0.8,0,1.2-0.3,1.2-0.8v0c0-0.5-0.3-0.7-1.7-1.1
			c-1.7-0.4-2.8-0.9-2.8-2.5v0c0-1.5,1.2-2.5,2.9-2.5c1.2,0,2.2,0.4,3.1,1.1l-1,1.4c-0.7-0.5-1.5-0.8-2.2-0.8
			c-0.7,0-1.1,0.3-1.1,0.7v0c0,0.5,0.4,0.7,1.8,1.1c1.7,0.4,2.6,1,2.6,2.5v0c0,1.7-1.3,2.6-3.1,2.6C351.1,17,349.9,16.6,348.9,15.7z
			"/>
		<path class="st0" d="M356.5,13.7L356.5,13.7c0-1.8,1.4-3.3,3.3-3.3c1.2,0,2,0.4,2.5,1.1l-1.1,1.2c-0.4-0.4-0.8-0.7-1.5-0.7
			c-0.9,0-1.5,0.8-1.5,1.7v0c0,1,0.6,1.8,1.6,1.8c0.6,0,1-0.3,1.5-0.7l1.1,1.1c-0.6,0.7-1.3,1.2-2.6,1.2
			C357.9,17,356.5,15.6,356.5,13.7z"/>
		<path class="st0" d="M363.5,8.2h1.9v1.6h-1.9V8.2z M363.5,10.5h1.8v6.4h-1.8V10.5z"/>
		<path class="st0" d="M366.6,13.7L366.6,13.7c0-1.8,1.3-3.3,3.2-3.3c2.1,0,3.1,1.7,3.1,3.5c0,0.1,0,0.3,0,0.5h-4.4
			c0.2,0.8,0.8,1.2,1.6,1.2c0.6,0,1-0.2,1.5-0.7l1,0.9c-0.6,0.7-1.5,1.2-2.6,1.2C368,17,366.6,15.7,366.6,13.7z M371.1,13.2
			c-0.1-0.8-0.6-1.4-1.3-1.4c-0.7,0-1.2,0.5-1.4,1.4H371.1z"/>
		<path class="st0" d="M374.2,10.5h1.8v0.9c0.4-0.5,1-1,1.9-1c1.4,0,2.2,0.9,2.2,2.4v4.1h-1.8v-3.6c0-0.9-0.4-1.3-1.1-1.3
			c-0.7,0-1.1,0.4-1.1,1.3v3.6h-1.8V10.5z"/>
		<path class="st0" d="M381.3,13.7L381.3,13.7c0-1.8,1.4-3.3,3.3-3.3c1.2,0,2,0.4,2.5,1.1l-1.1,1.2c-0.4-0.4-0.8-0.7-1.5-0.7
			c-0.9,0-1.5,0.8-1.5,1.7v0c0,1,0.6,1.8,1.6,1.8c0.6,0,1-0.3,1.5-0.7l1.1,1.1c-0.6,0.7-1.3,1.2-2.6,1.2
			C382.7,17,381.3,15.6,381.3,13.7z"/>
		<path class="st0" d="M387.8,13.7L387.8,13.7c0-1.8,1.3-3.3,3.2-3.3c2.1,0,3.1,1.7,3.1,3.5c0,0.1,0,0.3,0,0.5h-4.4
			c0.2,0.8,0.7,1.2,1.6,1.2c0.6,0,1-0.2,1.5-0.7l1,0.9c-0.6,0.7-1.5,1.2-2.6,1.2C389.2,17,387.8,15.7,387.8,13.7z M392.3,13.2
			c-0.1-0.8-0.6-1.4-1.3-1.4c-0.7,0-1.2,0.5-1.4,1.4H392.3z"/>
		<path class="st0" d="M394.8,16l0.8-1.2c0.7,0.5,1.4,0.8,2,0.8c0.5,0,0.8-0.2,0.8-0.5v0c0-0.4-0.6-0.5-1.3-0.7
			c-0.9-0.3-1.9-0.7-1.9-1.9v0c0-1.3,1-2,2.3-2c0.8,0,1.7,0.3,2.4,0.7l-0.7,1.2c-0.6-0.4-1.3-0.6-1.7-0.6c-0.4,0-0.7,0.2-0.7,0.4v0
			c0,0.4,0.6,0.5,1.3,0.8c0.9,0.3,1.9,0.7,1.9,1.9v0c0,1.4-1.1,2.1-2.4,2.1C396.7,17,395.7,16.7,394.8,16z"/>
	</g>
	<g>
		<path class="st0" d="M195,26.3L195,26.3c0-2.4,1.8-4.3,4.3-4.3c1.6,0,2.5,0.5,3.3,1.3l-1.2,1.3c-0.6-0.6-1.3-0.9-2.1-0.9
			c-1.4,0-2.4,1.2-2.4,2.6v0c0,1.4,1,2.6,2.4,2.6c1,0,1.5-0.4,2.2-1l1.2,1.2c-0.9,0.9-1.8,1.5-3.4,1.5C196.8,30.6,195,28.7,195,26.3
			z"/>
		<path class="st0" d="M203.5,27.3L203.5,27.3c0-1.8,1.3-3.3,3.2-3.3c2.1,0,3.1,1.7,3.1,3.5c0,0.1,0,0.3,0,0.5h-4.4
			c0.2,0.8,0.7,1.2,1.6,1.2c0.6,0,1-0.2,1.5-0.7l1,0.9c-0.6,0.7-1.5,1.2-2.6,1.2C204.9,30.6,203.5,29.2,203.5,27.3z M208,26.7
			c-0.1-0.8-0.6-1.4-1.3-1.4c-0.8,0-1.2,0.5-1.4,1.4H208z"/>
		<path class="st0" d="M211,24.1h1.8V25c0.4-0.5,1-1,1.9-1c1.4,0,2.2,0.9,2.2,2.4v4.1h-1.8v-3.6c0-0.9-0.4-1.3-1.1-1.3
			s-1.1,0.4-1.1,1.3v3.6H211V24.1z"/>
		<path class="st0" d="M218.7,28.6v-3h-0.8v-1.5h0.8v-1.6h1.8v1.6h1.5v1.5h-1.5v2.7c0,0.4,0.2,0.6,0.6,0.6c0.3,0,0.6-0.1,0.9-0.2
			v1.5c-0.4,0.2-0.8,0.4-1.4,0.4C219.4,30.5,218.7,30.1,218.7,28.6z"/>
		<path class="st0" d="M222.9,27.3L222.9,27.3c0-1.8,1.3-3.3,3.2-3.3c2.1,0,3.1,1.7,3.1,3.5c0,0.1,0,0.3,0,0.5h-4.4
			c0.2,0.8,0.8,1.2,1.6,1.2c0.6,0,1-0.2,1.5-0.7l1,0.9c-0.6,0.7-1.5,1.2-2.6,1.2C224.3,30.6,222.9,29.2,222.9,27.3z M227.4,26.7
			c-0.1-0.8-0.6-1.4-1.3-1.4c-0.8,0-1.2,0.5-1.4,1.4H227.4z"/>
		<path class="st0" d="M230.5,24.1h1.8v1.3c0.4-0.9,1-1.5,2-1.4v1.9h-0.1c-1.2,0-1.9,0.7-1.9,2.2v2.4h-1.8V24.1z"/>
		<path class="st0" d="M239.2,25.6h-0.8v-1.5h0.8v-0.4c0-0.7,0.2-1.2,0.5-1.5c0.3-0.3,0.8-0.5,1.5-0.5c0.6,0,1,0.1,1.3,0.2v1.5
			c-0.3-0.1-0.5-0.2-0.8-0.2c-0.4,0-0.7,0.2-0.7,0.7v0.2h1.5v1.5H241v4.8h-1.8V25.6z"/>
		<path class="st0" d="M243.1,27.3L243.1,27.3c0-1.9,1.5-3.3,3.5-3.3c2,0,3.4,1.5,3.4,3.3v0c0,1.8-1.5,3.3-3.5,3.3
			C244.5,30.6,243.1,29.1,243.1,27.3z M248.2,27.3L248.2,27.3c0-1-0.7-1.8-1.7-1.8c-1,0-1.7,0.8-1.7,1.7v0c0,0.9,0.7,1.8,1.7,1.8
			C247.6,29,248.2,28.2,248.2,27.3z"/>
		<path class="st0" d="M251.3,24.1h1.8v1.3c0.4-0.9,1-1.5,2-1.4v1.9H255c-1.2,0-1.9,0.7-1.9,2.2v2.4h-1.8V24.1z"/>
		<path class="st0" d="M259.9,22.1h3.2c2.6,0,4.4,1.8,4.4,4.1v0c0,2.3-1.8,4.2-4.4,4.2h-3.2V22.1z M263.1,28.8c1.5,0,2.5-1,2.5-2.5
			v0c0-1.5-1-2.5-2.5-2.5h-1.4v5H263.1z"/>
		<path class="st0" d="M268.5,28.6L268.5,28.6c0-1.4,1.1-2.1,2.6-2.1c0.6,0,1.1,0.1,1.6,0.3v-0.1c0-0.7-0.5-1.2-1.4-1.2
			c-0.7,0-1.2,0.1-1.8,0.3l-0.5-1.4c0.7-0.3,1.4-0.5,2.5-0.5c1,0,1.7,0.3,2.2,0.7c0.5,0.5,0.7,1.2,0.7,2v3.7h-1.7v-0.7
			c-0.4,0.5-1,0.8-1.9,0.8C269.5,30.6,268.5,29.9,268.5,28.6z M272.7,28.2v-0.3c-0.3-0.1-0.7-0.2-1.2-0.2c-0.8,0-1.2,0.3-1.2,0.9v0
			c0,0.5,0.4,0.8,1,0.8C272.1,29.3,272.7,28.8,272.7,28.2z"/>
		<path class="st0" d="M276.2,28.6v-3h-0.8v-1.5h0.8v-1.6h1.8v1.6h1.5v1.5H278v2.7c0,0.4,0.2,0.6,0.6,0.6c0.3,0,0.6-0.1,0.9-0.2v1.5
			c-0.4,0.2-0.8,0.4-1.4,0.4C276.9,30.5,276.2,30.1,276.2,28.6z"/>
		<path class="st0" d="M280.4,28.6L280.4,28.6c0-1.4,1.1-2.1,2.6-2.1c0.6,0,1.1,0.1,1.6,0.3v-0.1c0-0.7-0.5-1.2-1.4-1.2
			c-0.7,0-1.2,0.1-1.8,0.3l-0.5-1.4c0.7-0.3,1.4-0.5,2.5-0.5c1,0,1.7,0.3,2.2,0.7c0.5,0.5,0.7,1.2,0.7,2v3.7h-1.7v-0.7
			c-0.4,0.5-1,0.8-1.9,0.8C281.4,30.6,280.4,29.9,280.4,28.6z M284.5,28.2v-0.3c-0.3-0.1-0.7-0.2-1.2-0.2c-0.8,0-1.2,0.3-1.2,0.9v0
			c0,0.5,0.4,0.8,1,0.8C284,29.3,284.5,28.8,284.5,28.2z"/>
		<path class="st0" d="M291.6,22.1h1.8v8.3h-1.8V22.1z"/>
		<path class="st0" d="M295.2,24.1h1.8V25c0.4-0.5,1-1,1.9-1c1.4,0,2.2,0.9,2.2,2.4v4.1h-1.8v-3.6c0-0.9-0.4-1.3-1.1-1.3
			c-0.7,0-1.1,0.4-1.1,1.3v3.6h-1.8V24.1z"/>
		<path class="st0" d="M302.9,28.6v-3h-0.8v-1.5h0.8v-1.6h1.8v1.6h1.5v1.5h-1.5v2.7c0,0.4,0.2,0.6,0.6,0.6c0.3,0,0.6-0.1,0.9-0.2
			v1.5c-0.4,0.2-0.8,0.4-1.4,0.4C303.6,30.5,302.9,30.1,302.9,28.6z"/>
		<path class="st0" d="M307.1,27.3L307.1,27.3c0-1.8,1.3-3.3,3.2-3.3c2.1,0,3.1,1.7,3.1,3.5c0,0.1,0,0.3,0,0.5h-4.4
			c0.2,0.8,0.8,1.2,1.6,1.2c0.6,0,1-0.2,1.5-0.7l1,0.9c-0.6,0.7-1.5,1.2-2.6,1.2C308.5,30.6,307.1,29.2,307.1,27.3z M311.6,26.7
			c-0.1-0.8-0.6-1.4-1.3-1.4c-0.7,0-1.2,0.5-1.4,1.4H311.6z"/>
		<path class="st0" d="M314.7,24.1h1.8V25c0.4-0.5,1-1,1.9-1c1.4,0,2.2,0.9,2.2,2.4v4.1h-1.8v-3.6c0-0.9-0.4-1.3-1.1-1.3
			c-0.7,0-1.1,0.4-1.1,1.3v3.6h-1.8V24.1z"/>
		<path class="st0" d="M321.6,29.6l0.8-1.2c0.7,0.5,1.4,0.8,2,0.8c0.5,0,0.8-0.2,0.8-0.5v0c0-0.4-0.6-0.5-1.3-0.7
			c-0.9-0.3-1.9-0.7-1.9-1.9v0c0-1.3,1-2,2.3-2c0.8,0,1.7,0.3,2.4,0.7l-0.7,1.2c-0.6-0.4-1.3-0.6-1.7-0.6c-0.4,0-0.7,0.2-0.7,0.4v0
			c0,0.4,0.6,0.5,1.3,0.8c0.9,0.3,1.9,0.7,1.9,1.9v0c0,1.4-1.1,2.1-2.4,2.1C323.4,30.6,322.4,30.3,321.6,29.6z"/>
		<path class="st0" d="M328.1,21.8h1.9v1.6h-1.9V21.8z M328.1,24.1h1.8v6.4h-1.8V24.1z"/>
		<path class="st0" d="M330.9,24.1h1.9l1.4,4.3l1.4-4.3h1.9l-2.5,6.4h-1.6L330.9,24.1z"/>
		<path class="st0" d="M337.9,27.3L337.9,27.3c0-1.8,1.3-3.3,3.2-3.3c2.1,0,3.1,1.7,3.1,3.5c0,0.1,0,0.3,0,0.5h-4.4
			c0.2,0.8,0.8,1.2,1.6,1.2c0.6,0,1-0.2,1.5-0.7l1,0.9c-0.6,0.7-1.5,1.2-2.6,1.2C339.3,30.6,337.9,29.2,337.9,27.3z M342.4,26.7
			c-0.1-0.8-0.6-1.4-1.3-1.4c-0.7,0-1.2,0.5-1.4,1.4H342.4z"/>
		<path class="st0" d="M348.6,29.2l1.1-1.3c0.7,0.6,1.5,1,2.5,1c0.8,0,1.2-0.3,1.2-0.8v0c0-0.5-0.3-0.7-1.7-1.1
			c-1.7-0.4-2.8-0.9-2.8-2.5v0c0-1.5,1.2-2.5,2.9-2.5c1.2,0,2.2,0.4,3.1,1.1l-1,1.4c-0.7-0.5-1.5-0.8-2.2-0.8
			c-0.7,0-1.1,0.3-1.1,0.7v0c0,0.5,0.4,0.7,1.8,1.1c1.7,0.4,2.6,1,2.6,2.5v0c0,1.7-1.3,2.6-3.1,2.6
			C350.9,30.6,349.6,30.1,348.6,29.2z"/>
		<path class="st0" d="M356.2,27.3L356.2,27.3c0-1.8,1.4-3.3,3.3-3.3c1.2,0,2,0.4,2.5,1.1l-1.1,1.2c-0.4-0.4-0.8-0.7-1.5-0.7
			c-0.9,0-1.5,0.8-1.5,1.7v0c0,1,0.6,1.8,1.6,1.8c0.6,0,1-0.3,1.5-0.7l1.1,1.1c-0.6,0.7-1.3,1.2-2.6,1.2
			C357.6,30.6,356.2,29.1,356.2,27.3z"/>
		<path class="st0" d="M363.2,21.8h1.9v1.6h-1.9V21.8z M363.3,24.1h1.8v6.4h-1.8V24.1z"/>
		<path class="st0" d="M366.4,27.3L366.4,27.3c0-1.8,1.3-3.3,3.2-3.3c2.1,0,3.1,1.7,3.1,3.5c0,0.1,0,0.3,0,0.5h-4.4
			c0.2,0.8,0.8,1.2,1.6,1.2c0.6,0,1-0.2,1.5-0.7l1,0.9c-0.6,0.7-1.5,1.2-2.6,1.2C367.8,30.6,366.4,29.2,366.4,27.3z M370.9,26.7
			c-0.1-0.8-0.6-1.4-1.3-1.4c-0.7,0-1.2,0.5-1.4,1.4H370.9z"/>
		<path class="st0" d="M373.9,24.1h1.8V25c0.4-0.5,1-1,1.9-1c1.4,0,2.2,0.9,2.2,2.4v4.1H378v-3.6c0-0.9-0.4-1.3-1.1-1.3
			c-0.7,0-1.1,0.4-1.1,1.3v3.6h-1.8V24.1z"/>
		<path class="st0" d="M381,27.3L381,27.3c0-1.8,1.4-3.3,3.3-3.3c1.2,0,2,0.4,2.5,1.1l-1.1,1.2c-0.4-0.4-0.8-0.7-1.5-0.7
			c-0.9,0-1.5,0.8-1.5,1.7v0c0,1,0.6,1.8,1.6,1.8c0.6,0,1-0.3,1.5-0.7l1.1,1.1c-0.6,0.7-1.3,1.2-2.6,1.2
			C382.4,30.6,381,29.1,381,27.3z"/>
		<path class="st0" d="M387.6,27.3L387.6,27.3c0-1.8,1.3-3.3,3.2-3.3c2.1,0,3.1,1.7,3.1,3.5c0,0.1,0,0.3,0,0.5h-4.4
			c0.2,0.8,0.8,1.2,1.6,1.2c0.6,0,1-0.2,1.5-0.7l1,0.9c-0.6,0.7-1.5,1.2-2.6,1.2C389,30.6,387.6,29.2,387.6,27.3z M392.1,26.7
			c-0.1-0.8-0.6-1.4-1.3-1.4c-0.7,0-1.2,0.5-1.4,1.4H392.1z"/>
	</g>
	<path class="st0" d="M5.4,27.4c-0.3-0.1-0.6-0.2-0.8-0.4c0.2,0.6,0.3,1.1,0.7,1.8C5.4,29.2,5.7,28.3,5.4,27.4 M4.5,17.2L4.5,17.2
		c0,0.8-2.3,2-3.3,2.6c1.5,0.5,3-0.9,2.8-0.5c-0.2,0.4-2.1,2-2.9,2.9c0.6,0.2,1.2-0.3,1.7-0.7c0.5-0.4,1.3-1.5,1.2-1
		c-1.4,1.7-2.4,5.2-1.8,5.4C2.6,25,4.2,21,4.3,21c0.1,0-0.1,1.1-0.2,1.8c-0.1,1.5-0.1,2.2,0.2,3.7c0.2-0.2,0.3-0.2,0.6-0.2
		c0-0.1,0-0.1-0.1-0.3c-0.4-0.6,0.1-1.4-0.1-1.8c-0.2-0.4-0.3-0.1-0.4-0.5c0.1-0.1,0.4-0.1,0.6-0.2c0.1-1.6,0.7-2.4,0.5-1.4
		c-0.1,0.5-0.3,1.3-0.2,1.4c0.1,0,0.1,0,0.1,0.1c0,0,2.6-4.3,1.2-1.3c-0.2,0.4-1,1.4-1,1.4C5.8,23.8,6,24.1,6,24.2
		c0,0,3.5-4.6,1.1-0.9c-0.1,0.2-0.9,1-1,1.2c0,0,0.1,0.9,0.1,0.9c0.4-0.3,0.9-0.8,1.1-1.1c0-0.5,0.1-0.4,0.1-0.9
		c0.1-0.1,0.3,0.1,0.4,0.3c0.1,0.1,2.4-3.9,0.9-0.9C8.5,23.3,8,23.9,8,23.9c0.1,0.1,0.2,0.4,0.4,0.8c0,0,3.1-4.4,1.2-1.1
		c-0.1,0.3-1.1,1.4-1.1,1.4C8.8,25.6,9,26.2,9,26.2c-0.1-0.4-0.1-1.3,0.8-2c0.1,0.8,0.3,0.8,0.6,1c0.1,0.1,0.3,0.5,0.4,0.2
		c0.1-1.1-0.3-1.1-0.5-1.5c-0.1-0.1-0.1-0.4,0-0.3c2.2,0.1,2.1,2.1,2.5,2.1c-0.2-0.5-0.2-1,0-1.5c-0.6-0.4-0.4-1.1-0.3-1.5
		c-0.7-0.7-0.3-2.2,0-2.5c-0.4-0.6,0.1-1,0-1.4c-0.2-1.4-1.4-1-1.7-2.2c-0.2,0.2-0.5,1-0.4,1.3c0.2,0.3,0.6,0.3,0.6,0.5
		c0,0.1,0,0.4,0,0.4c-0.2,0-0.4-0.2-0.6-0.3c-0.5-0.2-1.6,0.6-1.7-0.1c0-0.4,0.1-0.1,0.1-0.5c0-0.4-0.2-0.1-0.2-0.7
		c0-0.4,0.5-0.5,0.5-0.7c0.1-0.4,0.8,0.6,1.2-0.4c-0.2,0-0.7-0.1-0.7-0.4c0.1-0.6,0.1-2.2-1.3-1.8c-0.5,0.1-1.9,0.9-2.1,0.1
		c-0.5,0.9,0.5,0.8,0.8,0.7c-0.1,0.1-0.3,0.2-0.7,0.1c-0.8,0.5-3.8,2.4-4.6,2.9C2.7,18.3,4.5,17.2,4.5,17.2 M7.3,24.8
		c-0.4,0.4-0.5,0.4-0.5,0.6C6.9,25.6,7,25.8,7.2,26c0.2,0.2,0.3,0.4,0.2-0.2C7.3,25.4,7.3,25.1,7.3,24.8 M13.7,16
		c-0.1-0.2-0.2-0.3-0.4-0.4c-0.7-0.3-2.1,0.4-2.1-0.7c0,0-0.5,0.4-0.3,0.7C11.5,16.6,13,15.5,13.7,16 M2.9,5.3c-1.2,0-1.2,1.8,0,1.8
		C4.2,7.1,4.2,5.3,2.9,5.3 M2.9,8.9c-1.3,0-1.3,1.8,0,1.8C4.2,10.8,4.2,8.9,2.9,8.9 M4.2,6.8h1.1V5.8H4.2V6.8z M4.2,10.5h1.1V9.4
		H4.2V10.5z M7.1,9.3c-0.5,0.3-0.4,0.6-0.2,0.8C7,10.1,7.3,9.9,7.4,9.8C7.3,9.7,7.2,9.5,7.1,9.3 M8.2,7.7c0-0.1,0-0.2,0-0.3
		c0-0.1-0.2-0.3-0.2-0.3c-0.1,0-0.2,0.1-0.2,0.2c0,0.1,0,0.2,0,0.3C7.9,7.8,8,7.8,8.2,7.7 M8.2,8.2c0,0,0-0.1,0-0.1c0,0,0-0.2,0-0.3
		C8.1,7.9,8,8,7.9,7.9C7.6,8.1,8,8.2,8.1,8.3C8.1,8.2,8.2,8.2,8.2,8.2 M10.2,5.3c0.1-0.1,0.3-0.3,0.4-0.4c-0.1,0-0.2-0.1-0.3-0.3
		C10.1,4.8,10.1,4.9,10.2,5.3 M11.9,5.5c-0.1,0.1-0.3,0.2-0.3,0.3c0.1,0.1,0.4,0.3,0.6,0.2c0.2-0.1,0.3-0.3,0.1-0.4
		C12.1,5.6,12,5.5,11.9,5.5 M12,5.2c0.1-0.1,0.2-0.1,0.2-0.2c-0.1-0.1-0.3-0.2-0.4-0.2c-0.1,0-0.3,0.1-0.2,0.2
		c0.1,0.1,0.1,0.2,0.3,0.2C11.9,5.2,12,5.2,12,5.2 M12.5,10c0-0.1,0-0.3,0-0.3c0-0.1-0.3-0.3-0.3-0.3c-0.1,0-0.1,0-0.1,0.1
		c0,0.1,0,0.2,0,0.3C12.3,9.9,12.4,10,12.5,10 M12.2,10c-0.3,0.2,0,0.4,0.1,0.5c0.1,0,0.2-0.1,0.3-0.1c0,0,0-0.1,0-0.1
		c0,0,0-0.1,0-0.2C12.4,10.1,12.3,10.1,12.2,10 M11.6,10.3l-0.2,0.2l-0.1,0.2c-0.1-0.1-0.2-0.1-0.2-0.2l0-0.8l-0.2-0.1
		c-0.1,0.1-0.2,0.1-0.1,0l0.4-0.3l0.1,0l0.2,0.3l0,0.7C11.5,10.3,11.4,10.3,11.6,10.3 M11.5,8c-0.1-0.3,0.1-0.7,0.2-0.7
		C11.8,7.2,12,7,12.1,6.9c0.1,0.1,0.2,0.1,0.3,0.2c0,0.1-0.1,0.2-0.2,0.2c-0.2,0-0.4,0-0.5,0.1c-0.1,0.1,0,0.4,0.1,0.6
		C12,8,12.3,8.1,12.3,8c0.1-0.1,0.2-0.1,0.1,0.1c-0.1,0.1-0.2,0.3-0.2,0.4C11.9,8.4,11.6,8.3,11.5,8 M11.8,10.4
		c0-0.2,0.1-0.3,0.2-0.5c0,0,0,0,0,0c0,0-0.1-0.4-0.1-0.4c0.1-0.1,0.4-0.4,0.5-0.4c0.1,0,0.3,0.3,0.4,0.4c0,0,0,0.8,0,0.9
		c0,0.1,0.2,0.1,0.2,0c0.1-0.1,0.1,0,0.1,0.1c-0.1,0.1-0.3,0.2-0.3,0.3c-0.1-0.1-0.2-0.1-0.3-0.3c-0.2,0-0.4,0.2-0.6,0.3
		C11.9,10.7,11.8,10.5,11.8,10.4 M13.4,8.3l-0.2,0.2l-0.2,0.2c-0.1-0.1-0.2-0.2-0.2-0.2l0-0.8l-0.2-0.1c-0.1,0.1-0.2,0.1-0.1,0
		l0.4-0.3l0.1,0l0.2,0.2l0,0.8C13.2,8.3,13.2,8.3,13.4,8.3 M13.2,5.8c-0.4,0-0.3-0.2-0.2-0.2C13.4,5.6,13.3,5.8,13.2,5.8 M13.2,5.5
		c-0.4,0-0.3-0.2-0.2-0.2C13.4,5.3,13.3,5.5,13.2,5.5 M12.9,6.4l0.2,0.2v0.2L12.9,7h-0.1l-0.1-0.1l0-0.2L12.9,6.4z M12.7,4.8
		c0,0.1-0.2,0.2-0.4,0.3c0,0,0.1,0,0.1,0c0.3,0.2,0.4,0.4,0.1,0.7c-0.2,0.1-0.4,0.3-0.7,0.3c-0.2,0-0.5-0.2-0.6-0.2
		c0.2-0.2,0.3-0.3,0.5-0.4c-0.2-0.2-0.4-0.4-0.2-0.6c0.1-0.2,0.5-0.5,0.8-0.4C12.4,4.5,12.6,4.8,12.7,4.8 M11,5.9
		c-0.1,0-0.3,0.2-0.4,0.2c-0.4,0-0.9-0.3-0.9-0.9c0.1-0.6,0.5-0.8,0.7-0.8c0.2,0,0.3,0.2,0.4,0.3c-0.2,0.2-0.5,0.5-0.7,0.7
		c0,0.1,0.3,0.5,0.7,0.3C11.2,5.7,11.2,5.8,11,5.9 M9.7,4.9C9.6,5,9.4,5.1,9.3,5.2C9.3,5.1,9.2,5,9.1,4.9C9.1,4.9,9,5,9,5
		c0,0.1,0,1,0,1.2c-0.1,0-0.2,0-0.3,0c0-0.1,0-0.9,0-1C8.6,5,8.5,5,8.3,4.9c0.1-0.1,0.3-0.3,0.4-0.3C8.8,4.7,8.9,4.7,9,4.8
		c0.1-0.1,0.3-0.2,0.3-0.2C9.4,4.7,9.5,4.8,9.7,4.9C9.7,4.8,9.7,4.9,9.7,4.9 M8.2,6.9c0.1,0,0.2,0.3,0.4,0.4c0,0,0,0.8,0,0.9
		c0,0,0.1,0.1,0.2,0.1c0.1-0.1,0.1,0,0.1,0.1C8.7,8.4,8.4,8.6,8.4,8.6C8.3,8.6,8.3,8.5,8.2,8.3c-0.2,0-0.3,0.1-0.4,0.3
		C7.7,8.5,7.5,8.4,7.5,8.2c0-0.2,0.1-0.3,0.2-0.4c0,0,0,0-0.1-0.1c0,0-0.1-0.3-0.1-0.4C7.7,7.1,8,6.9,8.2,6.9 M8,6.5
		C7.9,6.4,7.9,6.3,7.8,6.3c-0.3,0.1-0.6,0.2-0.9,0C6.6,6.2,6.4,6.2,6.4,5.6c0-0.4,0.3-0.6,0.5-0.8c0.2-0.1,0.6,0,0.8,0
		c0.1,0,0.2,0,0.2-0.1c0-0.1,0.1,0,0.1,0c0,0.1,0,0.8,0,0.8c0,0.1-0.1,0.1-0.1,0c0-0.1,0-0.2-0.1-0.4c0-0.2-0.5-0.5-0.9-0.1
		c0,0-0.2,0.3-0.1,0.5c0,0.1,0,0.3,0.1,0.5C7.2,6.5,7.6,6.3,7.8,6c0.1-0.1,0.1-0.3,0.1-0.3c0-0.1,0.1-0.1,0.1,0c0,0.1,0,0.5,0,0.6
		C8,6.3,8,6.4,8.1,6.4C8.1,6.5,8.1,6.6,8,6.5 M6.4,7.2C6.6,7,6.9,6.8,7.1,6.8C7.2,6.8,7.3,7,7.4,7.1C7.3,7.2,7.2,7.3,7.1,7.4
		c0-0.1-0.3-0.5-0.5-0.2C6.5,7.3,6.4,7.8,6.7,8.1c0.2,0.1,0.4,0.2,0.6,0.1C7.2,8.3,7.2,8.4,7.1,8.5c-0.3,0.1-0.5,0-0.6-0.2
		C6.1,8,6.2,7.6,6.4,7.2 M6.6,9.9C6.7,9.4,7.2,9.1,7.4,9c0,0.2,0.2,0.5,0.4,0.6C7.6,9.7,7.1,10.1,7,10.2c0.1,0.2,0.4,0.3,0.6,0.2
		c0.1-0.1,0.2-0.1,0.1,0.1c-0.1,0.1-0.3,0.4-0.3,0.5C7,10.8,6.5,10.5,6.6,9.9 M7.9,9.5c0.2-0.1,0.2-0.2,0.4-0.3
		c0.1,0.2,0.1,0.3,0.2,0.4c0.1-0.1,0.3-0.2,0.4-0.3c0.1,0,0.2,0.1,0.2,0.4c0,0.3,0,0.8,0,0.9c0,0.1,0,0,0.1,0c0.1,0,0.1,0,0.1,0.1
		c-0.1,0.1-0.4,0.3-0.4,0.3c-0.1-0.2-0.1-0.3-0.1-0.5c0-0.2,0-0.6,0-0.7c0-0.1-0.1-0.1-0.2-0.2C8.5,9.6,8.5,9.6,8.4,9.7
		c0,0.1,0,1,0,1.1c-0.2,0-0.2,0-0.3,0c0-0.2,0-0.9,0-1C8.1,9.6,8,9.5,7.9,9.5 M9.5,8.4c-0.1,0.1-0.3,0-0.3-0.2
		C9,8.1,9.1,7.6,9.1,7.3c0,0-0.1-0.1-0.1-0.1c-0.1,0-0.1-0.1,0-0.1C9.2,7,9.4,6.6,9.5,6.5c0-0.1,0.1,0,0,0.1C9.4,6.8,9.4,7,9.5,7.1
		c0,0,0.3,0,0.4,0c0,0,0,0.1,0,0.1c-0.1,0-0.5,0.1-0.5,0.1c0,0,0,0.7,0.1,0.8c0,0,0.1,0.1,0.2,0.1c0.1-0.1,0.1,0,0.1,0.1
		C9.7,8.2,9.6,8.3,9.5,8.4 M9.7,9.4c0.1-0.1,0.4-0.5,0.4-0.6c0-0.1,0.1-0.1,0.1,0c0,0.1-0.1,0.5-0.1,0.5c0,0,0.2,0,0.3,0
		c0,0,0,0.1,0,0.1c-0.1,0-0.3,0-0.3,0c0,0,0,0.5,0,0.6c0.1,0.1,0.2,0.2,0.3,0c0.1-0.1,0.1,0,0.1,0.1c0,0-0.2,0.3-0.3,0.4
		c0,0.1-0.3,0-0.4-0.1C9.7,10.3,9.8,10,9.8,9.6C9.8,9.6,9.5,9.5,9.7,9.4 M11.3,8.8C11.2,8.9,11.1,9,11,9.1c-0.1-0.1-0.2-0.2-0.3-0.2
		c0.2-0.1,0.2-0.2,0.3-0.3C11,8.7,11.2,8.8,11.3,8.8 M10.5,7c0.3,0.1,0.6,0,0.7,0.4c0.1,0.4-0.1,0.8-0.4,0.8c-0.2,0-0.5-0.1-0.6,0
		c-0.1,0-0.1,0-0.1,0.1c0,0.1-0.1,0.1-0.1,0c0-0.1,0-0.5,0-0.6c0-0.1,0.1-0.1,0.1,0c0,0.1,0.1,0.2,0.2,0.3C10.4,8.1,10.8,8.2,11,8
		c0.1-0.1,0.1-0.4,0-0.5c-0.1-0.1-0.7-0.2-0.8-0.4c-0.2-0.3,0.1-0.5,0.3-0.6c0.2-0.1,0.5-0.1,0.5-0.1c0.1,0,0.2,0,0.2-0.1
		c0-0.1,0.1-0.1,0.1,0c0,0.3,0.1,0.1,0,0.4c0,0.1,0,0.1-0.1,0c0-0.1-0.4-0.4-0.7-0.2C10.2,6.8,10.3,7,10.5,7 M11.5,11.6
		c1.3,0.1,2.4,0.7,2.4,0.7V3.8c0,0-1.9-1.4-5.1-0.1C7.9,4,5.7,3.7,5.7,3.7v8.7C7.6,12.5,10.2,11.5,11.5,11.6 M14.6,14.4
		c0,0.1-0.1,0.3-0.1,0.3l0.5-0.3c-0.1-0.1-0.4-0.2-0.5-0.3C14.4,14.1,14.6,14.2,14.6,14.4 M15.4,14.4c-0.5,0.1-0.8,0.6-1.4,0.4
		c-0.1,0-0.2-0.1-0.2-0.2c0.1,0.1,0.3,0.1,0.4,0.1c0,0-0.3-0.2,0-0.5c-0.3,0.2-0.4,0.2-0.4,0c0,0,0.4-0.4,0.8-0.2
		C14.8,14.1,15,14.3,15.4,14.4L15.4,14.4z M14,13.4c-0.3,0-0.6,0.2-0.7,0.5c-0.2,0.2-0.2-0.3-0.5-0.1c-0.1,0.2,0.2,0.6,0.1,0.6
		c-0.4,0.1-0.3-0.5-0.5-0.6c-0.3,0.1-1.1,0.8-0.3,1.3c0-0.4,0.7-0.8,0.9,0c0.7-0.1,0.9,0.4,1,0.6c1,0.2,0.7,0.9,0.7,0.9
		c-0.1-0.1-0.5-0.8-1.3-0.4c-0.2,0.1-0.5,0.2-0.6,0.1c0,0.2,0.3,0.4,0.5,0.4c0.6-0.2,0.8,0.4,0.3,0.6c0.1,0.2,0.3,0.2,0.5,0
		c0.3-0.2,0.3-0.3,0.4-0.4c0.2,0.8-0.9,0.9-1.2,1c0.1,0.2,0.2,0.2,0.4,0.3c-1.1,0-1.3,1.1-1.3,1.7c0.3,0,0.6-0.5,0.6-0.2
		c-0.8,0.8-1.1,2-0.6,2.7c0.2-0.1,0.3-0.3,0.3-0.5c0,0,0.4,0.2-0.2,0.9c0,0.2-0.3,0.8,0.2,1c0.2-0.2,0.2-0.4,0.2-0.7
		c0.1-0.1,0.2,0.4,0.2,0.6c-0.7,0.3-0.6,2.3,0.2,3.4c-0.4-0.8-0.3-1.8,0-2.6c0.2-0.6,0.8-2,0.8-2c0.3,0.4,0.7,1.9,0.7,2.6
		c0.4-0.4,0.5-0.8,0.8-1c0.2,0.6,0.2,0.9,0.4,1.4c0.2-0.5,0.6-1,0-2.6c0.1-0.1,0.4,0.5,0.4,0.5c0.1,0,0.1-0.4-0.1-1
		c-0.4-0.4-0.5-1-0.5-1c0.1,0,0.3,0.6,0.5,0.6c0-0.5,0.2-1,0.1-1.4c0-0.1-0.2-0.6-0.7-1.1c-0.3-0.2-0.4-0.8-0.4-0.9
		c0.3,0.2,0.2,0.4,0.4,0.5c0.1-0.2,0-1-0.2-1.3c-0.2-0.3-0.1-0.2,0.1-0.1c0.2,0.3,0.1,0.3,0.3,0.4c0.5-1.1,0-1.3,0.1-1.4
		c0-0.1,0.4,0.5,0.6,0.3c-0.5-0.2-0.4-0.6-0.5-1c0-0.3-0.2-0.4-0.2-0.5c0.5,0.3,0.6,0,0.6-0.1c-0.1,0.1-0.5,0.1-0.5-0.5
		c0-0.3-0.4-0.4-0.4-0.4c0.2,0,1-0.1,0.8-0.8c-0.1,0.2-0.3,0.5-0.8,0.3c0,0,0.3-0.1,0.2-0.4C15.4,14.1,14.8,13.3,14,13.4 M20.5,5.6
		c0.1,0.1,0.5,0.3,0.6,0.3c0-0.1,0-0.3,0-0.4c0-0.1-0.3-0.3-0.4-0.3c-0.1,0-0.1,0.1-0.2,0.2C20.4,5.5,20.4,5.5,20.5,5.6 M20.8,6.5
		c0.1-0.1,0.2-0.1,0.3-0.1c0,0,0-0.1,0-0.1c0,0,0-0.2,0-0.3c-0.2,0-0.3-0.1-0.5-0.2c0,0,0,0,0.1,0C20.5,6.1,20.7,6.4,20.8,6.5
		 M20.8,8.3c0.1,0.2,0.4,0.4,0.5,0.5c0.1-0.2,0.2-0.5,0.2-0.7c0-0.2-0.3-0.4-0.5-0.5C20.7,7.7,20.7,8,20.8,8.3 M16.5,10.1
		c-0.2,0.3,0,0.4,0.1,0.4c0.1-0.1,0.2-0.1,0.3-0.2c0-0.1,0-0.2,0-0.3C16.7,10.1,16.6,10.1,16.5,10.1 M16.9,10c0-0.1,0-0.3,0-0.3
		c0-0.1-0.2-0.2-0.3-0.2c-0.1,0-0.1,0-0.2,0.1c0,0.1,0,0.3,0,0.3C16.6,10,16.7,10,16.9,10 M17.1,10.8c-0.1-0.1-0.2-0.1-0.3-0.2
		c-0.3,0.1-0.4,0.3-0.6,0.4c-0.1-0.1-0.2-0.3-0.2-0.5c0-0.2,0.2-0.4,0.3-0.5c0,0,0,0,0,0c0,0-0.1-0.3,0-0.4c0.1-0.1,0.3-0.5,0.5-0.5
		c0.1,0,0.3,0.2,0.4,0.3c0,0,0,0.7,0,0.8c0.1,0.1,0.2,0.2,0.3,0.1c0.1-0.1,0.1,0,0.1,0.1C17.4,10.4,17.2,10.7,17.1,10.8 M17.8,9.5
		c0,0-0.3-0.1-0.2-0.2c0.2-0.1,0.5-0.4,0.5-0.5c0-0.1,0.1-0.1,0.1,0c0,0.1-0.1,0.3-0.1,0.4c0,0,0.2,0,0.3,0c0,0,0,0.1,0,0.1
		c-0.1,0-0.3,0-0.3,0c0,0,0,0.8,0,0.9c0,0.1,0.2,0.1,0.3,0c0.1-0.1,0.1,0,0.1,0.1c0,0-0.2,0.3-0.3,0.3c-0.1,0-0.3,0-0.4-0.1
		C17.8,10.5,17.8,9.9,17.8,9.5 M18.4,8.4C18.2,8.4,18.1,8.2,18,8c-0.2,0.2-0.2,0.4-0.6,0.5c0.2-0.2,0.4-0.5,0.4-0.9
		c0-0.3-0.2-0.5-0.3-0.5c-0.1,0.1-0.2,0.1-0.3,0.2c-0.1,0-0.1-0.1,0-0.1c0.2-0.1,0.5-0.4,0.6-0.4C17.8,6.9,18,7,18,7.1
		c0.1-0.1,0.3-0.3,0.4-0.3c0.1,0.1,0.3,0.3,0.5,0.4c-0.2,0.4-0.7,0.1-0.7,0.1c-0.1,0.1-0.1,0.2,0,0.4c0.1,0.2,0.5,0.4,0.7,0.5
		C18.7,8.1,18.5,8.4,18.4,8.4 M18.7,9.7c0.1-0.2,0.3-0.3,0.4-0.3c0.1,0.1,0.2,0.2,0.3,0.3c0,0.2,0,0.6,0,0.8c0,0.1,0.6,0.2,0.6,0
		c0-0.2,0-0.5,0-0.6c0-0.1-0.2-0.1-0.3-0.1c0.1-0.2,0.3-0.3,0.4-0.4c0.1,0.1,0.3,0.2,0.3,0.4c0,0.2,0,0.7,0,0.8c0,0.1,0,0.1,0.1,0.2
		c-0.1,0.1-0.2,0.1-0.3,0.2c-0.1,0-0.3-0.2-0.3-0.3c-0.1,0.1-0.5,0.2-0.6,0.3c-0.1-0.1-0.2-0.2-0.2-0.3c0-0.2,0-0.6,0-0.7
		C18.9,9.7,18.8,9.7,18.7,9.7 M20.5,8.2c0-0.4,0.3-0.8,0.8-1c0.4,0.1,0.5,0.5,0.5,0.8c0,0.2-0.1,0.5-0.2,0.7
		c-0.1,0.1-0.3,0.2-0.4,0.4C20.7,9,20.5,8.5,20.5,8.2 M20.5,9.9c0.1-0.1,0.4-0.3,0.5-0.4c0.2,0.1,0.3,0.2,0.3,0.3
		c0.1-0.1,0.3-0.2,0.3-0.2C21.8,9.8,22,9.9,22,9.9c0.1-0.1,0.2,0,0.1,0.1c-0.1,0.1-0.3,0.2-0.3,0.3c-0.1-0.1-0.3-0.3-0.3-0.3
		c0,0-0.1,0.1-0.1,0.1c0,0.1,0,1,0,1.1c-0.1,0-0.3,0-0.4,0c0-0.1,0-0.9,0-1C20.9,10,20.7,9.9,20.5,9.9 M22.3,8.4c-0.1,0-0.2,0-0.3,0
		c-0.1,0-0.1-0.1,0-0.1c0.1,0,0.2,0,0.3,0C22.4,8.2,22.4,8.4,22.3,8.4 M22.3,8.1c-0.1,0-0.2,0-0.3,0c-0.1,0-0.1-0.1,0-0.1
		c0.1,0,0.2,0,0.3,0C22.4,8,22.4,8.1,22.3,8.1 M21.6,6.4l-0.3,0.4c-0.1-0.1-0.2-0.1-0.2-0.3c-0.3,0.1-0.4,0.2-0.6,0.3
		c-0.1-0.1-0.3-0.4-0.3-0.5c0-0.2,0.1-0.4,0.2-0.5c0,0,0,0,0,0c-0.1,0-0.1-0.1-0.2-0.1c0,0,0-0.1,0-0.2c0.1-0.1,0.3-0.4,0.5-0.4
		c0.1,0,0.3,0,0.6,0.2c0,0,0,0.8,0,0.9C21.5,6.3,21.6,6.4,21.6,6.4 M19.3,7.7c-0.1,0.3,0.2,0.5,0.4,0.6c0.1,0.1,0.4,0,0.5,0
		c0.1,0,0,0,0.1-0.1c0,0,0.1,0,0.1,0c0,0-0.4,0.4-0.5,0.5c-0.1,0-0.3,0-0.4-0.1c-0.2-0.3-0.4-0.4-0.3-0.9c0-0.3,0.6-0.6,0.8-0.7
		c0.1,0.1,0.3,0.3,0.4,0.4c0,0.1-0.2,0.1-0.3,0.1c-0.1,0-0.2-0.1-0.3-0.2C19.5,7.4,19.4,7.5,19.3,7.7 M20.1,5
		c-0.1,0-0.7,0.1-0.7,0.1c0,0,0,0.8,0.1,0.9c0,0.1,0.1,0.2,0.2,0.1c0.1-0.1,0.1,0,0.1,0.1c0,0-0.2,0.3-0.3,0.4
		c-0.1,0.1-0.2-0.1-0.3-0.3C19,6,19,5.5,19,5.1c0,0-0.3-0.1-0.2-0.2c0.3-0.1,0.6-0.5,0.6-0.6c0-0.1,0.1-0.1,0.1,0
		c-0.1,0.2-0.1,0.3,0,0.5c0,0,0.6,0,0.6,0C20.1,4.8,20.1,5,20.1,5 M18.6,6l-0.3,0.3h-0.2c-0.1-0.1-0.2-0.2-0.2-0.3l0-0.8L17.5,5
		c-0.1,0.1-0.2,0.1-0.1,0l0.4-0.4l0.1,0l0.3,0.3l0,0.9C18.3,5.9,18.4,5.9,18.6,6 M18.2,4.3l-0.1,0.1H18l-0.1-0.1l0-0.2L18,3.9
		l0.2,0.2V4.3z M17.4,4.3c-0.1,0-0.3,0.2-0.3,0.3c0,0.2-0.5,1.6-0.6,1.7c-0.1-0.5-0.6-1.5-0.8-1.8c-0.1-0.2-0.3-0.2-0.4-0.2
		c-0.1,0-0.1-0.1,0-0.1c0.1,0,0.9,0.1,1.2,0.1c0.1,0,0.1,0.1,0,0.1c-0.1,0-0.2,0.1-0.2,0.1c0,0.1,0.3,0.7,0.4,0.8
		c0.1-0.2,0.3-0.9,0.3-1c-0.1-0.2-0.1-0.2-0.2-0.2c-0.1,0-0.1-0.1,0-0.1c0.1,0,0.5-0.1,0.6,0C17.5,4.2,17.5,4.2,17.4,4.3 M15.6,6.9
		c0.3-0.1,0.8-0.2,1-0.2c0.1,0,0.2,0,0.2,0c0-0.1,0.1,0,0.1,0c0,0,0,0.7,0,0.7c0,0.1-0.1,0.1-0.1,0c0-0.1,0-0.1-0.1-0.2
		c-0.2-0.3-0.8-0.4-1.2,0c-0.1,0.1-0.1,0.4,0,0.4c0.1,0,0.6,0,0.7,0c0.1,0,0.5-0.1,0.5-0.1c0,0,0.1-0.1,0.1,0c0,0.1,0,0.3,0,0.4
		c0,0.1-0.1,0-0.1,0c0,0-0.4-0.1-0.5-0.1c-0.2,0-0.6-0.1-0.7-0.1c-0.1,0,0,0.2,0.1,0.4c0.3,0.4,0.9,0.4,1.1,0.1
		c0.1-0.1,0.1-0.1,0.1-0.2c0-0.1,0.1-0.1,0.1,0c0,0.1,0,0.6,0,0.6s-0.1,0.1-0.1,0c0-0.1-0.1-0.1-0.2-0.1c-0.3,0.1-0.8,0.1-1,0
		C15.3,8.3,15,8.3,15,7.7C15,7.3,15.4,7,15.6,6.9 M15.1,8.8c0.1,0,0.3,0,0.4,0c0,0.2,0,1.5,0,1.6c0,0.1,0.1,0.2,0.2,0.1
		c0.1,0,0.1,0,0,0.1c-0.1,0.1-0.3,0.3-0.3,0.4c-0.1-0.1-0.3-0.2-0.3-0.3C15.2,10.4,15.1,8.9,15.1,8.8 M17,11.6c0.9,0,4.3,0.9,6,0.8
		V3.8c0,0-2.4,0.3-4.5-0.4c-1.7-0.6-4.1,0.5-4.1,0.5c0,0.3,0,8.5,0,8.5S15.2,11.6,17,11.6 M23.2,9v1.6c0,0,0.9,0,1.9-0.7
		c0.3-0.2,0.8-0.1,1,0.1h0c0,0-0.1-1.1-1-0.9C23.4,9.3,23.2,9,23.2,9 M26.2,6.6c0,0.1,0,0.2,0,0.2C26.2,6.8,26.2,6.7,26.2,6.6
		c0,0-0.1-1-1.1-1c-0.3,0-0.7,0.4-1.8,0v1.6c0.4,0.1,1.6-0.5,2.1-0.7C25.7,6.4,26.1,6.5,26.2,6.6 M25,23.9c-0.1-2.6-1.7-5.5-1.2-4.9
		c1.1,1.3,1.4,4.2,2.2,6.7c0,0,0.5,0.2,0.4-2.9c0-0.6-0.3-1.5-0.6-2.1c-0.6-1.2-1.9-3.2-1.9-3.2c0.3-0.2,1.1,1.5,1.7,2.1
		c0.4,0.4,1.6,0.9,1.7,0.8c-0.9-1.8-3.2-3.5-3-3.8c1.7,1.6,2.2,1.6,2.3,1.6L25,16.7c-0.4-0.6-1-1-0.9-1c0.7,0.1-0.4-0.6-1.1-0.8
		c-0.1,0-0.4-0.1-0.4-0.1c0-0.1,0.2-0.1,0.4-0.1c0.1,0,0.2-0.1,0.2-0.3c-0.3,0.1-0.6,0-0.9-0.1c-0.5-0.2-1.5-0.5-1.9-0.4
		c-0.3,0.1-0.3,0.1-0.6,0.3c-0.1-0.1-0.5-0.3-0.9,0.3c-0.1,0.2-0.3,0.4-0.3,0.5c0,0.4,0,0,0.1,0.4c0,0.2-0.1,0.4-0.8,0.7
		c-0.3,0.1-0.2,0.4-0.2,0.4c0.1-0.1,0.3-0.2,0.7-0.1c0.6,0.3,0.8-0.2,1.2-0.5c0,0-0.1,0.4,0,0.5c0.5,0.1,0.3,0.5,0.3,0.5
		c-0.6,0.6-0.4,0.8-0.6,1.1c-0.2,0.3-0.5,0.5-1,0.4c-0.7,0,0.9-1-0.6-1.5c0.2,0.4,0.3,0.7-0.2,1c-0.3,0.2-0.2,1.2-1,0.7
		c0,0-0.1,0.7-0.2,0.7c1.1,1,0.5,1.5,0.6,3c0.4,0.9,0,1.3-0.1,1.4c0.1,0.6,0.1,1,0.5,1.5c0.3,0.4,0,0.9,0.3,1.3
		c0.3-0.9,0.5-0.5,0.6-1.8c0.1-0.2,0.5-0.6,0.8-0.6c0,0.8,0.3,1.5,0.2,1.8c0,0,0.7-0.1,0.9,0c0.2,0.1,0.3,0.3,0.3,0.4
		c-0.2,0.1-0.2,0.1-0.6,0.3c-0.6,0.4-0.9,1.3-0.9,1.3c0,0,1.4-1.1,1.5-1.3c0.1-0.2,0.2-0.4,0.2-0.7c0,0-0.7-0.4-0.9-0.8
		c-0.6-1.2,1,0.7,1,0.5c0.1-0.4,0.4-0.8,0.4-0.8c-0.1-0.1-0.3-0.2-0.7-0.9c-0.9-1.5,1,0.6,1,0.6c0.5-0.3,0.5,0.1,0.6,0.5
		c0,0,0.8,0.7,0.9,0.7c0.2-0.2,0.4-0.5,0.5-0.7c0,0-1.5-1.4-1.8-1.8c-2.1-3.6,1.7,1.6,1.9,1.4c0.1-0.3,0.1-0.7,0.1-1.2
		c0,0-0.7-0.5-1.2-1.3c-1.8-2.9,1.2,0.9,1.1,0.8c0-0.6-0.5-3.3-0.2-2.5c0.2,0.4,0.7,2.1,0.6,3.9C23.9,24.3,24.7,23.9,25,23.9
		 M21.7,26.7c0,0-0.3-0.2-0.3-0.2c0,0.1-0.1,0.3-0.2,0.4C21.2,27.1,21.4,27,21.7,26.7 M21.6,25.6c0,0.2,0,0.4-0.1,0.7
		c0,0,0.3,0.1,0.4,0.2c0.2-0.2,0.3-0.2,0.5-0.5c0,0-0.8-0.7-0.8-0.6C21.6,25.5,21.6,25.5,21.6,25.6 M23.9,27.1
		c0.3-0.3,0.5-0.7,0.9-0.9c-0.3-0.3-0.6,0.3-0.8,0.1c0.3-0.5,0.5-0.8,0.5-1.4c0-0.3,0.4-0.6,0.5-0.8c-0.3,0-1.3,0.6-1.4,0.9
		c-0.6,0.8-0.6,1.6-3.2,2.7c-0.1,0,0.5-0.4,0.6-0.9c0.1-0.2,0.4-1.3,0.2-1.9c-0.5,0.5-0.4,0.7-0.6,1.1c-0.4,1.1-0.6,1.2-1.6,1.8
		c-0.1,0.1-0.9,1.2-1.8,1.3c0.1,0,0-0.3,0.4-0.5c1.1-0.7,0.7-2.2,2.1-2.5c-0.7-0.2-1.2,0.4-1.3,0.4c0.6-0.8,0.1-1.4,0.1-2.1
		c-0.2,0.1-0.4,0.3-0.4,0.5c-0.1,1.1-0.6,1.3-0.7,1.8c0.1,0.8-0.5,1.4-1,2c-0.1-0.5,0-0.9,0.6-1.3c0.3-0.2,0-0.9,0-0.9
		c-0.1,0.7-0.5,0.9-0.8,1c-0.2,0,0.8-1,0.6-1.9c0-0.4-0.2-0.2-0.2-0.7c-0.8,0.9-0.2,1.5-1.1,2.6c-0.4,0.5-0.6,1.4-0.6,1.4
		c0-1.3,0.1-0.9,0.6-2c0.5-0.9,0-1.7-0.1-2.3c-1.1,0.7-1,2.2-1,1.8c0-0.3-0.2-0.8,0-1.3c0.2-0.8-0.3-2-0.3-2c-1.5,2.3-0.2,5.1-0.3,5
		c-0.6-1-1.1-1.1-1.3-1.8c-0.1-0.4-0.8-2.7-2.3-2.8c0.7,0.6,0.5,0.7,0.6,1.7c-0.5,2.5,3.1,2.8,2.8,4.1c-0.5-0.8-1.2-1.1-2.3-1.7
		c-0.5-0.4-1-0.6-1.1-1.2c0.1-0.4,0.1-0.4,0-0.9c-0.1-0.4-0.5-0.2-0.8-1c-0.6,0.6-0.4,1.2-0.4,1.6c0,0.1,0.1,0.5,0,0.7
		c-0.2-0.2-0.4-0.5-0.6-0.8c-0.5-0.6-0.5-1.3-0.7-1.8c-0.1-0.2-0.3-0.5-0.3-0.5l0,0c-0.1,0.9-0.1,1.7,0.4,2.4c0,0-0.1,0.2-0.2,0.2
		c-0.4-0.1-1-0.4-1.2-1.1c-0.5,0.4-0.1,0.9-0.2,0.9c-1.1-0.6,0-2.8-1.6-2.7c0.4,0.4,0.1,1,0.1,1.5c0,0.8,1,1.5,1,1.5
		c-1.2-0.4-1.4,0.2-1.4,0.2c0,0,1.7,0.7,4.4,1c0.3,0,0.8,0.4,0.8,0.4c-0.3,0-1-0.5-2,0.4c0.6,0,1,1,1.9,0.4c2.4-0.7,3.4,0.5,3.8,0.8
		c-0.1,0.2-1.9-1.1-3.3-0.3c-0.8,0.5-2,0-2.9-0.7c0.4,1,2,2.1,2.6,2.1c0.7,0,1.5-0.9,2.5-0.8c1.5,0.1,1.8,1.5,1.6,1.3
		c0,0-1.2-2-2.8,0.1c0.7-0.3,1.7-0.2,2.6,0.2c0.1,0.1-0.2,0.4-0.4,0.7c-0.1,0.2-0.8,1.1-1.5,0.2c-0.1-0.1-0.4-1-2.6-0.8
		c0.8,0.4,1.7,1.4,2.2,1.8c1.2,1.1,2.9-1.4,3-1.1c0,0.6,0.3,0.8,0.4,1.2c0.4,0.8-0.5,0.6-1,0.4c0,0,0.9,1.4,1.7,0.6
		c0.8-0.9-1.1-1.5-0.5-2.2c0.3-0.4,1.6,0.9,2.1,0.9c1.5,0.2,1.4-1.3,2.2-1.2c-0.7-0.8-1.5-0.3-1.7-0.2C17,32.7,16.4,32.3,16,32
		c-0.2-0.3-0.6-0.3-0.9-0.2c-0.2,0,0.3-0.5,0.9-0.4c1.4,0.3,2.8-0.2,3.1-0.4c0.6-0.3,0.9-0.8,1.5-1.4c-0.2,0-1.3,0.7-1.7,0.9
		c-1.1,0.6-1.8-0.2-1.9-0.2c-0.2,0-0.2-0.2,0.2-0.3c1.1-0.3,1.9-1.3,3-1.6C21.3,27.8,22.9,28.1,23.9,27.1 M23.4,29.1
		c0.5-0.6,0.7-1.3,0.9-2.1c-0.3,0.3-0.6,0.6-1,0.8C23,28.6,23.1,29.5,23.4,29.1 M27.5,21.9C26.4,34,16.3,36.1,14.1,36.5
		C14,36.5,1.9,35,0.7,21.9c0,0,0-19.2,0-19.2s11.5-1.5,26.8,0L27.5,21.9z M28.2,22.1l0-20C12.1,0.5,0,2,0,2s0,20,0,20
		c1.3,13.6,14,15.2,14.1,15.1C16.4,36.8,27,34.6,28.2,22.1 M35.7,26.9c0,3.7,1.8,6.3,4.1,7.9c2.1,1.4,4.6,1.9,7.2,1.9
		c1.8,0,3.9-0.4,4.5-0.7c0.3-0.1,0.7-0.2,1-0.3c0.4-0.5,1.2-2.4,1.4-3.9c-0.1-0.2-0.5-0.3-0.7-0.1c-0.7,1.7-2.3,4.1-6,4.1
		c-4.7,0-8.5-3.3-8.5-9.4c0-6,3.7-8.7,8.1-8.7c4.2,0,5.5,2.2,5.9,4.2c0.2,0.2,0.6,0.1,0.8-0.1c-0.2-1.8-0.4-3.6-0.4-4.2
		c-0.3,0-0.5,0-0.8-0.1c-1.4-0.4-3.5-0.7-5.1-0.7c-3,0-5.7,0.8-7.8,2.4C37.1,21,35.7,23.7,35.7,26.9 M43.9,2L43.9,2L43.9,2
		c-0.1-0.2-0.2-0.2-0.2-0.2c0,0-0.1,0-0.1,0l0,0l0,0c-0.2,0.3-0.2,0.3-0.9,0.3h-5c-0.5,0-0.8,0-0.8-0.3l0,0l0,0c0,0-0.1,0-0.2,0
		c0,0-0.1,0-0.2,0l0,0l0,0c-0.1,0.5-0.3,1.2-0.5,1.8l0,0l0,0c0.1,0.1,0.3,0.2,0.4,0.1l0,0l0,0C36.6,3.5,36.7,3.3,37,3
		c0.3-0.2,0.9-0.3,1.4-0.3h0.7c0.3,0,0.3,0,0.3,0.3v5.4c0,1.3-0.1,1.4-0.7,1.4l-0.4,0l0,0c-0.1,0-0.1,0.1-0.1,0.2
		c0,0.1,0,0.2,0.1,0.2l0,0l0,0c0.7,0,1.2,0,1.7,0c0.5,0,0.9,0,1.6,0l0,0l0,0c0.1,0,0.1-0.1,0.1-0.2c0-0.1,0-0.2-0.1-0.2l-0.4-0.1
		c-0.6-0.1-0.6-0.1-0.6-1.4V3c0-0.1,0-0.2,0-0.3c0,0,0.1,0,0.2,0h0.9c0.6,0,1.1,0.1,1.3,0.3c0.1,0.1,0.2,0.4,0.3,0.8l0,0l0,0
		c0,0.1,0.1,0.1,0.2,0.1c0.1,0,0.2,0,0.2-0.1l0,0l0,0C43.7,3.4,43.7,2.5,43.9,2 M53.7,8.4V4.1c0-1.3,0-1.4,0.6-1.4l0.3,0l0,0
		c0.1,0,0.1-0.1,0.1-0.2c0,0,0-0.2-0.1-0.2l0,0l0,0c-0.6,0-1,0-1.4,0c-0.5,0-0.9,0-1.4,0l0,0l0,0c-0.1,0-0.1,0.2-0.1,0.2
		c0,0.1,0,0.2,0.1,0.2l0.3,0c0.6,0.1,0.6,0.1,0.6,1.4v1.4c0,0.3,0,0.3-0.5,0.3h-3.4c-0.5,0-0.5,0-0.5-0.3V4.1c0-1.3,0-1.4,0.6-1.4
		l0.2,0l0,0c0.1,0,0.1-0.1,0.1-0.2c0,0,0-0.2-0.1-0.2l0,0l0,0c-0.5,0-0.9,0-1.4,0c-0.3,0-0.6,0-0.9,0c-0.2,0-0.4,0-0.6,0h0l0,0
		c-0.1,0-0.1,0.2-0.1,0.2c0,0.1,0,0.2,0.1,0.2l0,0l0.3,0c0.5,0,0.6,0.1,0.6,1.4v4.3c0,1.2,0,1.3-0.6,1.4l-0.2,0l0,0
		C46,9.9,46,10,46,10.1c0,0.1,0.1,0.2,0.1,0.2l0,0l0,0c0.2,0,0.3,0,0.5,0c0.3,0,0.6,0,0.9,0c0.5,0,0.8,0,1.5,0l0,0l0,0
		c0.1,0,0.1-0.1,0.1-0.2c0-0.1,0-0.2-0.1-0.2l-0.4-0.1c-0.6-0.1-0.6-0.1-0.6-1.4V6.7c0-0.3,0-0.3,0.5-0.3H52c0.5,0,0.5,0,0.5,0.3
		v1.7c0,1.3,0,1.3-0.7,1.4l-0.3,0l0,0c-0.1,0.1-0.1,0.2-0.1,0.3c0,0.1,0.1,0.2,0.1,0.2l0,0l0,0c0.6,0,1,0,1.4,0c0.5,0,0.9,0,1.4,0
		l0,0l0,0c0.1,0,0.1-0.2,0.1-0.2c0-0.1,0-0.2-0.1-0.2l-0.3-0.1C53.7,9.7,53.7,9.7,53.7,8.4 M63.7,8.6L63.7,8.6L63.7,8.6
		c-0.1-0.2-0.2-0.2-0.3-0.2c-0.1,0-0.1,0-0.2,0l0,0c-0.3,0.7-0.7,1-0.8,1.1c-0.3,0.1-0.6,0.2-1.5,0.2c-1,0-1.3-0.1-1.4-0.2
		c-0.2-0.2-0.2-0.6-0.2-1.2V6.6c0-0.2,0-0.2,0.3-0.2h0.7c0.4,0,0.7,0,0.9,0.1c0.2,0,0.3,0.2,0.3,0.4l0.1,0.5l0,0
		c0,0.1,0.1,0.1,0.2,0.1c0.1,0,0.2,0,0.2-0.1l0,0v0c0-0.1,0-0.3,0-0.4c0-0.2,0-0.5,0-0.7c0-0.3,0-0.5,0-0.7c0-0.2,0-0.3,0-0.5v0l0,0
		c0-0.1-0.1-0.1-0.2-0.1c-0.1,0-0.2,0-0.2,0.1l-0.1,0.5c-0.1,0.3-0.1,0.3-0.2,0.4c-0.1,0-0.5,0.1-1,0.1h-0.7c-0.3,0-0.3,0-0.3-0.2
		V3.1c0-0.4,0-0.4,0.3-0.4h0.9c0.5,0,0.9,0,1.1,0.1c0.5,0.1,0.7,0.5,0.8,1l0,0.1l0,0c0,0,0.1,0.1,0.2,0.1c0.1,0,0.2,0,0.3-0.1l0,0
		l0-0.2c-0.1-0.7-0.1-1.3-0.2-1.5l0-0.1l-0.1,0c-0.1,0-0.9,0-1.6,0h-2.3c-0.5,0-0.9,0-1.4,0l0,0l0,0c-0.1,0-0.1,0.2-0.1,0.2
		c0,0.1,0,0.2,0.1,0.2l0.2,0c0.6,0.1,0.6,0.2,0.6,1.4v4.3c0,1.3-0.1,1.4-0.7,1.4l-0.4,0l0,0C57,9.9,57,10,57,10.1
		c0,0.1,0.1,0.2,0.1,0.2l0,0l0,0c0.7,0,1.1,0,1.6,0h1.1c1,0,2.1,0,3.2,0l0.1,0l0-0.1C63.3,9.9,63.6,9,63.7,8.6 M64.9,17.9
		c0.2-0.1,0.1-0.6-0.1-0.7c-1.2,0.1-2.2,0.1-3.3,0.1c-1.2,0-2.2-0.1-3.6-0.1c-0.2,0.1-0.2,0.6-0.1,0.7l0.7,0.1
		c1.5,0.1,1.7,0.6,1.7,3.6V32c0,3-0.1,3.3-1.7,3.6l-0.5,0.1c-0.2,0.2-0.1,0.6,0.1,0.7c1.1,0,2.1-0.1,3.3-0.1c1.1,0,2.1,0,3.7,0.1
		c0.2-0.1,0.2-0.6,0.1-0.7l-0.8-0.1c-1.6-0.2-1.8-0.6-1.8-3.6v-4.1c0-0.9,0.1-0.9,1.4-0.9h8.2c1.4,0,1.4,0.1,1.4,0.9V32
		c0,3,0,3.3-1.8,3.6l-0.5,0.1c-0.2,0.2-0.1,0.6,0.1,0.7c1.3-0.1,2.3-0.1,3.5-0.1c1.1,0,2.1,0,3.5,0.1c0.2-0.1,0.2-0.6,0.1-0.7
		l-0.7-0.1c-1.7-0.2-1.7-0.6-1.7-3.6V21.6c0-3,0.1-3.5,1.7-3.6l0.6-0.1c0.2-0.1,0.1-0.6-0.1-0.7c-1.3,0.1-2.3,0.1-3.4,0.1
		c-1.2,0-2.2,0-3.5-0.1c-0.2,0.1-0.2,0.6-0.1,0.7L72,18c1.7,0.2,1.8,0.6,1.8,3.6v3.3c0,0.9-0.1,0.9-1.4,0.9h-8.2
		c-1.4,0-1.4,0-1.4-0.9v-3.3c0-3,0.1-3.5,1.7-3.6L64.9,17.9z M78.7,2.6c0.1-0.1,0.1-0.2,0.1-0.3c0-0.1-0.1-0.1-0.1-0.2l0,0l0,0
		c-0.4,0-0.7,0-1.3,0c-0.5,0-0.9,0-1.4,0l0,0l0,0c-0.1,0-0.1,0.1-0.1,0.2c0,0.1,0,0.2,0.1,0.2l0,0l0.3,0c0.3,0,0.5,0.1,0.5,0.2
		C76.9,3.1,77,4,77,5.3v1.4c0,1.4-0.4,3.1-2.3,3.1c-1.6,0-2.3-1-2.3-3.1V4.1c0-1.3,0-1.4,0.6-1.4l0.3,0l0,0c0.1,0,0.1-0.1,0.1-0.2
		c0-0.1,0-0.2-0.1-0.2l0,0l0,0c-0.6,0-1,0-1.5,0c-0.5,0-0.9,0-1.5,0l0,0l0,0c-0.1,0-0.1,0.1-0.1,0.2c0,0.1,0,0.2,0.1,0.2l0,0l0.3,0
		c0.6,0.1,0.6,0.1,0.6,1.4v2.8c0,1.4,0.3,2.3,1,2.9c0.5,0.5,1.3,0.7,2.3,0.7c0.9,0,1.8-0.3,2.4-0.9c0.6-0.6,0.9-1.6,0.9-2.9V5.3
		c0-0.6,0-2,0.2-2.4c0.1-0.1,0.3-0.2,0.5-0.2L78.7,2.6L78.7,2.6z M89.4,2.6c0.1-0.1,0.1-0.2,0.1-0.2c0-0.1-0.1-0.2-0.1-0.2l0,0l0,0
		c-0.4,0-0.7,0-1.2,0c-0.4,0-0.8,0-1.4,0h0l0,0c-0.1,0-0.1,0.1-0.1,0.2c0,0.1,0,0.2,0.1,0.3l0,0l0.2,0c0.4,0.1,0.6,0.1,0.7,0.2
		c0.1,0.2,0.2,1.1,0.2,2.4v2.6c0,0.1,0,0.3,0,0.3c-0.4-0.4-0.9-0.9-1.4-1.5l-1.7-1.9c-1.2-1.3-1.9-2.2-2-2.6l0-0.1l-0.1,0
		c-0.1,0-0.3,0-0.5,0c-0.2,0-0.8,0-1.3,0l0,0l0,0c-0.1,0-0.1,0.1-0.1,0.2c0,0.1,0,0.2,0.1,0.3l0,0l0.2,0c0.3,0,0.6,0.1,0.7,0.3
		c0.2,0.2,0.2,0.5,0.2,0.8v3.6c0,0.6,0,1.9-0.1,2.3c0,0.1-0.1,0.1-0.5,0.2l-0.4,0l0,0c-0.1,0.1-0.1,0.1-0.1,0.2c0,0.1,0,0.2,0.1,0.2
		l0,0l0,0c0.4,0,0.7,0,1.2,0c0.4,0,0.8,0,1.4,0l0,0l0,0c0.1,0,0.1-0.1,0.1-0.2c0-0.1,0-0.2-0.1-0.2l0,0l-0.4,0
		c-0.3,0-0.5-0.1-0.5-0.2c-0.1-0.2-0.2-1.1-0.2-2.4V4.6c0-0.2,0-0.4,0-0.6c0.2,0.2,0.5,0.6,0.8,0.9c0.2,0.2,0.4,0.4,0.5,0.6l2.8,3.2
		c0.9,1.1,1.4,1.6,1.5,1.8l0,0h0c0.2,0,0.3-0.1,0.3-0.2l0,0l0,0c0-0.1,0-0.6,0-2.1v-3c0-0.6,0-1.9,0.2-2.3c0,0,0.2-0.1,0.6-0.2
		L89.4,2.6L89.4,2.6z M87.9,31.9V21.7c0-3,0.1-3.5,1.8-3.7l0.7-0.1c0.2-0.1,0.1-0.6-0.1-0.7c-1.4,0.1-2.4,0.1-3.6,0.1
		c-1.2,0-2.2,0-3.6-0.1c-0.2,0.1-0.2,0.6-0.1,0.7l0.7,0.1c1.7,0.1,1.8,0.6,1.8,3.7v10.2c0,3-0.1,3.4-1.8,3.7l-0.7,0.1
		c-0.2,0.2-0.1,0.6,0.1,0.7c1.4-0.1,2.4-0.1,3.6-0.1c1.2,0,2.1,0,3.6,0.1c0.2-0.1,0.2-0.6,0.1-0.7l-0.7-0.1
		C88,35.4,87.9,35,87.9,31.9 M93.9,8.4V4.1c0-1.3,0-1.4,0.6-1.4l0.3,0l0,0C95,2.6,95,2.5,95,2.4c0,0,0-0.2-0.1-0.2l0,0l0,0
		c-0.6,0-1,0-1.5,0c-0.5,0-0.9,0-1.5,0l0,0l0,0c-0.1,0-0.1,0.2-0.1,0.2c0,0.1,0,0.2,0.1,0.2l0,0l0.3,0c0.6,0.1,0.6,0.1,0.6,1.4v4.3
		c0,1.3,0,1.4-0.7,1.4l-0.3,0l0,0c-0.1,0.1-0.1,0.2-0.1,0.3c0,0.1,0.1,0.2,0.1,0.2l0,0l0,0c0.6,0,1,0,1.5,0c0.5,0,0.9,0,1.5,0l0,0
		l0,0c0.1,0,0.1-0.2,0.1-0.2c0-0.1,0-0.2-0.1-0.2l-0.3-0.1C94,9.7,93.9,9.7,93.9,8.4 M97.6,19.3C95.4,21,94,23.7,94,26.9
		c0,3.7,1.8,6.3,4.1,7.9c2.1,1.4,4.6,1.9,7.2,1.9c1.8,0,3.9-0.4,4.5-0.7c0.3-0.1,0.7-0.2,1-0.3c0.4-0.5,1.2-2.4,1.4-3.9
		c-0.1-0.2-0.5-0.3-0.7-0.1c-0.7,1.7-2.3,4.1-6,4.1c-4.7,0-8.5-3.3-8.5-9.4c0-6,3.7-8.7,8.1-8.7c4.2,0,5.5,2.2,5.9,4.2
		c0.2,0.2,0.6,0.1,0.8-0.1c-0.2-1.8-0.4-3.6-0.4-4.2c-0.3,0-0.5,0-0.8-0.1c-1.4-0.4-3.5-0.7-5.1-0.7C102.4,16.8,99.7,17.6,97.6,19.3
		 M105.4,2.6c0.1-0.1,0.1-0.2,0.1-0.3c0-0.1,0-0.2-0.1-0.2l0,0l0,0c-0.4,0-0.8,0-1.2,0c-0.5,0-0.9,0-1.2,0l0,0l0,0
		c-0.1,0-0.1,0.1-0.1,0.2c0,0.1,0,0.2,0.1,0.2l0,0l0.2,0c0.4,0,0.5,0.1,0.5,0.1c0,0.1,0,0.2-0.1,0.4c-0.2,0.5-0.8,1.9-1.1,2.7
		c-0.1,0.2-0.2,0.5-0.3,0.8c-0.2,0.5-0.5,1.2-0.7,1.7c-0.6-1.3-1.1-2.6-1.6-3.9c-0.4-0.9-0.6-1.5-0.6-1.6c0,0,0.1-0.1,0.5-0.1l0.2,0
		l0,0c0.1-0.1,0.1-0.1,0.1-0.2c0-0.1-0.1-0.2-0.1-0.2l0,0l0,0c-0.5,0-1,0-1.4,0c-0.5,0-0.9,0-1.2,0l0,0l0,0c-0.1,0-0.1,0.1-0.1,0.2
		c0,0.1,0,0.2,0.1,0.2l0,0l0.2,0c0.5,0.1,0.6,0.3,0.9,0.9l2.1,5.2c0.3,0.6,0.4,1.2,0.5,1.6l0,0l0,0c0.1,0,0.1,0,0.2,0
		c0.1,0,0.1,0,0.2-0.1l0,0l0,0c0.2-0.6,0.8-2.1,1.2-3.1l0.6-1.5c0.6-1.3,1-2.2,1.3-2.7c0.2-0.2,0.3-0.4,0.6-0.4L105.4,2.6L105.4,2.6
		z M113.6,8.6L113.6,8.6L113.6,8.6c-0.1-0.2-0.2-0.2-0.3-0.2c-0.1,0-0.1,0-0.2,0l0,0c-0.3,0.7-0.7,1-0.8,1.1
		c-0.3,0.1-0.6,0.2-1.5,0.2c-1,0-1.3-0.1-1.4-0.2c-0.2-0.2-0.2-0.6-0.2-1.2V6.6c0-0.2,0-0.2,0.3-0.2h0.7c0.4,0,0.7,0,0.9,0.1
		c0.2,0,0.3,0.2,0.3,0.4l0.1,0.5l0,0c0,0.1,0.1,0.1,0.2,0.1c0.1,0,0.2,0,0.2-0.1l0,0v0c0-0.1,0-0.3,0-0.4c0-0.2,0-0.5,0-0.7
		c0-0.3,0-0.5,0-0.7c0-0.2,0-0.3,0-0.5v0l0,0c0-0.1-0.1-0.1-0.2-0.1c-0.1,0-0.2,0-0.2,0.1l-0.1,0.5c-0.1,0.3-0.1,0.3-0.2,0.4
		c-0.1,0-0.5,0.1-1,0.1h-0.7c-0.3,0-0.3,0-0.3-0.2V3.1c0-0.4,0-0.4,0.3-0.4h0.9c0.5,0,0.9,0,1.1,0.1c0.5,0.1,0.7,0.5,0.8,1l0,0.1
		l0,0c0,0,0.1,0.1,0.2,0.1c0.1,0,0.2,0,0.3-0.1l0,0l0-0.2c-0.1-0.7-0.1-1.3-0.2-1.5l0-0.1l-0.1,0c-0.1,0-0.9,0-1.6,0h-2.3
		c-0.5,0-0.9,0-1.4,0l0,0l0,0c-0.1,0-0.1,0.2-0.1,0.2c0,0.1,0,0.2,0.1,0.2l0.2,0c0.6,0.1,0.6,0.2,0.6,1.4v4.3c0,1.3-0.1,1.4-0.7,1.4
		l-0.4,0l0,0c-0.1,0.1-0.1,0.2-0.1,0.3c0,0.1,0.1,0.2,0.1,0.2l0,0l0,0c0.7,0,1.1,0,1.6,0h1.1c1,0,2.1,0,3.2,0l0.1,0l0-0.1
		C113.3,9.9,113.6,9,113.6,8.6 M119.8,5.9c-0.3,0.3-0.8,0.3-1.2,0.3c-0.5,0-0.7,0-0.8,0c0,0,0-0.2,0-0.3V3c0-0.3,0-0.3,0.7-0.3
		c1.3,0,1.8,0.9,1.8,1.8C120.4,5.1,120.2,5.6,119.8,5.9 M123.4,10.3c0.1,0,0.1-0.1,0.1-0.2c0-0.1-0.1-0.1-0.1-0.1l0,0
		c-0.3,0-0.6-0.1-0.8-0.3c-0.8-0.7-1.5-1.7-2.4-3.2c-0.1-0.1-0.1-0.1-0.1-0.2c0.4-0.2,1.5-0.8,1.5-2.1c0-1-0.6-1.5-1-1.8
		c-0.6-0.3-1.4-0.4-2-0.4c-1.1,0-1.9,0-2.7,0.1l0,0c-0.1,0-0.1,0.1-0.1,0.2c0,0.1,0,0.2,0.1,0.3l0,0l0.4,0.1c0.4,0,0.4,0.1,0.4,1.3
		v4.3c0,1.3,0,1.3-0.6,1.4l-0.3,0l0,0c-0.1,0.1-0.1,0.2-0.1,0.3c0,0.1,0.1,0.1,0.1,0.2l0,0l0,0c0.5,0,1,0,1.5,0c0.5,0,0.9,0,1.4,0
		l0,0l0,0c0.1,0,0.1-0.2,0.1-0.2c0-0.1,0-0.2-0.1-0.2l0,0l-0.3,0c-0.6-0.1-0.6-0.1-0.6-1.4V6.9c0-0.2,0-0.2,0.5-0.2
		c0.5,0,0.6,0.1,0.8,0.3c0.2,0.3,0.4,0.6,0.6,0.9c0.2,0.3,0.4,0.7,0.6,0.9c0.8,1.2,1.4,1.5,2.6,1.5
		C123.1,10.4,123.3,10.4,123.4,10.3L123.4,10.3z M126.5,3.8c0-0.5,0.2-1.2,1.3-1.2c1.1,0,1.4,0.7,1.5,1.3l0,0c0,0,0.1,0.1,0.2,0.1
		c0.1,0,0.2,0,0.3-0.1l0,0v0c0-0.5-0.1-1.2-0.2-1.5l0-0.1h-0.1c-0.1,0-0.2,0-0.4-0.1C128.8,2.1,128.4,2,128,2
		c-1.5,0-2.5,0.9-2.5,2.2c0,1.1,0.8,1.8,1.3,2.1l1.1,0.7c0.8,0.5,0.9,1.1,0.9,1.6c0,0.6-0.4,1.3-1.4,1.3c-1.2,0-1.7-0.9-2-1.7l0,0
		c0-0.1-0.1-0.1-0.2-0.1c-0.1,0-0.2,0-0.3,0.1l0,0l0,0c0,0.5,0.2,1.4,0.3,1.7l0,0l0,0c0.2,0.1,0.9,0.5,1.9,0.5
		c1.6,0,2.6-0.9,2.6-2.3c0-1-0.5-1.7-1.5-2.4l-1-0.6C127.1,5,126.5,4.5,126.5,3.8 M125.3,27.7h-3.5c-0.8,0-0.8,0-0.6-0.7l1.8-5
		c0.3-0.9,0.6-1.6,0.7-1.7h0.1c0.2,0.3,0.4,1.1,0.7,1.8l1.6,4.7C126.2,27.6,126.1,27.7,125.3,27.7 M132.7,35.6
		c-1.2-0.1-1.6-0.6-2.4-3L126.3,21c-0.4-1.3-0.9-2.6-1.3-3.9c-0.1-0.2-0.3-0.3-0.4-0.3c-0.3,0.4-0.8,0.9-1.5,1.1
		c0.1,0.5-0.1,1-0.5,2l-2.9,7.8c-1.2,3.2-2,5.1-2.5,6.4c-0.4,1-1,1.4-1.7,1.4l-0.9,0.1c-0.2,0.1-0.1,0.6,0.1,0.7
		c0.8,0,1.8-0.1,2.8-0.1c1.4,0,2.2,0,3,0.1c0.3-0.1,0.3-0.6,0.1-0.7l-0.9-0.1c-0.7-0.1-0.8-0.2-0.8-0.6c0-0.3,0.2-1.1,0.6-2.4l1-3
		c0.2-0.6,0.4-0.7,1.1-0.7h4.3c0.9,0,1,0.1,1.2,0.7l1.3,3.9c0.2,0.7,0.4,1.2,0.4,1.5c0,0.3-0.4,0.5-1,0.5l-0.8,0.1
		c-0.2,0.1-0.2,0.6,0.1,0.7c0.8,0,1.9-0.1,3.3-0.1c1.3,0,2.3,0,3.5,0.1c0.1-0.1,0.2-0.6,0-0.7L132.7,35.6z M134.7,8.4V4.1
		c0-1.3,0-1.4,0.6-1.4l0.3,0l0,0c0.1,0,0.1-0.1,0.1-0.2c0,0,0-0.2-0.1-0.2l0,0l0,0c-0.6,0-1,0-1.5,0c-0.5,0-0.9,0-1.5,0l0,0l0,0
		c-0.1,0-0.1,0.2-0.1,0.2c0,0.1,0,0.2,0.1,0.2l0,0l0.3,0c0.6,0.1,0.6,0.1,0.6,1.4v4.3c0,1.3,0,1.4-0.6,1.4l-0.3,0l0,0
		c-0.1,0.1-0.1,0.2-0.1,0.3c0,0.1,0.1,0.2,0.1,0.2l0,0l0,0c0.6,0,1,0,1.5,0c0.5,0,0.9,0,1.5,0l0,0l0,0c0.1,0,0.1-0.2,0.1-0.2
		c0-0.1,0-0.2-0.1-0.2l-0.3-0.1C134.7,9.7,134.7,9.7,134.7,8.4 M145.6,2L145.6,2L145.6,2c-0.1-0.2-0.2-0.2-0.2-0.2c0,0-0.1,0-0.1,0
		l0,0l0,0c-0.2,0.3-0.2,0.3-0.9,0.3h-5c-0.5,0-0.8,0-0.8-0.3l0,0l0,0c0,0-0.1,0-0.2,0c0,0-0.1,0-0.2,0l0,0l0,0
		c-0.1,0.5-0.3,1.2-0.5,1.8l0,0l0,0c0.1,0.1,0.3,0.2,0.4,0.1l0,0l0,0c0.1-0.3,0.2-0.5,0.5-0.8c0.3-0.2,0.9-0.3,1.4-0.3h0.7
		c0.3,0,0.3,0,0.3,0.3v5.4c0,1.3-0.1,1.4-0.7,1.4l-0.4,0l0,0c-0.1,0-0.1,0.1-0.1,0.2c0,0.1,0,0.2,0.1,0.2l0,0l0,0c0.7,0,1.2,0,1.7,0
		c0.5,0,0.9,0,1.6,0l0,0l0,0c0.1,0,0.1-0.2,0.1-0.2c0-0.1,0-0.2-0.1-0.2l-0.4-0.1c-0.6-0.1-0.6-0.1-0.6-1.4V3c0-0.1,0-0.2,0-0.3
		c0,0,0.1,0,0.2,0h0.9c0.6,0,1.1,0.1,1.3,0.3c0.1,0.1,0.2,0.4,0.3,0.8l0,0l0,0c0,0.1,0.1,0.1,0.2,0.1c0.1,0,0.2,0,0.2-0.1l0,0l0,0
		C145.4,3.4,145.5,2.5,145.6,2 M150.5,17.3c-0.5-0.1-2-0.4-3.7-0.4c-4.3,0-7.2,1.4-9.1,3.4c-1.8,1.9-2.6,4.4-2.6,6.8
		c0,2.5,0.9,4.8,2.6,6.5c2.2,2.2,5.3,3.2,8.8,3.2c1.6,0,3.6-0.3,5.1-0.7c0.5-0.1,1.1-0.3,1.4-0.3c0.1-0.1,0.1-0.3,0-0.3
		c-0.5-0.2-0.7-0.9-0.7-2v-1.6c0-1.5,0-2.3,1.2-2.4l0.5-0.1c0.2-0.2,0.2-0.6,0-0.7c-0.9,0.1-1.9,0.1-3,0.1c-1.7,0-3.3,0-4.1-0.1
		c-0.2,0.1-0.2,0.6,0,0.7l1.3,0.1c1.8,0.2,1.9,0.4,1.9,2.8v1.2c0,0.9-0.1,1.4-0.3,1.6c-0.3,0.5-1.4,0.9-3.2,0.9
		c-5.8,0-8.6-4.3-8.6-9.9c0-4.3,2.4-8.3,8-8.3c2.9,0,5.1,1,5.9,4.1c0.2,0.2,0.7,0.1,0.8-0.1c-0.3-1.7-0.4-3.2-0.4-4.2
		C151.9,17.6,151,17.4,150.5,17.3 M154.7,2.6c0.1-0.1,0.1-0.1,0.1-0.2c0-0.1-0.1-0.2-0.1-0.2l0,0l0,0c-0.9,0-1.4,0-2.3,0l0,0l0,0
		c-0.1,0-0.1,0.1-0.1,0.2c0,0.1,0,0.2,0.1,0.3l0,0l0.2,0c0.2,0,0.4,0.1,0.4,0.1c0,0.2-0.5,0.9-0.7,1.4l-0.1,0.1
		c-0.3,0.6-0.6,1.2-1,1.9c-0.3-0.6-0.6-1.2-0.9-1.8c-0.1-0.2-0.2-0.5-0.4-0.7c-0.1-0.2-0.4-0.8-0.4-0.9c0,0,0.1-0.1,0.4-0.1l0.2,0
		l0,0c0.1-0.1,0.1-0.2,0.1-0.3c0-0.1-0.1-0.1-0.1-0.2l0,0l0,0c-0.3,0-0.7,0-1.3,0c-0.6,0-1,0-1.4,0l0,0l0,0c-0.1,0-0.1,0.1-0.1,0.2
		c0,0.1,0,0.2,0.1,0.3l0,0l0.4,0.1c0.3,0.1,0.5,0.1,0.9,0.9l1.4,2.8c0.3,0.7,0.4,0.8,0.4,1.4v0.6c0,1.3,0,1.4-0.6,1.4l-0.4,0l0,0
		c-0.1,0.1-0.1,0.2-0.1,0.3c0,0.1,0.1,0.2,0.1,0.2l0,0l0,0c0.6,0,1.1,0,1.6,0c0.5,0,0.9,0,1.6,0l0,0l0,0c0.1,0,0.1-0.1,0.1-0.2
		c0-0.1,0-0.2-0.1-0.3l0,0l-0.5,0c-0.6,0-0.6-0.1-0.6-1.4V7.7c0-0.9,0-1,0.6-1.9l0.8-1.3c0.1-0.1,0.1-0.2,0.2-0.3
		c0.5-0.8,0.8-1.4,1.3-1.5L154.7,2.6L154.7,2.6z M161.1,26.1c0-6.3,3.9-8.3,6.9-8.3c5.5,0,7.6,5.1,7.6,9.9c0,5.7-3.3,8.3-6.7,8.3
		C163.1,35.8,161.1,30.3,161.1,26.1 M158.2,27c0,5.2,3.9,9.7,10.2,9.7c5.5,0,10-4.2,10-10c0-5.1-3.3-9.9-10-9.9
		C162.5,16.8,158.2,21.2,158.2,27 M168,6.6c0,2.5-1.5,3.3-2.7,3.3c-2.5,0-3.1-2.5-3.1-4c0-2.5,1.5-3.4,2.8-3.4
		C167.2,2.5,168,4.7,168,6.6 M169.4,6.2c0-2-1.3-4.2-4.2-4.2c-2.5,0-4.4,1.9-4.4,4.3c0,2.1,1.5,4.2,4.4,4.2
		C167.5,10.5,169.4,8.6,169.4,6.2 M177.4,3.9L177.4,3.9L177.4,3.9c0-0.5,0-1,0-1.6V2.1l-0.1,0c-0.1,0-0.9,0-1.6,0h-2.2
		c-0.5,0-0.9,0-1.4,0l0,0l0,0c-0.1,0-0.1,0.2-0.1,0.2c0,0.1,0,0.2,0.1,0.2l0.2,0c0.6,0.1,0.6,0.1,0.6,1.4v4.3c0,1.3,0,1.3-0.6,1.4
		l-0.3,0l0,0c-0.1,0.1-0.1,0.2-0.1,0.3c0,0.1,0.1,0.2,0.1,0.2l0,0l0,0c0.6,0,1,0,1.5,0c0.5,0,0.9,0,1.6,0l0,0l0,0
		c0.1,0,0.1-0.1,0.1-0.2c0-0.1,0-0.2-0.1-0.2l-0.4-0.1c-0.6-0.1-0.6-0.1-0.6-1.4V6.7c0-0.2,0-0.2,0.3-0.2h0.8c0.4,0,0.7,0,0.9,0.1
		c0.2,0.1,0.3,0.2,0.3,0.4l0.1,0.5l0,0c0.1,0.1,0.4,0.1,0.4,0l0,0v0c0-0.1,0-0.3,0-0.5c0-0.2,0-0.5,0-0.7c0-0.2,0-0.5,0-0.7
		c0-0.2,0-0.4,0-0.5v0l0,0c-0.1-0.1-0.2-0.1-0.2-0.1c-0.1,0-0.2,0-0.2,0.1l-0.1,0.5c-0.1,0.3-0.1,0.3-0.2,0.4c-0.1,0-0.5,0.1-1,0.1
		h-0.8c-0.3,0-0.3,0-0.3-0.2V3.1c0-0.4,0-0.4,0.3-0.4h0.7c0.5,0,0.9,0,1.1,0.1c0.5,0.1,0.7,0.5,0.8,1.1l0,0l0,0c0,0,0.1,0.1,0.2,0.1
		C177.2,4,177.4,4,177.4,3.9"/>
</g>
</svg>
