<svg xmlns="http://www.w3.org/2000/svg" viewBox="0 0 400 38"><path d="M186.4 1.1h1.1V38h-1.1zm9 7.5h3.2c2.6 0 4.4 1.8 4.4 4.1s-1.8 4.2-4.4 4.2h-3.2V8.6zm3.2 6.6c1.5 0 2.5-1 2.5-2.5s-1-2.5-2.5-2.5h-1.4v5h1.4zm5.9-7h1.9v1.6h-1.9V8.2zm.1 2.3h1.8v6.4h-1.8v-6.4zm2.7 0h1.9l1.4 4.3 1.4-4.3h1.9l-2.5 6.4h-1.6l-2.5-6.4zm7.6-2.3h1.9v1.6h-1.9V8.2zm.1 2.3h1.8v6.4H215v-6.4zm3 5.5l.8-1.2c.7.5 1.4.8 2 .8.5 0 .8-.2.8-.5 0-.4-.6-.5-1.3-.7-.9-.3-1.9-.7-1.9-1.9 0-1.3 1-2 2.3-2 .8 0 1.7.3 2.4.7l-.7 1.2c-.6-.4-1.3-.6-1.7-.6-.4 0-.7.2-.7.4 0 .4.6.5 1.3.8.9.3 1.9.7 1.9 1.9 0 1.4-1.1 2.1-2.4 2.1-1 0-2-.3-2.8-1zm6.4-7.8h1.9v1.6h-1.9V8.2zm.1 2.3h1.8v6.4h-1.8v-6.4zm3.1 3.2c0-1.9 1.5-3.3 3.5-3.3s3.4 1.5 3.4 3.3c0 1.8-1.5 3.3-3.5 3.3s-3.4-1.4-3.4-3.3zm5.1 0c0-1-.7-1.8-1.7-1.8s-1.7.8-1.7 1.7c0 .9.7 1.8 1.7 1.8 1.1.1 1.7-.7 1.7-1.7zm3-3.2h1.8v.9c.4-.5 1-1 1.9-1 1.4 0 2.2.9 2.2 2.4v4.1h-1.8v-3.6c0-.9-.4-1.3-1.1-1.3-.7 0-1.1.4-1.1 1.3v3.6h-1.8v-6.4zm10.6 3.2c0-1.9 1.5-3.3 3.5-3.3s3.4 1.5 3.4 3.3c0 1.8-1.5 3.3-3.5 3.3-1.9 0-3.4-1.4-3.4-3.3zm5.1 0c0-1-.7-1.8-1.7-1.8s-1.7.8-1.7 1.7c0 .9.7 1.8 1.7 1.8 1.1.1 1.7-.7 1.7-1.7zm3.3-1.6h-.7v-1.5h.8v-.4c0-.7.2-1.2.5-1.5.3-.3.8-.5 1.5-.5.6 0 1 .1 1.3.2v1.5c-.3-.1-.5-.2-.8-.2-.4 0-.7.2-.7.7v.2h1.5v1.5h-1.4v4.8h-1.8v-4.8zm8 3v-3h-.7v-1.5h.8V8.9h1.8v1.6h1.5V12h-1.5v2.7c0 .4.2.6.6.6.3 0 .6-.1.9-.2v1.5c-.4.2-.8.4-1.4.4-1.2 0-2-.4-2-1.9zm4.7-6.9h1.8v3.2c.4-.5 1-1 1.9-1 1.4 0 2.2.9 2.2 2.4v4.1h-1.8v-3.6c0-.9-.4-1.3-1.1-1.3-.7 0-1.1.4-1.1 1.3v3.6h-1.8V8.2zm7.1 5.5c0-1.8 1.3-3.3 3.2-3.3 2.1 0 3.1 1.7 3.1 3.5v.5h-4.4c.2.8.7 1.2 1.6 1.2.6 0 1-.2 1.5-.7l1 .9c-.6.7-1.5 1.2-2.6 1.2-2 0-3.4-1.3-3.4-3.3zm4.5-.5c-.1-.8-.6-1.4-1.3-1.4-.8 0-1.2.5-1.4 1.4h2.7zm6.8-4.6h3.9c1 0 1.7.3 2.2.7.4.4.6.8.6 1.4 0 .9-.5 1.5-1.1 1.8 1 .4 1.6.9 1.6 2 0 1.5-1.2 2.3-3.1 2.3h-4V8.6zm3.4 3.3c.8 0 1.3-.3 1.3-.9 0-.5-.4-.9-1.2-.9h-1.8v1.8h1.7zm.5 3.4c.8 0 1.3-.3 1.3-.9 0-.6-.4-.9-1.4-.9h-2.1v1.8h2.2zm4.5-7.1h1.9v1.6h-1.9V8.2zm.1 2.3h1.8v6.4h-1.8v-6.4zm3.1 3.2c0-1.9 1.5-3.3 3.5-3.3s3.4 1.5 3.4 3.3c0 1.8-1.5 3.3-3.5 3.3s-3.4-1.4-3.4-3.3zm5.1 0c0-1-.7-1.8-1.7-1.8s-1.7.8-1.7 1.7c0 .9.7 1.8 1.7 1.8 1.1.1 1.7-.7 1.7-1.7zm3.1-5.5h1.8v8.7h-1.8V8.2zm3.1 5.5c0-1.9 1.5-3.3 3.5-3.3s3.4 1.5 3.4 3.3c0 1.8-1.5 3.3-3.5 3.3-1.9 0-3.4-1.4-3.4-3.3zm5.2 0c0-1-.7-1.8-1.7-1.8s-1.7.8-1.7 1.7c0 .9.7 1.8 1.7 1.8 1 .1 1.7-.7 1.7-1.7zm3 4.5l.6-1.4c.7.4 1.3.6 2.2.6 1.2 0 1.8-.6 1.8-1.7v-.3c-.5.6-1.1 1-2.1 1-1.5 0-2.8-1.1-2.8-3s1.4-3 2.8-3c1 0 1.6.4 2.1 1v-.8h1.8v4.9c0 1.1-.3 2-.8 2.5-.6.6-1.5.9-2.7.9-1.1-.1-2.1-.3-2.9-.7zm4.6-4.8c0-.9-.7-1.5-1.6-1.5-.9 0-1.5.6-1.5 1.5s.7 1.5 1.5 1.5c.9 0 1.6-.6 1.6-1.5zm3.4-5.2h1.9v1.6h-1.9V8.2zm.1 2.3h1.8v6.4H325v-6.4zm3.1 3.2c0-1.8 1.4-3.3 3.3-3.3 1.2 0 2 .4 2.5 1.1l-1.1 1.2c-.4-.4-.8-.7-1.5-.7-.9 0-1.5.8-1.5 1.7 0 1 .6 1.8 1.6 1.8.6 0 1-.3 1.5-.7l1.1 1.1c-.6.7-1.3 1.2-2.6 1.2-1.9-.1-3.3-1.5-3.3-3.4zm6.7 1.4c0-1.4 1.1-2.1 2.6-2.1.6 0 1.1.1 1.6.3v-.1c0-.7-.5-1.2-1.4-1.2-.7 0-1.2.1-1.8.3l-.5-1.4c.7-.3 1.4-.5 2.5-.5 1 0 1.7.3 2.2.7.5.5.7 1.2.7 2v3.7H339v-.7c-.4.5-1 .8-1.9.8-1.3.1-2.3-.6-2.3-1.8zm4.1-.5v-.3c-.3-.1-.7-.2-1.2-.2-.8 0-1.2.3-1.2.9 0 .5.4.8 1 .8.8 0 1.4-.5 1.4-1.2zm3.4-6.4h1.8v8.7h-1.8V8.2zm6.6 7.5l1.1-1.3c.7.6 1.5 1 2.5 1 .8 0 1.2-.3 1.2-.8s-.3-.7-1.7-1.1c-1.7-.4-2.8-.9-2.8-2.5 0-1.5 1.2-2.5 2.9-2.5 1.2 0 2.2.4 3.1 1.1l-1 1.4c-.7-.5-1.5-.8-2.2-.8-.7 0-1.1.3-1.1.7 0 .5.4.7 1.8 1.1 1.7.4 2.6 1 2.6 2.5 0 1.7-1.3 2.6-3.1 2.6-1.1-.1-2.3-.5-3.3-1.4zm7.6-2c0-1.8 1.4-3.3 3.3-3.3 1.2 0 2 .4 2.5 1.1l-1.1 1.2c-.4-.4-.8-.7-1.5-.7-.9 0-1.5.8-1.5 1.7 0 1 .6 1.8 1.6 1.8.6 0 1-.3 1.5-.7l1.1 1.1c-.6.7-1.3 1.2-2.6 1.2-1.9-.1-3.3-1.5-3.3-3.4zm7-5.5h1.9v1.6h-1.9V8.2zm0 2.3h1.8v6.4h-1.8v-6.4zm3.1 3.2c0-1.8 1.3-3.3 3.2-3.3 2.1 0 3.1 1.7 3.1 3.5v.5h-4.4c.2.8.8 1.2 1.6 1.2.6 0 1-.2 1.5-.7l1 .9c-.6.7-1.5 1.2-2.6 1.2-2 0-3.4-1.3-3.4-3.3zm4.5-.5c-.1-.8-.6-1.4-1.3-1.4-.7 0-1.2.5-1.4 1.4h2.7zm3.1-2.7h1.8v.9c.4-.5 1-1 1.9-1 1.4 0 2.2.9 2.2 2.4v4.1h-1.8v-3.6c0-.9-.4-1.3-1.1-1.3-.7 0-1.1.4-1.1 1.3v3.6h-1.8v-6.4zm7.1 3.2c0-1.8 1.4-3.3 3.3-3.3 1.2 0 2 .4 2.5 1.1l-1.1 1.2c-.4-.4-.8-.7-1.5-.7-.9 0-1.5.8-1.5 1.7 0 1 .6 1.8 1.6 1.8.6 0 1-.3 1.5-.7l1.1 1.1c-.6.7-1.3 1.2-2.6 1.2-1.9-.1-3.3-1.5-3.3-3.4zm6.5 0c0-1.8 1.3-3.3 3.2-3.3 2.1 0 3.1 1.7 3.1 3.5v.5h-4.4c.2.8.7 1.2 1.6 1.2.6 0 1-.2 1.5-.7l1 .9c-.6.7-1.5 1.2-2.6 1.2-2 0-3.4-1.3-3.4-3.3zm4.5-.5c-.1-.8-.6-1.4-1.3-1.4-.7 0-1.2.5-1.4 1.4h2.7zm2.5 2.8l.8-1.2c.7.5 1.4.8 2 .8.5 0 .8-.2.8-.5 0-.4-.6-.5-1.3-.7-.9-.3-1.9-.7-1.9-1.9 0-1.3 1-2 2.3-2 .8 0 1.7.3 2.4.7l-.7 1.2c-.6-.4-1.3-.6-1.7-.6-.4 0-.7.2-.7.4 0 .4.6.5 1.3.8.9.3 1.9.7 1.9 1.9 0 1.4-1.1 2.1-2.4 2.1-.9 0-1.9-.3-2.8-1zM195 26.3c0-2.4 1.8-4.3 4.3-4.3 1.6 0 2.5.5 3.3 1.3l-1.2 1.3c-.6-.6-1.3-.9-2.1-.9-1.4 0-2.4 1.2-2.4 2.6 0 1.4 1 2.6 2.4 2.6 1 0 1.5-.4 2.2-1l1.2 1.2c-.9.9-1.8 1.5-3.4 1.5-2.5 0-4.3-1.9-4.3-4.3zm8.5 1c0-1.8 1.3-3.3 3.2-3.3 2.1 0 3.1 1.7 3.1 3.5v.5h-4.4c.2.8.7 1.2 1.6 1.2.6 0 1-.2 1.5-.7l1 .9c-.6.7-1.5 1.2-2.6 1.2-2 0-3.4-1.4-3.4-3.3zm4.5-.6c-.1-.8-.6-1.4-1.3-1.4-.8 0-1.2.5-1.4 1.4h2.7zm3-2.6h1.8v.9c.4-.5 1-1 1.9-1 1.4 0 2.2.9 2.2 2.4v4.1h-1.8v-3.6c0-.9-.4-1.3-1.1-1.3s-1.1.4-1.1 1.3v3.6H211v-6.4zm7.7 4.5v-3h-.8v-1.5h.8v-1.6h1.8v1.6h1.5v1.5h-1.5v2.7c0 .4.2.6.6.6.3 0 .6-.1.9-.2v1.5c-.4.2-.8.4-1.4.4-1.2-.1-1.9-.5-1.9-2zm4.2-1.3c0-1.8 1.3-3.3 3.2-3.3 2.1 0 3.1 1.7 3.1 3.5v.5h-4.4c.2.8.8 1.2 1.6 1.2.6 0 1-.2 1.5-.7l1 .9c-.6.7-1.5 1.2-2.6 1.2-2 0-3.4-1.4-3.4-3.3zm4.5-.6c-.1-.8-.6-1.4-1.3-1.4-.8 0-1.2.5-1.4 1.4h2.7zm3.1-2.6h1.8v1.3c.4-.9 1-1.5 2-1.4v1.9h-.1c-1.2 0-1.9.7-1.9 2.2v2.4h-1.8v-6.4zm8.7 1.5h-.8v-1.5h.8v-.4c0-.7.2-1.2.5-1.5.3-.3.8-.5 1.5-.5.6 0 1 .1 1.3.2v1.5c-.3-.1-.5-.2-.8-.2-.4 0-.7.2-.7.7v.2h1.5v1.5H241v4.8h-1.8v-4.8zm3.9 1.7c0-1.9 1.5-3.3 3.5-3.3s3.4 1.5 3.4 3.3c0 1.8-1.5 3.3-3.5 3.3s-3.4-1.5-3.4-3.3zm5.1 0c0-1-.7-1.8-1.7-1.8s-1.7.8-1.7 1.7c0 .9.7 1.8 1.7 1.8 1.1 0 1.7-.8 1.7-1.7zm3.1-3.2h1.8v1.3c.4-.9 1-1.5 2-1.4v1.9h-.1c-1.2 0-1.9.7-1.9 2.2v2.4h-1.8v-6.4zm8.6-2h3.2c2.6 0 4.4 1.8 4.4 4.1s-1.8 4.2-4.4 4.2h-3.2v-8.3zm3.2 6.7c1.5 0 2.5-1 2.5-2.5s-1-2.5-2.5-2.5h-1.4v5h1.4zm5.4-.2c0-1.4 1.1-2.1 2.6-2.1.6 0 1.1.1 1.6.3v-.1c0-.7-.5-1.2-1.4-1.2-.7 0-1.2.1-1.8.3l-.5-1.4c.7-.3 1.4-.5 2.5-.5 1 0 1.7.3 2.2.7.5.5.7 1.2.7 2v3.7h-1.7v-.7c-.4.5-1 .8-1.9.8-1.3.2-2.3-.5-2.3-1.8zm4.2-.4v-.3c-.3-.1-.7-.2-1.2-.2-.8 0-1.2.3-1.2.9 0 .5.4.8 1 .8.8-.1 1.4-.6 1.4-1.2zm3.5.4v-3h-.8v-1.5h.8v-1.6h1.8v1.6h1.5v1.5H278v2.7c0 .4.2.6.6.6.3 0 .6-.1.9-.2v1.5c-.4.2-.8.4-1.4.4-1.2-.1-1.9-.5-1.9-2zm4.2 0c0-1.4 1.1-2.1 2.6-2.1.6 0 1.1.1 1.6.3v-.1c0-.7-.5-1.2-1.4-1.2-.7 0-1.2.1-1.8.3l-.5-1.4c.7-.3 1.4-.5 2.5-.5 1 0 1.7.3 2.2.7.5.5.7 1.2.7 2v3.7h-1.7v-.7c-.4.5-1 .8-1.9.8-1.3.2-2.3-.5-2.3-1.8zm4.1-.4v-.3c-.3-.1-.7-.2-1.2-.2-.8 0-1.2.3-1.2.9 0 .5.4.8 1 .8.9-.1 1.4-.6 1.4-1.2zm7.1-6.1h1.8v8.3h-1.8v-8.3zm3.6 2h1.8v.9c.4-.5 1-1 1.9-1 1.4 0 2.2.9 2.2 2.4v4.1h-1.8v-3.6c0-.9-.4-1.3-1.1-1.3-.7 0-1.1.4-1.1 1.3v3.6h-1.8v-6.4zm7.7 4.5v-3h-.8v-1.5h.8v-1.6h1.8v1.6h1.5v1.5h-1.5v2.7c0 .4.2.6.6.6.3 0 .6-.1.9-.2v1.5c-.4.2-.8.4-1.4.4-1.2-.1-1.9-.5-1.9-2zm4.2-1.3c0-1.8 1.3-3.3 3.2-3.3 2.1 0 3.1 1.7 3.1 3.5v.5H309c.2.8.8 1.2 1.6 1.2.6 0 1-.2 1.5-.7l1 .9c-.6.7-1.5 1.2-2.6 1.2-2 0-3.4-1.4-3.4-3.3zm4.5-.6c-.1-.8-.6-1.4-1.3-1.4-.7 0-1.2.5-1.4 1.4h2.7zm3.1-2.6h1.8v.9c.4-.5 1-1 1.9-1 1.4 0 2.2.9 2.2 2.4v4.1h-1.8v-3.6c0-.9-.4-1.3-1.1-1.3-.7 0-1.1.4-1.1 1.3v3.6h-1.8v-6.4zm6.9 5.5l.8-1.2c.7.5 1.4.8 2 .8.5 0 .8-.2.8-.5 0-.4-.6-.5-1.3-.7-.9-.3-1.9-.7-1.9-1.9 0-1.3 1-2 2.3-2 .8 0 1.7.3 2.4.7L326 26c-.6-.4-1.3-.6-1.7-.6-.4 0-.7.2-.7.4 0 .4.6.5 1.3.8.9.3 1.9.7 1.9 1.9 0 1.4-1.1 2.1-2.4 2.1-1 0-2-.3-2.8-1zm6.5-7.8h1.9v1.6h-1.9v-1.6zm0 2.3h1.8v6.4h-1.8v-6.4zm2.8 0h1.9l1.4 4.3 1.4-4.3h1.9l-2.5 6.4h-1.6l-2.5-6.4zm7 3.2c0-1.8 1.3-3.3 3.2-3.3 2.1 0 3.1 1.7 3.1 3.5v.5h-4.4c.2.8.8 1.2 1.6 1.2.6 0 1-.2 1.5-.7l1 .9c-.6.7-1.5 1.2-2.6 1.2-2 0-3.4-1.4-3.4-3.3zm4.5-.6c-.1-.8-.6-1.4-1.3-1.4-.7 0-1.2.5-1.4 1.4h2.7zm6.2 2.5l1.1-1.3c.7.6 1.5 1 2.5 1 .8 0 1.2-.3 1.2-.8s-.3-.7-1.7-1.1c-1.7-.4-2.8-.9-2.8-2.5 0-1.5 1.2-2.5 2.9-2.5 1.2 0 2.2.4 3.1 1.1l-1 1.4c-.7-.5-1.5-.8-2.2-.8-.7 0-1.1.3-1.1.7 0 .5.4.7 1.8 1.1 1.7.4 2.6 1 2.6 2.5 0 1.7-1.3 2.6-3.1 2.6-1 0-2.3-.5-3.3-1.4zm7.6-1.9c0-1.8 1.4-3.3 3.3-3.3 1.2 0 2 .4 2.5 1.1l-1.1 1.2c-.4-.4-.8-.7-1.5-.7-.9 0-1.5.8-1.5 1.7 0 1 .6 1.8 1.6 1.8.6 0 1-.3 1.5-.7l1.1 1.1c-.6.7-1.3 1.2-2.6 1.2-1.9-.1-3.3-1.6-3.3-3.4zm7-5.5h1.9v1.6h-1.9v-1.6zm.1 2.3h1.8v6.4h-1.8v-6.4zm3.1 3.2c0-1.8 1.3-3.3 3.2-3.3 2.1 0 3.1 1.7 3.1 3.5v.5h-4.4c.2.8.8 1.2 1.6 1.2.6 0 1-.2 1.5-.7l1 .9c-.6.7-1.5 1.2-2.6 1.2-2 0-3.4-1.4-3.4-3.3zm4.5-.6c-.1-.8-.6-1.4-1.3-1.4-.7 0-1.2.5-1.4 1.4h2.7zm3-2.6h1.8v.9c.4-.5 1-1 1.9-1 1.4 0 2.2.9 2.2 2.4v4.1H378v-3.6c0-.9-.4-1.3-1.1-1.3-.7 0-1.1.4-1.1 1.3v3.6H374v-6.4zm7.1 3.2c0-1.8 1.4-3.3 3.3-3.3 1.2 0 2 .4 2.5 1.1l-1.1 1.2c-.4-.4-.8-.7-1.5-.7-.9 0-1.5.8-1.5 1.7 0 1 .6 1.8 1.6 1.8.6 0 1-.3 1.5-.7l1.1 1.1c-.6.7-1.3 1.2-2.6 1.2-1.9-.1-3.3-1.6-3.3-3.4zm6.6 0c0-1.8 1.3-3.3 3.2-3.3 2.1 0 3.1 1.7 3.1 3.5v.5h-4.4c.2.8.8 1.2 1.6 1.2.6 0 1-.2 1.5-.7l1 .9c-.6.7-1.5 1.2-2.6 1.2-2 0-3.4-1.4-3.4-3.3zm4.5-.6c-.1-.8-.6-1.4-1.3-1.4-.7 0-1.2.5-1.4 1.4h2.7zm-386.7.7c-.3-.1-.6-.2-.8-.4.2.6.3 1.1.7 1.8.1.4.4-.5.1-1.4m-.9-10.2c0 .8-2.3 2-3.3 2.6 1.5.5 3-.9 2.8-.5-.2.4-2.1 2-2.9 2.9.6.2 1.2-.3 1.7-.7.5-.4 1.3-1.5 1.2-1-1.4 1.7-2.4 5.2-1.8 5.4.4-.9 2-4.9 2.1-4.9.1 0-.1 1.1-.2 1.8-.1 1.5-.1 2.2.2 3.7.2-.2.3-.2.6-.2 0-.1 0-.1-.1-.3-.4-.6.1-1.4-.1-1.8-.2-.4-.3-.1-.4-.5.1-.1.4-.1.6-.2.1-1.6.7-2.4.5-1.4-.1.5-.3 1.3-.2 1.4.1 0 .1 0 .1.1 0 0 2.6-4.3 1.2-1.3-.2.4-1 1.4-1 1.4.3.1.5.4.5.5 0 0 3.5-4.6 1.1-.9-.1.2-.9 1-1 1.2l.1.9c.4-.3.9-.8 1.1-1.1 0-.5.1-.4.1-.9.1-.1.3.1.4.3.1.1 2.4-3.9.9-.9-.2.5-.7 1.1-.7 1.1.1.1.2.4.4.8 0 0 3.1-4.4 1.2-1.1-.1.3-1.1 1.4-1.1 1.4.3.6.5 1.2.5 1.2-.1-.4-.1-1.3.8-2 .1.8.3.8.6 1 .1.1.3.5.4.2.1-1.1-.3-1.1-.5-1.5-.1-.1-.1-.4 0-.3 2.2.1 2.1 2.1 2.5 2.1-.2-.5-.2-1 0-1.5-.6-.4-.4-1.1-.3-1.5-.7-.7-.3-2.2 0-2.5-.4-.6.1-1 0-1.4-.2-1.4-1.4-1-1.7-2.2-.2.2-.5 1-.4 1.3.2.3.6.3.6.5v.4c-.2 0-.4-.2-.6-.3-.5-.2-1.6.6-1.7-.1 0-.4.1-.1.1-.5s-.2-.1-.2-.7c0-.4.5-.5.5-.7.1-.4.8.6 1.2-.4-.2 0-.7-.1-.7-.4.1-.6.1-2.2-1.3-1.8-.5.1-1.9.9-2.1.1-.5.9.5.8.8.7-.1.1-.3.2-.7.1-.8.5-3.8 2.4-4.6 2.9 1 .6 2.8-.5 2.8-.5m2.8 7.6c-.4.4-.5.4-.5.6.1.2.2.4.4.6.2.2.3.4.2-.2-.1-.4-.1-.7-.1-1m6.4-8.8c-.1-.2-.2-.3-.4-.4-.7-.3-2.1.4-2.1-.7 0 0-.5.4-.3.7.6 1 2.1-.1 2.8.4M2.9 5.3c-1.2 0-1.2 1.8 0 1.8 1.3 0 1.3-1.8 0-1.8m0 3.6c-1.3 0-1.3 1.8 0 1.8 1.3.1 1.3-1.8 0-1.8m1.3-2.1h1.1v-1H4.2v1zm0 3.7h1.1V9.4H4.2v1.1zm2.9-1.2c-.5.3-.4.6-.2.8.1 0 .4-.2.5-.3-.1-.1-.2-.3-.3-.5m1.1-1.6v-.3c0-.1-.2-.3-.2-.3-.1 0-.2.1-.2.2v.3c.1.2.2.2.4.1m0 .5v-.4c-.1.1-.2.2-.3.1-.3.2.1.3.2.4 0-.1.1-.1.1-.1m2-2.9l.4-.4c-.1 0-.2-.1-.3-.3-.2.2-.2.3-.1.7m1.7.2c-.1.1-.3.2-.3.3.1.1.4.3.6.2.2-.1.3-.3.1-.4-.2 0-.3-.1-.4-.1m.1-.3c.1-.1.2-.1.2-.2-.1-.1-.3-.2-.4-.2-.1 0-.3.1-.2.2.1.1.1.2.3.2h.1m.5 4.8v-.3c0-.1-.3-.3-.3-.3-.1 0-.1 0-.1.1v.3c.2.1.3.2.4.2m-.3 0c-.3.2 0 .4.1.5.1 0 .2-.1.3-.1v-.3c-.2 0-.3 0-.4-.1m-.6.3l-.2.2-.1.2c-.1-.1-.2-.1-.2-.2v-.8l-.2-.1c-.1.1-.2.1-.1 0l.4-.3h.1l.2.3v.7h.1M11.5 8c-.1-.3.1-.7.2-.7l.4-.4c.1.1.2.1.3.2 0 .1-.1.2-.2.2-.2 0-.4 0-.5.1-.1.1 0 .4.1.6.2 0 .5.1.5 0 .1-.1.2-.1.1.1-.1.1-.2.3-.2.4-.3-.1-.6-.2-.7-.5m.3 2.4c0-.2.1-.3.2-.5l-.1-.4c.1-.1.4-.4.5-.4.1 0 .3.3.4.4v.9c0 .1.2.1.2 0 .1-.1.1 0 .1.1-.1.1-.3.2-.3.3-.1-.1-.2-.1-.3-.3-.2 0-.4.2-.6.3 0-.1-.1-.3-.1-.4m1.6-2.1l-.2.2-.2.2-.2-.2v-.8l-.2-.1c-.1.1-.2.1-.1 0l.4-.3h.1l.2.2v.8h.2m-.2-2.5c-.4 0-.3-.2-.2-.2.4 0 .3.2.2.2m0-.3c-.4 0-.3-.2-.2-.2.4 0 .3.2.2.2m-.3.9l.2.2v.2l-.2.2h-.1l-.1-.1v-.2l.2-.3zm-.2-1.6c0 .1-.2.2-.4.3h.1c.3.2.4.4.1.7-.2.1-.4.3-.7.3-.2 0-.5-.2-.6-.2.2-.2.3-.3.5-.4-.2-.2-.4-.4-.2-.6.1-.2.5-.5.8-.4.1 0 .3.3.4.3M11 5.9c-.1 0-.3.2-.4.2-.4 0-.9-.3-.9-.9.1-.6.5-.8.7-.8.2 0 .3.2.4.3l-.7.7c0 .1.3.5.7.3.4 0 .4.1.2.2m-1.3-1c-.1.1-.3.2-.4.3 0-.1-.1-.2-.2-.3L9 5v1.2h-.3v-1c-.1-.2-.2-.2-.4-.3.1-.1.3-.3.4-.3.1.1.2.1.3.2.1-.1.3-.2.3-.2.1.1.2.2.4.3 0-.1 0 0 0 0m-1.5 2c.1 0 .2.3.4.4v.9s.1.1.2.1c.1-.1.1 0 .1.1-.2 0-.5.2-.5.2-.1 0-.1-.1-.2-.3-.2 0-.3.1-.4.3-.1-.1-.3-.2-.3-.4s.1-.3.2-.4l-.1-.1s-.1-.3-.1-.4c.2-.2.5-.4.7-.4M8 6.5c-.1-.1-.1-.2-.2-.2-.3.1-.6.2-.9 0-.3-.1-.5-.1-.5-.7 0-.4.3-.6.5-.8.2-.1.6 0 .8 0 .1 0 .2 0 .2-.1s.1 0 .1 0v.8c0 .1-.1.1-.1 0s0-.2-.1-.4c0-.2-.5-.5-.9-.1 0 0-.2.3-.1.5 0 .1 0 .3.1.5.3.5.7.3.9 0 .1-.1.1-.3.1-.3 0-.1.1-.1.1 0v.6s0 .1.1.1c0 .1 0 .2-.1.1m-1.6.7c.2-.2.5-.4.7-.4.1 0 .2.2.3.3l-.3.3c0-.1-.3-.5-.5-.2-.1.1-.2.6.1.9.2.1.4.2.6.1-.1.1-.1.2-.2.3-.3.1-.5 0-.6-.2-.4-.3-.3-.7-.1-1.1m.2 2.7c.1-.5.6-.8.8-.9 0 .2.2.5.4.6-.2.1-.7.5-.8.6.1.2.4.3.6.2.1-.1.2-.1.1.1-.1.1-.3.4-.3.5-.4-.2-.9-.5-.8-1.1m1.3-.4c.2-.1.2-.2.4-.3.1.2.1.3.2.4.1-.1.3-.2.4-.3.1 0 .2.1.2.4v.9c0 .1 0 0 .1 0s.1 0 .1.1c-.1.1-.4.3-.4.3-.1-.2-.1-.3-.1-.5v-.7c0-.1-.1-.1-.2-.2-.1 0-.1 0-.2.1v1.1h-.3v-1c0-.2-.1-.3-.2-.3m1.6-1.1c-.1.1-.3 0-.3-.2-.2-.1-.1-.6-.1-.9L9 7.2c-.1 0-.1-.1 0-.1.2-.1.4-.5.5-.6 0-.1.1 0 0 .1-.1.2-.1.4 0 .5h.4v.1c-.1 0-.5.1-.5.1s0 .7.1.8c0 0 .1.1.2.1.1-.1.1 0 .1.1-.1-.1-.2 0-.3.1m.2 1c.1-.1.4-.5.4-.6 0-.1.1-.1.1 0s-.1.5-.1.5h.3v.1h-.3v.6c.1.1.2.2.3 0 .1-.1.1 0 .1.1 0 0-.2.3-.3.4 0 .1-.3 0-.4-.1-.1-.1 0-.4 0-.8 0 0-.3-.1-.1-.2m1.6-.6l-.3.3c-.1-.1-.2-.2-.3-.2.2-.1.2-.2.3-.3 0 .1.2.2.3.2M10.5 7c.3.1.6 0 .7.4.1.4-.1.8-.4.8-.2 0-.5-.1-.6 0-.1 0-.1 0-.1.1s-.1.1-.1 0v-.6c0-.1.1-.1.1 0s.1.2.2.3c.1.1.5.2.7 0 .1-.1.1-.4 0-.5-.1-.1-.7-.2-.8-.4-.2-.3.1-.5.3-.6.2-.1.5-.1.5-.1.1 0 .2 0 .2-.1s.1-.1.1 0c0 .3.1.1 0 .4 0 .1 0 .1-.1 0 0-.1-.4-.4-.7-.2-.3.3-.2.5 0 .5m1 4.6c1.3.1 2.4.7 2.4.7V3.8S12 2.4 8.8 3.7c-.9.3-3.1 0-3.1 0v8.7c1.9.1 4.5-.9 5.8-.8m3.1 2.8c0 .1-.1.3-.1.3l.5-.3c-.1-.1-.4-.2-.5-.3-.1 0 .1.1.1.3m.8 0c-.5.1-.8.6-1.4.4-.1 0-.2-.1-.2-.2.1.1.3.1.4.1 0 0-.3-.2 0-.5-.3.2-.4.2-.4 0 0 0 .4-.4.8-.2.2.1.4.3.8.4zm-1.4-1c-.3 0-.6.2-.7.5-.2.2-.2-.3-.5-.1-.1.2.2.6.1.6-.4.1-.3-.5-.5-.6-.3.1-1.1.8-.3 1.3 0-.4.7-.8.9 0 .7-.1.9.4 1 .6 1 .2.7.9.7.9-.1-.1-.5-.8-1.3-.4-.2.1-.5.2-.6.1 0 .2.3.4.5.4.6-.2.8.4.3.6.1.2.3.2.5 0 .3-.2.3-.3.4-.4.2.8-.9.9-1.2 1 .1.2.2.2.4.3-1.1 0-1.3 1.1-1.3 1.7.3 0 .6-.5.6-.2-.8.8-1.1 2-.6 2.7.2-.1.3-.3.3-.5 0 0 .4.2-.2.9 0 .2-.3.8.2 1 .2-.2.2-.4.2-.7.1-.1.2.4.2.6-.7.3-.6 2.3.2 3.4-.4-.8-.3-1.8 0-2.6.2-.6.8-2 .8-2 .3.4.7 1.9.7 2.6.4-.4.5-.8.8-1 .2.6.2.9.4 1.4.2-.5.6-1 0-2.6.1-.1.4.5.4.5.1 0 .1-.4-.1-1-.4-.4-.5-1-.5-1 .1 0 .3.6.5.6 0-.5.2-1 .1-1.4 0-.1-.2-.6-.7-1.1-.3-.2-.4-.8-.4-.9.3.2.2.4.4.5.1-.2 0-1-.2-1.3-.2-.3-.1-.2.1-.1.2.3.1.3.3.4.5-1.1 0-1.3.1-1.4 0-.1.4.5.6.3-.5-.2-.4-.6-.5-1 0-.3-.2-.4-.2-.5.5.3.6 0 .6-.1-.1.1-.5.1-.5-.5 0-.3-.4-.4-.4-.4.2 0 1-.1.8-.8-.1.2-.3.5-.8.3 0 0 .3-.1.2-.4-.4.5-1-.3-1.8-.2m6.5-7.8c.1.1.5.3.6.3v-.4c0-.1-.3-.3-.4-.3-.1 0-.1.1-.2.2s-.1.1 0 .2m.3.9c.1-.1.2-.1.3-.1V6c-.2 0-.3-.1-.5-.2h.1c-.2.3 0 .6.1.7m0 1.8c.1.2.4.4.5.5.1-.2.2-.5.2-.7 0-.2-.3-.4-.5-.5-.3.1-.3.4-.2.7m-4.3 1.8c-.2.3 0 .4.1.4.1-.1.2-.1.3-.2V10c-.2.1-.3.1-.4.1m.4-.1v-.3c0-.1-.2-.2-.3-.2-.1 0-.1 0-.2.1v.3c.2.1.3.1.5.1m.2.8c-.1-.1-.2-.1-.3-.2-.3.1-.4.3-.6.4-.1-.1-.2-.3-.2-.5s.2-.4.3-.5c0 0-.1-.3 0-.4.1-.1.3-.5.5-.5.1 0 .3.2.4.3v.8c.1.1.2.2.3.1.1-.1.1 0 .1.1-.2 0-.4.3-.5.4m.7-1.3s-.3-.1-.2-.2c.2-.1.5-.4.5-.5 0-.1.1-.1.1 0s-.1.3-.1.4h.3v.1h-.3v.9c0 .1.2.1.3 0 .1-.1.1 0 .1.1 0 0-.2.3-.3.3-.1 0-.3 0-.4-.1v-1m.6-1.1c-.2 0-.3-.2-.4-.4-.2.2-.2.4-.6.5.2-.2.4-.5.4-.9 0-.3-.2-.5-.3-.5-.1.1-.2.1-.3.2-.1 0-.1-.1 0-.1.2-.1.5-.4.6-.4 0 .1.2.2.2.3.1-.1.3-.3.4-.3.1.1.3.3.5.4-.2.4-.7.1-.7.1-.1.1-.1.2 0 .4s.5.4.7.5c-.2-.1-.4.2-.5.2m.3 1.3c.1-.2.3-.3.4-.3l.3.3v.8c0 .1.6.2.6 0v-.6c0-.1-.2-.1-.3-.1.1-.2.3-.3.4-.4.1.1.3.2.3.4v.8c0 .1 0 .1.1.2-.1.1-.2.1-.3.2-.1 0-.3-.2-.3-.3-.1.1-.5.2-.6.3-.1-.1-.2-.2-.2-.3V10c-.2-.3-.3-.3-.4-.3m1.8-1.5c0-.4.3-.8.8-1 .4.1.5.5.5.8 0 .2-.1.5-.2.7-.1.1-.3.2-.4.4-.5-.1-.7-.6-.7-.9m0 1.7c.1-.1.4-.3.5-.4.2.1.3.2.3.3.1-.1.3-.2.3-.2.2.2.4.3.4.3.1-.1.2 0 .1.1s-.3.2-.3.3l-.3-.3-.1.1v1.1H21v-1c-.1-.2-.3-.3-.5-.3m1.8-1.5H22c-.1 0-.1-.1 0-.1h.3c.1-.1.1.1 0 .1m0-.3H22c-.1 0-.1-.1 0-.1h.3c.1 0 .1.1 0 .1m-.7-1.7l-.3.4c-.1-.1-.2-.1-.2-.3-.3.1-.4.2-.6.3-.1-.1-.3-.4-.3-.5 0-.2.1-.4.2-.5-.1 0-.1-.1-.2-.1v-.2c.1-.1.3-.4.5-.4.1 0 .3 0 .6.2v.9c.2.1.3.2.3.2m-2.3 1.3c-.1.3.2.5.4.6.1.1.4 0 .5 0 .1 0 0 0 .1-.1h.1l-.5.5c-.1 0-.3 0-.4-.1-.2-.3-.4-.4-.3-.9 0-.3.6-.6.8-.7l.4.4c0 .1-.2.1-.3.1-.1 0-.2-.1-.3-.2-.3.1-.4.2-.5.4m.8-2.7c-.1 0-.7.1-.7.1s0 .8.1.9c0 .1.1.2.2.1s.1 0 .1.1c0 0-.2.3-.3.4-.1.1-.2-.1-.3-.3-.2-.3-.2-.8-.2-1.2 0 0-.3-.1-.2-.2.3-.1.6-.5.6-.6 0-.1.1-.1.1 0-.1.2-.1.3 0 .5h.6V5m-1.5 1l-.3.3h-.2c-.1-.1-.2-.2-.2-.3v-.8l-.4-.2c-.1.1-.2.1-.1 0l.4-.4h.1l.3.3v.9c.1.1.2.1.4.2m-.4-1.7l-.1.1H18l-.1-.1v-.2l.1-.2.2.2v.2zm-.8 0c-.1 0-.3.2-.3.3 0 .2-.5 1.6-.6 1.7-.1-.5-.6-1.5-.8-1.8-.1-.2-.3-.2-.4-.2-.1 0-.1-.1 0-.1s.9.1 1.2.1c.1 0 .1.1 0 .1s-.2.1-.2.1c0 .1.3.7.4.8.1-.2.3-.9.3-1-.1-.2-.1-.2-.2-.2s-.1-.1 0-.1.5-.1.6 0c.1.2.1.2 0 .3m-1.8 2.6c.3-.1.8-.2 1-.2h.2c0-.1.1 0 .1 0v.7c0 .1-.1.1-.1 0s0-.1-.1-.2c-.2-.3-.8-.4-1.2 0-.1.1-.1.4 0 .4h.7c.1 0 .5-.1.5-.1s.1-.1.1 0v.4c0 .1-.1 0-.1 0s-.4-.1-.5-.1c-.2 0-.6-.1-.7-.1-.1 0 0 .2.1.4.3.4.9.4 1.1.1.1-.1.1-.1.1-.2s.1-.1.1 0v.6s-.1.1-.1 0-.1-.1-.2-.1c-.3.1-.8.1-1 0-.3-.2-.6-.2-.6-.8 0-.4.4-.7.6-.8m-.5 1.9h.4v1.6c0 .1.1.2.2.1.1 0 .1 0 0 .1s-.3.3-.3.4c-.1-.1-.3-.2-.3-.3.1-.3 0-1.8 0-1.9m1.9 2.8c.9 0 4.3.9 6 .8V3.8s-2.4.3-4.5-.4c-1.7-.6-4.1.5-4.1.5v8.5s.8-.8 2.6-.8M23.2 9v1.6s.9 0 1.9-.7c.3-.2.8-.1 1 .1 0 0-.1-1.1-1-.9-1.7.2-1.9-.1-1.9-.1m3-2.4s-.1-1-1.1-1c-.3 0-.7.4-1.8 0v1.6c.4.1 1.6-.5 2.1-.7.3-.1.7 0 .8.1M25 23.9c-.1-2.6-1.7-5.5-1.2-4.9 1.1 1.3 1.4 4.2 2.2 6.7 0 0 .5.2.4-2.9 0-.6-.3-1.5-.6-2.1-.6-1.2-1.9-3.2-1.9-3.2.3-.2 1.1 1.5 1.7 2.1.4.4 1.6.9 1.7.8-.9-1.8-3.2-3.5-3-3.8 1.7 1.6 2.2 1.6 2.3 1.6L25 16.7c-.4-.6-1-1-.9-1 .7.1-.4-.6-1.1-.8-.1 0-.4-.1-.4-.1 0-.1.2-.1.4-.1.1 0 .2-.1.2-.3-.3.1-.6 0-.9-.1-.5-.2-1.5-.5-1.9-.4-.3.1-.3.1-.6.3-.1-.1-.5-.3-.9.3-.1.2-.3.4-.3.5 0 .4 0 0 .1.4 0 .2-.1.4-.8.7-.3.1-.2.4-.2.4.1-.1.3-.2.7-.1.6.3.8-.2 1.2-.5 0 0-.1.4 0 .5.5.1.3.5.3.5-.6.6-.4.8-.6 1.1-.2.3-.5.5-1 .4-.7 0 .9-1-.6-1.5.2.4.3.7-.2 1-.3.2-.2 1.2-1 .7 0 0-.1.7-.2.7 1.1 1 .5 1.5.6 3 .4.9 0 1.3-.1 1.4.1.6.1 1 .5 1.5.3.4 0 .9.3 1.3.3-.9.5-.5.6-1.8.1-.2.5-.6.8-.6 0 .8.3 1.5.2 1.8 0 0 .7-.1.9 0 .2.1.3.3.3.4l-.6.3c-.6.4-.9 1.3-.9 1.3s1.4-1.1 1.5-1.3c.1-.2.2-.4.2-.7 0 0-.7-.4-.9-.8-.6-1.2 1 .7 1 .5.1-.4.4-.8.4-.8-.1-.1-.3-.2-.7-.9-.9-1.5 1 .6 1 .6.5-.3.5.1.6.5 0 0 .8.7.9.7.2-.2.4-.5.5-.7 0 0-1.5-1.4-1.8-1.8-2.1-3.6 1.7 1.6 1.9 1.4.1-.3.1-.7.1-1.2 0 0-.7-.5-1.2-1.3-1.8-2.9 1.2.9 1.1.8 0-.6-.5-3.3-.2-2.5.2.4.7 2.1.6 3.9 0 0 .8-.4 1.1-.4m-3.3 2.8l-.3-.2c0 .1-.1.3-.2.4 0 .2.2.1.5-.2m-.1-1.1c0 .2 0 .4-.1.7 0 0 .3.1.4.2.2-.2.3-.2.5-.5 0 0-.8-.7-.8-.6v.2m2.3 1.5c.3-.3.5-.7.9-.9-.3-.3-.6.3-.8.1.3-.5.5-.8.5-1.4 0-.3.4-.6.5-.8-.3 0-1.3.6-1.4.9-.6.8-.6 1.6-3.2 2.7-.1 0 .5-.4.6-.9.1-.2.4-1.3.2-1.9-.5.5-.4.7-.6 1.1-.4 1.1-.6 1.2-1.6 1.8-.1.1-.9 1.2-1.8 1.3.1 0 0-.3.4-.5 1.1-.7.7-2.2 2.1-2.5-.7-.2-1.2.4-1.3.4.6-.8.1-1.4.1-2.1-.2.1-.4.3-.4.5-.1 1.1-.6 1.3-.7 1.8.1.8-.5 1.4-1 2-.1-.5 0-.9.6-1.3.3-.2 0-.9 0-.9-.1.7-.5.9-.8 1-.2 0 .8-1 .6-1.9 0-.4-.2-.2-.2-.7-.8.9-.2 1.5-1.1 2.6-.4.5-.6 1.4-.6 1.4 0-1.3.1-.9.6-2 .5-.9 0-1.7-.1-2.3-1.1.7-1 2.2-1 1.8 0-.3-.2-.8 0-1.3.2-.8-.3-2-.3-2-1.5 2.3-.2 5.1-.3 5-.6-1-1.1-1.1-1.3-1.8-.1-.4-.8-2.7-2.3-2.8.7.6.5.7.6 1.7-.5 2.5 3.1 2.8 2.8 4.1-.5-.8-1.2-1.1-2.3-1.7-.5-.4-1-.6-1.1-1.2.1-.4.1-.4 0-.9-.1-.4-.5-.2-.8-1-.6.6-.4 1.2-.4 1.6 0 .1.1.5 0 .7-.2-.2-.4-.5-.6-.8-.5-.6-.5-1.3-.7-1.8-.1-.2-.3-.5-.3-.5-.1.9-.1 1.7.4 2.4 0 0-.1.2-.2.2-.4-.1-1-.4-1.2-1.1-.5.4-.1.9-.2.9-1.1-.6 0-2.8-1.6-2.7.4.4.1 1 .1 1.5 0 .8 1 1.5 1 1.5-1.2-.4-1.4.2-1.4.2s1.7.7 4.4 1c.3 0 .8.4.8.4-.3 0-1-.5-2 .4.6 0 1 1 1.9.4 2.4-.7 3.4.5 3.8.8-.1.2-1.9-1.1-3.3-.3-.8.5-2 0-2.9-.7.4 1 2 2.1 2.6 2.1.7 0 1.5-.9 2.5-.8 1.5.1 1.8 1.5 1.6 1.3 0 0-1.2-2-2.8.1.7-.3 1.7-.2 2.6.2.1.1-.2.4-.4.7-.1.2-.8 1.1-1.5.2-.1-.1-.4-1-2.6-.8.8.4 1.7 1.4 2.2 1.8 1.2 1.1 2.9-1.4 3-1.1 0 .6.3.8.4 1.2.4.8-.5.6-1 .4 0 0 .9 1.4 1.7.6.8-.9-1.1-1.5-.5-2.2.3-.4 1.6.9 2.1.9 1.5.2 1.4-1.3 2.2-1.2-.7-.8-1.5-.3-1.7-.2-.4.9-1 .5-1.4.2-.2-.3-.6-.3-.9-.2-.2 0 .3-.5.9-.4 1.4.3 2.8-.2 3.1-.4.6-.3.9-.8 1.5-1.4-.2 0-1.3.7-1.7.9-1.1.6-1.8-.2-1.9-.2-.2 0-.2-.2.2-.3 1.1-.3 1.9-1.3 3-1.6 1.1-.6 2.7-.3 3.7-1.3m-.5 2c.5-.6.7-1.3.9-2.1-.3.3-.6.6-1 .8-.3.8-.2 1.7.1 1.3m4.1-7.2C26.4 34 16.3 36.1 14.1 36.5 14 36.5 1.9 35 .7 21.9V2.7s11.5-1.5 26.8 0v19.2zm.7.2v-20C12.1.5 0 2 0 2v20c1.3 13.6 14 15.2 14.1 15.1 2.3-.3 12.9-2.5 14.1-15m7.5 4.8c0 3.7 1.8 6.3 4.1 7.9 2.1 1.4 4.6 1.9 7.2 1.9 1.8 0 3.9-.4 4.5-.7.3-.1.7-.2 1-.3.4-.5 1.2-2.4 1.4-3.9-.1-.2-.5-.3-.7-.1-.7 1.7-2.3 4.1-6 4.1-4.7 0-8.5-3.3-8.5-9.4 0-6 3.7-8.7 8.1-8.7 4.2 0 5.5 2.2 5.9 4.2.2.2.6.1.8-.1-.2-1.8-.4-3.6-.4-4.2-.3 0-.5 0-.8-.1-1.4-.4-3.5-.7-5.1-.7-3 0-5.7.8-7.8 2.4-2.3 1.8-3.7 4.5-3.7 7.7M43.9 2c-.1-.2-.2-.2-.2-.2h-.1c-.2.3-.2.3-.9.3h-5c-.5 0-.8 0-.8-.3h-.4c-.1.5-.3 1.2-.5 1.8.1.1.3.2.4.1.2-.2.3-.4.6-.7.3-.2.9-.3 1.4-.3h.7c.3 0 .3 0 .3.3v5.4c0 1.3-.1 1.4-.7 1.4h-.4c-.1 0-.1.1-.1.2s0 .2.1.2h3.3c.1 0 .1-.1.1-.2s0-.2-.1-.2l-.4-.1c-.6-.1-.6-.1-.6-1.4V2.7h1.1c.6 0 1.1.1 1.3.3.1.1.2.4.3.8 0 .1.1.1.2.1s.2 0 .2-.1c0-.4 0-1.3.2-1.8m9.8 6.4V4.1c0-1.3 0-1.4.6-1.4h.3c.1 0 .1-.1.1-.2 0 0 0-.2-.1-.2h-2.8c-.1 0-.1.2-.1.2 0 .1 0 .2.1.2h.3c.6.1.6.1.6 1.4v1.4c0 .3 0 .3-.5.3h-3.4c-.5 0-.5 0-.5-.3V4.1c0-1.3 0-1.4.6-1.4h.2c.1 0 .1-.1.1-.2 0 0 0-.2-.1-.2h-2.9c-.1 0-.1.2-.1.2 0 .1 0 .2.1.2h.3c.5 0 .6.1.6 1.4v4.3c0 1.2 0 1.3-.6 1.4h-.2c-.3.1-.3.2-.3.3 0 .1.1.2.1.2H49c.1 0 .1-.1.1-.2s0-.2-.1-.2l-.4-.1c-.6-.1-.6-.1-.6-1.4V6.7c0-.3 0-.3.5-.3H52c.5 0 .5 0 .5.3v1.7c0 1.3 0 1.3-.7 1.4h-.3c-.1.1-.1.2-.1.3 0 .1.1.2.1.2h2.8c.1 0 .1-.2.1-.2 0-.1 0-.2-.1-.2l-.3-.1c-.3-.1-.3-.1-.3-1.4m10 .2c-.1-.2-.2-.2-.3-.2h-.2c-.3.7-.7 1-.8 1.1-.3.1-.6.2-1.5.2-1 0-1.3-.1-1.4-.2-.2-.2-.2-.6-.2-1.2V6.6c0-.2 0-.2.3-.2h.7c.4 0 .7 0 .9.1.2 0 .3.2.3.4l.1.5c0 .1.1.1.2.1s.2 0 .2-.1V5.1c0-.1-.1-.1-.2-.1s-.2 0-.2.1l-.1.5c-.1.3-.1.3-.2.4-.1 0-.5.1-1 .1h-.7c-.3 0-.3 0-.3-.2V3.1c0-.4 0-.4.3-.4h.9c.5 0 .9 0 1.1.1.5.1.7.5.8 1v.1s.1.1.2.1.2 0 .3-.1v-.2c-.1-.7-.1-1.3-.2-1.5v-.1h-5.4c-.1 0-.1.2-.1.2 0 .1 0 .2.1.2h.2c.6.1.6.2.6 1.4v4.3c0 1.3-.1 1.4-.7 1.4H57v.5c0 .1.1.2.1.2h6v-.1c.2-.3.5-1.2.6-1.6m1.2 9.3c.2-.1.1-.6-.1-.7-1.2.1-2.2.1-3.3.1-1.2 0-2.2-.1-3.6-.1-.2.1-.2.6-.1.7l.7.1c1.5.1 1.7.6 1.7 3.6V32c0 3-.1 3.3-1.7 3.6l-.5.1c-.2.2-.1.6.1.7 1.1 0 2.1-.1 3.3-.1 1.1 0 2.1 0 3.7.1.2-.1.2-.6.1-.7l-.8-.1c-1.6-.2-1.8-.6-1.8-3.6v-4.1c0-.9.1-.9 1.4-.9h8.2c1.4 0 1.4.1 1.4.9V32c0 3 0 3.3-1.8 3.6l-.5.1c-.2.2-.1.6.1.7 1.3-.1 2.3-.1 3.5-.1 1.1 0 2.1 0 3.5.1.2-.1.2-.6.1-.7l-.7-.1c-1.7-.2-1.7-.6-1.7-3.6V21.6c0-3 .1-3.5 1.7-3.6l.6-.1c.2-.1.1-.6-.1-.7-1.3.1-2.3.1-3.4.1-1.2 0-2.2 0-3.5-.1-.2.1-.2.6-.1.7l.7.1c1.7.2 1.8.6 1.8 3.6v3.3c0 .9-.1.9-1.4.9h-8.2c-1.4 0-1.4 0-1.4-.9v-3.3c0-3 .1-3.5 1.7-3.6l.4-.1zM78.7 2.6c.1-.1.1-.2.1-.3 0-.1-.1-.1-.1-.2H76c-.1 0-.1.1-.1.2s0 .2.1.2h.3c.3 0 .5.1.5.2.1.4.2 1.3.2 2.6v1.4c0 1.4-.4 3.1-2.3 3.1-1.6 0-2.3-1-2.3-3.1V4.1c0-1.3 0-1.4.6-1.4h.3c.1 0 .1-.1.1-.2s0-.2-.1-.2h-3c-.1 0-.1.1-.1.2s0 .2.1.2h.3c.6.1.6.1.6 1.4v2.8c0 1.4.3 2.3 1 2.9.5.5 1.3.7 2.3.7.9 0 1.8-.3 2.4-.9.6-.6.9-1.6.9-2.9V5.3c0-.6 0-2 .2-2.4.1-.1.3-.2.5-.2l.2-.1zm10.7 0c.1-.1.1-.2.1-.2 0-.1-.1-.2-.1-.2h-2.6c-.1 0-.1.1-.1.2s0 .2.1.3h.2c.4.1.6.1.7.2.1.2.2 1.1.2 2.4v2.9c-.4-.4-.9-.9-1.4-1.5l-1.7-1.9c-1.2-1.3-1.9-2.2-2-2.6v-.1h-1.9c-.1 0-.1.1-.1.2s0 .2.1.3h.2c.3 0 .6.1.7.3.2.2.2.5.2.8v3.6c0 .6 0 1.9-.1 2.3 0 .1-.1.1-.5.2H81c-.1.1-.1.1-.1.2s0 .2.1.2h2.6c.1 0 .1-.1.1-.2s0-.2-.1-.2h-.4c-.3 0-.5-.1-.5-.2-.1-.2-.2-1.1-.2-2.4V4c.2.2.5.6.8.9.2.2.4.4.5.6l2.8 3.2c.9 1.1 1.4 1.6 1.5 1.8.2 0 .3-.1.3-.2V5.2c0-.6 0-1.9.2-2.3 0 0 .2-.1.6-.2l.2-.1zm-1.5 29.3V21.7c0-3 .1-3.5 1.8-3.7l.7-.1c.2-.1.1-.6-.1-.7-1.4.1-2.4.1-3.6.1-1.2 0-2.2 0-3.6-.1-.2.1-.2.6-.1.7l.7.1c1.7.1 1.8.6 1.8 3.7v10.2c0 3-.1 3.4-1.8 3.7l-.7.1c-.2.2-.1.6.1.7 1.4-.1 2.4-.1 3.6-.1 1.2 0 2.1 0 3.6.1.2-.1.2-.6.1-.7l-.7-.1c-1.7-.2-1.8-.6-1.8-3.7m6-23.5V4.1c0-1.3 0-1.4.6-1.4h.3c.2-.1.2-.2.2-.3 0 0 0-.2-.1-.2h-3c-.1 0-.1.2-.1.2 0 .1 0 .2.1.2h.3c.6.1.6.1.6 1.4v4.3c0 1.3 0 1.4-.7 1.4h-.3c-.1.1-.1.2-.1.3 0 .1.1.2.1.2h3c.1 0 .1-.2.1-.2 0-.1 0-.2-.1-.2l-.3-.1c-.5 0-.6 0-.6-1.3m3.7 10.9C95.4 21 94 23.7 94 26.9c0 3.7 1.8 6.3 4.1 7.9 2.1 1.4 4.6 1.9 7.2 1.9 1.8 0 3.9-.4 4.5-.7.3-.1.7-.2 1-.3.4-.5 1.2-2.4 1.4-3.9-.1-.2-.5-.3-.7-.1-.7 1.7-2.3 4.1-6 4.1-4.7 0-8.5-3.3-8.5-9.4 0-6 3.7-8.7 8.1-8.7 4.2 0 5.5 2.2 5.9 4.2.2.2.6.1.8-.1-.2-1.8-.4-3.6-.4-4.2-.3 0-.5 0-.8-.1-1.4-.4-3.5-.7-5.1-.7-3.1 0-5.8.8-7.9 2.5m7.8-16.7c.1-.1.1-.2.1-.3 0-.1 0-.2-.1-.2H103c-.1 0-.1.1-.1.2s0 .2.1.2h.2c.4 0 .5.1.5.1 0 .1 0 .2-.1.4-.2.5-.8 1.9-1.1 2.7-.1.2-.2.5-.3.8-.2.5-.5 1.2-.7 1.7-.6-1.3-1.1-2.6-1.6-3.9-.4-.9-.6-1.5-.6-1.6 0 0 .1-.1.5-.1h.2c.1-.1.1-.1.1-.2s-.1-.2-.1-.2h-2.6c-.1 0-.1.1-.1.2s0 .2.1.2h.2c.5.1.6.3.9.9l2.1 5.2c.3.6.4 1.2.5 1.6h.2c.1 0 .1 0 .2-.1.2-.6.8-2.1 1.2-3.1l.6-1.5c.6-1.3 1-2.2 1.3-2.7.2-.2.3-.4.6-.4l.2.1zm8.2 6c-.1-.2-.2-.2-.3-.2h-.2c-.3.7-.7 1-.8 1.1-.3.1-.6.2-1.5.2-1 0-1.3-.1-1.4-.2-.2-.2-.2-.6-.2-1.2V6.6c0-.2 0-.2.3-.2h.7c.4 0 .7 0 .9.1.2 0 .3.2.3.4l.1.5c0 .1.1.1.2.1s.2 0 .2-.1V5.1c0-.1-.1-.1-.2-.1s-.2 0-.2.1l-.1.5c-.1.3-.1.3-.2.4-.1 0-.5.1-1 .1h-.7c-.3 0-.3 0-.3-.2V3.1c0-.4 0-.4.3-.4h.9c.5 0 .9 0 1.1.1.5.1.7.5.8 1v.1s.1.1.2.1.2 0 .3-.1v-.2c-.1-.7-.1-1.3-.2-1.5v-.1h-5.4c-.1 0-.1.2-.1.2 0 .1 0 .2.1.2h.2c.6.1.6.2.6 1.4v4.3c0 1.3-.1 1.4-.7 1.4h-.4c-.1.1-.1.2-.1.3 0 .1.1.2.1.2h6V10c.4-.1.7-1 .7-1.4m6.2-2.7c-.3.3-.8.3-1.2.3h-.8V3c0-.3 0-.3.7-.3 1.3 0 1.8.9 1.8 1.8.1.6-.1 1.1-.5 1.4m3.6 4.4c.1 0 .1-.1.1-.2s-.1-.1-.1-.1c-.3 0-.6-.1-.8-.3-.8-.7-1.5-1.7-2.4-3.2-.1-.1-.1-.1-.1-.2.4-.2 1.5-.8 1.5-2.1 0-1-.6-1.5-1-1.8-.6-.3-1.4-.4-2-.4-1.1 0-1.9 0-2.7.1-.1 0-.1.1-.1.2s0 .2.1.3l.4.1c.4 0 .4.1.4 1.3v4.3c0 1.3 0 1.3-.6 1.4h-.3c-.1.1-.1.2-.1.3 0 .1.1.1.1.2h2.9c.1 0 .1-.2.1-.2 0-.1 0-.2-.1-.2h-.3c-.6-.1-.6-.1-.6-1.4V6.9c0-.2 0-.2.5-.2s.6.1.8.3l.6.9c.2.3.4.7.6.9.8 1.2 1.4 1.5 2.6 1.5.2.1.4.1.5 0zm3.1-6.5c0-.5.2-1.2 1.3-1.2s1.4.7 1.5 1.3c0 0 .1.1.2.1s.2 0 .3-.1c0-.5-.1-1.2-.2-1.5v-.1h-.1c-.1 0-.2 0-.4-.1-.3-.1-.7-.2-1.1-.2-1.5 0-2.5.9-2.5 2.2 0 1.1.8 1.8 1.3 2.1l1.1.7c.8.5.9 1.1.9 1.6 0 .6-.4 1.3-1.4 1.3-1.2 0-1.7-.9-2-1.7 0-.1-.1-.1-.2-.1s-.2 0-.3.1c0 .5.2 1.4.3 1.7.2.1.9.5 1.9.5 1.6 0 2.6-.9 2.6-2.3 0-1-.5-1.7-1.5-2.4l-1-.6c-.1-.1-.7-.6-.7-1.3m-1.2 23.9h-3.5c-.8 0-.8 0-.6-.7l1.8-5c.3-.9.6-1.6.7-1.7h.1c.2.3.4 1.1.7 1.8l1.6 4.7c.1.8 0 .9-.8.9m7.4 7.9c-1.2-.1-1.6-.6-2.4-3l-4-11.6c-.4-1.3-.9-2.6-1.3-3.9-.1-.2-.3-.3-.4-.3-.3.4-.8.9-1.5 1.1.1.5-.1 1-.5 2l-2.9 7.8c-1.2 3.2-2 5.1-2.5 6.4-.4 1-1 1.4-1.7 1.4l-.9.1c-.2.1-.1.6.1.7.8 0 1.8-.1 2.8-.1 1.4 0 2.2 0 3 .1.3-.1.3-.6.1-.7l-.9-.1c-.7-.1-.8-.2-.8-.6 0-.3.2-1.1.6-2.4l1-3c.2-.6.4-.7 1.1-.7h4.3c.9 0 1 .1 1.2.7l1.3 3.9c.2.7.4 1.2.4 1.5 0 .3-.4.5-1 .5l-.8.1c-.2.1-.2.6.1.7.8 0 1.9-.1 3.3-.1 1.3 0 2.3 0 3.5.1.1-.1.2-.6 0-.7l-1.2.1zm2-27.2V4.1c0-1.3 0-1.4.6-1.4h.3c.1 0 .1-.1.1-.2 0 0 0-.2-.1-.2h-3c-.1 0-.1.2-.1.2 0 .1 0 .2.1.2h.3c.6.1.6.1.6 1.4v4.3c0 1.3 0 1.4-.6 1.4h-.3c-.1.1-.1.2-.1.3 0 .1.1.2.1.2h3c.1 0 .1-.2.1-.2 0-.1 0-.2-.1-.2l-.3-.1c-.6-.1-.6-.1-.6-1.4M145.6 2c-.1-.2-.2-.2-.2-.2h-.1c-.2.3-.2.3-.9.3h-5c-.5 0-.8 0-.8-.3h-.4c-.1.5-.3 1.2-.5 1.8.1.1.3.2.4.1.1-.3.2-.5.5-.8.3-.2.9-.3 1.4-.3h.7c.3 0 .3 0 .3.3v5.4c0 1.3-.1 1.4-.7 1.4h-.4c-.1 0-.1.1-.1.2s0 .2.1.2h3.3c.1 0 .1-.2.1-.2 0-.1 0-.2-.1-.2l-.4-.1c-.6-.1-.6-.1-.6-1.4V2.7h1.1c.6 0 1.1.1 1.3.3.1.1.2.4.3.8 0 .1.1.1.2.1s.2 0 .2-.1c.1-.4.2-1.3.3-1.8m4.9 15.3c-.5-.1-2-.4-3.7-.4-4.3 0-7.2 1.4-9.1 3.4-1.8 1.9-2.6 4.4-2.6 6.8 0 2.5.9 4.8 2.6 6.5 2.2 2.2 5.3 3.2 8.8 3.2 1.6 0 3.6-.3 5.1-.7.5-.1 1.1-.3 1.4-.3.1-.1.1-.3 0-.3-.5-.2-.7-.9-.7-2v-1.6c0-1.5 0-2.3 1.2-2.4l.5-.1c.2-.2.2-.6 0-.7-.9.1-1.9.1-3 .1-1.7 0-3.3 0-4.1-.1-.2.1-.2.6 0 .7l1.3.1c1.8.2 1.9.4 1.9 2.8v1.2c0 .9-.1 1.4-.3 1.6-.3.5-1.4.9-3.2.9-5.8 0-8.6-4.3-8.6-9.9 0-4.3 2.4-8.3 8-8.3 2.9 0 5.1 1 5.9 4.1.2.2.7.1.8-.1-.3-1.7-.4-3.2-.4-4.2-.4 0-1.3-.2-1.8-.3m4.2-14.7c.1-.1.1-.1.1-.2s-.1-.2-.1-.2h-2.3c-.1 0-.1.1-.1.2s0 .2.1.3h.2c.2 0 .4.1.4.1 0 .2-.5.9-.7 1.4l-.1.1c-.3.6-.6 1.2-1 1.9l-.9-1.8c-.1-.2-.2-.5-.4-.7-.1-.2-.4-.8-.4-.9 0 0 .1-.1.4-.1h.2c.1-.1.1-.2.1-.3 0-.1-.1-.1-.1-.2h-2.7c-.1 0-.1.1-.1.2s0 .2.1.3l.4.1c.3.1.5.1.9.9l1.4 2.8c.3.7.4.8.4 1.4v.6c0 1.3 0 1.4-.6 1.4h-.4c-.1.1-.1.2-.1.3 0 .1.1.2.1.2h3.2c.1 0 .1-.1.1-.2s0-.2-.1-.3h-.5c-.6 0-.6-.1-.6-1.4v-.8c0-.9 0-1 .6-1.9l.8-1.3c.1-.1.1-.2.2-.3.5-.8.8-1.4 1.3-1.5l.2-.1zm6.4 23.5c0-6.3 3.9-8.3 6.9-8.3 5.5 0 7.6 5.1 7.6 9.9 0 5.7-3.3 8.3-6.7 8.3-5.8-.2-7.8-5.7-7.8-9.9m-2.9.9c0 5.2 3.9 9.7 10.2 9.7 5.5 0 10-4.2 10-10 0-5.1-3.3-9.9-10-9.9-5.9 0-10.2 4.4-10.2 10.2M168 6.6c0 2.5-1.5 3.3-2.7 3.3-2.5 0-3.1-2.5-3.1-4 0-2.5 1.5-3.4 2.8-3.4 2.2 0 3 2.2 3 4.1m1.4-.4c0-2-1.3-4.2-4.2-4.2-2.5 0-4.4 1.9-4.4 4.3 0 2.1 1.5 4.2 4.4 4.2 2.3 0 4.2-1.9 4.2-4.3m8-2.3V2.1h-5.3c-.1 0-.1.2-.1.2 0 .1 0 .2.1.2h.2c.6.1.6.1.6 1.4v4.3c0 1.3 0 1.3-.6 1.4h-.3c-.1.1-.1.2-.1.3 0 .1.1.2.1.2h3.1c.1 0 .1-.1.1-.2s0-.2-.1-.2l-.4-.1c-.6-.1-.6-.1-.6-1.4V6.7c0-.2 0-.2.3-.2h.8c.4 0 .7 0 .9.1.2.1.3.2.3.4l.1.5c.1.1.4.1.4 0V5.1c-.1-.1-.2-.1-.2-.1-.1 0-.2 0-.2.1l-.1.5c-.1.3-.1.3-.2.4-.1 0-.5.1-1 .1h-.8c-.3 0-.3 0-.3-.2V3.1c0-.4 0-.4.3-.4h.7c.5 0 .9 0 1.1.1.5.1.7.5.8 1.1 0 0 .1.1.2.1 0 0 .2 0 .2-.1" fill="#fff"/></svg>