<?xml version="1.0" encoding="UTF-8"?>
<svg width="400px" height="37px" viewBox="0 0 400 37" version="1.1" xmlns="http://www.w3.org/2000/svg" xmlns:xlink="http://www.w3.org/1999/xlink">
    <!-- Generator: Sketch 49.3 (51167) - http://www.bohemiancoding.com/sketch -->
    <title>uchicago</title>
    <desc>Created with Sketch.</desc>
    <defs>
        <polygon id="path-1" points="0.06 0.402666667 393.841 0.402666667 393.841 36.2692213 0.06 36.2692213"></polygon>
    </defs>
    <g id="Symbols" stroke="none" stroke-width="1" fill="none" fill-rule="evenodd">
        <g id="footer" transform="translate(-928.000000, -32.000000)">
            <g id="uchicago">
                <g transform="translate(928.000000, 32.000000)">
                    <polygon id="Fill-1" fill="#FFFFFE" fill-rule="evenodd" points="186.391 36.94 187.514 36.94 187.514 0.133 186.391 0.133"></polygon>
                    <path d="M198.626,14.304 C200.125,14.304 201.136,13.292 201.136,11.817 L201.136,11.794 C201.136,10.318 200.125,9.283 198.626,9.283 L197.21,9.283 L197.21,14.304 L198.626,14.304 Z M195.378,7.63 L198.626,7.63 C201.243,7.63 203.051,9.426 203.051,11.769 L203.051,11.794 C203.051,14.137 201.243,15.957 198.626,15.957 L195.378,15.957 L195.378,7.63 Z" id="Fill-3" fill="#FFFFFE" fill-rule="evenodd"></path>
                    <path d="M204.56,15.957 L206.367,15.957 L206.367,9.58 L204.56,9.58 L204.56,15.957 Z M204.512,8.878 L206.415,8.878 L206.415,7.273 L204.512,7.273 L204.512,8.878 Z" id="Fill-4" fill="#FFFFFE" fill-rule="evenodd"></path>
                    <polyline id="Fill-5" fill="#FFFFFE" fill-rule="evenodd" points="207.342 9.58 209.257 9.58 210.685 13.852 212.124 9.58 214.004 9.58 211.494 16.005 209.852 16.005 207.342 9.58"></polyline>
                    <path d="M214.989,15.957 L216.797,15.957 L216.797,9.58 L214.989,9.58 L214.989,15.957 Z M214.941,8.878 L216.845,8.878 L216.845,7.273 L214.941,7.273 L214.941,8.878 Z" id="Fill-6" fill="#FFFFFE" fill-rule="evenodd"></path>
                    <path d="M217.95,15.112 L218.723,13.923 C219.413,14.423 220.139,14.685 220.733,14.685 C221.257,14.685 221.494,14.494 221.494,14.209 L221.494,14.185 C221.494,13.792 220.877,13.661 220.174,13.447 C219.282,13.185 218.271,12.769 218.271,11.531 L218.271,11.508 C218.271,10.212 219.318,9.485 220.603,9.485 C221.412,9.485 222.292,9.759 222.982,10.223 L222.292,11.473 C221.662,11.104 221.031,10.877 220.566,10.877 C220.127,10.877 219.9,11.067 219.9,11.317 L219.9,11.341 C219.9,11.698 220.508,11.864 221.197,12.103 C222.09,12.4 223.125,12.828 223.125,13.994 L223.125,14.018 C223.125,15.434 222.066,16.076 220.686,16.076 C219.794,16.076 218.795,15.778 217.95,15.112" id="Fill-7" fill="#FFFFFE" fill-rule="evenodd"></path>
                    <path d="M224.467,15.957 L226.275,15.957 L226.275,9.58 L224.467,9.58 L224.467,15.957 Z M224.42,8.878 L226.322,8.878 L226.322,7.273 L224.42,7.273 L224.42,8.878 Z" id="Fill-8" fill="#FFFFFE" fill-rule="evenodd"></path>
                    <path d="M232.674,12.805 L232.674,12.78 C232.674,11.841 231.996,11.019 230.997,11.019 C229.962,11.019 229.344,11.817 229.344,12.757 L229.344,12.78 C229.344,13.721 230.021,14.541 231.02,14.541 C232.056,14.541 232.674,13.745 232.674,12.805 Z M227.559,12.805 L227.559,12.78 C227.559,10.949 229.034,9.462 231.02,9.462 C232.996,9.462 234.459,10.925 234.459,12.757 L234.459,12.78 C234.459,14.613 232.983,16.1 230.997,16.1 C229.021,16.1 227.559,14.637 227.559,12.805 Z" id="Fill-9" fill="#FFFFFE" fill-rule="evenodd"></path>
                    <path d="M235.741,9.58 L237.549,9.58 L237.549,10.485 C237.965,9.949 238.501,9.462 239.417,9.462 C240.785,9.462 241.582,10.365 241.582,11.829 L241.582,15.957 L239.773,15.957 L239.773,12.4 C239.773,11.544 239.369,11.104 238.68,11.104 C237.99,11.104 237.549,11.544 237.549,12.4 L237.549,15.957 L235.741,15.957 L235.741,9.58" id="Fill-10" fill="#FFFFFE" fill-rule="evenodd"></path>
                    <path d="M251.429,12.805 L251.429,12.78 C251.429,11.841 250.75,11.019 249.751,11.019 C248.716,11.019 248.098,11.817 248.098,12.757 L248.098,12.78 C248.098,13.721 248.775,14.541 249.774,14.541 C250.81,14.541 251.429,13.745 251.429,12.805 Z M246.313,12.805 L246.313,12.78 C246.313,10.949 247.788,9.462 249.774,9.462 C251.75,9.462 253.213,10.925 253.213,12.757 L253.213,12.78 C253.213,14.613 251.738,16.1 249.751,16.1 C247.776,16.1 246.313,14.637 246.313,12.805 Z" id="Fill-11" fill="#FFFFFE" fill-rule="evenodd"></path>
                    <path d="M254.722,11.127 L253.972,11.127 L253.972,9.641 L254.722,9.641 L254.722,9.236 C254.722,8.534 254.899,8.022 255.232,7.689 C255.565,7.356 256.054,7.189 256.696,7.189 C257.267,7.189 257.647,7.261 257.981,7.368 L257.981,8.867 C257.719,8.772 257.469,8.713 257.16,8.713 C256.743,8.713 256.506,8.926 256.506,9.402 L256.506,9.652 L257.969,9.652 L257.969,11.127 L256.529,11.127 L256.529,15.957 L254.722,15.957 L254.722,11.127" id="Fill-12" fill="#FFFFFE" fill-rule="evenodd"></path>
                    <path d="M262.725,14.148 L262.725,11.127 L261.964,11.127 L261.964,9.58 L262.725,9.58 L262.725,7.951 L264.532,7.951 L264.532,9.58 L266.032,9.58 L266.032,11.127 L264.532,11.127 L264.532,13.852 C264.532,14.268 264.711,14.47 265.116,14.47 C265.449,14.47 265.746,14.387 266.008,14.244 L266.008,15.695 C265.627,15.922 265.187,16.064 264.58,16.064 C263.474,16.064 262.725,15.624 262.725,14.148" id="Fill-13" fill="#FFFFFE" fill-rule="evenodd"></path>
                    <path d="M267.41,7.273 L269.218,7.273 L269.218,10.485 C269.635,9.949 270.17,9.462 271.086,9.462 C272.454,9.462 273.251,10.365 273.251,11.829 L273.251,15.957 L271.442,15.957 L271.442,12.4 C271.442,11.544 271.038,11.104 270.349,11.104 C269.658,11.104 269.218,11.544 269.218,12.4 L269.218,15.957 L267.41,15.957 L267.41,7.273" id="Fill-14" fill="#FFFFFE" fill-rule="evenodd"></path>
                    <path d="M279.007,12.27 C278.899,11.461 278.424,10.913 277.663,10.913 C276.913,10.913 276.425,11.448 276.282,12.27 L279.007,12.27 Z M274.511,12.805 L274.511,12.78 C274.511,10.961 275.807,9.462 277.663,9.462 C279.792,9.462 280.768,11.115 280.768,12.923 C280.768,13.066 280.755,13.233 280.743,13.399 L276.307,13.399 C276.484,14.22 277.056,14.648 277.864,14.648 C278.472,14.648 278.911,14.458 279.411,13.994 L280.446,14.91 C279.852,15.648 278.994,16.1 277.841,16.1 C275.926,16.1 274.511,14.756 274.511,12.805 Z" id="Fill-15" fill="#FFFFFE" fill-rule="evenodd"></path>
                    <path d="M289.733,14.352 C290.543,14.352 291.03,14.065 291.03,13.447 L291.03,13.423 C291.03,12.864 290.613,12.519 289.674,12.519 L287.557,12.519 L287.557,14.352 L289.733,14.352 Z M289.246,10.997 C290.055,10.997 290.565,10.734 290.565,10.116 L290.565,10.092 C290.565,9.545 290.138,9.236 289.364,9.236 L287.557,9.236 L287.557,10.997 L289.246,10.997 Z M285.771,7.63 L289.638,7.63 C290.591,7.63 291.34,7.892 291.815,8.367 C292.195,8.748 292.387,9.212 292.387,9.783 L292.387,9.807 C292.387,10.746 291.887,11.271 291.292,11.604 C292.255,11.972 292.85,12.531 292.85,13.649 L292.85,13.673 C292.85,15.196 291.613,15.957 289.733,15.957 L285.771,15.957 L285.771,7.63 Z" id="Fill-16" fill="#FFFFFE" fill-rule="evenodd"></path>
                    <path d="M294.287,15.957 L296.096,15.957 L296.096,9.58 L294.287,9.58 L294.287,15.957 Z M294.239,8.878 L296.144,8.878 L296.144,7.273 L294.239,7.273 L294.239,8.878 Z" id="Fill-17" fill="#FFFFFE" fill-rule="evenodd"></path>
                    <path d="M302.494,12.805 L302.494,12.78 C302.494,11.841 301.815,11.019 300.817,11.019 C299.781,11.019 299.163,11.817 299.163,12.757 L299.163,12.78 C299.163,13.721 299.842,14.541 300.84,14.541 C301.875,14.541 302.494,13.745 302.494,12.805 Z M297.379,12.805 L297.379,12.78 C297.379,10.949 298.854,9.462 300.84,9.462 C302.815,9.462 304.278,10.925 304.278,12.757 L304.278,12.78 C304.278,14.613 302.803,16.1 300.817,16.1 C298.842,16.1 297.379,14.637 297.379,12.805 Z" id="Fill-18" fill="#FFFFFE" fill-rule="evenodd"></path>
                    <polygon id="Fill-19" fill="#FFFFFE" fill-rule="evenodd" points="305.62 15.957 307.429 15.957 307.429 7.273 305.62 7.273"></polygon>
                    <path d="M313.863,12.805 L313.863,12.78 C313.863,11.841 313.186,11.019 312.186,11.019 C311.15,11.019 310.532,11.817 310.532,12.757 L310.532,12.78 C310.532,13.721 311.21,14.541 312.21,14.541 C313.244,14.541 313.863,13.745 313.863,12.805 Z M308.747,12.805 L308.747,12.78 C308.747,10.949 310.223,9.462 312.21,9.462 C314.184,9.462 315.647,10.925 315.647,12.757 L315.647,12.78 C315.647,14.613 314.173,16.1 312.186,16.1 C310.211,16.1 308.747,14.637 308.747,12.805 Z" id="Fill-20" fill="#FFFFFE" fill-rule="evenodd"></path>
                    <path d="M321.498,12.459 L321.498,12.436 C321.498,11.567 320.82,10.961 319.94,10.961 C319.06,10.961 318.394,11.567 318.394,12.436 L318.394,12.459 C318.394,13.34 319.06,13.935 319.94,13.935 C320.82,13.935 321.498,13.328 321.498,12.459 Z M316.906,17.218 L317.524,15.862 C318.179,16.23 318.833,16.445 319.678,16.445 C320.915,16.445 321.498,15.851 321.498,14.708 L321.498,14.398 C320.963,15.041 320.38,15.434 319.416,15.434 C317.93,15.434 316.585,14.352 316.585,12.459 L316.585,12.436 C316.585,10.533 317.953,9.462 319.416,9.462 C320.403,9.462 320.986,9.878 321.475,10.413 L321.475,9.58 L323.283,9.58 L323.283,14.518 C323.283,15.66 323.009,16.493 322.474,17.027 C321.879,17.623 320.963,17.885 319.726,17.885 C318.69,17.885 317.715,17.646 316.906,17.218 Z" id="Fill-21" fill="#FFFFFE" fill-rule="evenodd"></path>
                    <path d="M324.957,15.957 L326.765,15.957 L326.765,9.58 L324.957,9.58 L324.957,15.957 Z M324.909,8.878 L326.813,8.878 L326.813,7.273 L324.909,7.273 L324.909,8.878 Z" id="Fill-22" fill="#FFFFFE" fill-rule="evenodd"></path>
                    <path d="M328.072,12.805 L328.072,12.78 C328.072,10.961 329.465,9.462 331.415,9.462 C332.617,9.462 333.366,9.866 333.961,10.533 L332.854,11.722 C332.45,11.294 332.046,11.019 331.403,11.019 C330.499,11.019 329.856,11.817 329.856,12.757 L329.856,12.78 C329.856,13.756 330.487,14.541 331.476,14.541 C332.082,14.541 332.498,14.279 332.938,13.863 L333.997,14.934 C333.379,15.612 332.664,16.1 331.392,16.1 C329.477,16.1 328.072,14.625 328.072,12.805" id="Fill-23" fill="#FFFFFE" fill-rule="evenodd"></path>
                    <path d="M338.92,13.709 L338.92,13.388 C338.61,13.244 338.206,13.149 337.766,13.149 C336.993,13.149 336.517,13.459 336.517,14.03 L336.517,14.054 C336.517,14.541 336.921,14.827 337.504,14.827 C338.349,14.827 338.92,14.362 338.92,13.709 Z M334.769,14.125 L334.769,14.102 C334.769,12.71 335.827,12.067 337.338,12.067 C337.98,12.067 338.444,12.174 338.896,12.329 L338.896,12.222 C338.896,11.473 338.432,11.056 337.528,11.056 C336.838,11.056 336.351,11.188 335.767,11.4 L335.315,10.021 C336.018,9.711 336.707,9.51 337.79,9.51 C338.777,9.51 339.49,9.771 339.942,10.223 C340.419,10.699 340.633,11.4 340.633,12.258 L340.633,15.957 L338.884,15.957 L338.884,15.268 C338.444,15.755 337.838,16.076 336.957,16.076 C335.756,16.076 334.769,15.387 334.769,14.125 Z" id="Fill-24" fill="#FFFFFE" fill-rule="evenodd"></path>
                    <polygon id="Fill-25" fill="#FFFFFE" fill-rule="evenodd" points="342.261 15.957 344.069 15.957 344.069 7.273 342.261 7.273"></polygon>
                    <path d="M348.861,14.743 L349.943,13.447 C350.692,14.065 351.478,14.458 352.43,14.458 C353.18,14.458 353.631,14.161 353.631,13.673 L353.631,13.649 C353.631,13.185 353.346,12.947 351.954,12.591 C350.276,12.162 349.194,11.698 349.194,10.045 L349.194,10.021 C349.194,8.51 350.407,7.511 352.108,7.511 C353.322,7.511 354.357,7.892 355.201,8.569 L354.25,9.949 C353.513,9.437 352.786,9.129 352.085,9.129 C351.383,9.129 351.015,9.45 351.015,9.854 L351.015,9.878 C351.015,10.426 351.371,10.604 352.811,10.973 C354.5,11.413 355.451,12.019 355.451,13.471 L355.451,13.494 C355.451,15.148 354.19,16.076 352.395,16.076 C351.133,16.076 349.86,15.636 348.861,14.743" id="Fill-26" fill="#FFFFFE" fill-rule="evenodd"></path>
                    <path d="M356.472,12.805 L356.472,12.78 C356.472,10.961 357.864,9.462 359.815,9.462 C361.017,9.462 361.766,9.866 362.361,10.533 L361.255,11.722 C360.85,11.294 360.445,11.019 359.804,11.019 C358.899,11.019 358.257,11.817 358.257,12.757 L358.257,12.78 C358.257,13.756 358.887,14.541 359.875,14.541 C360.481,14.541 360.897,14.279 361.338,13.863 L362.396,14.934 C361.778,15.612 361.064,16.1 359.791,16.1 C357.876,16.1 356.472,14.625 356.472,12.805" id="Fill-27" fill="#FFFFFE" fill-rule="evenodd"></path>
                    <path d="M363.501,15.957 L365.309,15.957 L365.309,9.58 L363.501,9.58 L363.501,15.957 Z M363.453,8.878 L365.356,8.878 L365.356,7.273 L363.453,7.273 L363.453,8.878 Z" id="Fill-28" fill="#FFFFFE" fill-rule="evenodd"></path>
                    <path d="M371.113,12.27 C371.006,11.461 370.53,10.913 369.769,10.913 C369.02,10.913 368.532,11.448 368.39,12.27 L371.113,12.27 Z M366.616,12.805 L366.616,12.78 C366.616,10.961 367.913,9.462 369.769,9.462 C371.898,9.462 372.873,11.115 372.873,12.923 C372.873,13.066 372.862,13.233 372.851,13.399 L368.412,13.399 C368.591,14.22 369.162,14.648 369.972,14.648 C370.578,14.648 371.018,14.458 371.518,13.994 L372.553,14.91 C371.958,15.648 371.101,16.1 369.947,16.1 C368.032,16.1 366.616,14.756 366.616,12.805 Z" id="Fill-29" fill="#FFFFFE" fill-rule="evenodd"></path>
                    <path d="M374.18,9.58 L375.988,9.58 L375.988,10.485 C376.404,9.949 376.939,9.462 377.855,9.462 C379.224,9.462 380.021,10.365 380.021,11.829 L380.021,15.957 L378.213,15.957 L378.213,12.4 C378.213,11.544 377.808,11.104 377.118,11.104 C376.428,11.104 375.988,11.544 375.988,12.4 L375.988,15.957 L374.18,15.957 L374.18,9.58" id="Fill-30" fill="#FFFFFE" fill-rule="evenodd"></path>
                    <path d="M381.256,12.805 L381.256,12.78 C381.256,10.961 382.647,9.462 384.599,9.462 C385.8,9.462 386.55,9.866 387.145,10.533 L386.038,11.722 C385.633,11.294 385.229,11.019 384.587,11.019 C383.683,11.019 383.04,11.817 383.04,12.757 L383.04,12.78 C383.04,13.756 383.671,14.541 384.657,14.541 C385.265,14.541 385.681,14.279 386.121,13.863 L387.18,14.934 C386.562,15.612 385.848,16.1 384.574,16.1 C382.659,16.1 381.256,14.625 381.256,12.805" id="Fill-31" fill="#FFFFFE" fill-rule="evenodd"></path>
                    <path d="M392.317,12.27 C392.211,11.461 391.734,10.913 390.973,10.913 C390.224,10.913 389.736,11.448 389.594,12.27 L392.317,12.27 Z M387.82,12.805 L387.82,12.78 C387.82,10.961 389.117,9.462 390.973,9.462 C393.103,9.462 394.078,11.115 394.078,12.923 C394.078,13.066 394.066,13.233 394.055,13.399 L389.617,13.399 C389.796,14.22 390.366,14.648 391.176,14.648 C391.782,14.648 392.222,14.458 392.722,13.994 L393.757,14.91 C393.162,15.648 392.306,16.1 391.151,16.1 C389.236,16.1 387.82,14.756 387.82,12.805 Z" id="Fill-32" fill="#FFFFFE" fill-rule="evenodd"></path>
                    <path d="M394.825,15.112 L395.599,13.923 C396.288,14.423 397.015,14.685 397.609,14.685 C398.132,14.685 398.37,14.494 398.37,14.209 L398.37,14.185 C398.37,13.792 397.752,13.661 397.05,13.447 C396.157,13.185 395.146,12.769 395.146,11.531 L395.146,11.508 C395.146,10.212 396.193,9.485 397.479,9.485 C398.287,9.485 399.167,9.759 399.857,10.223 L399.167,11.473 C398.537,11.104 397.906,10.877 397.442,10.877 C397.002,10.877 396.776,11.067 396.776,11.317 L396.776,11.341 C396.776,11.698 397.383,11.864 398.073,12.103 C398.966,12.4 400,12.828 400,13.994 L400,14.018 C400,15.434 398.941,16.076 397.562,16.076 C396.669,16.076 395.67,15.778 394.825,15.112" id="Fill-33" fill="#FFFFFE" fill-rule="evenodd"></path>
                    <path d="M195.009,25.363 L195.009,25.34 C195.009,22.972 196.794,21.033 199.352,21.033 C200.922,21.033 201.861,21.557 202.635,22.317 L201.469,23.662 C200.827,23.079 200.172,22.723 199.34,22.723 C197.936,22.723 196.925,23.888 196.925,25.315 L196.925,25.34 C196.925,26.767 197.912,27.956 199.34,27.956 C200.292,27.956 200.875,27.576 201.529,26.98 L202.694,28.159 C201.838,29.074 200.886,29.645 199.28,29.645 C196.83,29.645 195.009,27.755 195.009,25.363" id="Fill-34" fill="#FFFFFE" fill-rule="evenodd"></path>
                    <path d="M207.961,25.815 C207.854,25.007 207.379,24.459 206.617,24.459 C205.867,24.459 205.381,24.994 205.237,25.815 L207.961,25.815 Z M203.465,26.351 L203.465,26.326 C203.465,24.507 204.762,23.008 206.617,23.008 C208.746,23.008 209.723,24.661 209.723,26.469 C209.723,26.612 209.711,26.779 209.698,26.945 L205.262,26.945 C205.439,27.766 206.011,28.194 206.819,28.194 C207.426,28.194 207.867,28.004 208.366,27.54 L209.4,28.456 C208.807,29.194 207.949,29.645 206.796,29.645 C204.881,29.645 203.465,28.302 203.465,26.351 Z" id="Fill-35" fill="#FFFFFE" fill-rule="evenodd"></path>
                    <path d="M211.029,23.126 L212.837,23.126 L212.837,24.031 C213.253,23.495 213.789,23.008 214.705,23.008 C216.072,23.008 216.869,23.911 216.869,25.375 L216.869,29.503 L215.062,29.503 L215.062,25.946 C215.062,25.09 214.656,24.649 213.967,24.649 C213.277,24.649 212.837,25.09 212.837,25.946 L212.837,29.503 L211.029,29.503 L211.029,23.126" id="Fill-36" fill="#FFFFFE" fill-rule="evenodd"></path>
                    <path d="M218.688,27.694 L218.688,24.673 L217.926,24.673 L217.926,23.126 L218.688,23.126 L218.688,21.497 L220.495,21.497 L220.495,23.126 L221.994,23.126 L221.994,24.673 L220.495,24.673 L220.495,27.397 C220.495,27.814 220.674,28.016 221.078,28.016 C221.412,28.016 221.709,27.933 221.971,27.79 L221.971,29.241 C221.59,29.468 221.149,29.61 220.543,29.61 C219.437,29.61 218.688,29.17 218.688,27.694" id="Fill-37" fill="#FFFFFE" fill-rule="evenodd"></path>
                    <path d="M227.418,25.815 C227.311,25.007 226.836,24.459 226.074,24.459 C225.324,24.459 224.836,24.994 224.693,25.815 L227.418,25.815 Z M222.921,26.351 L222.921,26.326 C222.921,24.507 224.218,23.008 226.074,23.008 C228.203,23.008 229.179,24.661 229.179,26.469 C229.179,26.612 229.166,26.779 229.154,26.945 L224.717,26.945 C224.896,27.766 225.467,28.194 226.275,28.194 C226.883,28.194 227.322,28.004 227.822,27.54 L228.857,28.456 C228.263,29.194 227.406,29.645 226.252,29.645 C224.337,29.645 222.921,28.302 222.921,26.351 Z" id="Fill-38" fill="#FFFFFE" fill-rule="evenodd"></path>
                    <path d="M230.484,23.126 L232.293,23.126 L232.293,24.411 C232.662,23.531 233.256,22.96 234.328,23.008 L234.328,24.899 L234.232,24.899 C233.031,24.899 232.293,25.625 232.293,27.147 L232.293,29.503 L230.484,29.503 L230.484,23.126" id="Fill-39" fill="#FFFFFE" fill-rule="evenodd"></path>
                    <path d="M239.238,24.673 L238.488,24.673 L238.488,23.186 L239.238,23.186 L239.238,22.782 C239.238,22.08 239.416,21.568 239.749,21.235 C240.082,20.902 240.57,20.735 241.213,20.735 C241.783,20.735 242.164,20.807 242.497,20.914 L242.497,22.413 C242.235,22.317 241.985,22.259 241.677,22.259 C241.26,22.259 241.022,22.472 241.022,22.948 L241.022,23.198 L242.485,23.198 L242.485,24.673 L241.046,24.673 L241.046,29.503 L239.238,29.503 L239.238,24.673" id="Fill-40" fill="#FFFFFE" fill-rule="evenodd"></path>
                    <path d="M248.194,26.351 L248.194,26.326 C248.194,25.387 247.516,24.565 246.517,24.565 C245.481,24.565 244.862,25.363 244.862,26.303 L244.862,26.326 C244.862,27.267 245.541,28.087 246.54,28.087 C247.575,28.087 248.194,27.29 248.194,26.351 Z M243.078,26.351 L243.078,26.326 C243.078,24.495 244.554,23.008 246.54,23.008 C248.516,23.008 249.978,24.471 249.978,26.303 L249.978,26.326 C249.978,28.159 248.503,29.645 246.517,29.645 C244.541,29.645 243.078,28.183 243.078,26.351 Z" id="Fill-41" fill="#FFFFFE" fill-rule="evenodd"></path>
                    <path d="M251.261,23.126 L253.069,23.126 L253.069,24.411 C253.438,23.531 254.032,22.96 255.104,23.008 L255.104,24.899 L255.008,24.899 C253.807,24.899 253.069,25.625 253.069,27.147 L253.069,29.503 L251.261,29.503 L251.261,23.126" id="Fill-42" fill="#FFFFFE" fill-rule="evenodd"></path>
                    <path d="M263.13,27.85 C264.63,27.85 265.641,26.838 265.641,25.363 L265.641,25.34 C265.641,23.864 264.63,22.829 263.13,22.829 L261.714,22.829 L261.714,27.85 L263.13,27.85 Z M259.883,21.176 L263.13,21.176 C265.748,21.176 267.556,22.972 267.556,25.315 L267.556,25.34 C267.556,27.683 265.748,29.503 263.13,29.503 L259.883,29.503 L259.883,21.176 Z" id="Fill-43" fill="#FFFFFE" fill-rule="evenodd"></path>
                    <path d="M272.668,27.255 L272.668,26.933 C272.359,26.79 271.954,26.695 271.514,26.695 C270.741,26.695 270.265,27.005 270.265,27.576 L270.265,27.6 C270.265,28.087 270.67,28.372 271.253,28.372 C272.097,28.372 272.668,27.908 272.668,27.255 Z M268.517,27.671 L268.517,27.647 C268.517,26.256 269.575,25.613 271.086,25.613 C271.729,25.613 272.192,25.72 272.645,25.875 L272.645,25.768 C272.645,25.019 272.181,24.602 271.276,24.602 C270.586,24.602 270.099,24.733 269.516,24.946 L269.063,23.567 C269.766,23.257 270.456,23.056 271.538,23.056 C272.525,23.056 273.239,23.317 273.69,23.768 C274.167,24.245 274.381,24.946 274.381,25.804 L274.381,29.503 L272.633,29.503 L272.633,28.814 C272.192,29.301 271.586,29.622 270.705,29.622 C269.503,29.622 268.517,28.932 268.517,27.671 Z" id="Fill-44" fill="#FFFFFE" fill-rule="evenodd"></path>
                    <path d="M276.163,27.694 L276.163,24.673 L275.402,24.673 L275.402,23.126 L276.163,23.126 L276.163,21.497 L277.972,21.497 L277.972,23.126 L279.471,23.126 L279.471,24.673 L277.972,24.673 L277.972,27.397 C277.972,27.814 278.15,28.016 278.555,28.016 C278.888,28.016 279.186,27.933 279.447,27.79 L279.447,29.241 C279.066,29.468 278.626,29.61 278.02,29.61 C276.913,29.61 276.163,29.17 276.163,27.694" id="Fill-45" fill="#FFFFFE" fill-rule="evenodd"></path>
                    <path d="M284.537,27.255 L284.537,26.933 C284.228,26.79 283.823,26.695 283.384,26.695 C282.609,26.695 282.134,27.005 282.134,27.576 L282.134,27.6 C282.134,28.087 282.538,28.372 283.121,28.372 C283.966,28.372 284.537,27.908 284.537,27.255 Z M280.385,27.671 L280.385,27.647 C280.385,26.256 281.443,25.613 282.955,25.613 C283.598,25.613 284.061,25.72 284.513,25.875 L284.513,25.768 C284.513,25.019 284.049,24.602 283.146,24.602 C282.455,24.602 281.968,24.733 281.385,24.946 L280.933,23.567 C281.634,23.257 282.324,23.056 283.406,23.056 C284.394,23.056 285.108,23.317 285.561,23.768 C286.036,24.245 286.25,24.946 286.25,25.804 L286.25,29.503 L284.501,29.503 L284.501,28.814 C284.061,29.301 283.454,29.622 282.574,29.622 C281.373,29.622 280.385,28.932 280.385,27.671 Z" id="Fill-46" fill="#FFFFFE" fill-rule="evenodd"></path>
                    <polygon id="Fill-47" fill="#FFFFFE" fill-rule="evenodd" points="291.553 29.503 293.384 29.503 293.384 21.176 291.553 21.176"></polygon>
                    <path d="M295.239,23.126 L297.047,23.126 L297.047,24.031 C297.463,23.495 297.999,23.008 298.915,23.008 C300.283,23.008 301.08,23.911 301.08,25.375 L301.08,29.503 L299.271,29.503 L299.271,25.946 C299.271,25.09 298.867,24.649 298.178,24.649 C297.487,24.649 297.047,25.09 297.047,25.946 L297.047,29.503 L295.239,29.503 L295.239,23.126" id="Fill-48" fill="#FFFFFE" fill-rule="evenodd"></path>
                    <path d="M302.897,27.694 L302.897,24.673 L302.136,24.673 L302.136,23.126 L302.897,23.126 L302.897,21.497 L304.706,21.497 L304.706,23.126 L306.204,23.126 L306.204,24.673 L304.706,24.673 L304.706,27.397 C304.706,27.814 304.885,28.016 305.289,28.016 C305.622,28.016 305.919,27.933 306.181,27.79 L306.181,29.241 C305.8,29.468 305.36,29.61 304.754,29.61 C303.646,29.61 302.897,29.17 302.897,27.694" id="Fill-49" fill="#FFFFFE" fill-rule="evenodd"></path>
                    <path d="M311.616,25.815 C311.509,25.007 311.032,24.459 310.271,24.459 C309.522,24.459 309.034,24.994 308.892,25.815 L311.616,25.815 Z M307.119,26.351 L307.119,26.326 C307.119,24.507 308.416,23.008 310.271,23.008 C312.401,23.008 313.377,24.661 313.377,26.469 C313.377,26.612 313.364,26.779 313.353,26.945 L308.915,26.945 C309.094,27.766 309.665,28.194 310.474,28.194 C311.08,28.194 311.521,28.004 312.021,27.54 L313.056,28.456 C312.461,29.194 311.604,29.645 310.45,29.645 C308.534,29.645 307.119,28.302 307.119,26.351 Z" id="Fill-50" fill="#FFFFFE" fill-rule="evenodd"></path>
                    <path d="M314.684,23.126 L316.491,23.126 L316.491,24.031 C316.908,23.495 317.443,23.008 318.359,23.008 C319.727,23.008 320.524,23.911 320.524,25.375 L320.524,29.503 L318.716,29.503 L318.716,25.946 C318.716,25.09 318.312,24.649 317.622,24.649 C316.932,24.649 316.491,25.09 316.491,25.946 L316.491,29.503 L314.684,29.503 L314.684,23.126" id="Fill-51" fill="#FFFFFE" fill-rule="evenodd"></path>
                    <path d="M321.593,28.658 L322.366,27.469 C323.056,27.969 323.781,28.229 324.376,28.229 C324.899,28.229 325.138,28.04 325.138,27.755 L325.138,27.73 C325.138,27.338 324.519,27.207 323.817,26.993 C322.925,26.731 321.914,26.315 321.914,25.077 L321.914,25.054 C321.914,23.757 322.961,23.031 324.245,23.031 C325.055,23.031 325.935,23.305 326.624,23.768 L325.935,25.019 C325.304,24.649 324.674,24.423 324.21,24.423 C323.77,24.423 323.544,24.613 323.544,24.863 L323.544,24.887 C323.544,25.244 324.15,25.41 324.841,25.648 C325.732,25.946 326.768,26.374 326.768,27.54 L326.768,27.564 C326.768,28.979 325.709,29.622 324.329,29.622 C323.437,29.622 322.437,29.324 321.593,28.658" id="Fill-52" fill="#FFFFFE" fill-rule="evenodd"></path>
                    <path d="M328.109,29.503 L329.918,29.503 L329.918,23.126 L328.109,23.126 L328.109,29.503 Z M328.062,22.425 L329.965,22.425 L329.965,20.819 L328.062,20.819 L328.062,22.425 Z" id="Fill-53" fill="#FFFFFE" fill-rule="evenodd"></path>
                    <polyline id="Fill-54" fill="#FFFFFE" fill-rule="evenodd" points="330.893 23.126 332.808 23.126 334.235 27.397 335.675 23.126 337.555 23.126 335.044 29.551 333.402 29.551 330.893 23.126"></polyline>
                    <path d="M342.43,25.815 C342.322,25.007 341.847,24.459 341.085,24.459 C340.336,24.459 339.848,24.994 339.705,25.815 L342.43,25.815 Z M337.933,26.351 L337.933,26.326 C337.933,24.507 339.229,23.008 341.085,23.008 C343.215,23.008 344.189,24.661 344.189,26.469 C344.189,26.612 344.178,26.779 344.167,26.945 L339.729,26.945 C339.907,27.766 340.479,28.194 341.287,28.194 C341.894,28.194 342.334,28.004 342.834,27.54 L343.869,28.456 C343.274,29.194 342.417,29.645 341.264,29.645 C339.348,29.645 337.933,28.302 337.933,26.351 Z" id="Fill-55" fill="#FFFFFE" fill-rule="evenodd"></path>
                    <path d="M348.624,28.289 L349.706,26.993 C350.455,27.611 351.24,28.004 352.192,28.004 C352.942,28.004 353.394,27.707 353.394,27.219 L353.394,27.195 C353.394,26.731 353.108,26.493 351.717,26.136 C350.039,25.708 348.956,25.244 348.956,23.591 L348.956,23.567 C348.956,22.056 350.17,21.057 351.871,21.057 C353.085,21.057 354.12,21.438 354.964,22.115 L354.013,23.495 C353.275,22.983 352.549,22.675 351.847,22.675 C351.146,22.675 350.776,22.996 350.776,23.4 L350.776,23.424 C350.776,23.972 351.134,24.149 352.573,24.518 C354.263,24.959 355.214,25.565 355.214,27.017 L355.214,27.04 C355.214,28.694 353.953,29.622 352.157,29.622 C350.896,29.622 349.622,29.182 348.624,28.289" id="Fill-56" fill="#FFFFFE" fill-rule="evenodd"></path>
                    <path d="M356.234,26.351 L356.234,26.326 C356.234,24.507 357.627,23.008 359.577,23.008 C360.779,23.008 361.528,23.412 362.123,24.079 L361.017,25.268 C360.612,24.84 360.208,24.565 359.565,24.565 C358.662,24.565 358.02,25.363 358.02,26.303 L358.02,26.326 C358.02,27.302 358.649,28.087 359.638,28.087 C360.244,28.087 360.66,27.825 361.101,27.409 L362.159,28.48 C361.541,29.158 360.826,29.645 359.554,29.645 C357.639,29.645 356.234,28.171 356.234,26.351" id="Fill-57" fill="#FFFFFE" fill-rule="evenodd"></path>
                    <path d="M363.264,29.503 L365.071,29.503 L365.071,23.126 L363.264,23.126 L363.264,29.503 Z M363.216,22.425 L365.119,22.425 L365.119,20.819 L363.216,20.819 L363.216,22.425 Z" id="Fill-58" fill="#FFFFFE" fill-rule="evenodd"></path>
                    <path d="M370.876,25.815 C370.77,25.007 370.293,24.459 369.532,24.459 C368.783,24.459 368.295,24.994 368.152,25.815 L370.876,25.815 Z M366.379,26.351 L366.379,26.326 C366.379,24.507 367.676,23.008 369.532,23.008 C371.662,23.008 372.638,24.661 372.638,26.469 C372.638,26.612 372.625,26.779 372.613,26.945 L368.176,26.945 C368.354,27.766 368.926,28.194 369.734,28.194 C370.341,28.194 370.781,28.004 371.281,27.54 L372.316,28.456 C371.721,29.194 370.864,29.645 369.711,29.645 C367.795,29.645 366.379,28.302 366.379,26.351 Z" id="Fill-59" fill="#FFFFFE" fill-rule="evenodd"></path>
                    <path d="M373.943,23.126 L375.751,23.126 L375.751,24.031 C376.168,23.495 376.703,23.008 377.619,23.008 C378.987,23.008 379.784,23.911 379.784,25.375 L379.784,29.503 L377.976,29.503 L377.976,25.946 C377.976,25.09 377.571,24.649 376.882,24.649 C376.191,24.649 375.751,25.09 375.751,25.946 L375.751,29.503 L373.943,29.503 L373.943,23.126" id="Fill-60" fill="#FFFFFE" fill-rule="evenodd"></path>
                    <path d="M381.019,26.351 L381.019,26.326 C381.019,24.507 382.411,23.008 384.361,23.008 C385.563,23.008 386.313,23.412 386.907,24.079 L385.801,25.268 C385.396,24.84 384.992,24.565 384.35,24.565 C383.446,24.565 382.804,25.363 382.804,26.303 L382.804,26.326 C382.804,27.302 383.434,28.087 384.422,28.087 C385.028,28.087 385.444,27.825 385.884,27.409 L386.943,28.48 C386.325,29.158 385.61,29.645 384.338,29.645 C382.423,29.645 381.019,28.171 381.019,26.351" id="Fill-61" fill="#FFFFFE" fill-rule="evenodd"></path>
                    <mask id="mask-2" fill="white">
                        <use xlink:href="#path-1"></use>
                    </mask>
                    <g id="Clip-63"></g>
                    <path d="M392.08,25.815 C391.974,25.007 391.497,24.459 390.735,24.459 C389.986,24.459 389.499,24.994 389.356,25.815 L392.08,25.815 Z M387.583,26.351 L387.583,26.326 C387.583,24.507 388.88,23.008 390.735,23.008 C392.865,23.008 393.841,24.661 393.841,26.469 C393.841,26.612 393.829,26.779 393.817,26.945 L389.379,26.945 C389.558,27.766 390.129,28.194 390.938,28.194 C391.545,28.194 391.984,28.004 392.484,27.54 L393.52,28.456 C392.925,29.194 392.068,29.645 390.914,29.645 C388.999,29.645 387.583,28.302 387.583,26.351 Z" id="Fill-62" fill="#FFFFFE" fill-rule="evenodd" mask="url(#mask-2)"></path>
                    <path d="M177.4,2.932 L177.411,2.909 L177.41,2.885 C177.386,2.451 177.374,1.892 177.374,1.309 L177.374,1.193 L177.26,1.219 C177.116,1.252 176.378,1.252 175.664,1.252 L173.459,1.252 C173.009,1.252 172.608,1.242 172.076,1.217 L172.052,1.216 L172.03,1.227 C171.931,1.274 171.915,1.415 171.912,1.458 C171.905,1.562 171.936,1.645 171.996,1.685 L172.228,1.723 C172.835,1.797 172.865,1.863 172.865,3.143 L172.865,7.454 C172.865,8.721 172.835,8.787 172.228,8.859 L171.896,8.899 L171.874,8.922 C171.806,8.989 171.794,9.101 171.808,9.183 C171.822,9.271 171.863,9.34 171.92,9.369 L171.942,9.379 L171.966,9.378 C172.526,9.354 172.931,9.343 173.459,9.343 C173.943,9.343 174.358,9.355 175.05,9.378 L175.073,9.379 L175.094,9.369 C175.173,9.329 175.207,9.223 175.211,9.135 C175.218,9.032 175.188,8.95 175.127,8.911 L174.678,8.859 C174.067,8.809 174.031,8.729 174.031,7.454 L174.031,5.788 C174.031,5.557 174.031,5.557 174.334,5.557 L175.149,5.557 C175.569,5.557 175.883,5.567 176.043,5.613 C176.212,5.666 176.303,5.776 176.366,6.003 L176.492,6.499 L176.514,6.518 C176.633,6.619 176.887,6.614 176.963,6.499 L176.979,6.476 L176.979,6.448 C176.979,6.323 176.969,6.163 176.958,5.986 C176.945,5.769 176.931,5.522 176.931,5.286 C176.931,5.043 176.945,4.786 176.958,4.56 C176.968,4.374 176.979,4.205 176.979,4.076 L176.979,4.049 L176.963,4.025 C176.906,3.939 176.785,3.93 176.734,3.93 C176.636,3.93 176.549,3.962 176.503,4.017 L176.377,4.534 C176.31,4.825 176.229,4.854 176.138,4.887 C176.011,4.929 175.642,4.954 175.149,4.954 L174.334,4.954 C174.031,4.954 174.031,4.954 174.031,4.723 L174.031,2.194 C174.031,1.808 174.031,1.808 174.298,1.808 L175.029,1.808 C175.525,1.808 175.916,1.808 176.168,1.877 C176.682,2.011 176.835,2.354 176.939,2.941 L176.944,2.975 L176.969,2.995 C177.016,3.035 177.08,3.058 177.151,3.058 C177.243,3.058 177.356,3.019 177.4,2.932 Z M169.36,5.262 C169.36,3.238 168.03,1.061 165.11,1.061 C162.626,1.061 160.753,2.919 160.753,5.382 C160.753,7.445 162.25,9.534 165.11,9.534 C167.533,9.534 169.36,7.697 169.36,5.262 Z M167.978,5.633 C167.978,8.103 166.517,8.979 165.267,8.979 C162.795,8.979 162.136,6.477 162.136,4.998 C162.136,2.502 163.629,1.616 164.907,1.616 C167.173,1.616 167.978,3.78 167.978,5.633 Z M158.179,26.055 C158.179,31.23 162.031,35.801 168.414,35.801 C173.963,35.801 178.39,31.574 178.39,25.768 C178.39,20.708 175.054,15.906 168.414,15.906 C162.491,15.906 158.179,20.305 158.179,26.055 Z M161.054,25.136 C161.054,18.839 164.935,16.798 167.925,16.798 C173.416,16.798 175.515,21.915 175.515,26.659 C175.515,32.322 172.237,34.91 168.787,34.91 C163.124,34.91 161.054,29.39 161.054,25.136 Z M154.701,1.679 C154.763,1.625 154.795,1.538 154.788,1.447 C154.781,1.355 154.736,1.274 154.667,1.23 L154.642,1.215 L154.612,1.217 C153.761,1.267 153.259,1.267 152.358,1.217 L152.333,1.216 L152.312,1.227 C152.245,1.26 152.2,1.327 152.186,1.412 C152.169,1.508 152.2,1.608 152.264,1.673 L152.287,1.696 L152.534,1.723 C152.767,1.752 152.911,1.809 152.953,1.841 C152.916,2.013 152.496,2.789 152.243,3.261 L152.188,3.363 C151.899,3.921 151.566,4.521 151.145,5.244 C150.829,4.674 150.521,4.047 150.223,3.438 C150.106,3.2 149.989,2.963 149.873,2.729 C149.786,2.556 149.515,1.943 149.51,1.849 C149.51,1.824 149.565,1.776 149.935,1.723 L150.122,1.694 L150.143,1.673 C150.208,1.607 150.235,1.49 150.211,1.386 C150.191,1.305 150.14,1.244 150.069,1.221 L150.052,1.216 L150.034,1.217 C149.74,1.24 149.311,1.252 148.759,1.252 C148.205,1.252 147.765,1.241 147.376,1.217 L147.349,1.215 L147.325,1.229 C147.266,1.263 147.226,1.325 147.212,1.406 C147.195,1.502 147.221,1.603 147.277,1.668 L147.298,1.693 L147.667,1.759 C147.983,1.812 148.143,1.839 148.546,2.62 L149.959,5.376 C150.297,6.028 150.333,6.163 150.333,6.819 L150.333,7.43 C150.333,8.73 150.303,8.797 149.697,8.859 L149.292,8.899 L149.27,8.923 C149.201,8.99 149.191,9.103 149.205,9.185 C149.219,9.272 149.261,9.341 149.318,9.369 L149.339,9.379 L149.362,9.378 C150.008,9.354 150.428,9.343 150.928,9.343 C151.414,9.343 151.843,9.355 152.554,9.378 L152.577,9.379 L152.598,9.369 C152.656,9.34 152.698,9.272 152.711,9.184 C152.725,9.102 152.714,8.99 152.646,8.922 L152.622,8.898 L152.133,8.859 C151.579,8.818 151.499,8.727 151.499,7.43 L151.499,6.807 C151.499,5.909 151.525,5.82 152.05,4.912 L152.804,3.607 C152.873,3.489 152.938,3.375 153.001,3.265 C153.473,2.441 153.813,1.847 154.322,1.758 L154.683,1.694 L154.701,1.679 Z M150.503,16.338 C150.015,16.223 148.491,15.906 146.853,15.906 C142.511,15.906 139.665,17.257 137.739,19.27 C135.956,21.167 135.151,23.64 135.151,26.084 C135.151,28.614 136.071,30.885 137.796,32.609 C140.01,34.852 143.144,35.801 146.564,35.801 C148.117,35.801 150.186,35.456 151.711,35.054 C152.257,34.91 152.775,34.794 153.119,34.794 C153.235,34.709 153.235,34.536 153.149,34.45 C152.631,34.249 152.458,33.559 152.458,32.409 L152.458,30.799 C152.458,29.333 152.488,28.527 153.694,28.384 L154.155,28.325 C154.355,28.154 154.327,27.723 154.126,27.607 C153.177,27.664 152.2,27.693 151.078,27.693 C149.382,27.693 147.801,27.664 146.968,27.607 C146.766,27.693 146.737,28.211 146.968,28.325 L148.232,28.47 C150.015,28.671 150.101,28.844 150.101,31.259 L150.101,32.409 C150.101,33.328 149.957,33.847 149.813,34.047 C149.497,34.536 148.434,34.91 146.65,34.91 C140.872,34.91 138.025,30.568 138.025,25.049 C138.025,20.736 140.47,16.768 146.047,16.768 C148.98,16.768 151.136,17.746 151.941,20.852 C152.113,21.023 152.631,20.995 152.717,20.765 C152.458,19.039 152.285,17.545 152.285,16.596 C151.941,16.654 151.05,16.453 150.503,16.338 Z M145.603,1.068 L145.612,1.035 L145.597,1.004 C145.553,0.915 145.429,0.905 145.377,0.905 C145.347,0.905 145.303,0.909 145.264,0.924 L145.234,0.936 L145.218,0.964 C145.064,1.23 145,1.252 144.363,1.252 L139.412,1.252 C138.875,1.252 138.635,1.225 138.585,0.956 L138.58,0.928 L138.56,0.908 C138.525,0.875 138.471,0.858 138.394,0.858 C138.365,0.858 138.269,0.861 138.215,0.896 L138.182,0.918 L138.176,0.957 C138.092,1.436 137.915,2.194 137.724,2.728 L137.711,2.765 L137.729,2.8 C137.802,2.944 138.046,3.015 138.178,2.915 L138.197,2.901 L138.207,2.879 C138.329,2.602 138.444,2.34 138.724,2.083 C138.988,1.841 139.585,1.808 140.136,1.808 L140.794,1.808 C141.062,1.808 141.062,1.808 141.062,2.099 L141.062,7.454 C141.062,8.752 140.987,8.81 140.403,8.859 L139.972,8.896 L139.932,8.909 C139.86,8.953 139.82,9.043 139.825,9.149 C139.828,9.23 139.86,9.329 139.939,9.369 L139.959,9.379 L139.982,9.378 C140.716,9.355 141.158,9.343 141.644,9.343 C142.113,9.343 142.499,9.354 143.211,9.378 L143.234,9.379 L143.254,9.369 C143.353,9.319 143.369,9.18 143.372,9.137 C143.379,9.033 143.348,8.951 143.289,8.911 L142.863,8.859 C142.263,8.809 142.228,8.73 142.228,7.454 L142.228,2.084 C142.228,1.962 142.228,1.848 142.248,1.828 C142.267,1.808 142.397,1.808 142.484,1.808 L143.334,1.808 C143.976,1.808 144.413,1.9 144.669,2.089 C144.782,2.172 144.879,2.476 144.931,2.901 L144.935,2.928 L144.952,2.948 C144.995,3.002 145.076,3.033 145.169,3.033 C145.283,3.033 145.378,2.985 145.417,2.906 L145.429,2.883 L145.426,2.856 C145.391,2.513 145.474,1.548 145.603,1.068 Z M134.681,7.43 L134.681,3.166 C134.681,1.856 134.717,1.775 135.327,1.724 L135.651,1.698 L135.671,1.685 C135.73,1.645 135.76,1.562 135.754,1.458 C135.751,1.415 135.735,1.275 135.636,1.227 L135.615,1.216 L135.592,1.217 C135.025,1.239 134.602,1.252 134.11,1.252 C133.595,1.252 133.184,1.239 132.604,1.217 L132.581,1.216 L132.559,1.227 C132.461,1.275 132.445,1.417 132.442,1.458 C132.436,1.562 132.466,1.645 132.525,1.685 L132.546,1.698 L132.868,1.724 C133.479,1.775 133.515,1.856 133.515,3.166 L133.515,7.43 C133.515,8.72 133.484,8.787 132.865,8.859 L132.534,8.899 L132.511,8.922 C132.443,8.99 132.434,9.102 132.447,9.184 C132.46,9.272 132.502,9.34 132.559,9.369 L132.58,9.379 L132.604,9.378 C133.213,9.354 133.614,9.343 134.11,9.343 C134.586,9.343 134.982,9.354 135.592,9.378 L135.615,9.379 L135.636,9.369 C135.735,9.319 135.751,9.179 135.754,9.137 C135.76,9.032 135.73,8.951 135.671,8.911 L135.33,8.859 C134.711,8.787 134.681,8.72 134.681,7.43 Z M132.708,34.622 C131.471,34.478 131.098,34.047 130.264,31.574 L126.325,20.018 C125.894,18.753 125.435,17.431 125.06,16.165 C125.002,15.964 124.801,15.906 124.629,15.906 C124.312,16.28 123.824,16.798 123.134,16.999 C123.22,17.459 123.047,18.005 122.645,19.039 L119.713,26.802 C118.505,30.022 117.7,31.892 117.183,33.214 C116.781,34.249 116.148,34.565 115.458,34.622 L114.509,34.709 C114.337,34.852 114.394,35.312 114.567,35.428 C115.343,35.398 116.377,35.341 117.326,35.341 C118.677,35.37 119.569,35.37 120.316,35.428 C120.575,35.312 120.575,34.852 120.375,34.709 L119.426,34.622 C118.735,34.565 118.591,34.393 118.591,34.047 C118.591,33.731 118.792,32.955 119.224,31.661 L120.23,28.643 C120.432,28.038 120.604,27.952 121.322,27.952 L125.664,27.952 C126.526,27.952 126.642,28.038 126.842,28.671 L128.107,32.581 C128.337,33.271 128.481,33.788 128.481,34.104 C128.481,34.393 128.079,34.565 127.476,34.622 L126.642,34.709 C126.44,34.852 126.468,35.312 126.699,35.428 C127.533,35.398 128.625,35.341 130.004,35.341 C131.298,35.341 132.305,35.37 133.484,35.428 C133.627,35.312 133.684,34.852 133.484,34.709 L132.708,34.622 Z M125.29,26.802 L121.754,26.802 C120.949,26.802 120.92,26.773 121.15,26.112 L122.961,21.11 C123.278,20.248 123.564,19.558 123.651,19.414 L123.709,19.414 C123.882,19.759 124.14,20.536 124.37,21.226 L125.922,25.911 C126.181,26.688 126.124,26.802 125.29,26.802 Z M126.463,2.854 C126.463,2.392 126.637,1.616 127.798,1.616 C128.854,1.616 129.175,2.303 129.339,2.902 L129.355,2.936 C129.394,2.983 129.459,3.009 129.537,3.009 C129.628,3.009 129.75,2.973 129.802,2.893 L129.817,2.869 L129.817,2.842 C129.817,2.353 129.716,1.668 129.597,1.348 L129.574,1.287 L129.51,1.287 C129.426,1.287 129.267,1.268 129.114,1.22 C128.828,1.143 128.379,1.061 127.978,1.061 C126.46,1.061 125.441,1.926 125.441,3.213 C125.441,4.307 126.277,5.022 126.776,5.351 L127.915,6.095 C128.742,6.626 128.855,7.178 128.855,7.693 C128.855,8.333 128.421,8.979 127.45,8.979 C126.238,8.979 125.708,8.044 125.478,7.26 L125.465,7.234 C125.43,7.181 125.365,7.151 125.283,7.151 C125.203,7.151 125.089,7.183 125.027,7.269 L125.009,7.294 L125.01,7.326 C125.033,7.867 125.187,8.755 125.345,9.043 L125.356,9.066 L125.379,9.078 C125.613,9.215 126.271,9.534 127.293,9.534 C128.875,9.534 129.938,8.606 129.938,7.226 C129.938,6.268 129.434,5.49 128.397,4.849 L127.438,4.249 C127.074,4.023 126.463,3.542 126.463,2.854 Z M123.446,9.396 C123.501,9.352 123.53,9.28 123.519,9.21 C123.508,9.145 123.469,9.092 123.411,9.069 L123.384,9.063 C123.098,9.042 122.809,8.926 122.609,8.749 C121.785,8.057 121.128,7.047 120.221,5.584 C120.158,5.483 120.149,5.437 120.151,5.417 C120.549,5.251 121.672,4.664 121.672,3.345 C121.672,2.342 121.105,1.835 120.63,1.587 C120.028,1.261 119.259,1.217 118.585,1.217 C117.489,1.217 116.638,1.247 115.906,1.312 L115.873,1.322 C115.803,1.357 115.757,1.435 115.75,1.528 C115.742,1.632 115.78,1.729 115.848,1.779 L115.867,1.793 L116.274,1.844 C116.665,1.891 116.721,1.976 116.721,3.152 L116.721,7.454 C116.721,8.721 116.691,8.787 116.083,8.859 L115.748,8.9 L115.725,8.928 C115.657,9.006 115.65,9.12 115.666,9.201 C115.683,9.282 115.722,9.341 115.778,9.369 L115.799,9.379 L115.823,9.378 C116.354,9.355 116.791,9.343 117.315,9.343 C117.811,9.343 118.227,9.355 118.738,9.378 L118.761,9.379 L118.783,9.369 C118.87,9.325 118.893,9.209 118.897,9.162 C118.91,9.058 118.882,8.964 118.824,8.916 L118.804,8.9 L118.526,8.86 C117.911,8.774 117.887,8.723 117.887,7.454 L117.887,5.944 C117.887,5.773 117.887,5.773 118.358,5.773 C118.818,5.773 118.974,5.884 119.133,6.117 C119.315,6.381 119.527,6.717 119.732,7.04 C119.946,7.38 120.148,7.699 120.308,7.926 C121.131,9.098 121.751,9.475 122.862,9.475 C123.094,9.475 123.296,9.451 123.418,9.41 L123.446,9.396 Z M119.835,4.937 C119.494,5.196 119.026,5.23 118.658,5.23 C118.117,5.23 117.95,5.21 117.901,5.194 C117.887,5.145 117.887,5.003 117.887,4.866 L117.887,2.063 C117.887,1.794 117.887,1.772 118.573,1.772 C119.92,1.772 120.398,2.716 120.398,3.525 C120.398,4.189 120.219,4.638 119.835,4.937 Z M113.645,7.64 L113.65,7.61 L113.638,7.584 C113.586,7.469 113.459,7.417 113.356,7.417 C113.297,7.417 113.244,7.434 113.202,7.464 L113.173,7.497 C112.83,8.183 112.521,8.53 112.363,8.617 C112.106,8.745 111.744,8.787 110.871,8.787 C109.873,8.787 109.617,8.667 109.489,8.541 C109.319,8.36 109.286,7.971 109.286,7.358 L109.286,5.67 C109.286,5.437 109.286,5.437 109.589,5.437 L110.285,5.437 C110.703,5.437 111.016,5.446 111.185,5.494 C111.351,5.536 111.436,5.645 111.489,5.882 L111.596,6.348 L111.615,6.387 C111.659,6.44 111.744,6.473 111.839,6.473 C111.949,6.473 112.038,6.431 112.077,6.362 L112.09,6.341 L112.09,6.316 C112.09,6.199 112.081,6.045 112.07,5.872 C112.057,5.653 112.042,5.405 112.042,5.166 C112.042,4.915 112.057,4.659 112.07,4.433 C112.081,4.25 112.09,4.085 112.09,3.956 L112.09,3.932 L112.077,3.911 C112.038,3.841 111.949,3.799 111.838,3.799 C111.744,3.799 111.659,3.832 111.615,3.886 L111.5,4.417 C111.445,4.691 111.378,4.732 111.273,4.768 C111.145,4.81 110.785,4.834 110.285,4.834 L109.589,4.834 C109.286,4.834 109.286,4.834 109.286,4.591 L109.286,2.194 C109.286,1.808 109.286,1.808 109.554,1.808 L110.416,1.808 C110.925,1.808 111.313,1.819 111.557,1.878 C112.103,2.014 112.212,2.359 112.378,2.882 L112.401,2.954 L112.417,2.984 C112.458,3.034 112.528,3.062 112.612,3.062 C112.696,3.062 112.811,3.033 112.864,2.953 L112.882,2.927 L112.867,2.75 C112.804,2.053 112.748,1.46 112.683,1.277 L112.655,1.2 L112.574,1.22 C112.44,1.252 111.698,1.252 110.979,1.252 L108.727,1.252 C108.266,1.252 107.87,1.242 107.318,1.217 L107.294,1.216 L107.273,1.227 C107.175,1.274 107.158,1.415 107.155,1.456 C107.148,1.562 107.179,1.645 107.238,1.685 L107.471,1.724 C108.083,1.796 108.12,1.876 108.12,3.143 L108.12,7.454 C108.12,8.752 108.045,8.809 107.46,8.859 L107.033,8.899 L107.01,8.922 C106.941,8.99 106.93,9.102 106.944,9.183 C106.958,9.272 106.999,9.34 107.057,9.369 L107.078,9.379 L107.101,9.378 C107.793,9.355 108.21,9.343 108.727,9.343 L109.806,9.343 C110.851,9.343 111.9,9.354 113.014,9.378 L113.073,9.379 L113.099,9.325 C113.26,8.989 113.561,8.06 113.645,7.64 Z M105.427,1.673 C105.492,1.607 105.502,1.494 105.492,1.417 C105.48,1.329 105.442,1.263 105.383,1.229 L105.359,1.215 L105.332,1.217 C104.931,1.241 104.563,1.252 104.175,1.252 C103.704,1.252 103.252,1.239 102.936,1.217 L102.907,1.215 L102.883,1.229 C102.817,1.268 102.772,1.346 102.763,1.441 C102.753,1.536 102.784,1.626 102.845,1.679 L102.867,1.696 L103.11,1.724 C103.529,1.771 103.567,1.859 103.568,1.859 C103.568,1.937 103.557,2.058 103.467,2.293 C103.261,2.815 102.689,4.187 102.354,4.974 C102.266,5.178 102.153,5.443 102.03,5.737 C101.802,6.274 101.526,6.93 101.291,7.445 C100.724,6.144 100.202,4.836 99.672,3.502 C99.322,2.642 99.121,2.016 99.083,1.859 C99.102,1.822 99.206,1.771 99.563,1.723 L99.771,1.696 L99.791,1.679 C99.852,1.626 99.883,1.537 99.873,1.441 C99.865,1.348 99.82,1.268 99.753,1.229 L99.73,1.216 L99.703,1.217 C99.169,1.242 98.751,1.252 98.258,1.252 C97.758,1.252 97.376,1.241 97.019,1.217 L96.989,1.215 L96.963,1.23 C96.894,1.274 96.848,1.355 96.841,1.447 C96.834,1.538 96.866,1.625 96.927,1.679 L96.949,1.696 L97.193,1.724 C97.659,1.778 97.818,1.991 98.089,2.649 L100.197,7.848 C100.448,8.47 100.632,9.002 100.743,9.43 L100.755,9.475 L100.798,9.491 C100.868,9.52 100.94,9.534 101.012,9.534 C101.082,9.534 101.146,9.516 101.196,9.483 L101.223,9.465 L101.233,9.434 C101.438,8.791 102.013,7.38 102.475,6.317 L103.121,4.844 C103.677,3.584 104.139,2.635 104.457,2.1 C104.61,1.854 104.77,1.744 105.008,1.724 L105.402,1.698 L105.427,1.673 Z M97.605,18.35 C95.419,20.046 93.982,22.778 93.982,25.969 C93.982,29.678 95.765,32.294 98.065,33.876 C100.164,35.283 102.636,35.801 105.224,35.801 C107.064,35.801 109.134,35.37 109.766,35.14 C110.083,35.025 110.427,34.91 110.772,34.852 C111.204,34.307 111.951,32.409 112.152,30.913 C112.038,30.712 111.606,30.655 111.405,30.799 C110.744,32.495 109.104,34.91 105.396,34.91 C100.681,34.91 96.857,31.574 96.857,25.537 C96.857,19.587 100.595,16.798 104.994,16.798 C109.163,16.798 110.456,19.039 110.887,20.995 C111.088,21.167 111.52,21.139 111.664,20.937 C111.434,19.184 111.291,17.374 111.26,16.712 C111.001,16.74 110.801,16.684 110.456,16.596 C109.104,16.223 106.919,15.906 105.367,15.906 C102.377,15.906 99.704,16.712 97.605,18.35 Z M93.93,7.43 L93.93,3.166 C93.93,1.869 93.972,1.775 94.575,1.724 L94.899,1.698 L94.919,1.685 C94.979,1.645 95.009,1.562 95.002,1.456 C94.999,1.415 94.983,1.274 94.884,1.227 L94.863,1.216 L94.84,1.217 C94.274,1.239 93.851,1.252 93.358,1.252 C92.843,1.252 92.432,1.239 91.852,1.217 L91.83,1.216 L91.809,1.227 C91.71,1.275 91.693,1.415 91.69,1.458 C91.684,1.562 91.714,1.645 91.774,1.685 L91.794,1.698 L92.117,1.724 C92.721,1.775 92.764,1.869 92.764,3.166 L92.764,7.43 C92.764,8.72 92.733,8.787 92.113,8.859 L91.782,8.899 L91.76,8.922 C91.692,8.99 91.681,9.103 91.694,9.185 C91.709,9.272 91.751,9.341 91.808,9.369 L91.829,9.379 L91.852,9.378 C92.461,9.354 92.861,9.343 93.358,9.343 C93.832,9.343 94.245,9.354 94.84,9.378 L94.863,9.379 L94.884,9.369 C94.983,9.319 95,9.179 95.002,9.137 C95.009,9.033 94.979,8.951 94.918,8.911 L94.579,8.859 C93.96,8.787 93.93,8.72 93.93,7.43 Z M87.917,30.972 L87.917,20.736 C87.917,17.689 87.974,17.2 89.67,17.056 L90.389,16.999 C90.562,16.884 90.504,16.366 90.331,16.28 C88.894,16.338 87.917,16.366 86.766,16.366 C85.559,16.366 84.581,16.338 83.145,16.28 C82.972,16.366 82.914,16.884 83.086,16.999 L83.805,17.056 C85.502,17.2 85.559,17.689 85.559,20.736 L85.559,30.972 C85.559,34.019 85.502,34.421 83.805,34.622 L83.086,34.709 C82.914,34.882 82.972,35.341 83.145,35.428 C84.581,35.37 85.559,35.341 86.766,35.341 C87.917,35.341 88.894,35.37 90.331,35.428 C90.504,35.341 90.562,34.823 90.389,34.709 L89.67,34.622 C87.974,34.421 87.917,34.019 87.917,30.972 Z M89.399,1.673 C89.456,1.615 89.486,1.521 89.475,1.428 C89.465,1.343 89.422,1.271 89.359,1.23 L89.334,1.215 L89.305,1.217 C88.912,1.239 88.599,1.252 88.076,1.252 C87.653,1.252 87.259,1.242 86.666,1.217 L86.647,1.217 L86.631,1.223 C86.561,1.248 86.512,1.313 86.495,1.401 C86.476,1.51 86.509,1.617 86.579,1.679 L86.6,1.696 L86.831,1.723 C87.242,1.774 87.451,1.836 87.507,1.921 C87.65,2.147 87.732,3.033 87.732,4.352 L87.732,6.915 C87.732,7.03 87.732,7.165 87.725,7.257 C87.309,6.828 86.874,6.342 86.335,5.737 L84.668,3.867 C83.483,2.538 82.805,1.666 82.651,1.275 L82.624,1.206 L82.552,1.218 C82.408,1.239 82.212,1.252 82.014,1.252 C81.804,1.252 81.168,1.252 80.668,1.217 L80.642,1.215 L80.62,1.227 C80.557,1.259 80.512,1.325 80.499,1.407 C80.481,1.507 80.511,1.611 80.572,1.673 L80.594,1.696 L80.829,1.723 C81.148,1.763 81.387,1.854 81.515,1.982 C81.739,2.227 81.755,2.447 81.755,2.782 L81.755,6.353 C81.755,6.932 81.757,8.288 81.607,8.675 C81.579,8.735 81.478,8.817 81.153,8.859 L80.798,8.899 L80.776,8.922 C80.722,8.976 80.695,9.061 80.702,9.15 C80.71,9.241 80.749,9.317 80.811,9.361 L80.837,9.38 L80.87,9.378 C81.286,9.354 81.607,9.343 82.11,9.343 C82.516,9.343 82.921,9.353 83.508,9.378 L83.54,9.379 L83.565,9.361 C83.621,9.321 83.659,9.257 83.671,9.182 C83.685,9.094 83.662,9.003 83.61,8.933 L83.586,8.899 L83.171,8.859 C82.885,8.837 82.683,8.77 82.634,8.679 C82.504,8.45 82.43,7.562 82.43,6.244 L82.43,3.633 C82.43,3.418 82.434,3.189 82.455,3.027 C82.646,3.24 82.963,3.615 83.248,3.952 C83.444,4.184 83.625,4.397 83.742,4.532 L86.521,7.693 C87.445,8.745 87.887,9.267 88.049,9.494 L88.076,9.534 L88.124,9.534 C88.281,9.534 88.399,9.461 88.439,9.339 L88.445,9.319 L88.442,9.3 C88.427,9.16 88.407,8.686 88.407,7.215 L88.407,4.189 C88.405,3.575 88.401,2.299 88.578,1.924 C88.593,1.895 88.736,1.793 89.179,1.723 L89.377,1.694 L89.399,1.673 Z M78.66,1.655 C78.713,1.591 78.738,1.492 78.724,1.403 C78.711,1.329 78.672,1.268 78.613,1.23 L78.589,1.215 L78.56,1.217 C78.144,1.239 77.82,1.252 77.307,1.252 C76.848,1.252 76.402,1.241 75.947,1.217 L75.916,1.215 L75.891,1.232 C75.835,1.27 75.797,1.337 75.785,1.419 C75.773,1.509 75.795,1.596 75.847,1.656 L75.872,1.686 L76.209,1.711 C76.484,1.734 76.671,1.808 76.735,1.917 C76.875,2.163 76.952,3.027 76.952,4.352 L76.952,5.729 C76.952,7.141 76.553,8.823 74.648,8.823 C73.052,8.823 72.308,7.836 72.308,5.717 L72.308,3.13 C72.308,1.855 72.349,1.763 72.942,1.711 L73.253,1.687 L73.273,1.673 C73.333,1.634 73.363,1.553 73.357,1.451 C73.352,1.367 73.317,1.266 73.239,1.227 L73.218,1.216 L73.195,1.217 C72.627,1.239 72.224,1.252 71.725,1.252 C71.232,1.252 70.809,1.239 70.244,1.217 L70.22,1.216 L70.199,1.227 C70.121,1.265 70.087,1.367 70.081,1.45 C70.074,1.552 70.104,1.633 70.164,1.673 L70.184,1.687 L70.507,1.711 C71.101,1.763 71.142,1.855 71.142,3.13 L71.142,5.956 C71.142,7.405 71.44,8.299 72.108,8.854 C72.636,9.306 73.41,9.534 74.409,9.534 C75.352,9.534 76.255,9.187 76.763,8.63 C77.344,8.008 77.627,7.051 77.627,5.705 L77.627,4.352 C77.627,3.744 77.627,2.321 77.786,1.945 C77.842,1.825 78.047,1.733 78.309,1.711 L78.635,1.686 L78.66,1.655 Z M64.889,16.999 C65.061,16.884 65.003,16.366 64.831,16.28 C63.595,16.338 62.618,16.366 61.497,16.366 C60.26,16.366 59.282,16.31 57.874,16.28 C57.701,16.366 57.644,16.884 57.816,16.999 L58.564,17.056 C60.059,17.171 60.26,17.661 60.26,20.679 L60.26,31.029 C60.26,34.047 60.202,34.335 58.593,34.622 L58.104,34.709 C57.931,34.882 57.989,35.341 58.161,35.428 C59.282,35.398 60.26,35.341 61.497,35.341 C62.618,35.341 63.595,35.37 65.147,35.428 C65.32,35.341 65.377,34.823 65.205,34.709 L64.371,34.622 C62.762,34.45 62.618,34.047 62.618,31.029 L62.618,26.975 C62.618,26.112 62.675,26.055 64.055,26.055 L72.277,26.055 C73.657,26.055 73.715,26.112 73.715,26.975 L73.715,31.029 C73.715,34.047 73.715,34.335 71.961,34.622 L71.415,34.709 C71.242,34.882 71.3,35.341 71.473,35.428 C72.738,35.37 73.772,35.341 74.951,35.341 C76.072,35.341 77.05,35.37 78.43,35.428 C78.602,35.341 78.66,34.823 78.487,34.709 L77.797,34.622 C76.129,34.421 76.072,34.047 76.072,31.029 L76.072,20.679 C76.072,17.661 76.129,17.229 77.797,17.056 L78.401,16.999 C78.574,16.884 78.516,16.366 78.344,16.28 C77.05,16.338 76.072,16.366 74.951,16.366 C73.772,16.366 72.794,16.338 71.473,16.28 C71.3,16.366 71.242,16.884 71.415,16.999 L71.961,17.056 C73.657,17.229 73.715,17.661 73.715,20.679 L73.715,23.985 C73.715,24.876 73.657,24.905 72.277,24.905 L64.055,24.905 C62.675,24.905 62.618,24.876 62.618,23.985 L62.618,20.679 C62.618,17.661 62.675,17.229 64.342,17.056 L64.889,16.999 Z M63.729,7.64 L63.735,7.61 L63.723,7.584 C63.671,7.469 63.544,7.417 63.441,7.417 C63.382,7.417 63.329,7.434 63.286,7.464 L63.257,7.497 C62.914,8.183 62.604,8.53 62.448,8.617 C62.19,8.745 61.828,8.787 60.956,8.787 C59.957,8.787 59.701,8.667 59.573,8.541 C59.404,8.36 59.371,7.971 59.371,7.358 L59.371,5.67 C59.371,5.437 59.371,5.437 59.674,5.437 L60.369,5.437 C60.788,5.437 61.1,5.446 61.27,5.494 C61.436,5.536 61.521,5.645 61.573,5.882 L61.681,6.348 L61.699,6.386 C61.744,6.44 61.828,6.473 61.924,6.473 C62.033,6.473 62.122,6.431 62.162,6.362 L62.174,6.341 L62.174,6.316 C62.174,6.199 62.165,6.045 62.154,5.872 C62.141,5.653 62.126,5.405 62.126,5.166 C62.126,4.915 62.141,4.659 62.154,4.433 C62.165,4.25 62.174,4.085 62.174,3.956 L62.174,3.932 L62.162,3.911 C62.122,3.841 62.033,3.799 61.923,3.799 C61.828,3.799 61.744,3.832 61.699,3.886 L61.583,4.417 C61.53,4.691 61.462,4.732 61.358,4.768 C61.23,4.81 60.87,4.834 60.369,4.834 L59.674,4.834 C59.371,4.834 59.371,4.834 59.371,4.591 L59.371,2.194 C59.371,1.808 59.371,1.808 59.638,1.808 L60.501,1.808 C61.01,1.808 61.398,1.819 61.641,1.878 C62.187,2.014 62.296,2.359 62.463,2.883 L62.485,2.954 L62.502,2.984 C62.543,3.034 62.612,3.062 62.697,3.062 C62.779,3.062 62.896,3.033 62.949,2.954 L62.967,2.927 L62.951,2.75 C62.889,2.052 62.831,1.46 62.768,1.278 L62.739,1.2 L62.659,1.22 C62.526,1.252 61.782,1.252 61.064,1.252 L58.812,1.252 C58.351,1.252 57.955,1.242 57.403,1.217 L57.379,1.216 L57.357,1.227 C57.259,1.274 57.243,1.415 57.24,1.456 C57.233,1.562 57.263,1.645 57.323,1.685 L57.556,1.724 C58.169,1.796 58.205,1.876 58.205,3.143 L58.205,7.454 C58.205,8.752 58.13,8.809 57.545,8.859 L57.117,8.899 L57.093,8.922 C57.025,8.99 57.015,9.102 57.028,9.185 C57.043,9.272 57.083,9.34 57.141,9.369 L57.162,9.379 L57.186,9.378 C57.878,9.355 58.294,9.343 58.812,9.343 L59.89,9.343 C60.934,9.343 61.984,9.354 63.098,9.378 L63.158,9.379 L63.184,9.325 C63.344,8.991 63.645,8.062 63.729,7.64 Z M53.717,7.454 L53.717,3.143 C53.717,1.865 53.753,1.786 54.352,1.724 L54.604,1.7 L54.646,1.685 C54.706,1.645 54.736,1.562 54.729,1.458 C54.727,1.417 54.711,1.275 54.613,1.227 L54.591,1.216 L54.568,1.217 C53.988,1.242 53.593,1.252 53.157,1.252 C52.639,1.252 52.22,1.239 51.713,1.217 L51.689,1.216 L51.668,1.227 C51.569,1.274 51.552,1.415 51.549,1.456 C51.543,1.562 51.573,1.645 51.633,1.685 L51.902,1.724 C52.514,1.786 52.55,1.865 52.55,3.143 L52.55,4.52 C52.55,4.811 52.55,4.811 52.044,4.811 L48.617,4.811 C48.111,4.811 48.111,4.811 48.111,4.52 L48.111,3.143 C48.111,1.865 48.146,1.786 48.747,1.724 L48.974,1.7 L49.016,1.685 C49.076,1.645 49.106,1.562 49.1,1.458 C49.097,1.415 49.08,1.275 48.981,1.227 L48.96,1.216 L48.937,1.217 C48.392,1.242 47.99,1.252 47.551,1.252 C47.238,1.252 46.965,1.243 46.668,1.234 C46.476,1.229 46.274,1.222 46.045,1.217 L46.021,1.217 L46.002,1.227 C45.903,1.274 45.887,1.415 45.883,1.456 C45.877,1.562 45.906,1.645 45.967,1.685 L45.986,1.698 L46.323,1.724 C46.851,1.765 46.944,1.873 46.944,3.143 L46.944,7.454 C46.944,8.701 46.921,8.755 46.326,8.861 L46.094,8.901 L46.073,8.922 C46.004,8.99 45.995,9.103 46.008,9.185 C46.021,9.272 46.063,9.34 46.121,9.369 L46.141,9.379 L46.164,9.378 C46.329,9.374 46.486,9.369 46.643,9.363 C46.926,9.353 47.219,9.343 47.551,9.343 C48.002,9.343 48.383,9.354 49.07,9.378 L49.093,9.379 L49.114,9.369 C49.193,9.329 49.227,9.223 49.232,9.135 C49.238,9.032 49.207,8.95 49.148,8.911 L48.759,8.859 C48.184,8.799 48.111,8.741 48.111,7.454 L48.111,5.765 C48.111,5.474 48.111,5.474 48.617,5.474 L52.044,5.474 C52.55,5.474 52.55,5.474 52.55,5.765 L52.55,7.454 C52.55,8.729 52.538,8.755 51.898,8.86 L51.64,8.901 L51.619,8.922 C51.551,8.99 51.54,9.103 51.554,9.185 C51.569,9.272 51.61,9.341 51.668,9.369 L51.689,9.379 L51.713,9.378 C52.286,9.353 52.705,9.343 53.157,9.343 C53.63,9.343 54.045,9.355 54.604,9.378 L54.627,9.379 L54.648,9.369 C54.747,9.32 54.763,9.18 54.766,9.137 C54.773,9.034 54.742,8.951 54.682,8.911 L54.355,8.86 C53.747,8.787 53.717,8.721 53.717,7.454 Z M43.868,1.068 L43.877,1.034 L43.861,1.003 C43.815,0.913 43.681,0.905 43.642,0.905 C43.611,0.905 43.568,0.909 43.529,0.924 L43.499,0.937 L43.483,0.964 C43.329,1.23 43.265,1.252 42.629,1.252 L37.676,1.252 C37.14,1.252 36.9,1.225 36.849,0.956 L36.844,0.928 L36.824,0.908 C36.79,0.875 36.736,0.858 36.658,0.858 C36.63,0.858 36.532,0.861 36.48,0.896 L36.447,0.918 L36.441,0.957 C36.357,1.435 36.18,2.191 35.989,2.728 L35.976,2.765 L35.993,2.799 C36.065,2.944 36.311,3.014 36.443,2.915 L36.462,2.901 L36.472,2.879 C36.593,2.603 36.708,2.341 36.988,2.082 C37.252,1.841 37.85,1.808 38.4,1.808 L39.059,1.808 C39.326,1.808 39.326,1.808 39.326,2.099 L39.326,7.454 C39.326,8.752 39.252,8.809 38.668,8.859 L38.236,8.896 L38.196,8.909 C38.125,8.953 38.085,9.042 38.09,9.148 C38.093,9.229 38.125,9.329 38.203,9.369 L38.224,9.379 L38.247,9.378 C38.981,9.355 39.424,9.343 39.909,9.343 C40.377,9.343 40.764,9.354 41.476,9.378 L41.499,9.379 L41.52,9.369 C41.598,9.329 41.632,9.223 41.637,9.135 C41.644,9.032 41.613,8.95 41.553,8.911 L41.127,8.859 C40.528,8.809 40.492,8.729 40.492,7.454 L40.492,2.086 C40.492,1.964 40.492,1.849 40.512,1.828 C40.532,1.808 40.662,1.808 40.748,1.808 L41.598,1.808 C42.24,1.808 42.676,1.9 42.933,2.089 C43.047,2.174 43.145,2.476 43.196,2.9 L43.199,2.928 L43.217,2.948 C43.26,3.002 43.342,3.033 43.434,3.033 C43.547,3.033 43.643,2.985 43.681,2.906 L43.693,2.883 L43.69,2.856 C43.656,2.512 43.739,1.547 43.868,1.068 Z M35.708,25.969 C35.708,29.678 37.491,32.294 39.791,33.876 C41.889,35.283 44.362,35.801 46.949,35.801 C48.789,35.801 50.859,35.37 51.491,35.14 C51.808,35.025 52.153,34.91 52.498,34.852 C52.929,34.307 53.676,32.409 53.877,30.913 C53.762,30.712 53.332,30.655 53.13,30.799 C52.469,32.495 50.83,34.91 47.122,34.91 C42.407,34.91 38.582,31.574 38.582,25.537 C38.582,19.587 42.32,16.798 46.718,16.798 C50.888,16.798 52.182,19.039 52.613,20.995 C52.814,21.167 53.245,21.139 53.389,20.937 C53.159,19.184 53.015,17.374 52.987,16.712 C52.727,16.74 52.526,16.684 52.182,16.596 C50.83,16.223 48.645,15.906 47.093,15.906 C44.102,15.906 41.429,16.712 39.331,18.35 C37.145,20.046 35.708,22.778 35.708,25.969 Z M28.231,21.118 L28.23,1.092 C12.144,-0.459 0,1.092 0,1.092 C0,1.092 0,21.117 0,21.122 C1.283,34.696 13.997,36.291 14.118,36.269 C16.389,35.859 27.047,33.716 28.231,21.118 Z M27.528,21.008 C26.404,33.102 16.281,35.159 14.125,35.553 C14.01,35.574 1.936,34.043 0.719,21.011 C0.718,21.006 0.719,1.781 0.719,1.781 C0.719,1.781 12.249,0.293 27.528,1.781 L27.528,21.008 Z M23.428,28.125 C23.879,27.481 24.138,26.785 24.291,26.035 C24.028,26.379 23.642,26.678 23.256,26.831 C22.983,27.693 23.112,28.584 23.428,28.125 Z M23.861,26.186 C24.183,25.914 24.369,25.452 24.784,25.313 C24.47,25.026 24.163,25.599 24.003,25.4 C24.291,24.945 24.474,24.598 24.505,24.028 C24.521,23.722 24.878,23.437 24.961,23.267 C24.619,23.316 23.704,23.856 23.519,24.166 C22.903,24.98 22.936,25.742 20.363,26.878 C20.235,26.878 20.838,26.438 21.01,25.93 C21.091,25.692 21.43,24.59 21.196,24.057 C20.665,24.597 20.773,24.772 20.624,25.173 C20.24,26.226 20.03,26.325 19.07,26.974 C18.943,27.061 18.206,28.197 17.251,28.253 C17.348,28.226 17.293,27.988 17.615,27.777 C18.685,27.077 18.277,25.564 19.673,25.313 C18.978,25.066 18.502,25.743 18.374,25.675 C18.936,24.897 18.441,24.236 18.523,23.601 C18.336,23.7 18.148,23.929 18.131,24.117 C18.025,25.25 17.496,25.448 17.442,25.936 C17.555,26.744 16.906,27.374 16.43,27.941 C16.337,27.471 16.461,27.052 17.054,26.662 C17.381,26.447 17.022,25.804 17.022,25.804 C16.89,26.509 16.493,26.724 16.246,26.76 C16.031,26.79 17.003,25.772 16.89,24.841 C16.84,24.427 16.721,24.611 16.655,24.147 C15.816,25.077 16.43,25.654 15.571,26.728 C15.164,27.237 15.01,28.133 14.956,28.155 C14.965,26.823 15.009,27.213 15.602,26.13 C16.089,25.239 15.574,24.408 15.508,23.871 C14.441,24.605 14.53,26.022 14.503,25.716 C14.476,25.414 14.343,24.882 14.486,24.402 C14.724,23.604 14.22,22.387 14.22,22.387 C12.727,24.73 13.98,27.466 13.886,27.432 C13.237,26.418 12.765,26.377 12.624,25.599 C12.547,25.176 11.777,22.856 10.364,22.814 C11.077,23.429 10.905,23.514 10.952,24.518 C10.498,27.036 14.019,27.297 13.783,28.602 C13.3,27.829 12.564,27.502 11.455,26.898 C10.962,26.508 10.408,26.336 10.378,25.727 C10.437,25.284 10.462,25.376 10.386,24.8 C10.331,24.388 9.927,24.637 9.629,23.778 C8.994,24.354 9.227,25.005 9.278,25.376 C9.294,25.48 9.366,25.872 9.268,26.102 C9.042,25.944 8.886,25.623 8.633,25.303 C8.176,24.718 8.182,24.011 7.953,23.518 C7.847,23.29 7.696,22.978 7.607,22.975 L7.59,22.983 C7.479,23.899 7.533,24.698 7.948,25.385 C7.948,25.384 7.834,25.581 7.741,25.632 C7.347,25.528 6.786,25.195 6.559,24.552 C6.068,24.965 6.417,25.497 6.393,25.487 C5.291,24.924 6.406,22.734 4.836,22.799 C5.223,23.221 4.978,23.763 4.944,24.268 C4.935,25.088 5.978,25.727 5.978,25.727 C4.815,25.334 4.577,25.879 4.59,25.879 C4.59,25.879 6.303,26.623 9.008,26.903 C9.356,26.939 9.852,27.348 9.77,27.348 C9.423,27.321 8.735,26.874 7.743,27.754 C8.327,27.769 8.727,28.719 9.676,28.174 C12.124,27.481 13.031,28.696 13.429,29.008 C13.344,29.162 11.549,27.88 10.123,28.73 C9.365,29.183 8.148,28.772 7.195,28.06 C7.58,29.042 9.219,30.149 9.759,30.15 C10.425,30.151 11.273,29.283 12.237,29.331 C13.781,29.407 13.996,30.786 13.825,30.679 C13.826,30.68 12.611,28.67 11.05,30.816 C11.779,30.481 12.755,30.567 13.609,30.973 C13.724,31.027 13.4,31.387 13.17,31.647 C13.02,31.816 12.369,32.782 11.665,31.832 C11.559,31.69 11.224,30.809 9.021,30.996 C9.854,31.371 10.771,32.355 11.225,32.804 C12.379,33.946 14.123,31.418 14.189,31.7 C14.189,32.268 14.481,32.545 14.634,32.852 C15.021,33.624 14.144,33.495 13.668,33.296 C13.668,33.296 14.578,34.715 15.341,33.926 C16.184,33.051 14.236,32.391 14.855,31.695 C15.203,31.304 16.428,32.571 16.982,32.575 C18.48,32.742 18.401,31.32 19.191,31.362 C18.449,30.608 17.658,31.018 17.492,31.212 C16.994,31.793 16.416,31.402 16.016,31.09 C15.796,30.801 15.429,30.757 15.103,30.845 C14.947,30.856 15.417,30.295 16.027,30.413 C17.404,30.681 18.784,30.186 19.123,29.996 C19.677,29.685 19.988,29.157 20.608,28.566 C20.414,28.604 19.269,29.241 18.901,29.427 C17.797,29.982 17.107,29.262 16.983,29.266 C16.771,29.272 16.826,29.105 17.159,28.998 C18.291,28.745 19.072,27.747 20.151,27.353 C21.342,26.821 22.854,27.182 23.861,26.186 Z M21.614,24.693 C21.58,24.928 21.579,25.112 21.505,25.379 C21.498,25.404 21.769,25.515 21.892,25.62 C22.065,25.458 22.222,25.376 22.404,25.148 C22.363,25.123 21.638,24.491 21.636,24.518 C21.631,24.603 21.629,24.592 21.614,24.693 Z M21.725,25.773 C21.725,25.773 21.447,25.561 21.431,25.603 C21.385,25.725 21.325,25.862 21.243,26.025 C21.17,26.172 21.389,26.067 21.725,25.773 Z M25.013,22.919 C24.945,20.323 23.352,17.442 23.785,17.979 C24.87,19.318 25.218,22.224 25.961,24.726 C25.961,24.725 26.439,24.969 26.338,21.795 C26.316,21.15 26.054,20.296 25.736,19.699 C25.106,18.521 23.83,16.535 23.866,16.52 C24.174,16.27 24.923,17.984 25.575,18.657 C25.998,19.094 27.171,19.521 27.252,19.465 C26.311,17.64 24.031,15.922 24.27,15.709 C25.948,17.281 26.478,17.356 26.547,17.274 L25.036,15.806 C24.609,15.233 24.044,14.793 24.123,14.811 C24.797,14.96 23.771,14.25 22.979,14.033 C22.835,13.995 22.607,13.982 22.599,13.911 C22.586,13.788 22.785,13.84 22.952,13.788 C23.061,13.757 23.17,13.673 23.173,13.518 C22.871,13.583 22.561,13.513 22.302,13.396 C21.767,13.147 20.81,12.859 20.368,13.033 C20.11,13.135 20.062,13.119 19.784,13.334 C19.662,13.283 19.324,13.067 18.848,13.643 C18.7,13.821 18.522,14.028 18.514,14.182 C18.494,14.566 18.522,14.201 18.617,14.566 C18.655,14.72 18.481,15.001 17.778,15.236 C17.506,15.328 17.574,15.597 17.574,15.597 C17.709,15.532 17.922,15.38 18.251,15.534 C18.894,15.836 19.02,15.359 19.419,15.021 C19.419,15.021 19.309,15.448 19.419,15.471 C19.918,15.573 19.751,15.948 19.688,16.005 C19.058,16.565 19.323,16.778 19.097,17.125 C18.886,17.453 18.56,17.575 18.072,17.56 C17.4,17.539 18.951,16.524 17.467,16.102 C17.701,16.491 17.794,16.804 17.275,17.104 C16.949,17.294 17.115,18.26 16.276,17.813 C16.276,17.813 16.208,18.528 16.112,18.559 C17.25,19.556 16.614,20.101 16.671,21.524 C17.027,22.433 16.636,22.865 16.547,22.915 C16.604,23.529 16.661,23.867 17.045,24.366 C17.323,24.73 17.02,25.287 17.304,25.675 C17.565,24.75 17.845,25.136 17.92,23.849 C18.025,23.632 18.458,23.251 18.704,23.227 C18.7,24.003 18.987,24.709 18.925,25.036 C18.925,25.036 19.58,24.917 19.782,24.988 C19.943,25.044 20.067,25.256 20.072,25.385 C19.85,25.524 19.849,25.471 19.513,25.716 C18.925,26.144 18.655,27.017 18.655,27.017 C18.652,27.018 20.036,25.916 20.135,25.716 C20.214,25.559 20.289,25.315 20.362,25.065 C20.37,25.038 19.649,24.618 19.452,24.232 C18.834,23.031 20.409,24.944 20.446,24.778 C20.539,24.363 20.828,23.971 20.828,23.971 C20.727,23.853 20.48,23.779 20.104,23.116 C19.243,21.599 21.102,23.764 21.102,23.764 C21.595,23.481 21.598,23.858 21.661,24.258 C21.667,24.296 22.497,24.908 22.538,24.948 C22.772,24.73 22.942,24.433 23.038,24.228 C23.05,24.201 21.537,22.858 21.278,22.415 C19.192,18.838 22.966,24.003 23.145,23.86 C23.244,23.581 23.279,23.196 23.267,22.674 C23.267,22.662 22.557,22.172 22.103,21.422 C20.35,18.527 23.253,22.285 23.252,22.259 C23.217,21.639 22.71,18.95 23.061,19.758 C23.241,20.173 23.806,21.891 23.702,23.64 C23.897,23.322 24.706,22.999 25.013,22.919 Z M26.154,5.682 C26.169,5.787 26.179,5.861 26.186,5.91 C26.179,5.861 26.169,5.787 26.156,5.682 C26.156,5.682 26.104,4.715 25.067,4.715 C24.73,4.715 24.319,5.127 23.27,4.671 L23.27,6.312 C23.696,6.437 24.862,5.771 25.328,5.568 C25.66,5.423 26.131,5.519 26.154,5.682 Z M23.241,8.058 L23.241,9.698 C23.241,9.698 24.157,9.692 25.174,9.036 C25.479,8.841 25.93,8.921 26.154,9.099 L26.156,9.099 C26.156,9.099 26.019,8.024 25.108,8.157 C23.434,8.401 23.241,8.058 23.241,8.058 Z M16.983,10.664 C17.855,10.664 21.281,11.604 22.933,11.491 L22.933,2.871 C22.933,2.871 20.501,3.214 18.397,2.437 C16.678,1.804 14.315,2.911 14.315,2.911 C14.318,3.205 14.315,11.364 14.315,11.364 C14.315,11.364 15.186,10.664 16.983,10.664 Z M15.125,7.825 C15.208,7.833 15.455,7.838 15.543,7.838 C15.532,8.022 15.532,9.3 15.543,9.432 C15.553,9.563 15.669,9.604 15.782,9.552 C15.839,9.529 15.891,9.568 15.816,9.63 C15.69,9.724 15.537,9.945 15.467,10.031 C15.323,9.932 15.165,9.808 15.177,9.689 C15.195,9.483 15.132,7.998 15.125,7.825 Z M15.578,5.96 C15.828,5.822 16.39,5.735 16.583,5.796 C16.68,5.822 16.779,5.796 16.779,5.751 C16.779,5.686 16.87,5.703 16.87,5.751 C16.87,5.8 16.868,6.415 16.862,6.473 C16.862,6.532 16.773,6.526 16.773,6.473 C16.773,6.384 16.773,6.356 16.695,6.238 C16.471,5.9 15.85,5.872 15.543,6.279 C15.437,6.415 15.398,6.653 15.517,6.693 C15.632,6.732 16.073,6.697 16.217,6.671 C16.359,6.645 16.715,6.586 16.756,6.557 C16.797,6.532 16.852,6.499 16.852,6.568 C16.852,6.641 16.852,6.875 16.848,6.946 C16.848,7.019 16.792,6.983 16.755,6.956 C16.713,6.932 16.379,6.898 16.234,6.889 C15.993,6.868 15.629,6.792 15.509,6.829 C15.389,6.864 15.483,7.052 15.587,7.191 C15.891,7.601 16.458,7.614 16.685,7.279 C16.769,7.158 16.769,7.133 16.769,7.048 C16.769,6.994 16.86,6.983 16.86,7.048 C16.86,7.104 16.855,7.613 16.855,7.663 C16.855,7.713 16.761,7.728 16.761,7.66 C16.765,7.553 16.697,7.56 16.573,7.596 C16.244,7.684 15.804,7.713 15.543,7.564 C15.267,7.406 15.025,7.355 15.018,6.747 C15.014,6.379 15.356,6.087 15.578,5.96 Z M17.383,3.334 C17.234,3.377 17.128,3.525 17.092,3.676 C17.063,3.831 16.56,5.291 16.5,5.387 C16.379,4.931 15.875,3.846 15.714,3.615 C15.574,3.41 15.442,3.448 15.314,3.445 C15.191,3.445 15.237,3.327 15.339,3.336 C15.48,3.353 16.276,3.423 16.502,3.455 C16.583,3.472 16.585,3.545 16.479,3.578 C16.424,3.592 16.296,3.654 16.296,3.717 C16.296,3.803 16.585,4.438 16.665,4.558 C16.732,4.395 17.005,3.698 16.951,3.545 C16.892,3.394 16.87,3.369 16.756,3.358 C16.643,3.344 16.643,3.278 16.779,3.257 C16.915,3.235 17.294,3.204 17.407,3.217 C17.521,3.228 17.535,3.293 17.383,3.334 Z M18.24,3.353 L18.09,3.481 L17.967,3.481 L17.843,3.359 L17.838,3.118 L18.038,2.948 L18.24,3.144 L18.24,3.353 Z M18.587,5.041 L18.32,5.386 L18.072,5.386 C17.95,5.264 17.868,5.167 17.844,5.068 L17.831,4.238 L17.521,4.061 C17.464,4.139 17.35,4.139 17.394,4.073 L17.82,3.699 L17.913,3.689 L18.184,3.96 L18.179,4.818 C18.314,4.972 18.393,5.007 18.587,5.041 Z M20.088,4.056 C20.025,4.056 19.381,4.134 19.381,4.134 C19.347,4.149 19.414,4.947 19.439,5.012 C19.458,5.078 19.52,5.178 19.593,5.113 C19.658,5.049 19.735,5.157 19.656,5.221 C19.611,5.257 19.469,5.539 19.404,5.58 C19.302,5.646 19.155,5.435 19.107,5.304 C19.029,5.086 18.978,4.543 18.979,4.18 C19.001,4.186 18.678,4.052 18.824,3.995 C19.107,3.873 19.379,3.497 19.414,3.399 C19.449,3.301 19.539,3.342 19.493,3.44 C19.399,3.638 19.409,3.779 19.449,3.896 C19.462,3.927 20.007,3.915 20.088,3.915 C20.135,3.915 20.133,4.056 20.088,4.056 Z M19.347,6.806 C19.292,7.085 19.533,7.312 19.717,7.41 C19.865,7.486 20.119,7.444 20.183,7.434 C20.244,7.424 20.227,7.406 20.273,7.363 C20.32,7.319 20.374,7.359 20.336,7.402 C20.294,7.447 19.921,7.802 19.819,7.873 C19.724,7.897 19.515,7.89 19.39,7.731 C19.169,7.455 19.009,7.355 19.078,6.85 C19.127,6.507 19.698,6.211 19.829,6.139 C19.882,6.189 20.141,6.463 20.255,6.555 C20.21,6.611 20.066,6.676 19.928,6.675 C19.787,6.675 19.692,6.557 19.599,6.452 C19.533,6.515 19.388,6.599 19.347,6.806 Z M21.628,5.445 L21.284,5.822 C21.183,5.75 21.122,5.674 21.093,5.547 C20.829,5.598 20.649,5.755 20.528,5.849 C20.419,5.75 20.255,5.487 20.253,5.306 C20.248,5.125 20.392,4.859 20.489,4.768 C20.499,4.771 20.508,4.776 20.518,4.782 C20.461,4.748 20.407,4.714 20.365,4.68 C20.328,4.646 20.315,4.558 20.365,4.486 C20.433,4.396 20.648,4.127 20.857,4.096 C20.969,4.081 21.158,4.11 21.417,4.341 C21.384,4.381 21.384,5.135 21.384,5.214 C21.475,5.325 21.628,5.445 21.628,5.445 Z M22.335,7.152 C22.224,7.147 22.106,7.127 22.044,7.11 C21.946,7.083 21.988,6.971 22.067,6.971 C22.147,6.971 22.271,6.994 22.331,7.017 C22.387,7.04 22.412,7.16 22.335,7.152 Z M22.328,7.42 C22.213,7.412 22.1,7.396 22.039,7.377 C21.94,7.347 21.98,7.239 22.062,7.239 C22.14,7.241 22.265,7.264 22.321,7.285 C22.377,7.308 22.401,7.429 22.328,7.42 Z M20.532,9.01 C20.646,8.944 20.917,8.697 21.011,8.633 C21.167,8.755 21.269,8.875 21.346,8.961 C21.45,8.907 21.612,8.79 21.69,8.725 C21.829,8.821 21.982,8.949 22.039,9.016 C22.111,8.949 22.201,9.002 22.117,9.085 C22.039,9.158 21.859,9.315 21.791,9.368 C21.69,9.314 21.518,9.116 21.461,9.073 C21.433,9.099 21.375,9.126 21.326,9.154 C21.323,9.263 21.326,10.156 21.318,10.266 C21.172,10.274 21.052,10.284 20.952,10.263 C20.943,10.121 20.957,9.347 20.952,9.222 C20.943,9.068 20.697,9.014 20.532,9.01 Z M20.473,7.288 C20.486,6.841 20.782,6.463 21.261,6.292 C21.639,6.419 21.797,6.801 21.81,7.059 C21.818,7.268 21.68,7.543 21.586,7.713 C21.438,7.811 21.288,7.956 21.146,8.091 C20.687,8.088 20.464,7.549 20.473,7.288 Z M18.698,8.755 C18.836,8.601 18.984,8.502 19.068,8.416 C19.213,8.525 19.261,8.593 19.34,8.713 C19.336,8.909 19.295,9.322 19.308,9.466 C19.316,9.605 19.874,9.701 19.899,9.493 C19.924,9.287 19.906,9.022 19.899,8.901 C19.889,8.807 19.669,8.763 19.557,8.777 C19.707,8.62 19.835,8.503 19.93,8.416 C20.064,8.518 20.196,8.663 20.276,8.784 C20.273,8.994 20.236,9.483 20.266,9.612 C20.304,9.747 20.291,9.756 20.391,9.823 C20.288,9.92 20.211,9.962 20.141,10.038 C20.036,10.008 19.858,9.85 19.869,9.709 C19.742,9.797 19.363,9.955 19.228,9.989 C19.092,9.847 18.988,9.811 18.979,9.64 C18.971,9.462 19.019,9.005 18.962,8.896 C18.908,8.787 18.813,8.763 18.698,8.755 Z M18.38,7.496 C18.244,7.418 18.057,7.239 17.956,7.09 C17.774,7.324 17.73,7.522 17.397,7.608 C17.59,7.447 17.767,7.09 17.753,6.751 C17.738,6.442 17.572,6.292 17.424,6.235 C17.297,6.296 17.187,6.379 17.121,6.408 C17.051,6.436 17.032,6.326 17.082,6.304 C17.245,6.224 17.6,5.953 17.649,5.9 C17.8,5.927 17.987,6.059 18.013,6.18 C18.127,6.109 18.33,5.889 18.39,5.839 C18.46,5.959 18.664,6.106 18.891,6.189 C18.683,6.543 18.222,6.332 18.156,6.244 C18.082,6.368 18.064,6.442 18.139,6.599 C18.233,6.812 18.612,7.011 18.808,7.064 C18.748,7.127 18.477,7.434 18.38,7.496 Z M17.849,8.571 C17.87,8.576 17.553,8.451 17.688,8.384 C17.927,8.267 18.163,8.019 18.2,7.916 C18.236,7.821 18.327,7.863 18.279,7.962 C18.233,8.059 18.2,8.298 18.227,8.372 C18.237,8.404 18.417,8.42 18.499,8.421 C18.545,8.421 18.542,8.564 18.495,8.564 C18.436,8.562 18.211,8.567 18.211,8.567 C18.179,8.582 18.203,9.368 18.222,9.436 C18.247,9.5 18.433,9.545 18.501,9.481 C18.57,9.417 18.642,9.483 18.558,9.545 C18.516,9.582 18.373,9.805 18.262,9.85 C18.146,9.895 17.971,9.819 17.896,9.706 C17.771,9.519 17.844,8.931 17.849,8.571 Z M17.121,9.843 C17.005,9.755 16.906,9.732 16.869,9.594 C16.569,9.709 16.456,9.883 16.276,10.008 C16.171,9.909 16.083,9.734 16.08,9.552 C16.077,9.374 16.252,9.132 16.351,9.04 C16.339,9.027 16.332,9.026 16.318,9.014 C16.279,8.981 16.223,8.719 16.276,8.65 C16.342,8.556 16.61,8.188 16.819,8.171 C16.964,8.158 17.076,8.337 17.198,8.47 C17.168,8.504 17.182,9.144 17.177,9.222 C17.311,9.365 17.366,9.398 17.446,9.345 C17.527,9.29 17.559,9.345 17.502,9.398 C17.446,9.453 17.192,9.767 17.121,9.843 Z M16.857,9.062 C16.857,8.926 16.855,8.792 16.845,8.729 C16.856,8.629 16.643,8.483 16.587,8.48 C16.526,8.48 16.479,8.502 16.402,8.619 C16.364,8.681 16.373,8.923 16.406,8.949 C16.585,9.1 16.697,9.082 16.857,9.062 Z M16.498,9.146 C16.337,9.45 16.469,9.514 16.56,9.588 C16.673,9.531 16.771,9.481 16.852,9.424 C16.853,9.369 16.855,9.266 16.856,9.151 C16.674,9.171 16.615,9.211 16.498,9.146 Z M20.809,7.33 C20.883,7.522 21.207,7.771 21.295,7.814 C21.43,7.652 21.503,7.355 21.472,7.104 C21.45,6.91 21.2,6.699 20.986,6.621 C20.712,6.788 20.712,7.072 20.809,7.33 Z M20.8,5.547 C20.913,5.492 20.99,5.469 21.078,5.464 C21.073,5.42 21.069,5.376 21.07,5.32 C21.07,5.278 21.073,5.162 21.075,5.032 C20.925,4.984 20.734,4.904 20.571,4.812 C20.595,4.828 20.62,4.84 20.644,4.854 C20.467,5.18 20.708,5.471 20.8,5.547 Z M20.451,4.636 C20.572,4.736 20.906,4.893 21.076,4.953 C21.078,4.811 21.075,4.667 21.063,4.6 C21.074,4.504 20.734,4.322 20.681,4.322 C20.62,4.316 20.532,4.417 20.455,4.532 C20.415,4.595 20.419,4.609 20.451,4.636 Z M14.008,12.448 C13.736,12.479 13.407,12.639 13.325,12.925 C13.159,13.088 13.167,12.65 12.832,12.842 C12.689,13.036 13.062,13.465 12.973,13.491 C12.607,13.603 12.654,12.942 12.445,12.925 C12.145,13.031 11.388,13.724 12.132,14.271 C12.108,13.901 12.809,13.498 13.04,14.315 C13.743,14.262 13.98,14.688 14.066,14.929 C15.101,15.113 14.803,15.799 14.774,15.799 C14.676,15.651 14.23,14.966 13.502,15.439 C13.333,15.549 13.04,15.655 12.896,15.512 C12.91,15.741 13.2,15.949 13.399,15.894 C14.047,15.717 14.211,16.32 13.715,16.484 C13.821,16.649 14.025,16.64 14.213,16.525 C14.492,16.356 14.524,16.204 14.625,16.102 C14.802,16.947 13.732,17.028 13.391,17.079 C13.443,17.259 13.559,17.299 13.774,17.361 C12.646,17.4 12.424,18.458 12.491,19.068 C12.745,19.088 13.137,18.535 13.103,18.852 C12.304,19.699 12.035,20.834 12.455,21.558 C12.655,21.476 12.717,21.255 12.788,21.074 C12.819,21.054 13.229,21.235 12.573,22.022 C12.527,22.227 12.297,22.844 12.803,22.992 C12.996,22.765 12.967,22.565 13.01,22.333 C13.156,22.274 13.252,22.75 13.196,22.894 C12.537,23.167 12.619,25.189 13.382,26.274 C13.029,25.485 13.076,24.473 13.382,23.663 C13.618,23.038 14.136,21.633 14.15,21.649 C14.443,22.01 14.815,23.56 14.815,24.201 C15.227,23.842 15.307,23.449 15.645,23.185 C15.805,23.748 15.869,24.119 15.998,24.616 C16.16,24.131 16.593,23.584 15.975,22.011 C16.102,21.895 16.336,22.556 16.41,22.524 C16.466,22.502 16.551,22.172 16.341,21.558 C15.906,21.152 15.809,20.556 15.878,20.512 C15.933,20.475 16.129,21.129 16.359,21.161 C16.406,20.654 16.53,20.135 16.491,19.741 C16.483,19.639 16.314,19.115 15.833,18.681 C15.555,18.431 15.448,17.906 15.473,17.802 C15.742,18.049 15.683,18.231 15.911,18.33 C16.006,18.117 15.941,17.327 15.664,16.981 C15.506,16.72 15.58,16.756 15.77,16.914 C16.019,17.209 15.898,17.186 16.113,17.309 C16.582,16.202 16.156,15.987 16.189,15.909 C16.217,15.84 16.551,16.425 16.834,16.2 C16.372,15.957 16.385,15.586 16.333,15.187 C16.293,14.87 16.089,14.751 16.167,14.675 C16.627,15.021 16.754,14.637 16.769,14.56 C16.68,14.61 16.271,14.664 16.221,14.028 C16.201,13.777 15.815,13.666 15.816,13.667 C16.053,13.621 16.812,13.579 16.63,12.825 C16.539,13.003 16.314,13.283 15.841,13.174 C15.841,13.174 16.144,13.092 16.089,12.764 C15.359,13.174 14.768,12.34 14.008,12.448 Z M15.359,13.442 C14.876,13.535 14.516,14.062 13.968,13.838 C13.897,13.791 13.747,13.751 13.767,13.643 C13.865,13.699 14.019,13.735 14.127,13.751 C14.127,13.751 13.832,13.507 14.091,13.207 C13.761,13.416 13.645,13.358 13.645,13.249 C13.645,13.199 14.078,12.883 14.487,13.037 C14.782,13.149 15.036,13.375 15.359,13.422 L15.359,13.442 Z M14.58,13.45 C14.58,13.563 14.435,13.722 14.435,13.722 L14.959,13.456 C14.854,13.388 14.559,13.222 14.436,13.186 C14.436,13.186 14.58,13.298 14.58,13.45 Z M11.485,10.664 C12.8,10.751 13.92,11.358 13.92,11.358 L13.92,2.881 C13.92,2.881 11.987,1.528 8.847,2.739 C7.923,3.096 5.676,2.797 5.676,2.797 L5.676,11.461 C7.647,11.595 10.215,10.579 11.485,10.664 Z M10.549,6.103 C10.801,6.183 11.176,6.123 11.294,6.46 C11.42,6.813 11.19,7.269 10.898,7.289 C10.65,7.31 10.428,7.227 10.29,7.239 C10.225,7.244 10.179,7.264 10.168,7.333 C10.159,7.408 10.061,7.44 10.041,7.342 C10.02,7.247 9.992,6.845 9.992,6.728 C9.992,6.609 10.101,6.599 10.121,6.728 C10.142,6.854 10.179,6.942 10.277,7.051 C10.352,7.137 10.836,7.256 11.015,7.114 C11.158,7 11.124,6.748 10.974,6.649 C10.825,6.552 10.226,6.413 10.125,6.241 C9.95,5.949 10.261,5.705 10.398,5.625 C10.612,5.506 10.86,5.544 10.946,5.546 C11.03,5.546 11.141,5.573 11.147,5.482 C11.153,5.393 11.221,5.4 11.23,5.493 C11.258,5.756 11.284,5.599 11.276,5.877 C11.276,6.005 11.23,6.006 11.176,5.908 C11.141,5.844 10.772,5.535 10.475,5.728 C10.222,5.894 10.317,6.039 10.549,6.103 Z M11.271,7.839 C11.162,7.942 11.074,8.041 10.98,8.146 C10.898,8.093 10.772,7.984 10.675,7.9 C10.833,7.828 10.92,7.731 10.974,7.625 C11.037,7.764 11.163,7.818 11.271,7.839 Z M9.662,8.493 C9.796,8.396 10.024,7.975 10.054,7.879 C10.083,7.781 10.139,7.814 10.129,7.919 C10.118,8.068 10.049,8.399 10.075,8.468 C10.087,8.501 10.299,8.499 10.371,8.499 C10.417,8.499 10.42,8.635 10.376,8.635 C10.319,8.635 10.082,8.671 10.082,8.671 C10.049,8.685 10.066,9.177 10.112,9.229 C10.208,9.319 10.279,9.383 10.409,9.245 C10.472,9.181 10.537,9.241 10.462,9.307 C10.423,9.344 10.244,9.562 10.204,9.67 C10.164,9.775 9.928,9.694 9.852,9.583 C9.732,9.404 9.783,9.043 9.774,8.691 C9.796,8.698 9.548,8.579 9.662,8.493 Z M9.481,7.47 C9.395,7.546 9.205,7.426 9.135,7.31 C9.026,7.125 9.061,6.693 9.075,6.343 C9.089,6.344 9.013,6.256 8.94,6.241 C8.847,6.218 8.831,6.185 8.975,6.126 C9.15,6.057 9.423,5.634 9.461,5.539 C9.495,5.445 9.548,5.534 9.497,5.625 C9.388,5.834 9.433,6.077 9.451,6.149 C9.463,6.183 9.794,6.137 9.865,6.137 C9.912,6.14 9.906,6.278 9.863,6.274 C9.806,6.273 9.371,6.326 9.371,6.326 C9.341,6.343 9.406,7.026 9.45,7.078 C9.456,7.086 9.593,7.205 9.645,7.153 C9.711,7.093 9.774,7.158 9.697,7.222 C9.655,7.254 9.581,7.39 9.481,7.47 Z M7.923,8.518 C8.084,8.39 8.169,8.296 8.279,8.192 C8.375,8.344 8.418,8.486 8.503,8.55 C8.618,8.452 8.809,8.332 8.894,8.237 C8.978,8.278 9.124,8.366 9.135,8.665 C9.141,8.963 9.181,9.43 9.181,9.532 C9.181,9.588 9.197,9.57 9.284,9.552 C9.365,9.53 9.397,9.57 9.335,9.625 C9.271,9.676 8.978,9.882 8.899,9.969 C8.795,9.775 8.777,9.638 8.819,9.446 C8.854,9.289 8.825,8.864 8.825,8.768 C8.825,8.672 8.679,8.639 8.616,8.584 C8.529,8.649 8.519,8.66 8.443,8.732 C8.443,8.86 8.426,9.756 8.446,9.873 C8.245,9.882 8.266,9.869 8.148,9.869 C8.139,9.696 8.145,9.006 8.135,8.857 C8.124,8.71 7.998,8.603 7.923,8.518 Z M6.577,9.004 C6.663,8.42 7.228,8.184 7.398,8.068 C7.429,8.237 7.624,8.532 7.75,8.65 C7.559,8.807 7.119,9.175 6.95,9.303 C7.043,9.472 7.392,9.593 7.509,9.464 C7.596,9.378 7.703,9.407 7.606,9.52 C7.479,9.668 7.349,9.876 7.285,10.006 C7.031,9.897 6.502,9.563 6.577,9.004 Z M6.433,6.309 C6.573,6.099 6.903,5.897 7.128,5.816 C7.199,5.9 7.285,6.029 7.39,6.167 C7.284,6.25 7.176,6.356 7.113,6.432 C7.065,6.377 6.795,5.975 6.605,6.256 C6.502,6.406 6.394,6.846 6.745,7.117 C6.916,7.247 7.096,7.289 7.33,7.252 C7.21,7.407 7.18,7.452 7.113,7.587 C6.774,7.646 6.636,7.538 6.47,7.399 C6.117,7.112 6.228,6.62 6.433,6.309 Z M7.957,5.535 C7.898,5.45 7.883,5.373 7.762,5.406 C7.457,5.493 7.123,5.586 6.881,5.444 C6.623,5.286 6.4,5.235 6.394,4.646 C6.388,4.288 6.705,4.004 6.912,3.883 C7.146,3.748 7.55,3.835 7.731,3.889 C7.819,3.917 7.887,3.906 7.893,3.792 C7.895,3.73 7.992,3.746 7.99,3.792 C7.99,3.843 7.986,4.568 7.986,4.627 C7.984,4.684 7.866,4.689 7.869,4.635 C7.869,4.553 7.84,4.396 7.814,4.268 C7.773,4.076 7.274,3.726 6.914,4.197 C6.905,4.22 6.76,4.469 6.779,4.661 C6.791,4.804 6.814,5.005 6.91,5.138 C7.193,5.539 7.596,5.404 7.807,5.077 C7.883,4.959 7.871,4.813 7.876,4.729 C7.876,4.677 7.99,4.671 7.99,4.729 C7.99,4.788 7.984,5.27 7.984,5.316 C7.986,5.386 8.038,5.44 8.065,5.476 C8.135,5.583 8.055,5.667 7.957,5.535 Z M8.219,5.957 C8.352,5.942 8.464,6.213 8.582,6.341 C8.548,6.377 8.548,7.176 8.548,7.252 C8.576,7.297 8.669,7.35 8.708,7.313 C8.772,7.252 8.814,7.313 8.759,7.366 C8.708,7.418 8.447,7.643 8.381,7.716 C8.291,7.646 8.258,7.545 8.245,7.406 C8.085,7.443 7.937,7.532 7.841,7.678 C7.663,7.597 7.524,7.442 7.519,7.269 C7.515,7.088 7.638,6.984 7.769,6.863 C7.746,6.846 7.726,6.83 7.7,6.808 C7.663,6.775 7.613,6.487 7.648,6.407 C7.734,6.207 8.021,5.975 8.219,5.957 Z M9.664,4.006 C9.589,4.081 9.416,4.191 9.348,4.241 C9.259,4.189 9.15,4.029 9.095,3.987 C9.07,4.011 9.019,4.038 8.968,4.065 C8.968,4.171 8.973,5.115 8.963,5.223 C8.83,5.23 8.715,5.239 8.621,5.219 C8.611,5.081 8.63,4.328 8.624,4.205 C8.613,4.055 8.48,4.045 8.306,3.994 C8.405,3.873 8.589,3.738 8.673,3.674 C8.823,3.792 8.916,3.792 8.991,3.878 C9.088,3.825 9.259,3.722 9.335,3.658 C9.406,3.742 9.538,3.878 9.589,3.94 C9.659,3.873 9.742,3.929 9.664,4.006 Z M11.037,4.928 C10.952,4.97 10.779,5.149 10.641,5.149 C10.226,5.132 9.703,4.83 9.779,4.273 C9.86,3.692 10.317,3.471 10.513,3.465 C10.738,3.481 10.791,3.674 10.917,3.791 C10.726,3.948 10.411,4.258 10.226,4.446 C10.272,4.545 10.486,4.912 10.943,4.796 C11.153,4.748 11.221,4.838 11.037,4.928 Z M12.687,3.914 C12.642,3.969 12.471,4.107 12.275,4.263 C12.305,4.269 12.334,4.274 12.364,4.292 C12.681,4.477 12.788,4.738 12.477,4.984 C12.308,5.121 12.03,5.275 11.732,5.281 C11.534,5.286 11.182,5.12 11.117,5.05 C11.279,4.899 11.452,4.734 11.577,4.627 C11.381,4.477 11.198,4.274 11.348,4.043 C11.461,3.868 11.808,3.59 12.116,3.602 C12.422,3.616 12.56,3.827 12.687,3.914 Z M12.88,5.506 L13.066,5.699 L13.066,5.899 L12.927,6.025 L12.811,6.025 L12.696,5.907 L12.691,5.676 L12.88,5.506 Z M13.233,4.566 C12.798,4.583 12.911,4.385 12.983,4.389 C13.351,4.41 13.301,4.563 13.233,4.566 Z M13.226,4.826 C12.79,4.781 12.903,4.645 12.978,4.649 C13.385,4.674 13.294,4.834 13.226,4.826 Z M13.423,7.396 L13.261,7.57 L13.058,7.745 C12.942,7.625 12.86,7.593 12.84,7.499 L12.834,6.713 L12.646,6.599 C12.537,6.695 12.45,6.653 12.548,6.566 L12.91,6.231 L12.995,6.221 L13.152,6.453 L13.145,7.287 C13.241,7.374 13.241,7.361 13.423,7.396 Z M11.802,9.429 C11.801,9.241 11.897,9.094 12.028,8.958 C12.019,8.95 12.013,8.947 12.003,8.939 C11.966,8.908 11.904,8.579 11.952,8.511 C12.015,8.419 12.306,8.141 12.501,8.121 C12.635,8.106 12.834,8.397 12.949,8.525 C12.918,8.562 12.99,9.363 12.99,9.438 C13.03,9.505 13.17,9.552 13.212,9.487 C13.267,9.417 13.319,9.491 13.267,9.544 C13.212,9.595 13.014,9.756 12.951,9.831 C12.862,9.761 12.711,9.683 12.615,9.565 C12.416,9.603 12.209,9.746 12.049,9.864 C11.868,9.784 11.809,9.607 11.802,9.429 Z M11.507,7.054 C11.385,6.717 11.606,6.401 11.714,6.311 C11.8,6.239 12,6.069 12.13,5.986 C12.255,6.062 12.351,6.117 12.415,6.147 C12.393,6.209 12.364,6.332 12.231,6.338 C12.03,6.344 11.874,6.29 11.766,6.407 C11.658,6.523 11.742,6.854 11.877,6.979 C11.978,7.076 12.255,7.199 12.308,7.086 C12.374,6.938 12.473,7.016 12.376,7.144 C12.312,7.228 12.193,7.407 12.13,7.525 C11.915,7.509 11.629,7.399 11.507,7.054 Z M11.586,9.388 L11.429,9.562 L11.279,9.715 C11.162,9.596 11.078,9.573 11.058,9.479 L11.052,8.716 L10.814,8.593 C10.703,8.685 10.618,8.645 10.714,8.562 L11.074,8.225 L11.162,8.212 L11.392,8.55 L11.397,9.271 C11.491,9.356 11.409,9.354 11.586,9.388 Z M12.151,9.054 C11.896,9.267 12.184,9.463 12.262,9.532 C12.348,9.489 12.46,9.471 12.548,9.438 C12.537,9.404 12.52,9.372 12.52,9.331 C12.52,9.293 12.526,9.209 12.533,9.116 C12.364,9.133 12.286,9.145 12.151,9.054 Z M12.54,9.027 C12.548,8.901 12.554,8.772 12.543,8.705 C12.559,8.608 12.262,8.43 12.214,8.43 C12.152,8.429 12.152,8.464 12.082,8.576 C12.047,8.635 12.076,8.818 12.106,8.845 C12.267,8.985 12.393,9.03 12.54,9.027 Z M12.041,4.272 C12.125,4.204 12.204,4.141 12.23,4.119 C12.105,4.001 11.892,3.887 11.796,3.873 C11.701,3.864 11.508,3.945 11.583,4.045 C11.655,4.14 11.731,4.258 11.888,4.28 C11.939,4.286 11.99,4.28 12.041,4.272 Z M11.901,4.558 C11.76,4.669 11.634,4.77 11.567,4.827 C11.617,4.924 11.944,5.16 12.127,5.076 C12.308,4.993 12.393,4.813 12.226,4.72 C12.11,4.651 12.005,4.604 11.901,4.558 Z M10.193,4.337 C10.277,4.274 10.48,4.045 10.61,3.918 C10.536,3.873 10.404,3.782 10.352,3.653 C10.121,3.837 10.078,3.965 10.193,4.337 Z M8.238,7.286 C8.237,7.247 8.236,7.211 8.237,7.167 C8.237,7.12 8.239,6.997 8.237,6.866 C8.088,6.959 8.028,7.03 7.873,6.938 C7.622,7.143 8.006,7.269 8.087,7.338 C8.147,7.308 8.195,7.297 8.238,7.286 Z M8.235,6.768 C8.233,6.667 8.229,6.57 8.219,6.517 C8.232,6.423 8.053,6.206 8.003,6.203 C7.946,6.201 7.825,6.311 7.756,6.418 C7.721,6.48 7.715,6.646 7.791,6.734 C7.942,6.906 8.014,6.912 8.235,6.768 Z M7.124,8.396 C6.643,8.69 6.728,9.016 6.886,9.214 C6.974,9.153 7.284,8.943 7.41,8.816 C7.337,8.772 7.174,8.525 7.124,8.396 Z M4.206,9.545 L5.276,9.545 L5.276,8.492 L4.206,8.492 L4.206,9.545 Z M4.206,5.879 L5.276,5.879 L5.276,4.826 L4.206,4.826 L4.206,5.879 Z M2.946,8.01 C1.691,8.01 1.691,9.849 2.946,9.849 C4.162,9.849 4.154,8.01 2.946,8.01 Z M2.946,4.334 C1.745,4.334 1.719,6.174 2.946,6.174 C4.154,6.174 4.154,4.334 2.946,4.334 Z M13.745,15.09 C13.674,14.93 13.553,14.778 13.38,14.698 C12.663,14.357 11.287,15.096 11.302,14.019 C11.302,14.019 10.811,14.385 11.035,14.768 C11.546,15.641 12.973,14.556 13.745,15.09 Z M7.301,23.836 C6.9,24.236 6.761,24.246 6.782,24.42 C6.873,24.664 7.05,24.837 7.237,25.045 C7.474,25.239 7.561,25.413 7.388,24.85 C7.281,24.477 7.306,24.204 7.301,23.836 Z M4.528,16.253 L4.549,16.273 C4.545,17.1 2.224,18.285 1.229,18.818 C2.766,19.349 4.222,17.922 4.047,18.268 C3.838,18.674 1.961,20.293 1.142,21.159 C1.78,21.336 2.365,20.821 2.828,20.428 C3.332,19.998 4.175,18.919 4.047,19.454 C2.682,21.139 1.608,24.637 2.27,24.861 C2.649,24.068 4.218,20.026 4.317,20.045 C4.421,20.064 4.194,21.112 4.16,21.805 C4.082,23.328 4.072,24.05 4.401,25.549 C4.571,25.316 4.734,25.322 5.002,25.341 C5.036,25.195 5.025,25.232 4.857,25.011 C4.421,24.433 4.923,23.644 4.712,23.164 C4.538,22.763 4.439,23.084 4.36,22.667 C4.482,22.556 4.807,22.521 4.94,22.5 C5.083,20.935 5.606,20.14 5.411,21.128 C5.311,21.626 5.159,22.455 5.231,22.48 C5.304,22.504 5.311,22.504 5.373,22.536 C5.402,22.552 8.001,18.275 6.56,21.238 C6.371,21.628 5.603,22.674 5.603,22.674 C5.806,22.882 5.996,23.124 6.021,23.271 C6.027,23.31 9.505,18.694 7.137,22.415 C6.991,22.643 6.28,23.405 6.099,23.626 C6.074,23.655 6.165,24.491 6.165,24.491 C6.526,24.24 7.043,23.735 7.284,23.413 C7.252,22.941 7.362,23.004 7.388,22.542 C7.499,22.472 7.643,22.668 7.817,22.825 C7.899,22.897 10.204,18.886 8.759,21.895 C8.527,22.379 8.014,22.951 7.99,22.998 C8.087,23.102 8.231,23.433 8.397,23.816 C8.403,23.831 11.48,19.38 9.61,22.744 C9.463,23.009 8.537,24.123 8.548,24.153 C8.776,24.709 8.975,25.252 8.975,25.251 C8.918,24.816 8.83,23.962 9.73,23.256 C9.847,24.028 10.054,24.06 10.322,24.297 C10.44,24.4 10.66,24.841 10.687,24.466 C10.763,23.369 10.406,23.395 10.141,22.929 C10.078,22.817 10.089,22.566 10.139,22.582 C12.354,22.648 12.281,24.724 12.65,24.722 C12.481,24.192 12.436,23.672 12.636,23.247 C12.042,22.827 12.191,22.106 12.304,21.795 C11.637,21.104 12.02,19.638 12.338,19.328 C11.91,18.705 12.439,18.278 12.325,17.896 C12.145,16.539 10.936,16.943 10.665,15.654 C10.476,15.885 10.127,16.665 10.292,16.925 C10.479,17.222 10.882,17.248 10.906,17.466 C10.917,17.558 10.946,17.818 10.88,17.873 C10.651,17.914 10.495,17.704 10.26,17.61 C9.792,17.426 8.656,18.203 8.587,17.517 C8.544,17.085 8.735,17.395 8.714,16.996 C8.695,16.583 8.487,16.874 8.484,16.342 C8.482,15.952 8.953,15.829 8.986,15.673 C9.07,15.286 9.772,16.242 10.185,15.229 C9.945,15.262 9.46,15.094 9.505,14.857 C9.628,14.224 9.638,12.688 8.202,13.018 C7.687,13.138 6.253,13.893 6.054,13.071 C5.537,13.988 6.559,13.828 6.868,13.809 C6.747,13.894 6.592,14.031 6.211,13.949 C5.403,14.482 2.45,16.358 1.597,16.831 C2.742,17.364 4.503,16.253 4.528,16.253 Z M5.371,26.486 C5.093,26.368 4.791,26.291 4.534,26.116 C4.714,26.726 4.848,27.26 5.186,27.902 C5.379,28.268 5.714,27.385 5.371,26.486 Z" id="Fill-64" fill="#FFFFFE" fill-rule="evenodd" mask="url(#mask-2)"></path>
                </g>
            </g>
        </g>
    </g>
</svg>