<svg width="400" height="37" xmlns="http://www.w3.org/2000/svg" xmlns:xlink="http://www.w3.org/1999/xlink"><defs><path id="a" d="M.06.403h393.781v35.866H.06z"/></defs><g fill="none" fill-rule="evenodd"><path fill="#FFFFFE" d="M186.391 36.94h1.123V.133h-1.123zm12.235-22.636c1.499 0 2.51-1.012 2.51-2.487v-.023c0-1.476-1.011-2.511-2.51-2.511h-1.416v5.021h1.416zm-3.248-6.674h3.248c2.617 0 4.425 1.796 4.425 4.139v.025c0 2.343-1.808 4.163-4.425 4.163h-3.248V7.63zm9.182 8.327h1.807V9.58h-1.807v6.377zm-.048-7.079h1.903V7.273h-1.903v1.605zm2.83.702h1.915l1.428 4.272 1.439-4.272h1.88l-2.51 6.425h-1.642l-2.51-6.425m7.647 6.377h1.808V9.58h-1.808v6.377zm-.048-7.079h1.904V7.273h-1.904v1.605zm3.009 6.234l.773-1.189c.69.5 1.416.762 2.01.762.524 0 .761-.191.761-.476v-.024c0-.393-.617-.524-1.32-.738-.892-.262-1.903-.678-1.903-1.916v-.023c0-1.296 1.047-2.023 2.332-2.023.809 0 1.689.274 2.379.738l-.69 1.25c-.63-.369-1.261-.596-1.726-.596-.439 0-.666.19-.666.44v.024c0 .357.608.523 1.297.762.893.297 1.928.725 1.928 1.891v.024c0 1.416-1.059 2.058-2.439 2.058a4.47 4.47 0 01-2.736-.964m6.517.845h1.808V9.58h-1.808v6.377zm-.047-7.079h1.902V7.273h-1.902v1.605zm8.254 3.927v-.025c0-.939-.678-1.761-1.677-1.761-1.035 0-1.653.798-1.653 1.738v.023c0 .941.677 1.761 1.676 1.761 1.036 0 1.654-.796 1.654-1.736zm-5.115 0v-.025c0-1.831 1.475-3.318 3.461-3.318 1.976 0 3.439 1.463 3.439 3.295v.023c0 1.833-1.476 3.32-3.462 3.32-1.976 0-3.438-1.463-3.438-3.295zm8.182-3.225h1.808v.905c.416-.536.952-1.023 1.868-1.023 1.368 0 2.165.903 2.165 2.367v4.128h-1.809V12.4c0-.856-.404-1.296-1.093-1.296-.69 0-1.131.44-1.131 1.296v3.557h-1.808V9.58m15.688 3.225v-.025c0-.939-.679-1.761-1.678-1.761-1.035 0-1.653.798-1.653 1.738v.023c0 .941.677 1.761 1.676 1.761 1.036 0 1.655-.796 1.655-1.736zm-5.116 0v-.025c0-1.831 1.475-3.318 3.461-3.318 1.976 0 3.439 1.463 3.439 3.295v.023c0 1.833-1.475 3.32-3.462 3.32-1.975 0-3.438-1.463-3.438-3.295zm8.409-1.678h-.75V9.641h.75v-.405c0-.702.177-1.214.51-1.547.333-.333.822-.5 1.464-.5.571 0 .951.072 1.285.179v1.499a2.297 2.297 0 00-.821-.154c-.417 0-.654.213-.654.689v.25h1.463v1.475h-1.44v4.83h-1.807v-4.83m8.003 3.021v-3.021h-.761V9.58h.761V7.951h1.807V9.58h1.5v1.547h-1.5v2.725c0 .416.179.618.584.618.333 0 .63-.083.892-.226v1.451c-.381.227-.821.369-1.428.369-1.106 0-1.855-.44-1.855-1.916m4.685-6.875h1.808v3.212c.417-.536.952-1.023 1.868-1.023 1.368 0 2.165.903 2.165 2.367v4.128h-1.809V12.4c0-.856-.404-1.296-1.093-1.296-.691 0-1.131.44-1.131 1.296v3.557h-1.808V7.273m11.597 4.997c-.108-.809-.583-1.357-1.344-1.357-.75 0-1.238.535-1.381 1.357h2.725zm-4.496.535v-.025c0-1.819 1.296-3.318 3.152-3.318 2.129 0 3.105 1.653 3.105 3.461 0 .143-.013.31-.025.476h-4.436c.177.821.749 1.249 1.557 1.249.608 0 1.047-.19 1.547-.654l1.035.916c-.594.738-1.452 1.19-2.605 1.19-1.915 0-3.33-1.344-3.33-3.295zm15.222 1.547c.81 0 1.297-.287 1.297-.905v-.024c0-.559-.417-.904-1.356-.904h-2.117v1.833h2.176zm-.487-3.355c.809 0 1.319-.263 1.319-.881v-.024c0-.547-.427-.856-1.201-.856h-1.807v1.761h1.689zm-3.475-3.367h3.867c.953 0 1.702.262 2.177.737.38.381.572.845.572 1.416v.024c0 .939-.5 1.464-1.095 1.797.963.368 1.558.927 1.558 2.045v.024c0 1.523-1.237 2.284-3.117 2.284h-3.962V7.63zm8.516 8.327h1.809V9.58h-1.809v6.377zm-.048-7.079h1.905V7.273h-1.905v1.605zm8.255 3.927v-.025c0-.939-.679-1.761-1.677-1.761-1.036 0-1.654.798-1.654 1.738v.023c0 .941.679 1.761 1.677 1.761 1.035 0 1.654-.796 1.654-1.736zm-5.115 0v-.025c0-1.831 1.475-3.318 3.461-3.318 1.975 0 3.438 1.463 3.438 3.295v.023c0 1.833-1.475 3.32-3.461 3.32-1.975 0-3.438-1.463-3.438-3.295zm8.241 3.152h1.809V7.273h-1.809zm8.243-3.152v-.025c0-.939-.677-1.761-1.677-1.761-1.036 0-1.654.798-1.654 1.738v.023c0 .941.678 1.761 1.678 1.761 1.034 0 1.653-.796 1.653-1.736zm-5.116 0v-.025c0-1.831 1.476-3.318 3.463-3.318 1.974 0 3.437 1.463 3.437 3.295v.023c0 1.833-1.474 3.32-3.461 3.32-1.975 0-3.439-1.463-3.439-3.295zm12.751-.346v-.023c0-.869-.678-1.475-1.558-1.475s-1.546.606-1.546 1.475v.023c0 .881.666 1.476 1.546 1.476s1.558-.607 1.558-1.476zm-4.592 4.759l.618-1.356c.655.368 1.309.583 2.154.583 1.237 0 1.82-.594 1.82-1.737v-.31c-.535.643-1.118 1.036-2.082 1.036-1.486 0-2.831-1.082-2.831-2.975v-.023c0-1.903 1.368-2.974 2.831-2.974.987 0 1.57.416 2.059.951V9.58h1.808v4.938c0 1.142-.274 1.975-.809 2.509-.595.596-1.511.858-2.748.858-1.036 0-2.011-.239-2.82-.667zm8.051-1.261h1.808V9.58h-1.808v6.377zm-.048-7.079h1.904V7.273h-1.904v1.605zm3.163 3.927v-.025c0-1.819 1.393-3.318 3.343-3.318 1.202 0 1.951.404 2.546 1.071l-1.107 1.189c-.404-.428-.808-.703-1.451-.703-.904 0-1.547.798-1.547 1.738v.023c0 .976.631 1.761 1.62 1.761.606 0 1.022-.262 1.462-.678l1.059 1.071c-.618.678-1.333 1.166-2.605 1.166-1.915 0-3.32-1.475-3.32-3.295m10.848.904v-.321a2.787 2.787 0 00-1.154-.239c-.773 0-1.249.31-1.249.881v.024c0 .487.404.773.987.773.845 0 1.416-.465 1.416-1.118zm-4.151.416v-.023c0-1.392 1.058-2.035 2.569-2.035.642 0 1.106.107 1.558.262v-.107c0-.749-.464-1.166-1.368-1.166-.69 0-1.177.132-1.761.344l-.452-1.379c.703-.31 1.392-.511 2.475-.511.987 0 1.7.261 2.152.713.477.476.691 1.177.691 2.035v3.699h-1.749v-.689c-.44.487-1.046.808-1.927.808-1.201 0-2.188-.689-2.188-1.951zm7.492 1.832h1.808V7.273h-1.808zm6.6-1.214l1.082-1.296c.749.618 1.535 1.011 2.487 1.011.75 0 1.201-.297 1.201-.785v-.024c0-.464-.285-.702-1.677-1.058-1.678-.429-2.76-.893-2.76-2.546v-.024c0-1.511 1.213-2.51 2.914-2.51 1.214 0 2.249.381 3.093 1.058l-.951 1.38c-.737-.512-1.464-.82-2.165-.82-.702 0-1.07.321-1.07.725v.024c0 .548.356.726 1.796 1.095 1.689.44 2.64 1.046 2.64 2.498v.023c0 1.654-1.261 2.582-3.056 2.582a5.295 5.295 0 01-3.534-1.333m7.611-1.938v-.025c0-1.819 1.392-3.318 3.343-3.318 1.202 0 1.951.404 2.546 1.071l-1.106 1.189c-.405-.428-.81-.703-1.451-.703-.905 0-1.547.798-1.547 1.738v.023c0 .976.63 1.761 1.618 1.761.606 0 1.022-.262 1.463-.678l1.058 1.071c-.618.678-1.332 1.166-2.605 1.166-1.915 0-3.319-1.475-3.319-3.295m7.029 3.152h1.808V9.58h-1.808v6.377zm-.048-7.079h1.903V7.273h-1.903v1.605zm7.66 3.392c-.107-.809-.583-1.357-1.344-1.357-.749 0-1.237.535-1.379 1.357h2.723zm-4.497.535v-.025c0-1.819 1.297-3.318 3.153-3.318 2.129 0 3.104 1.653 3.104 3.461 0 .143-.011.31-.022.476h-4.439c.179.821.75 1.249 1.56 1.249.606 0 1.046-.19 1.546-.654l1.035.916c-.595.738-1.452 1.19-2.606 1.19-1.915 0-3.331-1.344-3.331-3.295zm7.564-3.225h1.808v.905c.416-.536.951-1.023 1.867-1.023 1.369 0 2.166.903 2.166 2.367v4.128h-1.808V12.4c0-.856-.405-1.296-1.095-1.296s-1.13.44-1.13 1.296v3.557h-1.808V9.58m7.076 3.225v-.025c0-1.819 1.391-3.318 3.343-3.318 1.201 0 1.951.404 2.546 1.071l-1.107 1.189c-.405-.428-.809-.703-1.451-.703-.904 0-1.547.798-1.547 1.738v.023c0 .976.631 1.761 1.617 1.761.608 0 1.024-.262 1.464-.678l1.059 1.071c-.618.678-1.332 1.166-2.606 1.166-1.915 0-3.318-1.475-3.318-3.295m11.061-.535c-.106-.809-.583-1.357-1.344-1.357-.749 0-1.237.535-1.379 1.357h2.723zm-4.497.535v-.025c0-1.819 1.297-3.318 3.153-3.318 2.13 0 3.105 1.653 3.105 3.461 0 .143-.012.31-.023.476h-4.438c.179.821.749 1.249 1.559 1.249.606 0 1.046-.19 1.546-.654l1.035.916c-.595.738-1.451 1.19-2.606 1.19-1.915 0-3.331-1.344-3.331-3.295zm7.005 2.307l.774-1.189c.689.5 1.416.762 2.01.762.523 0 .761-.191.761-.476v-.024c0-.393-.618-.524-1.32-.738-.893-.262-1.904-.678-1.904-1.916v-.023c0-1.296 1.047-2.023 2.333-2.023.808 0 1.688.274 2.378.738l-.69 1.25c-.63-.369-1.261-.596-1.725-.596-.44 0-.666.19-.666.44v.024c0 .357.607.523 1.297.762.893.297 1.927.725 1.927 1.891v.024c0 1.416-1.059 2.058-2.438 2.058a4.47 4.47 0 01-2.737-.964M195.009 25.363v-.023c0-2.368 1.785-4.307 4.343-4.307 1.57 0 2.509.524 3.283 1.284l-1.166 1.345c-.642-.583-1.297-.939-2.129-.939-1.404 0-2.415 1.165-2.415 2.592v.025c0 1.427.987 2.616 2.415 2.616.952 0 1.535-.38 2.189-.976l1.165 1.179c-.856.915-1.808 1.486-3.414 1.486-2.45 0-4.271-1.89-4.271-4.282m12.952.452c-.107-.808-.582-1.356-1.344-1.356-.75 0-1.236.535-1.38 1.356h2.724zm-4.496.536v-.025c0-1.819 1.297-3.318 3.152-3.318 2.129 0 3.106 1.653 3.106 3.461 0 .143-.012.31-.025.476h-4.436c.177.821.749 1.249 1.557 1.249.607 0 1.048-.19 1.547-.654l1.034.916c-.593.738-1.451 1.189-2.604 1.189-1.915 0-3.331-1.343-3.331-3.294zm7.564-3.225h1.808v.905c.416-.536.952-1.023 1.868-1.023 1.367 0 2.164.903 2.164 2.367v4.128h-1.807v-3.557c0-.856-.406-1.297-1.095-1.297-.69 0-1.13.441-1.13 1.297v3.557h-1.808v-6.377m7.659 4.568v-3.021h-.762v-1.547h.762v-1.629h1.807v1.629h1.499v1.547h-1.499v2.724c0 .417.179.619.583.619.334 0 .631-.083.893-.226v1.451c-.381.227-.822.369-1.428.369-1.106 0-1.855-.44-1.855-1.916m8.73-1.879c-.107-.808-.582-1.356-1.344-1.356-.75 0-1.238.535-1.381 1.356h2.725zm-4.497.536v-.025c0-1.819 1.297-3.318 3.153-3.318 2.129 0 3.105 1.653 3.105 3.461 0 .143-.013.31-.025.476h-4.437c.179.821.75 1.249 1.558 1.249.608 0 1.047-.19 1.547-.654l1.035.916c-.594.738-1.451 1.189-2.605 1.189-1.915 0-3.331-1.343-3.331-3.294zm7.563-3.225h1.809v1.285c.369-.88.963-1.451 2.035-1.403v1.891h-.096c-1.201 0-1.939.726-1.939 2.248v2.356h-1.809v-6.377m8.754 1.547h-.75v-1.487h.75v-.404c0-.702.178-1.214.511-1.547.333-.333.821-.5 1.464-.5.57 0 .951.072 1.284.179v1.499a2.274 2.274 0 00-.82-.154c-.417 0-.655.213-.655.689v.25h1.463v1.475h-1.439v4.83h-1.808v-4.83m8.956 1.678v-.025c0-.939-.678-1.761-1.677-1.761-1.036 0-1.655.798-1.655 1.738v.023c0 .941.679 1.761 1.678 1.761 1.035 0 1.654-.797 1.654-1.736zm-5.116 0v-.025c0-1.831 1.476-3.318 3.462-3.318 1.976 0 3.438 1.463 3.438 3.295v.023c0 1.833-1.475 3.319-3.461 3.319-1.976 0-3.439-1.462-3.439-3.294zm8.183-3.225h1.808v1.285c.369-.88.963-1.451 2.035-1.403v1.891h-.096c-1.201 0-1.939.726-1.939 2.248v2.356h-1.808v-6.377m11.869 4.724c1.5 0 2.511-1.012 2.511-2.487v-.023c0-1.476-1.011-2.511-2.511-2.511h-1.416v5.021h1.416zm-3.247-6.674h3.247c2.618 0 4.426 1.796 4.426 4.139v.025c0 2.343-1.808 4.163-4.426 4.163h-3.247v-8.327zm12.785 6.079v-.322a2.8 2.8 0 00-1.154-.238c-.773 0-1.249.31-1.249.881v.024c0 .487.405.772.988.772.844 0 1.415-.464 1.415-1.117zm-4.151.416v-.024c0-1.391 1.058-2.034 2.569-2.034.643 0 1.106.107 1.559.262v-.107c0-.749-.464-1.166-1.369-1.166-.69 0-1.177.131-1.76.344l-.453-1.379c.703-.31 1.393-.511 2.475-.511.987 0 1.701.261 2.152.712.477.477.691 1.178.691 2.036v3.699h-1.748v-.689c-.441.487-1.047.808-1.928.808-1.202 0-2.188-.69-2.188-1.951zm7.646.023v-3.021h-.761v-1.547h.761v-1.629h1.809v1.629h1.499v1.547h-1.499v2.724c0 .417.178.619.583.619.333 0 .631-.083.892-.226v1.451c-.381.227-.821.369-1.427.369-1.107 0-1.857-.44-1.857-1.916m8.374-.439v-.322a2.798 2.798 0 00-1.153-.238c-.775 0-1.25.31-1.25.881v.024c0 .487.404.772.987.772.845 0 1.416-.464 1.416-1.117zm-4.152.416v-.024c0-1.391 1.058-2.034 2.57-2.034.643 0 1.106.107 1.558.262v-.107c0-.749-.464-1.166-1.367-1.166-.691 0-1.178.131-1.761.344l-.452-1.379c.701-.31 1.391-.511 2.473-.511.988 0 1.702.261 2.155.712.475.477.689 1.178.689 2.036v3.699h-1.749v-.689c-.44.487-1.047.808-1.927.808-1.201 0-2.189-.69-2.189-1.951zm11.168 1.832h1.831v-8.327h-1.831zm3.686-6.377h1.808v.905c.416-.536.952-1.023 1.868-1.023 1.368 0 2.165.903 2.165 2.367v4.128h-1.809v-3.557c0-.856-.404-1.297-1.093-1.297-.691 0-1.131.441-1.131 1.297v3.557h-1.808v-6.377m7.658 4.568v-3.021h-.761v-1.547h.761v-1.629h1.809v1.629h1.498v1.547h-1.498v2.724c0 .417.179.619.583.619.333 0 .63-.083.892-.226v1.451c-.381.227-.821.369-1.427.369-1.108 0-1.857-.44-1.857-1.916m8.719-1.879c-.107-.808-.584-1.356-1.345-1.356-.749 0-1.237.535-1.379 1.356h2.724zm-4.497.536v-.025c0-1.819 1.297-3.318 3.152-3.318 2.13 0 3.106 1.653 3.106 3.461 0 .143-.013.31-.024.476h-4.438c.179.821.75 1.249 1.559 1.249.606 0 1.047-.19 1.547-.654l1.035.916c-.595.738-1.452 1.189-2.606 1.189-1.916 0-3.331-1.343-3.331-3.294zm7.565-3.225h1.807v.905c.417-.536.952-1.023 1.868-1.023 1.368 0 2.165.903 2.165 2.367v4.128h-1.808v-3.557c0-.856-.404-1.297-1.094-1.297-.69 0-1.131.441-1.131 1.297v3.557h-1.807v-6.377m6.909 5.532l.773-1.189c.69.5 1.415.76 2.01.76.523 0 .762-.189.762-.474v-.025c0-.392-.619-.523-1.321-.737-.892-.262-1.903-.678-1.903-1.916v-.023c0-1.297 1.047-2.023 2.331-2.023.81 0 1.69.274 2.379.737l-.689 1.251c-.631-.37-1.261-.596-1.725-.596-.44 0-.666.19-.666.44v.024c0 .357.606.523 1.297.761.891.298 1.927.726 1.927 1.892v.024c0 1.415-1.059 2.058-2.439 2.058a4.467 4.467 0 01-2.736-.964m6.516.845h1.809v-6.377h-1.809v6.377zm-.047-7.078h1.903v-1.606h-1.903v1.606zm2.831.701h1.915l1.427 4.271 1.44-4.271h1.88l-2.511 6.425h-1.642l-2.509-6.425m11.537 2.689c-.108-.808-.583-1.356-1.345-1.356-.749 0-1.237.535-1.38 1.356h2.725zm-4.497.536v-.025c0-1.819 1.296-3.318 3.152-3.318 2.13 0 3.104 1.653 3.104 3.461 0 .143-.011.31-.022.476h-4.438c.178.821.75 1.249 1.558 1.249.607 0 1.047-.19 1.547-.654l1.035.916c-.595.738-1.452 1.189-2.605 1.189-1.916 0-3.331-1.343-3.331-3.294zm10.691 1.938l1.082-1.296c.749.618 1.534 1.011 2.486 1.011.75 0 1.202-.297 1.202-.785v-.024c0-.464-.286-.702-1.677-1.059-1.678-.428-2.761-.892-2.761-2.545v-.024c0-1.511 1.214-2.51 2.915-2.51 1.214 0 2.249.381 3.093 1.058l-.951 1.38c-.738-.512-1.464-.82-2.166-.82-.701 0-1.071.321-1.071.725v.024c0 .548.358.725 1.797 1.094 1.69.441 2.641 1.047 2.641 2.499v.023c0 1.654-1.261 2.582-3.057 2.582a5.293 5.293 0 01-3.533-1.333m7.61-1.938v-.025c0-1.819 1.393-3.318 3.343-3.318 1.202 0 1.951.404 2.546 1.071l-1.106 1.189c-.405-.428-.809-.703-1.452-.703-.903 0-1.545.798-1.545 1.738v.023c0 .976.629 1.761 1.618 1.761.606 0 1.022-.262 1.463-.678l1.058 1.071c-.618.678-1.333 1.165-2.605 1.165-1.915 0-3.32-1.474-3.32-3.294m7.03 3.152h1.807v-6.377h-1.807v6.377zm-.048-7.078h1.903v-1.606h-1.903v1.606zm7.66 3.39c-.106-.808-.583-1.356-1.344-1.356-.749 0-1.237.535-1.38 1.356h2.724zm-4.497.536v-.025c0-1.819 1.297-3.318 3.153-3.318 2.13 0 3.106 1.653 3.106 3.461 0 .143-.013.31-.025.476h-4.437c.178.821.75 1.249 1.558 1.249.607 0 1.047-.19 1.547-.654l1.035.916c-.595.738-1.452 1.189-2.605 1.189-1.916 0-3.332-1.343-3.332-3.294zm7.564-3.225h1.808v.905c.417-.536.952-1.023 1.868-1.023 1.368 0 2.165.903 2.165 2.367v4.128h-1.808v-3.557c0-.856-.405-1.297-1.094-1.297-.691 0-1.131.441-1.131 1.297v3.557h-1.808v-6.377m7.076 3.225v-.025c0-1.819 1.392-3.318 3.342-3.318 1.202 0 1.952.404 2.546 1.071l-1.106 1.189c-.405-.428-.809-.703-1.451-.703-.904 0-1.546.798-1.546 1.738v.023c0 .976.63 1.761 1.618 1.761.606 0 1.022-.262 1.462-.678l1.059 1.071c-.618.678-1.333 1.165-2.605 1.165-1.915 0-3.319-1.474-3.319-3.294"/><mask id="b" fill="#fff"><use xlink:href="#a"/></mask><path d="M392.08 25.815c-.106-.808-.583-1.356-1.345-1.356-.749 0-1.236.535-1.379 1.356h2.724zm-4.497.536v-.025c0-1.819 1.297-3.318 3.152-3.318 2.13 0 3.106 1.653 3.106 3.461 0 .143-.012.31-.024.476h-4.438c.179.821.75 1.249 1.559 1.249.607 0 1.046-.19 1.546-.654l1.036.916c-.595.738-1.452 1.189-2.606 1.189-1.915 0-3.331-1.343-3.331-3.294zM177.4 2.932l.011-.023-.001-.024a30.09 30.09 0 01-.036-1.576v-.116l-.114.026c-.144.033-.882.033-1.596.033h-2.205c-.45 0-.851-.01-1.383-.035l-.024-.001-.022.011c-.099.047-.115.188-.118.231-.007.104.024.187.084.227l.232.038c.607.074.637.14.637 1.42v4.311c0 1.267-.03 1.333-.637 1.405l-.332.04-.022.023c-.068.067-.08.179-.066.261.014.088.055.157.112.186l.022.01.024-.001c.56-.024.965-.035 1.493-.035.484 0 .899.012 1.591.035l.023.001.021-.01c.079-.04.113-.146.117-.234.007-.103-.023-.185-.084-.224l-.449-.052c-.611-.05-.647-.13-.647-1.405V5.788c0-.231 0-.231.303-.231h.815c.42 0 .734.01.894.056.169.053.26.163.323.39l.126.496.022.019c.119.101.373.096.449-.019l.016-.023v-.028c0-.125-.01-.285-.021-.462a11.918 11.918 0 01-.027-.7c0-.243.014-.5.027-.726.01-.186.021-.355.021-.484v-.027l-.016-.024c-.057-.086-.178-.095-.229-.095-.098 0-.185.032-.231.087l-.126.517c-.067.291-.148.32-.239.353-.127.042-.496.067-.989.067h-.815c-.303 0-.303 0-.303-.231V2.194c0-.386 0-.386.267-.386h.731c.496 0 .887 0 1.139.069.514.134.667.477.771 1.064l.005.034.025.02a.28.28 0 00.182.063c.092 0 .205-.039.249-.126zm-8.04 2.33c0-2.024-1.33-4.201-4.25-4.201-2.484 0-4.357 1.858-4.357 4.321 0 2.063 1.497 4.152 4.357 4.152 2.423 0 4.25-1.837 4.25-4.272zm-1.382.371c0 2.47-1.461 3.346-2.711 3.346-2.472 0-3.131-2.502-3.131-3.981 0-2.496 1.493-3.382 2.771-3.382 2.266 0 3.071 2.164 3.071 4.017zm-9.799 20.422c0 5.175 3.852 9.746 10.235 9.746 5.549 0 9.976-4.227 9.976-10.033 0-5.06-3.336-9.862-9.976-9.862-5.923 0-10.235 4.399-10.235 10.149zm2.875-.919c0-6.297 3.881-8.338 6.871-8.338 5.491 0 7.59 5.117 7.59 9.861 0 5.663-3.278 8.251-6.728 8.251-5.663 0-7.733-5.52-7.733-9.774zm-6.353-23.457a.278.278 0 00.087-.232.28.28 0 00-.121-.217l-.025-.015-.03.002c-.851.05-1.353.05-2.254 0l-.025-.001-.021.011a.242.242 0 00-.126.185.302.302 0 00.078.261l.023.023.247.027c.233.029.377.086.419.118-.037.172-.457.948-.71 1.42l-.055.102a43.303 43.303 0 01-1.043 1.881 40.594 40.594 0 01-.922-1.806l-.35-.709c-.087-.173-.358-.786-.363-.88 0-.025.055-.073.425-.126l.187-.029.021-.021a.321.321 0 00.068-.287.22.22 0 00-.142-.165l-.017-.005-.018.001c-.294.023-.723.035-1.275.035-.554 0-.994-.011-1.383-.035l-.027-.002-.024.014a.244.244 0 00-.113.177.324.324 0 00.065.262l.021.025.369.066c.316.053.476.08.879.861l1.413 2.756c.338.652.374.787.374 1.443v.611c0 1.3-.03 1.367-.636 1.429l-.405.04-.022.024c-.069.067-.079.18-.065.262.014.087.056.156.113.184l.021.01.023-.001a39.26 39.26 0 011.566-.035c.486 0 .915.012 1.626.035l.023.001.021-.01c.058-.029.1-.097.113-.185.014-.082.003-.194-.065-.262l-.024-.024-.489-.039c-.554-.041-.634-.132-.634-1.429v-.623c0-.898.026-.987.551-1.895l.754-1.305.197-.342c.472-.824.812-1.418 1.321-1.507l.361-.064.018-.015zm-4.198 14.659c-.488-.115-2.012-.432-3.65-.432-4.342 0-7.188 1.351-9.114 3.364-1.783 1.897-2.588 4.37-2.588 6.814 0 2.53.92 4.801 2.645 6.525 2.214 2.243 5.348 3.192 8.768 3.192 1.553 0 3.622-.345 5.147-.747.546-.144 1.064-.26 1.408-.26a.235.235 0 00.03-.344c-.518-.201-.691-.891-.691-2.041v-1.61c0-1.466.03-2.272 1.236-2.415l.461-.059c.2-.171.172-.602-.029-.718-.949.057-1.926.086-3.048.086-1.696 0-3.277-.029-4.11-.086-.202.086-.231.604 0 .718l1.264.145c1.783.201 1.869.374 1.869 2.789v1.15c0 .919-.144 1.438-.288 1.638-.316.489-1.379.863-3.163.863-5.778 0-8.625-4.342-8.625-9.861 0-4.313 2.445-8.281 8.022-8.281 2.933 0 5.089.978 5.894 4.084.172.171.69.143.776-.087-.259-1.726-.432-3.22-.432-4.169-.344.058-1.235-.143-1.782-.258zm-4.9-15.27l.009-.033-.015-.031c-.044-.089-.168-.099-.22-.099a.33.33 0 00-.113.019l-.03.012-.016.028c-.154.266-.218.288-.855.288h-4.951c-.537 0-.777-.027-.827-.296l-.005-.028-.02-.02c-.035-.033-.089-.05-.166-.05a.383.383 0 00-.179.038l-.033.022-.006.039a12.366 12.366 0 01-.452 1.771l-.013.037.018.035c.073.144.317.215.449.115l.019-.014.01-.022c.122-.277.237-.539.517-.796.264-.242.861-.275 1.412-.275h.658c.268 0 .268 0 .268.291v5.355c0 1.298-.075 1.356-.659 1.405l-.431.037-.04.013c-.072.044-.112.134-.107.24.003.081.035.18.114.22l.02.01.023-.001a51.18 51.18 0 011.662-.035c.469 0 .855.011 1.567.035l.023.001.02-.01c.099-.05.115-.189.118-.232.007-.104-.024-.186-.083-.226l-.426-.052c-.6-.05-.635-.129-.635-1.405v-5.37c0-.122 0-.236.02-.256.019-.02.149-.02.236-.02h.85c.642 0 1.079.092 1.335.281.113.083.21.387.262.812l.004.027.017.02c.043.054.124.085.217.085.114 0 .209-.048.248-.127l.012-.023-.003-.027c-.035-.343.048-1.308.177-1.788zM134.681 7.43V3.166c0-1.31.036-1.391.646-1.442l.324-.026.02-.013c.059-.04.089-.123.083-.227-.003-.043-.019-.183-.118-.231l-.021-.011-.023.001c-.567.022-.99.035-1.482.035-.515 0-.926-.013-1.506-.035l-.023-.001-.022.011c-.098.048-.114.19-.117.231-.006.104.024.187.083.227l.021.013.322.026c.611.051.647.132.647 1.442V7.43c0 1.29-.031 1.357-.65 1.429l-.331.04-.023.023c-.068.068-.077.18-.064.262.013.088.055.156.112.185l.021.01.024-.001a35.29 35.29 0 011.506-.035c.476 0 .872.011 1.482.035l.023.001.021-.01c.099-.05.115-.19.118-.232.006-.105-.024-.186-.083-.226l-.341-.052c-.619-.072-.649-.139-.649-1.429zm-1.973 27.192c-1.237-.144-1.61-.575-2.444-3.048l-3.939-11.556c-.431-1.265-.89-2.587-1.265-3.853-.058-.201-.259-.259-.431-.259-.317.374-.805.892-1.495 1.093.086.46-.087 1.006-.489 2.04l-2.932 7.763c-1.208 3.22-2.013 5.09-2.53 6.412-.402 1.035-1.035 1.351-1.725 1.408l-.949.087c-.172.143-.115.603.058.719.776-.03 1.81-.087 2.759-.087 1.351.029 2.243.029 2.99.087.259-.116.259-.576.059-.719l-.949-.087c-.691-.057-.835-.229-.835-.575 0-.316.201-1.092.633-2.386l1.006-3.018c.202-.605.374-.691 1.092-.691h4.342c.862 0 .978.086 1.178.719l1.265 3.91c.23.69.374 1.207.374 1.523 0 .289-.402.461-1.005.518l-.834.087c-.202.143-.174.603.057.719.834-.03 1.926-.087 3.305-.087 1.294 0 2.301.029 3.48.087.143-.116.2-.576 0-.719l-.776-.087zm-7.418-7.82h-3.536c-.805 0-.834-.029-.604-.69l1.811-5.002c.317-.862.603-1.552.69-1.696h.058c.173.345.431 1.122.661 1.812l1.552 4.685c.259.777.202.891-.632.891zm1.173-23.948c0-.462.174-1.238 1.335-1.238 1.056 0 1.377.687 1.541 1.286l.016.034c.039.047.104.073.182.073.091 0 .213-.036.265-.116l.015-.024v-.027c0-.489-.101-1.174-.22-1.494l-.023-.061h-.064c-.084 0-.243-.019-.396-.067a4.753 4.753 0 00-1.136-.159c-1.518 0-2.537.865-2.537 2.152 0 1.094.836 1.809 1.335 2.138l1.139.744c.827.531.94 1.083.94 1.598 0 .64-.434 1.286-1.405 1.286-1.212 0-1.742-.935-1.972-1.719l-.013-.026c-.035-.053-.1-.083-.182-.083-.08 0-.194.032-.256.118l-.018.025.001.032c.023.541.177 1.429.335 1.717l.011.023.023.012c.234.137.892.456 1.914.456 1.582 0 2.645-.928 2.645-2.308 0-.958-.504-1.736-1.541-2.377l-.959-.6c-.364-.226-.975-.707-.975-1.395zm-3.017 6.542a.2.2 0 00.073-.186.179.179 0 00-.108-.141l-.027-.006a1.35 1.35 0 01-.775-.314c-.824-.692-1.481-1.702-2.388-3.165-.063-.101-.072-.147-.07-.167.398-.166 1.521-.753 1.521-2.072 0-1.003-.567-1.51-1.042-1.758-.602-.326-1.371-.37-2.045-.37-1.096 0-1.947.03-2.679.095l-.033.01c-.07.035-.116.113-.123.206-.008.104.03.201.098.251l.019.014.407.051c.391.047.447.132.447 1.308v4.302c0 1.267-.03 1.333-.638 1.405l-.335.041-.023.028c-.068.078-.075.192-.059.273.017.081.056.14.112.168l.021.01.024-.001a29.855 29.855 0 012.915 0l.023.001.022-.01c.087-.044.11-.16.114-.207.013-.104-.015-.198-.073-.246l-.02-.016-.278-.04c-.615-.086-.639-.137-.639-1.406v-1.51c0-.171 0-.171.471-.171.46 0 .616.111.775.344.182.264.394.6.599.923.214.34.416.659.576.886.823 1.172 1.443 1.549 2.554 1.549.232 0 .434-.024.556-.065l.028-.014zm-3.611-4.459c-.341.259-.809.293-1.177.293-.541 0-.708-.02-.757-.036-.014-.049-.014-.191-.014-.328V2.063c0-.269 0-.291.686-.291 1.347 0 1.825.944 1.825 1.753 0 .664-.179 1.113-.563 1.412zm-6.19 2.703l.005-.03-.012-.026c-.052-.115-.179-.167-.282-.167a.263.263 0 00-.154.047l-.029.033c-.343.686-.652 1.033-.81 1.12-.257.128-.619.17-1.492.17-.998 0-1.254-.12-1.382-.246-.17-.181-.203-.57-.203-1.183V5.67c0-.233 0-.233.303-.233h.696c.418 0 .731.009.9.057.166.042.251.151.304.388l.107.466.019.039c.044.053.129.086.224.086.11 0 .199-.042.238-.111l.013-.021v-.025c0-.117-.009-.271-.02-.444-.013-.219-.028-.467-.028-.706 0-.251.015-.507.028-.733.011-.183.02-.348.02-.477v-.024l-.013-.021c-.039-.07-.128-.112-.239-.112-.094 0-.179.033-.223.087l-.115.531c-.055.274-.122.315-.227.351-.128.042-.488.066-.988.066h-.696c-.303 0-.303 0-.303-.243V2.194c0-.386 0-.386.268-.386h.862c.509 0 .897.011 1.141.07.546.136.655.481.821 1.004l.023.072.016.03c.041.05.111.078.195.078s.199-.029.252-.109l.018-.026-.015-.177c-.063-.697-.119-1.29-.184-1.473l-.028-.077-.081.02c-.134.032-.876.032-1.595.032h-2.252c-.461 0-.857-.01-1.409-.035l-.024-.001-.021.011c-.098.047-.115.188-.118.229-.007.106.024.189.083.229l.233.039c.612.072.649.152.649 1.419v4.311c0 1.298-.075 1.355-.66 1.405l-.427.04-.023.023c-.069.068-.08.18-.066.261.014.089.055.157.113.186l.021.01.023-.001a45.557 45.557 0 011.626-.035h1.079c1.045 0 2.094.011 3.208.035l.059.001.026-.054c.161-.336.462-1.265.546-1.685zm-8.218-5.967c.065-.066.075-.179.065-.256-.012-.088-.05-.154-.109-.188l-.024-.014-.027.002c-.401.024-.769.035-1.157.035-.471 0-.923-.013-1.239-.035l-.029-.002-.024.014a.27.27 0 00-.12.212.276.276 0 00.082.238l.022.017.243.028c.419.047.457.135.458.135 0 .078-.011.199-.101.434-.206.522-.778 1.894-1.113 2.681a76.75 76.75 0 00-.324.763c-.228.537-.504 1.193-.739 1.708a129.519 129.519 0 01-1.619-3.943c-.35-.86-.551-1.486-.589-1.643.019-.037.123-.088.48-.136l.208-.027.02-.017a.275.275 0 00.082-.238.268.268 0 00-.12-.212l-.023-.013-.027.001c-.534.025-.952.035-1.445.035-.5 0-.882-.011-1.239-.035l-.03-.002-.026.015a.28.28 0 00-.122.217.28.28 0 00.086.232l.022.017.244.028c.466.054.625.267.896.925l2.108 5.199c.251.622.435 1.154.546 1.582l.012.045.043.016c.07.029.142.043.214.043.07 0 .134-.018.184-.051l.027-.018.01-.031c.205-.643.78-2.054 1.242-3.117l.646-1.473c.556-1.26 1.018-2.209 1.336-2.744.153-.246.313-.356.551-.376l.394-.026.025-.025zM97.605 18.35c-2.186 1.696-3.623 4.428-3.623 7.619 0 3.709 1.783 6.325 4.083 7.907 2.099 1.407 4.571 1.925 7.159 1.925 1.84 0 3.91-.431 4.542-.661a5.85 5.85 0 011.006-.288c.432-.545 1.179-2.443 1.38-3.939-.114-.201-.546-.258-.747-.114-.661 1.696-2.301 4.111-6.009 4.111-4.715 0-8.539-3.336-8.539-9.373 0-5.95 3.738-8.739 8.137-8.739 4.169 0 5.462 2.241 5.893 4.197.201.172.633.144.777-.058a61.301 61.301 0 01-.404-4.225c-.259.028-.459-.028-.804-.116-1.352-.373-3.537-.69-5.089-.69-2.99 0-5.663.806-7.762 2.444zM93.93 7.43V3.166c0-1.297.042-1.391.645-1.442l.324-.026.02-.013c.06-.04.09-.123.083-.229-.003-.041-.019-.182-.118-.229l-.021-.011-.023.001c-.566.022-.989.035-1.482.035-.515 0-.926-.013-1.506-.035l-.022-.001-.021.011c-.099.048-.116.188-.119.231-.006.104.024.187.084.227l.02.013.323.026c.604.051.647.145.647 1.442V7.43c0 1.29-.031 1.357-.651 1.429l-.331.04-.022.023c-.068.068-.079.181-.066.263.015.087.057.156.114.184l.021.01.023-.001a35.254 35.254 0 011.506-.035c.474 0 .887.011 1.482.035l.023.001.021-.01c.099-.05.116-.19.118-.232.007-.104-.023-.186-.084-.226l-.339-.052c-.619-.072-.649-.139-.649-1.429zm-6.013 23.542V20.736c0-3.047.057-3.536 1.753-3.68l.719-.057c.173-.115.115-.633-.058-.719a82.682 82.682 0 01-3.565.086c-1.207 0-2.185-.028-3.621-.086-.173.086-.231.604-.059.719l.719.057c1.697.144 1.754.633 1.754 3.68v10.236c0 3.047-.057 3.449-1.754 3.65l-.719.087c-.172.173-.114.632.059.719a83.144 83.144 0 013.621-.087c1.151 0 2.128.029 3.565.087.173-.087.231-.605.058-.719l-.719-.087c-1.696-.201-1.753-.603-1.753-3.65zm1.482-29.299a.305.305 0 00.076-.245.27.27 0 00-.116-.198l-.025-.015-.029.002c-.393.022-.706.035-1.229.035-.423 0-.817-.01-1.41-.035h-.019l-.016.006c-.07.025-.119.09-.136.178a.302.302 0 00.084.278l.021.017.231.027c.411.051.62.113.676.198.143.226.225 1.112.225 2.431v2.563c0 .115 0 .25-.007.342a50.201 50.201 0 01-1.39-1.52l-1.667-1.87c-1.185-1.329-1.863-2.201-2.017-2.592l-.027-.069-.072.012a3.96 3.96 0 01-.538.034c-.21 0-.846 0-1.346-.035l-.026-.002-.022.012a.239.239 0 00-.121.18.31.31 0 00.073.266l.022.023.235.027c.319.04.558.131.686.259.224.245.24.465.24.8v3.571c0 .579.002 1.935-.148 2.322-.028.06-.129.142-.454.184l-.355.04-.022.023a.29.29 0 00-.074.228.283.283 0 00.109.211l.026.019.033-.002c.416-.024.737-.035 1.24-.035.406 0 .811.01 1.398.035l.032.001.025-.018a.27.27 0 00.106-.179.333.333 0 00-.061-.249l-.024-.034-.415-.04c-.286-.022-.488-.089-.537-.18-.13-.229-.204-1.117-.204-2.435V3.633c0-.215.004-.444.025-.606.191.213.508.588.793.925.196.232.377.445.494.58l2.779 3.161c.924 1.052 1.366 1.574 1.528 1.801l.027.04h.048c.157 0 .275-.073.315-.195l.006-.02-.003-.019c-.015-.14-.035-.614-.035-2.085V4.189c-.002-.614-.006-1.89.171-2.265.015-.029.158-.131.601-.201l.198-.029.022-.021zM78.66 1.655a.33.33 0 00.064-.252.253.253 0 00-.111-.173l-.024-.015-.029.002c-.416.022-.74.035-1.253.035-.459 0-.905-.011-1.36-.035l-.031-.002-.025.017a.267.267 0 00-.106.187.3.3 0 00.062.237l.025.03.337.025c.275.023.462.097.526.206.14.246.217 1.11.217 2.435v1.377c0 1.412-.399 3.094-2.304 3.094-1.596 0-2.34-.987-2.34-3.106V3.13c0-1.275.041-1.367.634-1.419l.311-.024.02-.014c.06-.039.09-.12.084-.222-.005-.084-.04-.185-.118-.224l-.021-.011-.023.001c-.568.022-.971.035-1.47.035-.493 0-.916-.013-1.481-.035l-.024-.001-.021.011c-.078.038-.112.14-.118.223-.007.102.023.183.083.223l.02.014.323.024c.594.052.635.144.635 1.419v2.826c0 1.449.298 2.343.966 2.898.528.452 1.302.68 2.301.68.943 0 1.846-.347 2.354-.904.581-.622.864-1.579.864-2.925V4.352c0-.608 0-2.031.159-2.407.056-.12.261-.212.523-.234l.326-.025.025-.031zM64.889 16.999c.172-.115.114-.633-.058-.719a67.357 67.357 0 01-3.334.086c-1.237 0-2.215-.056-3.623-.086-.173.086-.23.604-.058.719l.748.057c1.495.115 1.696.605 1.696 3.623v10.35c0 3.018-.058 3.306-1.667 3.593l-.489.087c-.173.173-.115.632.057.719 1.121-.03 2.099-.087 3.336-.087 1.121 0 2.098.029 3.65.087.173-.087.23-.605.058-.719l-.834-.087c-1.609-.172-1.753-.575-1.753-3.593v-4.054c0-.863.057-.92 1.437-.92h8.222c1.38 0 1.438.057 1.438.92v4.054c0 3.018 0 3.306-1.754 3.593l-.546.087c-.173.173-.115.632.058.719a72.25 72.25 0 013.478-.087c1.121 0 2.099.029 3.479.087.172-.087.23-.605.057-.719l-.69-.087c-1.668-.201-1.725-.575-1.725-3.593v-10.35c0-3.018.057-3.45 1.725-3.623l.604-.057c.173-.115.115-.633-.057-.719a71.547 71.547 0 01-3.393.086c-1.179 0-2.157-.028-3.478-.086-.173.086-.231.604-.058.719l.546.057c1.696.173 1.754.605 1.754 3.623v3.306c0 .891-.058.92-1.438.92h-8.222c-1.38 0-1.437-.029-1.437-.92v-3.306c0-3.018.057-3.45 1.724-3.623l.547-.057zm-1.16-9.359l.006-.03-.012-.026c-.052-.115-.179-.167-.282-.167a.268.268 0 00-.155.047l-.029.033c-.343.686-.653 1.033-.809 1.12-.258.128-.62.17-1.492.17-.999 0-1.255-.12-1.383-.246-.169-.181-.202-.57-.202-1.183V5.67c0-.233 0-.233.303-.233h.695c.419 0 .731.009.901.057.166.042.251.151.303.388l.108.466.018.038c.045.054.129.087.225.087.109 0 .198-.042.238-.111l.012-.021v-.025c0-.117-.009-.271-.02-.444-.013-.219-.028-.467-.028-.706 0-.251.015-.507.028-.733.011-.183.02-.348.02-.477v-.024l-.012-.021c-.04-.07-.129-.112-.239-.112-.095 0-.179.033-.224.087l-.116.531c-.053.274-.121.315-.225.351-.128.042-.488.066-.989.066h-.695c-.303 0-.303 0-.303-.243V2.194c0-.386 0-.386.267-.386h.863c.509 0 .897.011 1.14.07.546.136.655.481.822 1.005l.022.071.017.03c.041.05.11.078.195.078.082 0 .199-.029.252-.108l.018-.027-.016-.177c-.062-.698-.12-1.29-.183-1.472l-.029-.078-.08.02c-.133.032-.877.032-1.595.032h-2.252c-.461 0-.857-.01-1.409-.035l-.024-.001-.022.011c-.098.047-.114.188-.117.229-.007.106.023.189.083.229l.233.039c.613.072.649.152.649 1.419v4.311c0 1.298-.075 1.355-.66 1.405l-.428.04-.024.023c-.068.068-.078.18-.065.263.015.087.055.155.113.184l.021.01.024-.001a45.51 45.51 0 011.626-.035h1.078c1.044 0 2.094.011 3.208.035l.06.001.026-.054c.16-.334.461-1.263.545-1.685zm-10.012-.186V3.143c0-1.278.036-1.357.635-1.419l.252-.024.042-.015c.06-.04.09-.123.083-.227-.002-.041-.018-.183-.116-.231l-.022-.011-.023.001c-.58.025-.975.035-1.411.035-.518 0-.937-.013-1.444-.035l-.024-.001-.021.011c-.099.047-.116.188-.119.229-.006.106.024.189.084.229l.269.039c.612.062.648.141.648 1.419V4.52c0 .291 0 .291-.506.291h-3.427c-.506 0-.506 0-.506-.291V3.143c0-1.278.035-1.357.636-1.419l.227-.024.042-.015c.06-.04.09-.123.084-.227-.003-.043-.02-.183-.119-.231l-.021-.011-.023.001a28.62 28.62 0 01-1.386.035c-.313 0-.586-.009-.883-.018-.192-.005-.394-.012-.623-.017h-.024l-.019.01c-.099.047-.115.188-.119.229-.006.106.023.189.084.229l.019.013.337.026c.528.041.621.149.621 1.419v4.311c0 1.247-.023 1.301-.618 1.407l-.232.04-.021.021c-.069.068-.078.181-.065.263.013.087.055.155.113.184l.02.01.023-.001c.165-.004.322-.009.479-.015.283-.01.576-.02.908-.02.451 0 .832.011 1.519.035l.023.001.021-.01c.079-.04.113-.146.118-.234.006-.103-.025-.185-.084-.224l-.389-.052c-.575-.06-.648-.118-.648-1.405V5.765c0-.291 0-.291.506-.291h3.427c.506 0 .506 0 .506.291v1.689c0 1.275-.012 1.301-.652 1.406l-.258.041-.021.021c-.068.068-.079.181-.065.263.015.087.056.156.114.184l.021.01.024-.001c.573-.025.992-.035 1.444-.035.473 0 .888.012 1.447.035l.023.001.021-.01c.099-.049.115-.189.118-.232.007-.103-.024-.186-.084-.226l-.327-.051c-.608-.073-.638-.139-.638-1.406zm-9.849-6.386l.009-.034-.016-.031c-.046-.09-.18-.098-.219-.098a.326.326 0 00-.113.019l-.03.013-.016.027c-.154.266-.218.288-.854.288h-4.953c-.536 0-.776-.027-.827-.296l-.005-.028-.02-.02c-.034-.033-.088-.05-.166-.05a.378.378 0 00-.178.038l-.033.022-.006.039a12.502 12.502 0 01-.452 1.771l-.013.037.017.034c.072.145.318.215.45.116l.019-.014.01-.022c.121-.276.236-.538.516-.797.264-.241.862-.274 1.412-.274h.659c.267 0 .267 0 .267.291v5.355c0 1.298-.074 1.355-.658 1.405l-.432.037-.04.013c-.071.044-.111.133-.106.239.003.081.035.181.113.221l.021.01.023-.001a51.235 51.235 0 011.662-.035c.468 0 .855.011 1.567.035l.023.001.021-.01c.078-.04.112-.146.117-.234.007-.103-.024-.185-.084-.224l-.426-.052c-.599-.05-.635-.13-.635-1.405V2.086c0-.122 0-.237.02-.258.02-.02.15-.02.236-.02h.85c.642 0 1.078.092 1.335.281.114.085.212.387.263.811l.003.028.018.02c.043.054.125.085.217.085.113 0 .209-.048.247-.127l.012-.023-.003-.027c-.034-.344.049-1.309.178-1.788zm-8.16 24.901c0 3.709 1.783 6.325 4.083 7.907 2.098 1.407 4.571 1.925 7.158 1.925 1.84 0 3.91-.431 4.542-.661.317-.115.662-.23 1.007-.288.431-.545 1.178-2.443 1.379-3.939-.115-.201-.545-.258-.747-.114-.661 1.696-2.3 4.111-6.008 4.111-4.715 0-8.54-3.336-8.54-9.373 0-5.95 3.738-8.739 8.136-8.739 4.17 0 5.464 2.241 5.895 4.197.201.172.632.144.776-.058-.23-1.753-.374-3.563-.402-4.225-.26.028-.461-.028-.805-.116-1.352-.373-3.537-.69-5.089-.69-2.991 0-5.664.806-7.762 2.444-2.186 1.696-3.623 4.428-3.623 7.619zm-7.477-4.851L28.23 1.092C12.144-.459 0 1.092 0 1.092v20.03c1.283 13.574 13.997 15.169 14.118 15.147 2.271-.41 12.929-2.553 14.113-15.151zm-.703-.11c-1.124 12.094-11.247 14.151-13.403 14.545-.115.021-12.189-1.51-13.406-14.542V1.781s11.53-1.488 26.809 0v19.227zm-4.1 7.117c.451-.644.71-1.34.863-2.09a2.552 2.552 0 01-1.035.796c-.273.862-.144 1.753.172 1.294zm.433-1.939c.322-.272.508-.734.923-.873-.314-.287-.621.286-.781.087.288-.455.471-.802.502-1.372.016-.306.373-.591.456-.761-.342.049-1.257.589-1.442.899-.616.814-.583 1.576-3.156 2.712-.128 0 .475-.44.647-.948.081-.238.42-1.34.186-1.873-.531.54-.423.715-.572 1.116-.384 1.053-.594 1.152-1.554 1.801-.127.087-.864 1.223-1.819 1.279.097-.027.042-.265.364-.476 1.07-.7.662-2.213 2.058-2.464-.695-.247-1.171.43-1.299.362.562-.778.067-1.439.149-2.074-.187.099-.375.328-.392.516-.106 1.133-.635 1.331-.689 1.819.113.808-.536 1.438-1.012 2.005-.093-.47.031-.889.624-1.279.327-.215-.032-.858-.032-.858-.132.705-.529.92-.776.956-.215.03.757-.988.644-1.919-.05-.414-.169-.23-.235-.694-.839.93-.225 1.507-1.084 2.581-.407.509-.561 1.405-.615 1.427.009-1.332.053-.942.646-2.025.487-.891-.028-1.722-.094-2.259-1.067.734-.978 2.151-1.005 1.845-.027-.302-.16-.834-.017-1.314.238-.798-.266-2.015-.266-2.015-1.493 2.343-.24 5.079-.334 5.045-.649-1.014-1.121-1.055-1.262-1.833-.077-.423-.847-2.743-2.26-2.785.713.615.541.7.588 1.704-.454 2.518 3.067 2.779 2.831 4.084-.483-.773-1.219-1.1-2.328-1.704-.493-.39-1.047-.562-1.077-1.171.059-.443.084-.351.008-.927-.055-.412-.459-.163-.757-1.022-.635.576-.402 1.227-.351 1.598.016.104.088.496-.01.726-.226-.158-.382-.479-.635-.799-.457-.585-.451-1.292-.68-1.785-.106-.228-.257-.54-.346-.543l-.017.008c-.111.916-.057 1.715.358 2.402 0-.001-.114.196-.207.247-.394-.104-.955-.437-1.182-1.08-.491.413-.142.945-.166.935-1.102-.563.013-2.753-1.557-2.688.387.422.142.964.108 1.469-.009.82 1.034 1.459 1.034 1.459-1.163-.393-1.401.152-1.388.152 0 0 1.713.744 4.418 1.024.348.036.844.445.762.445-.347-.027-1.035-.474-2.027.406.584.015.984.965 1.933.42 2.448-.693 3.355.522 3.753.834-.085.154-1.88-1.128-3.306-.278-.758.453-1.975.042-2.928-.67.385.982 2.024 2.089 2.564 2.09.666.001 1.514-.867 2.478-.819 1.544.076 1.759 1.455 1.588 1.348.001.001-1.214-2.009-2.775.137.729-.335 1.705-.249 2.559.157.115.054-.209.414-.439.674-.15.169-.801 1.135-1.505.185-.106-.142-.441-1.023-2.644-.836.833.375 1.75 1.359 2.204 1.808 1.154 1.142 2.898-1.386 2.964-1.104 0 .568.292.845.445 1.152.387.772-.49.643-.966.444 0 0 .91 1.419 1.673.63.843-.875-1.105-1.535-.486-2.231.348-.391 1.573.876 2.127.88 1.498.167 1.419-1.255 2.209-1.213-.742-.754-1.533-.344-1.699-.15-.498.581-1.076.19-1.476-.122-.22-.289-.587-.333-.913-.245-.156.011.314-.55.924-.432 1.377.268 2.757-.227 3.096-.417.554-.311.865-.839 1.485-1.43-.194.038-1.339.675-1.707.861-1.104.555-1.794-.165-1.918-.161-.212.006-.157-.161.176-.268 1.132-.253 1.913-1.251 2.992-1.645 1.191-.532 2.703-.171 3.71-1.167zm-2.247-1.493c-.034.235-.035.419-.109.686-.007.025.264.136.387.241.173-.162.33-.244.512-.472-.041-.025-.766-.657-.768-.63-.005.085-.007.074-.022.175zm.111 1.08s-.278-.212-.294-.17a4.363 4.363 0 01-.188.422c-.073.147.146.042.482-.252zm3.288-2.854c-.068-2.596-1.661-5.477-1.228-4.94 1.085 1.339 1.433 4.245 2.176 6.747 0-.001.478.243.377-2.931-.022-.645-.284-1.499-.602-2.096-.63-1.178-1.906-3.164-1.87-3.179.308-.25 1.057 1.464 1.709 2.137.423.437 1.596.864 1.677.808-.941-1.825-3.221-3.543-2.982-3.756 1.678 1.572 2.208 1.647 2.277 1.565l-1.511-1.468c-.427-.573-.992-1.013-.913-.995.674.149-.352-.561-1.144-.778-.144-.038-.372-.051-.38-.122-.013-.123.186-.071.353-.123.109-.031.218-.115.221-.27-.302.065-.612-.005-.871-.122-.535-.249-1.492-.537-1.934-.363-.258.102-.306.086-.584.301-.122-.051-.46-.267-.936.309-.148.178-.326.385-.334.539-.02.384.008.019.103.384.038.154-.136.435-.839.67-.272.092-.204.361-.204.361.135-.065.348-.217.677-.063.643.302.769-.175 1.168-.513 0 0-.11.427 0 .45.499.102.332.477.269.534-.63.56-.365.773-.591 1.12-.211.328-.537.45-1.025.435-.672-.021.879-1.036-.605-1.458.234.389.327.702-.192 1.002-.326.19-.16 1.156-.999.709 0 0-.068.715-.164.746 1.138.997.502 1.542.559 2.965.356.909-.035 1.341-.124 1.391.057.614.114.952.498 1.451.278.364-.025.921.259 1.309.261-.925.541-.539.616-1.826.105-.217.538-.598.784-.622-.004.776.283 1.482.221 1.809 0 0 .655-.119.857-.048.161.056.285.268.29.397-.222.139-.223.086-.559.331-.588.428-.858 1.301-.858 1.301-.003.001 1.381-1.101 1.48-1.301.079-.157.154-.401.227-.651.008-.027-.713-.447-.91-.833-.618-1.201.957.712.994.546.093-.415.382-.807.382-.807-.101-.118-.348-.192-.724-.855-.861-1.517.998.648.998.648.493-.283.496.094.559.494.006.038.836.65.877.69.234-.218.404-.515.5-.72.012-.027-1.501-1.37-1.76-1.813-2.086-3.577 1.688 1.588 1.867 1.445.099-.279.134-.664.122-1.186 0-.012-.71-.502-1.164-1.252-1.753-2.895 1.15.863 1.149.837-.035-.62-.542-3.309-.191-2.501.18.415.745 2.133.641 3.882.195-.318 1.004-.641 1.311-.721zm1.141-17.237l.032.228a12.555 12.555 0 01-.03-.228s-.052-.967-1.089-.967c-.337 0-.748.412-1.797-.044v1.641c.426.125 1.592-.541 2.058-.744.332-.145.803-.049.826.114zm-2.913 2.376v1.64s.916-.006 1.933-.662c.305-.195.756-.115.98.063h.002s-.137-1.075-1.048-.942c-1.674.244-1.867-.099-1.867-.099zm-6.258 2.606c.872 0 4.298.94 5.95.827v-8.62s-2.432.343-4.536-.434c-1.719-.633-4.082.474-4.082.474.003.294 0 8.453 0 8.453s.871-.7 2.668-.7zm-1.858-2.839c.083.008.33.013.418.013a38.479 38.479 0 000 1.594c.01.131.126.172.239.12.057-.023.109.016.034.078-.126.094-.279.315-.349.401-.144-.099-.302-.223-.29-.342.018-.206-.045-1.691-.052-1.864zm.453-1.865c.25-.138.812-.225 1.005-.164.097.026.196 0 .196-.045 0-.065.091-.048.091 0 0 .049-.002.664-.008.722 0 .059-.089.053-.089 0 0-.089 0-.117-.078-.235-.224-.338-.845-.366-1.152.041-.106.136-.145.374-.026.414.115.039.556.004.7-.022.142-.026.498-.085.539-.114.041-.025.096-.058.096.011 0 .073 0 .307-.004.378 0 .073-.056.037-.093.01-.042-.024-.376-.058-.521-.067-.241-.021-.605-.097-.725-.06-.12.035-.026.223.078.362.304.41.871.423 1.098.088.084-.121.084-.146.084-.231 0-.054.091-.065.091 0l-.005.615c0 .05-.094.065-.094-.003.004-.107-.064-.1-.188-.064-.329.088-.769.117-1.03-.032-.276-.158-.518-.209-.525-.817-.004-.368.338-.66.56-.787zm1.805-2.626c-.149.043-.255.191-.291.342-.029.155-.532 1.615-.592 1.711-.121-.456-.625-1.541-.786-1.772-.14-.205-.272-.167-.4-.17-.123 0-.077-.118.025-.109.141.017.937.087 1.163.119.081.017.083.09-.023.123-.055.014-.183.076-.183.139 0 .086.289.721.369.841.067-.163.34-.86.286-1.013-.059-.151-.081-.176-.195-.187-.113-.014-.113-.08.023-.101.136-.022.515-.053.628-.04.114.011.128.076-.024.117zm.857.019l-.15.128h-.123l-.124-.122-.005-.241.2-.17.202.196v.209zm.347 1.688l-.267.345h-.248c-.122-.122-.204-.219-.228-.318l-.013-.83-.31-.177c-.057.078-.171.078-.127.012l.426-.374.093-.01.271.271-.005.858c.135.154.214.189.408.223zm1.501-.985c-.063 0-.707.078-.707.078-.034.015.033.813.058.878.019.066.081.166.154.101.065-.064.142.044.063.108-.045.036-.187.318-.252.359-.102.066-.249-.145-.297-.276-.078-.218-.129-.761-.128-1.124.022.006-.301-.128-.155-.185.283-.122.555-.498.59-.596.035-.098.125-.057.079.041-.094.198-.084.339-.044.456.013.031.558.019.639.019.047 0 .045.141 0 .141zm-.741 2.75c-.055.279.186.506.37.604.148.076.402.034.466.024.061-.01.044-.028.09-.071.047-.044.101-.004.063.039-.042.045-.415.4-.517.471-.095.024-.304.017-.429-.142-.221-.276-.381-.376-.312-.881.049-.343.62-.639.751-.711.053.05.312.324.426.416-.045.056-.189.121-.327.12-.141 0-.236-.118-.329-.223-.066.063-.211.147-.252.354zm2.281-1.361l-.344.377a.43.43 0 01-.191-.275c-.264.051-.444.208-.565.302-.109-.099-.273-.362-.275-.543-.005-.181.139-.447.236-.538.01.003.019.008.029.014a1.353 1.353 0 01-.153-.102c-.037-.034-.05-.122 0-.194.068-.09.283-.359.492-.39.112-.015.301.014.56.245-.033.04-.033.794-.033.873.091.111.244.231.244.231zm.707 1.707a1.508 1.508 0 01-.291-.042c-.098-.027-.056-.139.023-.139a.92.92 0 01.264.046c.056.023.081.143.004.135zm-.007.268a1.488 1.488 0 01-.289-.043c-.099-.03-.059-.138.023-.138.078.002.203.025.259.046.056.023.08.144.007.135zm-1.796 1.59c.114-.066.385-.313.479-.377.156.122.258.242.335.328.104-.054.266-.171.344-.236.139.096.292.224.349.291.072-.067.162-.014.078.069a7.26 7.26 0 01-.326.283c-.101-.054-.273-.252-.33-.295-.028.026-.086.053-.135.081-.003.109 0 1.002-.008 1.112-.146.008-.266.018-.366-.003-.009-.142.005-.916 0-1.041-.009-.154-.255-.208-.42-.212zm-.059-1.722c.013-.447.309-.825.788-.996.378.127.536.509.549.767.008.209-.13.484-.224.654-.148.098-.298.243-.44.378-.459-.003-.682-.542-.673-.803zm-1.775 1.467c.138-.154.286-.253.37-.339a.97.97 0 01.272.297c-.004.196-.045.609-.032.753.008.139.566.235.591.027.025-.206.007-.471 0-.592-.01-.094-.23-.138-.342-.124.15-.157.278-.274.373-.361.134.102.266.247.346.368-.003.21-.04.699-.01.828.038.135.025.144.125.211-.103.097-.18.139-.25.215-.105-.03-.283-.188-.272-.329a3.105 3.105 0 01-.641.28c-.136-.142-.24-.178-.249-.349-.008-.178.04-.635-.017-.744-.054-.109-.149-.133-.264-.141zm-.318-1.259a1.534 1.534 0 01-.424-.406c-.182.234-.226.432-.559.518.193-.161.37-.518.356-.857-.015-.309-.181-.459-.329-.516-.127.061-.237.144-.303.173-.07.028-.089-.082-.039-.104.163-.08.518-.351.567-.404.151.027.338.159.364.28.114-.071.317-.291.377-.341.07.12.274.267.501.35-.208.354-.669.143-.735.055-.074.124-.092.198-.017.355.094.213.473.412.669.465-.06.063-.331.37-.428.432zm-.531 1.075c.021.005-.296-.12-.161-.187.239-.117.475-.365.512-.468.036-.095.127-.053.079.046-.046.097-.079.336-.052.41.01.032.19.048.272.049.046 0 .043.143-.004.143-.059-.002-.284.003-.284.003-.032.015-.008.801.011.869.025.064.211.109.279.045.069-.064.141.002.057.064-.042.037-.185.26-.296.305-.116.045-.291-.031-.366-.144-.125-.187-.052-.775-.047-1.135zm-.728 1.272c-.116-.088-.215-.111-.252-.249-.3.115-.413.289-.593.414a.671.671 0 01-.196-.456c-.003-.178.172-.42.271-.512-.012-.013-.019-.014-.033-.026-.039-.033-.095-.295-.042-.364.066-.094.334-.462.543-.479.145-.013.257.166.379.299-.03.034-.016.674-.021.752.134.143.189.176.269.123.081-.055.113 0 .056.053-.056.055-.31.369-.381.445zm-.264-.781c0-.136-.002-.27-.012-.333.011-.1-.202-.246-.258-.249-.061 0-.108.022-.185.139-.038.062-.029.304.004.33.179.151.291.133.451.113zm-.359.084c-.161.304-.029.368.062.442a2.38 2.38 0 00.292-.164l.004-.273c-.182.02-.241.06-.358-.005zm4.311-1.816c.074.192.398.441.486.484.135-.162.208-.459.177-.71-.022-.194-.272-.405-.486-.483-.274.167-.274.451-.177.709zM20.8 5.547a.69.69 0 01.278-.083 1.039 1.039 0 01-.008-.144l.005-.288a2.872 2.872 0 01-.504-.22c.024.016.049.028.073.042-.177.326.064.617.156.693zm-.349-.911c.121.1.455.257.625.317a2.424 2.424 0 00-.013-.353c.011-.096-.329-.278-.382-.278-.061-.006-.149.095-.226.21-.04.063-.036.077-.004.104zm-6.443 7.812c-.272.031-.601.191-.683.477-.166.163-.158-.275-.493-.083-.143.194.23.623.141.649-.366.112-.319-.549-.528-.566-.3.106-1.057.799-.313 1.346-.024-.37.677-.773.908.044.703-.053.94.373 1.026.614 1.035.184.737.87.708.87-.098-.148-.544-.833-1.272-.36-.169.11-.462.216-.606.073.014.229.304.437.503.382.648-.177.812.426.316.59.106.165.31.156.498.041.279-.169.311-.321.412-.423.177.845-.893.926-1.234.977.052.18.168.22.383.282-1.128.039-1.35 1.097-1.283 1.707.254.02.646-.533.612-.216-.799.847-1.068 1.982-.648 2.706.2-.082.262-.303.333-.484.031-.02.441.161-.215.948-.046.205-.276.822.23.97.193-.227.164-.427.207-.659.146-.059.242.417.186.561-.659.273-.577 2.295.186 3.38-.353-.789-.306-1.801 0-2.611.236-.625.754-2.03.768-2.014.293.361.665 1.911.665 2.552.412-.359.492-.752.83-1.016.16.563.224.934.353 1.431.162-.485.595-1.032-.023-2.605.127-.116.361.545.435.513.056-.022.141-.352-.069-.966-.435-.406-.532-1.002-.463-1.046.055-.037.251.617.481.649.047-.507.171-1.026.132-1.42-.008-.102-.177-.626-.658-1.06-.278-.25-.385-.775-.36-.879.269.247.21.429.438.528.095-.213.03-1.003-.247-1.349-.158-.261-.084-.225.106-.067.249.295.128.272.343.395.469-1.107.043-1.322.076-1.4.028-.069.362.516.645.291-.462-.243-.449-.614-.501-1.013-.04-.317-.244-.436-.166-.512.46.346.587-.038.602-.115-.089.05-.498.104-.548-.532-.02-.251-.406-.362-.405-.361.237-.046.996-.088.814-.842-.091.178-.316.458-.789.349 0 0 .303-.082.248-.41-.73.41-1.321-.424-2.081-.316zm1.351.994c-.483.093-.843.62-1.391.396-.071-.047-.221-.087-.201-.195.098.056.252.092.36.108 0 0-.295-.244-.036-.544-.33.209-.446.151-.446.042 0-.05.433-.366.842-.212.295.112.549.338.872.385v.02zm-.779.008c0 .113-.145.272-.145.272l.524-.266c-.105-.068-.4-.234-.523-.27 0 0 .144.112.144.264zm-3.095-2.786c1.315.087 2.435.694 2.435.694V2.881s-1.933-1.353-5.073-.142c-.924.357-3.171.058-3.171.058v8.664c1.971.134 4.539-.882 5.809-.797zm-.936-4.561c.252.08.627.02.745.357.126.353-.104.809-.396.829-.248.021-.47-.062-.608-.05-.065.005-.111.025-.122.094-.009.075-.107.107-.127.009a5.576 5.576 0 01-.049-.614c0-.119.109-.129.129 0a.573.573 0 00.156.323c.075.086.559.205.738.063.143-.114.109-.366-.041-.465-.149-.097-.748-.236-.849-.408-.175-.292.136-.536.273-.616.214-.119.462-.081.548-.079.084 0 .195.027.201-.064.006-.089.074-.082.083.011.028.263.054.106.046.384 0 .128-.046.129-.1.031-.035-.064-.404-.373-.701-.18-.253.166-.158.311.074.375zm.722 1.736c-.109.103-.197.202-.291.307a3.47 3.47 0 01-.305-.246.589.589 0 00.299-.275c.063.139.189.193.297.214zm-1.609.654c.134-.097.362-.518.392-.614.029-.098.085-.065.075.04-.011.149-.08.48-.054.549.012.033.224.031.296.031.046 0 .049.136.005.136-.057 0-.294.036-.294.036-.033.014-.016.506.03.558.096.09.167.154.297.016.063-.064.128-.004.053.062-.039.037-.218.255-.258.363-.04.105-.276.024-.352-.087-.12-.179-.069-.54-.078-.892.022.007-.226-.112-.112-.198zM9.481 7.47c-.086.076-.276-.044-.346-.16-.109-.185-.074-.617-.06-.967.014.001-.062-.087-.135-.102-.093-.023-.109-.056.035-.115.175-.069.448-.492.486-.587.034-.094.087-.005.036.086-.109.209-.064.452-.046.524.012.034.343-.012.414-.012.047.003.041.141-.002.137-.057-.001-.492.052-.492.052-.03.017.035.7.079.752.006.008.143.127.195.075.066-.06.129.005.052.069-.042.032-.116.168-.216.248zM7.923 8.518c.161-.128.246-.222.356-.326.096.152.139.294.224.358.115-.098.306-.218.391-.313.084.041.23.129.241.428.006.298.046.765.046.867 0 .056.016.038.103.02.081-.022.113.018.051.073-.064.051-.357.257-.436.344a.674.674 0 01-.08-.523c.035-.157.006-.582.006-.678 0-.096-.146-.129-.209-.184-.087.065-.097.076-.173.148 0 .128-.017 1.024.003 1.141-.201.009-.18-.004-.298-.004-.009-.173-.003-.863-.013-1.012-.011-.147-.137-.254-.212-.339zm-1.346.486c.086-.584.651-.82.821-.936.031.169.226.464.352.582-.191.157-.631.525-.8.653.093.169.442.29.559.161.087-.086.194-.057.097.056a2.649 2.649 0 00-.321.486c-.254-.109-.783-.443-.708-1.002zm-.144-2.695c.14-.21.47-.412.695-.493.071.084.157.213.262.351a1.98 1.98 0 00-.277.265c-.048-.055-.318-.457-.508-.176-.103.15-.211.59.14.861.171.13.351.172.585.135-.12.155-.15.2-.217.335-.339.059-.477-.049-.643-.188-.353-.287-.242-.779-.037-1.09zm1.524-.774c-.059-.085-.074-.162-.195-.129-.305.087-.639.18-.881.038-.258-.158-.481-.209-.487-.798-.006-.358.311-.642.518-.763.234-.135.638-.048.819.006.088.028.156.017.162-.097.002-.062.099-.046.097 0l-.004.835c-.002.057-.12.062-.117.008 0-.082-.029-.239-.055-.367-.041-.192-.54-.542-.9-.071-.009.023-.154.272-.135.464.012.143.035.344.131.477.283.401.686.266.897-.061.076-.118.064-.264.069-.348 0-.052.114-.058.114 0l-.006.587c.002.07.054.124.081.16.07.107-.01.191-.108.059zm.262.422c.133-.015.245.256.363.384-.034.036-.034.835-.034.911.028.045.121.098.16.061.064-.061.106 0 .051.053-.051.052-.312.277-.378.35-.09-.07-.123-.171-.136-.31a.65.65 0 00-.404.272c-.178-.081-.317-.236-.322-.409-.004-.181.119-.285.25-.406a1.27 1.27 0 01-.069-.055c-.037-.033-.087-.321-.052-.401.086-.2.373-.432.571-.45zm1.445-1.951c-.075.075-.248.185-.316.235-.089-.052-.198-.212-.253-.254a.663.663 0 01-.127.078c0 .106.005 1.05-.005 1.158-.133.007-.248.016-.342-.004-.01-.138.009-.891.003-1.014-.011-.15-.144-.16-.318-.211.099-.121.283-.256.367-.32.15.118.243.118.318.204.097-.053.268-.156.344-.22.071.084.203.22.254.282.07-.067.153-.011.075.066zm1.373.922c-.085.042-.258.221-.396.221-.415-.017-.938-.319-.862-.876.081-.581.538-.802.734-.808.225.016.278.209.404.326-.191.157-.506.467-.691.655.046.099.26.466.717.35.21-.048.278.042.094.132zm1.65-1.014a4.44 4.44 0 01-.412.349c.03.006.059.011.089.029.317.185.424.446.113.692-.169.137-.447.291-.745.297-.198.005-.55-.161-.615-.231.162-.151.335-.316.46-.423-.196-.15-.379-.353-.229-.584.113-.175.46-.453.768-.441.306.014.444.225.571.312zm.193 1.592l.186.193v.2l-.139.126h-.116l-.115-.118-.005-.231.189-.17zm.353-.94c-.435.017-.322-.181-.25-.177.368.021.318.174.25.177zm-.007.26c-.436-.045-.323-.181-.248-.177.407.025.316.185.248.177zm.197 2.57l-.162.174-.203.175c-.116-.12-.198-.152-.218-.246l-.006-.786-.188-.114c-.109.096-.196.054-.098-.033l.362-.335.085-.01.157.232-.007.834c.096.087.096.074.278.109zm-1.621 2.033c-.001-.188.095-.335.226-.471l-.025-.019c-.037-.031-.099-.36-.051-.428.063-.092.354-.37.549-.39.134-.015.333.276.448.404-.031.037.041.838.041.913.04.067.18.114.222.049.055-.07.107.004.055.057-.055.051-.253.212-.316.287-.089-.07-.24-.148-.336-.266-.199.038-.406.181-.566.299-.181-.08-.24-.257-.247-.435zm-.295-2.375c-.122-.337.099-.653.207-.743.086-.072.286-.242.416-.325.125.076.221.131.285.161-.022.062-.051.185-.184.191-.201.006-.357-.048-.465.069-.108.116-.024.447.111.572.101.097.378.22.431.107.066-.148.165-.07.068.058a3.551 3.551 0 00-.246.381.69.69 0 01-.623-.471zm.079 2.334l-.157.174-.15.153c-.117-.119-.201-.142-.221-.236l-.006-.763-.238-.123c-.111.092-.196.052-.1-.031l.36-.337.088-.013.23.338.005.721c.094.085.012.083.189.117zm.565-.334c-.255.213.033.409.111.478.086-.043.198-.061.286-.094-.011-.034-.028-.066-.028-.107 0-.038.006-.122.013-.215-.169.017-.247.029-.382-.062zm.389-.027c.008-.126.014-.255.003-.322.016-.097-.281-.275-.329-.275-.062-.001-.062.034-.132.146-.035.059-.006.242.024.269.161.14.287.185.434.182zm-.499-4.755l.189-.153c-.125-.118-.338-.232-.434-.246-.095-.009-.288.072-.213.172.072.095.148.213.305.235.051.006.102 0 .153-.008zm-.14.286a13.7 13.7 0 00-.334.269c.05.097.377.333.56.249.181-.083.266-.263.099-.356a2.883 2.883 0 00-.325-.162zm-1.708-.221c.084-.063.287-.292.417-.419-.074-.045-.206-.136-.258-.265-.231.184-.274.312-.159.684zM8.238 7.286c-.001-.039-.002-.075-.001-.119 0-.047.002-.17 0-.301-.149.093-.209.164-.364.072-.251.205.133.331.214.4.06-.03.108-.041.151-.052zm-.003-.518a1.874 1.874 0 00-.016-.251c.013-.094-.166-.311-.216-.314-.057-.002-.178.108-.247.215-.035.062-.041.228.035.316.151.172.223.178.444.034zM7.124 8.396c-.481.294-.396.62-.238.818.088-.061.398-.271.524-.398-.073-.044-.236-.291-.286-.42zM4.206 9.545h1.07V8.492h-1.07v1.053zm0-3.666h1.07V4.826h-1.07v1.053zM2.946 8.01c-1.255 0-1.255 1.839 0 1.839 1.216 0 1.208-1.839 0-1.839zm0-3.676c-1.201 0-1.227 1.84 0 1.84 1.208 0 1.208-1.84 0-1.84zM13.745 15.09a.764.764 0 00-.365-.392c-.717-.341-2.093.398-2.078-.679 0 0-.491.366-.267.749.511.873 1.938-.212 2.71.322zm-6.444 8.746c-.401.4-.54.41-.519.584.091.244.268.417.455.625.237.194.324.368.151-.195-.107-.373-.082-.646-.087-1.014zm-2.773-7.583l.021.02c-.004.827-2.325 2.012-3.32 2.545 1.537.531 2.993-.896 2.818-.55-.209.406-2.086 2.025-2.905 2.891.638.177 1.223-.338 1.686-.731.504-.43 1.347-1.509 1.219-.974-1.365 1.685-2.439 5.183-1.777 5.407.379-.793 1.948-4.835 2.047-4.816.104.019-.123 1.067-.157 1.76-.078 1.523-.088 2.245.241 3.744.17-.233.333-.227.601-.208.034-.146.023-.109-.145-.33-.436-.578.066-1.367-.145-1.847-.174-.401-.273-.08-.352-.497.122-.111.447-.146.58-.167.143-1.565.666-2.36.471-1.372-.1.498-.252 1.327-.18 1.352.073.024.08.024.142.056.029.016 2.628-4.261 1.187-1.298-.189.39-.957 1.436-.957 1.436.203.208.393.45.418.597.006.039 3.484-4.577 1.116-.856-.146.228-.857.99-1.038 1.211-.025.029.066.865.066.865a6.012 6.012 0 001.119-1.078c-.032-.472.078-.409.104-.871.111-.07.255.126.429.283.082.072 2.387-3.939.942-.93-.232.484-.745 1.056-.769 1.103.097.104.241.435.407.818.006.015 3.083-4.436 1.213-1.072-.147.265-1.073 1.379-1.062 1.409.228.556.427 1.099.427 1.098-.057-.435-.145-1.289.755-1.995.117.772.324.804.592 1.041.118.103.338.544.365.169.076-1.097-.281-1.071-.546-1.537-.063-.112-.052-.363-.002-.347 2.215.066 2.142 2.142 2.511 2.14-.169-.53-.214-1.05-.014-1.475-.594-.42-.445-1.141-.332-1.452-.667-.691-.284-2.157.034-2.467-.428-.623.101-1.05-.013-1.432-.18-1.357-1.389-.953-1.66-2.242-.189.231-.538 1.011-.373 1.271.187.297.59.323.614.541.011.092.04.352-.026.407-.229.041-.385-.169-.62-.263-.468-.184-1.604.593-1.673-.093-.043-.432.148-.122.127-.521-.019-.413-.227-.122-.23-.654-.002-.39.469-.513.502-.669.084-.387.786.569 1.199-.444-.24.033-.725-.135-.68-.372.123-.633.133-2.169-1.303-1.839-.515.12-1.949.875-2.148.053-.517.917.505.757.814.738-.121.085-.276.222-.657.14-.808.533-3.761 2.409-4.614 2.882 1.145.533 2.906-.578 2.931-.578zm.843 10.233c-.278-.118-.58-.195-.837-.37.18.61.314 1.144.652 1.786.193.366.528-.517.185-1.416z" fill="#FFFFFE" mask="url(#b)"/></g></svg>