<svg width="14" height="17" xmlns="http://www.w3.org/2000/svg"><path d="M6.323 16.412 6.1 16.4c-.555-.03-1.11-.047-1.664-.091-.9-.072-1.79-.199-2.654-.475-.425-.136-.833-.31-1.187-.59-.292-.23-.51-.511-.572-.887C0 14.21 0 14.06 0 13.911c0-.18-.003-.363.024-.54.05-.32.22-.586.421-.832.376-.46.844-.812 1.34-1.13.813-.523 1.685-.928 2.585-1.277.142-.055.292-.105.417-.189.322-.216.442-.537.42-.916-.005-.07-.018-.139-.03-.207a.933.933 0 0 0-.245-.484C4.162 7.48 3.66 6.48 3.39 5.362a5.75 5.75 0 0 1-.158-1.645c.044-.875.278-1.685.832-2.381A3.4 3.4 0 0 1 5.959.134c.876-.217 1.74-.176 2.58.165.893.364 1.52 1 1.895 1.886.252.596.351 1.222.335 1.866-.041 1.627-.638 3.038-1.686 4.267a.892.892 0 0 0-.2.382c-.067.28-.112.562-.033.848a.71.71 0 0 0 .485.516c.958.322 1.881.722 2.747 1.249.52.316 1.01.67 1.41 1.133.237.275.427.576.49.941.012.076.019.153.018.23-.002.236.008.473-.02.706-.042.364-.243.647-.517.88-.357.302-.777.484-1.215.628a8.416 8.416 0 0 1-1.643.362c-.573.068-1.147.122-1.722.168-.33.027-.663.027-.995.04-.05.001-.1.007-.15.011H6.323Z" fill="#FFF" fill-rule="evenodd"/></svg>