<?xml version="1.0" encoding="iso-8859-1"?>
<!-- Generator: Adobe Illustrator 19.0.0, SVG Export Plug-In . SVG Version: 6.00 Build 0)  -->
<svg version="1.1" id="Capa_1" xmlns="http://www.w3.org/2000/svg" xmlns:xlink="http://www.w3.org/1999/xlink" x="0px" y="0px"
	 viewBox="0 0 512 512" style="enable-background:new 0 0 512 512;" xml:space="preserve">
<g>
	<g>
		<path d="M486.598,346.929V100.224c0-15.325-12.471-27.786-27.786-27.786c-14.969,0-386.153,0-405.625,0
			c-15.315,0-27.786,12.46-27.786,27.786v246.705C11.268,347.66,0,359.4,0,373.713v39.044c0,14.774,12.02,26.804,26.804,26.804
			h135.022c4.147,0,7.512-3.365,7.512-7.512c0-4.147-3.366-7.512-7.512-7.512H26.804c-6.501,0-11.779-5.289-11.779-11.779v-39.044
			c0-6.11,4.668-11.158,10.637-11.729c0.371-0.04,0.761-0.06,1.142-0.06c21.787,0,442.148,0,458.392,0
			c0.381,0,0.771,0.02,1.142,0.06c5.97,0.571,10.637,5.619,10.637,11.729v39.044c0,6.491-5.279,11.779-11.779,11.779H191.875
			c-4.147,0-7.512,3.366-7.512,7.512c0,4.147,3.365,7.512,7.512,7.512h293.321c14.784,0,26.804-12.03,26.804-26.804v-39.044
			C512,359.4,500.732,347.66,486.598,346.929z M471.574,346.899h-9.81V121.511c0-13.794-11.222-25.016-25.016-25.016h-61.875
			c-4.149,0-7.512,3.364-7.512,7.512s3.364,7.512,7.512,7.512h61.875c5.509,0,9.991,4.482,9.991,9.991v225.388H65.261V121.511
			c0-5.509,4.482-9.991,9.991-9.991h269.569c4.149,0,7.512-3.364,7.512-7.512s-3.364-7.512-7.512-7.512H75.252
			c-13.794,0-25.016,11.222-25.016,25.016v225.388h-9.81V100.224c0-7.042,5.729-12.761,12.761-12.761c19.519,0,390.597,0,405.625,0
			c7.031,0,12.761,5.719,12.761,12.761V346.899z"/>
	</g>
</g>
<g>
	<g>
		<path d="M221.337,149.561c-12.149-12.156-28.307-18.851-45.5-18.851c-4.149,0-7.512,3.364-7.512,7.512v56.835
			c0.001,4.161,3.38,7.512,7.511,7.512c5.54,0,3.79-1.787,45.5-42.387C224.269,157.251,224.27,152.495,221.337,149.561z
			 M183.351,176.922V146.3c7.859,1.193,15.254,4.257,21.653,8.97L183.351,176.922z"/>
	</g>
</g>
<g>
	<g>
		<path d="M211.955,190.54c-2.934-2.933-7.691-2.933-10.624,0.001l-39.901,39.901v-56.435c0-4.149-3.364-7.512-7.512-7.512
			c-45.261,0-82.083,36.822-82.083,82.083s36.822,82.083,82.083,82.083s82.083-36.822,82.083-82.083
			C235.999,226.657,227.46,206.045,211.955,190.54z M153.916,315.636c-36.977,0-67.058-30.082-67.058-67.058
			c0-34.436,26.093-62.895,59.546-66.64v66.64c0,3.039,1.83,5.777,4.638,6.94c2.807,1.163,6.039,0.521,8.186-1.629l47.122-47.121
			c9.478,11.837,14.624,26.428,14.624,41.81C220.974,285.555,190.891,315.636,153.916,315.636z"/>
	</g>
</g>
<g>
	<g>
		<path d="M292.712,215.43c-4.149,0-7.512,3.364-7.512,7.512v42.297c0,4.149,3.364,7.512,7.512,7.512s7.512-3.363,7.512-7.512
			v-42.297C300.225,218.794,296.861,215.43,292.712,215.43z"/>
	</g>
</g>
<g>
	<g>
		<path d="M319.063,202.742c-4.149,0-7.512,3.364-7.512,7.512v54.986c0,4.149,3.364,7.512,7.512,7.512s7.512-3.363,7.512-7.512
			v-54.986C326.576,206.105,323.212,202.742,319.063,202.742z"/>
	</g>
</g>
<g>
	<g>
		<path d="M345.416,209.832c-4.149,0-7.512,3.364-7.512,7.512v47.896c0,4.149,3.364,7.512,7.512,7.512s7.512-3.363,7.512-7.512
			v-47.896C352.928,213.196,349.565,209.832,345.416,209.832z"/>
	</g>
</g>
<g>
	<g>
		<path d="M371.767,220.344c-4.149,0-7.512,3.364-7.512,7.512v37.383c0,4.149,3.363,7.512,7.512,7.512s7.512-3.363,7.512-7.512
			v-37.383C379.279,223.708,375.916,220.344,371.767,220.344z"/>
	</g>
</g>
<g>
	<g>
		<path d="M398.117,188.186c-4.149,0-7.512,3.364-7.512,7.512v69.542c0,4.149,3.364,7.512,7.512,7.512s7.512-3.363,7.512-7.512
			v-69.542C405.629,191.549,402.266,188.186,398.117,188.186z"/>
	</g>
</g>
<g>
	<g>
		<path d="M419.472,162.139l-8.756-30.858c-0.62-2.186-2.196-3.973-4.285-4.862c-2.089-0.89-4.469-0.786-6.474,0.282l-31.723,16.901
			c-3.662,1.949-5.048,6.499-3.098,10.161c1.951,3.662,6.501,5.048,10.163,3.098l12.951-6.9l-20.195,41.759L321.858,173.2
			c-2.184-0.875-4.652-0.677-6.666,0.535l-27.747,16.68c-3.556,2.138-4.706,6.753-2.567,10.309
			c2.138,3.556,6.751,4.705,10.309,2.567l24.546-14.756c51.172,20.309,49.393,20.279,52.029,20.279c2.803,0,5.476-1.577,6.765-4.243
			l23.55-48.695l2.941,10.363c0.939,3.306,3.948,5.464,7.223,5.464C417.219,171.704,420.834,166.939,419.472,162.139z"/>
	</g>
</g>
<g>
	<g>
		<path d="M364.433,292.483H264.269c-4.149,0-7.512,3.364-7.512,7.512s3.364,7.512,7.512,7.512h100.164
			c4.149,0,7.512-3.364,7.512-7.512S368.582,292.483,364.433,292.483z"/>
	</g>
</g>
<g>
	<g>
		<path d="M432.655,292.483h-38.173c-4.149,0-7.512,3.364-7.512,7.512s3.364,7.512,7.512,7.512h38.173
			c4.149,0,7.512-3.364,7.512-7.512S436.804,292.483,432.655,292.483z"/>
	</g>
</g>
<g>
	<g>
		<path d="M432.655,320.529H264.269c-4.149,0-7.512,3.364-7.512,7.512s3.363,7.512,7.512,7.512h168.386
			c4.149,0,7.512-3.364,7.512-7.512S436.804,320.529,432.655,320.529z"/>
	</g>
</g>
<g>
</g>
<g>
</g>
<g>
</g>
<g>
</g>
<g>
</g>
<g>
</g>
<g>
</g>
<g>
</g>
<g>
</g>
<g>
</g>
<g>
</g>
<g>
</g>
<g>
</g>
<g>
</g>
<g>
</g>
</svg>
