<svg xmlns="http://www.w3.org/2000/svg" viewBox="0 0 512 512"><path d="M486.598 346.929V100.224c0-15.325-12.471-27.786-27.786-27.786H53.187c-15.315 0-27.786 12.46-27.786 27.786v246.705C11.268 347.66 0 359.4 0 373.713v39.044c0 14.774 12.02 26.804 26.804 26.804h135.022a7.514 7.514 0 007.512-7.512 7.515 7.515 0 00-7.512-7.512H26.804c-6.501 0-11.779-5.289-11.779-11.779v-39.044c0-6.11 4.668-11.158 10.637-11.729.371-.04.761-.06 1.142-.06h458.392c.381 0 .771.02 1.142.06 5.97.571 10.637 5.619 10.637 11.729v39.044c0 6.491-5.279 11.779-11.779 11.779H191.875a7.515 7.515 0 00-7.512 7.512 7.514 7.514 0 007.512 7.512h293.321c14.784 0 26.804-12.03 26.804-26.804v-39.044c0-14.313-11.268-26.053-25.402-26.784zm-15.024-.03h-9.81V121.511c0-13.794-11.222-25.016-25.016-25.016h-61.875a7.512 7.512 0 000 15.024h61.875c5.509 0 9.991 4.482 9.991 9.991v225.388H65.261V121.511c0-5.509 4.482-9.991 9.991-9.991h269.569a7.512 7.512 0 000-15.024H75.252c-13.794 0-25.016 11.222-25.016 25.016V346.9h-9.81V100.224c0-7.042 5.729-12.761 12.761-12.761h405.625c7.031 0 12.761 5.719 12.761 12.761v246.675z"/><path d="M221.337 149.561c-12.149-12.156-28.307-18.851-45.5-18.851a7.512 7.512 0 00-7.512 7.512v56.835a7.515 7.515 0 007.511 7.512c5.54 0 3.79-1.787 45.5-42.387a7.51 7.51 0 00.001-10.621zm-37.986 27.361V146.3a48.764 48.764 0 0121.653 8.97l-21.653 21.652z"/><path d="M211.955 190.54a7.513 7.513 0 00-10.624.001l-39.901 39.901v-56.435a7.512 7.512 0 00-7.512-7.512c-45.261 0-82.083 36.822-82.083 82.083s36.822 82.083 82.083 82.083 82.083-36.822 82.083-82.083c-.002-21.921-8.541-42.533-24.046-58.038zm-58.039 125.096c-36.977 0-67.058-30.082-67.058-67.058 0-34.436 26.093-62.895 59.546-66.64v66.64a7.51 7.51 0 0012.824 5.311l47.122-47.121c9.478 11.837 14.624 26.428 14.624 41.81 0 36.977-30.083 67.058-67.058 67.058zM292.712 215.43a7.512 7.512 0 00-7.512 7.512v42.297a7.512 7.512 0 0015.024 0v-42.297a7.512 7.512 0 00-7.512-7.512zm26.351-12.688a7.512 7.512 0 00-7.512 7.512v54.986a7.512 7.512 0 0015.024 0v-54.986a7.511 7.511 0 00-7.512-7.512zm26.353 7.09a7.512 7.512 0 00-7.512 7.512v47.896a7.512 7.512 0 0015.024 0v-47.896a7.512 7.512 0 00-7.512-7.512zm26.351 10.512a7.512 7.512 0 00-7.512 7.512v37.383a7.512 7.512 0 1015.024 0v-37.383a7.512 7.512 0 00-7.512-7.512zm26.35-32.158a7.512 7.512 0 00-7.512 7.512v69.542a7.512 7.512 0 0015.024 0v-69.542a7.512 7.512 0 00-7.512-7.512z"/><path d="M419.472 162.139l-8.756-30.858a7.512 7.512 0 00-10.759-4.58l-31.723 16.901a7.51 7.51 0 00-3.098 10.161 7.514 7.514 0 0010.163 3.098l12.951-6.9-20.195 41.759-46.197-18.52a7.512 7.512 0 00-6.666.535l-27.747 16.68a7.51 7.51 0 00-2.567 10.309 7.511 7.511 0 0010.309 2.567l24.546-14.756c51.172 20.309 49.393 20.279 52.029 20.279a7.513 7.513 0 006.765-4.243l23.55-48.695 2.941 10.363a7.516 7.516 0 007.223 5.464c4.978.001 8.593-4.764 7.231-9.564zm-55.039 130.344H264.269a7.512 7.512 0 000 15.024h100.164a7.512 7.512 0 000-15.024zm68.222 0h-38.173a7.512 7.512 0 000 15.024h38.173a7.512 7.512 0 000-15.024zm0 28.046H264.269a7.512 7.512 0 000 15.024h168.386a7.512 7.512 0 000-15.024z"/></svg>