<?xml version="1.0" encoding="UTF-8"?>
<svg width="152px" height="217px" viewBox="0 0 152 217" version="1.1" xmlns="http://www.w3.org/2000/svg" xmlns:xlink="http://www.w3.org/1999/xlink">
    <!-- Generator: Sketch 51 (57462) - http://www.bohemiancoding.com/sketch -->
    <title>BED</title>
    <desc>Created with Sketch.</desc>
    <defs></defs>
    <g id="BED" stroke="none" stroke-width="1" fill="none" fill-rule="evenodd">
        <g id="Group">
            <path d="M53.7376024,0 L53.245433,0.473720886 L53.245433,43.3834066 C53.245433,47.7771079 49.5168773,51.3719545 44.9597536,51.3719545 L0.454055232,51.3719545 L0,51.8105257 L0,209.011452 C0,213.405153 3.72855573,217 8.28567941,217 L142.879913,217 C147.437037,217 151.165592,213.405153 151.165592,209.011452 L151.165592,7.98854782 C151.165592,3.59484652 147.437037,0 142.879913,0 L53.7376024,0 Z" id="Fill-1" fill="#3283C8"></path>
            <path d="M45.6446266,51.8566176 C50.2333233,51.8566176 53.9877115,48.250429 53.9877115,43.842865 L53.9877115,0.797794118 L0.830580177,51.8566176 L45.6446266,51.8566176 Z" id="Fill-7" fill="#4A90E2"></path>
            <polygon id="Fill-9" fill="#4A90E2" points="85.5497583 16.7536765 102.991942 16.7536765 102.991942 0 85.5497583 0"></polygon>
            <polygon id="Fill-11" fill="#4A90E2" points="102.991942 33.5073529 120.434126 33.5073529 120.434126 16.7536765 102.991942 16.7536765"></polygon>
            <polygon id="Fill-12" fill="#4A90E2" points="85.5497583 49.4632353 102.991942 49.4632353 102.991942 32.7095588 85.5497583 32.7095588"></polygon>
            <polygon id="Fill-13" fill="#4A90E2" points="102.991942 66.2169118 120.434126 66.2169118 120.434126 49.4632353 102.991942 49.4632353"></polygon>
            <polygon id="Fill-14" fill="#4A90E2" points="85.5497583 82.1727941 102.991942 82.1727941 102.991942 65.4191176 85.5497583 65.4191176"></polygon>
            <polygon id="Fill-16" fill="#4A90E2" points="102.991942 106.106618 120.434126 106.106618 120.434126 78.9816176 102.991942 78.9816176"></polygon>
        </g>
        <path d="M68,130 C73.7884327,131.333333 79.4550994,131.333333 85,130" id="Path-15" stroke="#000000" stroke-width="2" stroke-linecap="round" stroke-linejoin="round"></path>
        <g id="Group-3" transform="translate(29.000000, 88.000000)" fill="#000000">
            <path d="M93.9999378,4.77244774 C93.9901997,7.07593209 92.1083146,8.96799977 89.7955193,8.99943133 C86.945912,9.0381595 84.9562994,7.09501554 85.0007294,4.31781267 C85.040899,1.81395212 86.8807886,0.0324561869 89.460164,0.000463348673 C92.2373443,-0.033774601 94.0121104,1.83191302 93.9999378,4.77244774" id="Fill-3"></path>
            <path d="M8.9996585,4.61305428 C8.96203481,6.9200634 6.87513381,9.02147603 4.64319957,8.99983429 C2.30142843,8.97765151 0.0282294964,6.75396307 0.000315147493,4.45885691 C-0.0294197024,1.96951616 2.04898562,-0.0680533424 4.54671302,0.00174125809 C6.6135885,0.0585508166 9.03303435,2.56412287 8.9996585,4.61305428" id="Fill-6"></path>
        </g>
        <text font-family="TTNorms-Bold, TT Norms" font-size="20" font-weight="bold" line-spacing="51" letter-spacing="1.058333" fill="#FFFFFF">
            <tspan x="53.6761841" y="171.5625">BED</tspan>
        </text>
        <rect id="Rectangle-2" stroke="#000000" stroke-width="3" fill="#F8E71C" fill-rule="nonzero" x="57.5" y="103.5" width="38" height="10" rx="5"></rect>
        <rect id="Rectangle-2" stroke="#000000" stroke-width="3" fill="#F8E71C" fill-rule="nonzero" x="57.5" y="114.5" width="38" height="10" rx="5"></rect>
    </g>
</svg>