<?xml version="1.0" encoding="UTF-8"?>
<svg width="152px" height="217px" viewBox="0 0 152 217" version="1.1" xmlns="http://www.w3.org/2000/svg" xmlns:xlink="http://www.w3.org/1999/xlink">
    <!-- Generator: Sketch 50.2 (55047) - http://www.bohemiancoding.com/sketch -->
    <title>csv</title>
    <desc>Created with Sketch.</desc>
    <defs></defs>
    <g id="csv" stroke="none" stroke-width="1" fill="none" fill-rule="evenodd">
        <g id="Group">
            <path d="M53.7376024,0 L53.245433,0.473720886 L53.245433,43.3834066 C53.245433,47.7771079 49.5168773,51.3719545 44.9597536,51.3719545 L0.454055232,51.3719545 L0,51.8105257 L0,209.011452 C0,213.405153 3.72855573,217 8.28567941,217 L142.879913,217 C147.437037,217 151.165592,213.405153 151.165592,209.011452 L151.165592,7.98854782 C151.165592,3.59484652 147.437037,0 142.879913,0 L53.7376024,0 Z" id="Fill-1" fill="#B9E46D"></path>
            <path d="M45.6446266,51.8566176 C50.2333233,51.8566176 53.9877115,48.250429 53.9877115,43.842865 L53.9877115,0.797794118 L0.830580177,51.8566176 L45.6446266,51.8566176 Z" id="Fill-7" fill="#7EC500"></path>
            <polygon id="Fill-9" fill="#7EC500" points="85.5497583 16.7536765 102.991942 16.7536765 102.991942 0 85.5497583 0"></polygon>
            <polygon id="Fill-11" fill="#7EC500" points="102.991942 33.5073529 120.434126 33.5073529 120.434126 16.7536765 102.991942 16.7536765"></polygon>
            <polygon id="Fill-12" fill="#7EC500" points="85.5497583 49.4632353 102.991942 49.4632353 102.991942 32.7095588 85.5497583 32.7095588"></polygon>
            <polygon id="Fill-13" fill="#7EC500" points="102.991942 66.2169118 120.434126 66.2169118 120.434126 49.4632353 102.991942 49.4632353"></polygon>
            <polygon id="Fill-14" fill="#7EC500" points="85.5497583 82.1727941 102.991942 82.1727941 102.991942 65.4191176 85.5497583 65.4191176"></polygon>
            <polygon id="Fill-16" fill="#7EC500" points="102.991942 106.106618 120.434126 106.106618 120.434126 78.9816176 102.991942 78.9816176"></polygon>
        </g>
        <text id="CSV" font-family="TTNorms-Bold, TT Norms" font-size="20" font-weight="bold" line-spacing="51" letter-spacing="1.058333" fill="#000000">
            <tspan x="54.3255981" y="171.5625">CSV</tspan>
        </text>
        <path d="M56.7883805,57.1936782 C55.9064383,61.8459002 52.3400678,64.1720113 46.0892689,64.1720113" id="Path-7" stroke="#000000" stroke-width="3" stroke-linecap="round"></path>
        <path d="M91,56 C92.3088348,61.0291592 95.8243415,63.5437388 101.54652,63.5437388" id="Path-8" stroke="#000000" stroke-width="3" stroke-linecap="round" stroke-linejoin="round"></path>
        <path d="M35.3355413,84.990948 C35.3355413,80.632154 42.2578587,79.7338482 47.7375238,79.7338482 C53.2171889,79.7338482 57.7918445,82.2169262 57.7918445,84.990948 C57.7918445,87.7649699 53.8835441,88.1725593 47.7375238,88.1725593 C41.5915035,88.1725593 35.3355413,89.3497421 35.3355413,84.990948 Z" id="Path-12" stroke="#000000" stroke-width="3" fill="#FFFFFF"></path>
        <path d="M96,85.2570998 C96,80.8983058 102.922317,80 108.401982,80 C113.881648,80 118.456303,82.483078 118.456303,85.2570998 C118.456303,88.0311216 114.548003,88.4387111 108.401982,88.4387111 C102.255962,88.4387111 96,89.6158939 96,85.2570998 Z" id="Path-12" stroke="#000000" stroke-width="3" fill="#FFFFFF"></path>
        <path d="M49.638308,101.63745 C53.2901288,106.749406 61.9203564,109.305383 75.5289907,109.305383 C89.137625,109.305383 98.1774026,105.684724 102.648323,98.443405 C106.064208,109.645191 97.0244303,115.246084 75.5289907,115.246084 C54.0335511,115.246084 45.4033235,110.709873 49.638308,101.63745 Z" id="Path-13" stroke="#000000" stroke-width="3" fill="#FFFFFF" stroke-linecap="round" stroke-linejoin="round"></path>
        <path d="M64.535633,119.501749 C74.9211591,121.698913 85.3066852,121.367508 95.6922113,118.507534" id="Path-14" stroke="#000000" stroke-width="2" stroke-linecap="round" stroke-linejoin="round"></path>
        <ellipse id="Oval-3" fill="#FF7ABC" cx="35" cy="96.5" rx="8" ry="2.5"></ellipse>
        <ellipse id="Oval-3" fill="#FF7ABC" cx="116" cy="94.5" rx="8" ry="2.5"></ellipse>
    </g>
</svg>