<?xml version="1.0" encoding="UTF-8"?>
<svg width="152px" height="217px" viewBox="0 0 152 217" version="1.1" xmlns="http://www.w3.org/2000/svg" xmlns:xlink="http://www.w3.org/1999/xlink">
    <!-- Generator: Sketch 51 (57462) - http://www.bohemiancoding.com/sketch -->
    <title>File</title>
    <desc>Created with Sketch.</desc>
    <defs></defs>
    <g id="File" stroke="none" stroke-width="1" fill="none" fill-rule="evenodd">
        <g id="Group">
            <path d="M53.7376024,0 L53.245433,0.473720886 L53.245433,43.3834066 C53.245433,47.7771079 49.5168773,51.3719545 44.9597536,51.3719545 L0.454055232,51.3719545 L0,51.8105257 L0,209.011452 C0,213.405153 3.72855573,217 8.28567941,217 L142.879913,217 C147.437037,217 151.165592,213.405153 151.165592,209.011452 L151.165592,7.98854782 C151.165592,3.59484652 147.437037,0 142.879913,0 L53.7376024,0 Z" id="Fill-1" fill="#F5A623"></path>
            <path d="M45.6446266,51.8566176 C50.2333233,51.8566176 53.9877115,48.250429 53.9877115,43.842865 L53.9877115,0.797794118 L0.830580177,51.8566176 L45.6446266,51.8566176 Z" id="Fill-7" fill="#EF8523"></path>
            <polygon id="Fill-9" fill="#EF8523" points="85.5497583 16.7536765 102.991942 16.7536765 102.991942 0 85.5497583 0"></polygon>
            <polygon id="Fill-11" fill="#EF8523" points="102.991942 33.5073529 120.434126 33.5073529 120.434126 16.7536765 102.991942 16.7536765"></polygon>
            <polygon id="Fill-12" fill="#EF8523" points="85.5497583 49.4632353 102.991942 49.4632353 102.991942 32.7095588 85.5497583 32.7095588"></polygon>
            <polygon id="Fill-13" fill="#EF8523" points="102.991942 66.2169118 120.434126 66.2169118 120.434126 49.4632353 102.991942 49.4632353"></polygon>
            <polygon id="Fill-14" fill="#EF8523" points="85.5497583 82.1727941 102.991942 82.1727941 102.991942 65.4191176 85.5497583 65.4191176"></polygon>
            <polygon id="Fill-16" fill="#EF8523" points="102.991942 106.106618 120.434126 106.106618 120.434126 78.9816176 102.991942 78.9816176"></polygon>
        </g>
        <path d="M61,125.994215 C71.3855261,128.191379 81.7710522,127.859974 92.1565783,125" id="Path-14" stroke="#000000" stroke-width="2" stroke-linecap="round" stroke-linejoin="round"></path>
        <g id="Group-2" transform="translate(66.000000, 86.000000)" stroke="#000000" stroke-linecap="round" stroke-linejoin="round" stroke-width="3">
            <path d="M0.3125,1.5 L19.6875,1.5" id="Line-4"></path>
        </g>
        <rect id="Rectangle-2" stroke="#000000" stroke-width="3" fill="#FFFFFF" fill-rule="nonzero" x="26.5" y="80.5" width="38" height="13" rx="6.5"></rect>
        <rect id="Rectangle-2" stroke="#000000" stroke-width="3" fill="#FFFFFF" fill-rule="nonzero" x="86.5" y="80.5" width="38" height="13" rx="6.5"></rect>
        <text font-family="TTNorms-Bold, TT Norms" font-size="20" font-weight="bold" line-spacing="51" letter-spacing="1.058333" fill="#000000">
            <tspan x="56.6968223" y="171.5625">File</tspan>
        </text>
        <path d="M44,113 C65.477146,123.292731 86.5024968,123.292731 107.076052,113" id="Path-15" stroke="#000000" stroke-width="3" stroke-linecap="round" stroke-linejoin="round"></path>
    </g>
</svg>