<?xml version="1.0" encoding="UTF-8"?>
<svg width="152px" height="217px" viewBox="0 0 152 217" version="1.1" xmlns="http://www.w3.org/2000/svg" xmlns:xlink="http://www.w3.org/1999/xlink">
    <!-- Generator: Sketch 50.2 (55047) - http://www.bohemiancoding.com/sketch -->
    <title>png</title>
    <desc>Created with Sketch.</desc>
    <defs></defs>
    <g id="png" stroke="none" stroke-width="1" fill="none" fill-rule="evenodd">
        <g id="Group">
            <path d="M53.7376024,0 L53.245433,0.473720886 L53.245433,43.3834066 C53.245433,47.7771079 49.5168773,51.3719545 44.9597536,51.3719545 L0.454055232,51.3719545 L0,51.8105257 L0,209.011452 C0,213.405153 3.72855573,217 8.28567941,217 L142.879913,217 C147.437037,217 151.165592,213.405153 151.165592,209.011452 L151.165592,7.98854782 C151.165592,3.59484652 147.437037,0 142.879913,0 L53.7376024,0 Z" id="Fill-1" fill="#87E3FF"></path>
            <path d="M45.6446266,51.8566176 C50.2333233,51.8566176 53.9877115,48.250429 53.9877115,43.842865 L53.9877115,0.797794118 L0.830580177,51.8566176 L45.6446266,51.8566176 Z" id="Fill-7" fill="#05B8EE"></path>
            <polygon id="Fill-9" fill="#05B8EE" points="85.5497583 16.7536765 102.991942 16.7536765 102.991942 0 85.5497583 0"></polygon>
            <polygon id="Fill-11" fill="#05B8EE" points="102.991942 33.5073529 120.434126 33.5073529 120.434126 16.7536765 102.991942 16.7536765"></polygon>
            <polygon id="Fill-12" fill="#05B8EE" points="85.5497583 49.4632353 102.991942 49.4632353 102.991942 32.7095588 85.5497583 32.7095588"></polygon>
            <polygon id="Fill-13" fill="#05B8EE" points="102.991942 66.2169118 120.434126 66.2169118 120.434126 49.4632353 102.991942 49.4632353"></polygon>
            <polygon id="Fill-14" fill="#05B8EE" points="85.5497583 82.1727941 102.991942 82.1727941 102.991942 65.4191176 85.5497583 65.4191176"></polygon>
            <polygon id="Fill-16" fill="#05B8EE" points="102.991942 106.106618 120.434126 106.106618 120.434126 78.9816176 102.991942 78.9816176"></polygon>
        </g>
        <text id="PNG" font-family="TTNorms-Bold, TT Norms" font-size="20" font-weight="bold" line-spacing="51" letter-spacing="1.058333" fill="#000000">
            <tspan x="51.9281372" y="171.5625">PNG</tspan>
        </text>
        <g id="Group-2" transform="translate(19.000000, 67.000000)">
            <circle id="Oval-2" stroke="#000000" stroke-width="3" fill="#FFFFFF" cx="20" cy="20" r="20"></circle>
            <circle id="Oval-2" fill="#000000" cx="20.5" cy="17.5" r="2.5"></circle>
        </g>
        <g id="Group-3" transform="translate(94.000000, 67.000000)">
            <circle id="Oval-2" stroke="#000000" stroke-width="3" fill="#FFFFFF" cx="20" cy="20" r="20"></circle>
            <circle id="Oval-2" fill="#000000" cx="20.5" cy="17.5" r="2.5"></circle>
        </g>
        <polyline id="Path-4" stroke="#000000" stroke-width="3" stroke-linecap="round" stroke-linejoin="round" points="62 109 75.9934715 126.589864 90 109"></polyline>
    </g>
</svg>