<?xml version="1.0" encoding="UTF-8"?>
<svg width="152px" height="217px" viewBox="0 0 152 217" version="1.1" xmlns="http://www.w3.org/2000/svg" xmlns:xlink="http://www.w3.org/1999/xlink">
    <!-- Generator: Sketch 50.2 (55047) - http://www.bohemiancoding.com/sketch -->
    <title>raw</title>
    <desc>Created with Sketch.</desc>
    <defs></defs>
    <g id="raw" stroke="none" stroke-width="1" fill="none" fill-rule="evenodd">
        <g id="Group">
            <path d="M53.7376024,0 L53.245433,0.473720886 L53.245433,43.3834066 C53.245433,47.7771079 49.5168773,51.3719545 44.9597536,51.3719545 L0.454055232,51.3719545 L0,51.8105257 L0,209.011452 C0,213.405153 3.72855573,217 8.28567941,217 L142.879913,217 C147.437037,217 151.165592,213.405153 151.165592,209.011452 L151.165592,7.98854782 C151.165592,3.59484652 147.437037,0 142.879913,0 L53.7376024,0 Z" id="Fill-1" fill="#DACDFF"></path>
            <path d="M45.6446266,51.8566176 C50.2333233,51.8566176 53.9877115,48.250429 53.9877115,43.842865 L53.9877115,0.797794118 L0.830580177,51.8566176 L45.6446266,51.8566176 Z" id="Fill-7" fill="#AD91FF"></path>
            <polygon id="Fill-9" fill="#AD91FF" points="85.5497583 16.7536765 102.991942 16.7536765 102.991942 0 85.5497583 0"></polygon>
            <polygon id="Fill-11" fill="#AD91FF" points="102.991942 33.5073529 120.434126 33.5073529 120.434126 16.7536765 102.991942 16.7536765"></polygon>
            <polygon id="Fill-12" fill="#AD91FF" points="85.5497583 49.4632353 102.991942 49.4632353 102.991942 32.7095588 85.5497583 32.7095588"></polygon>
            <polygon id="Fill-13" fill="#AD91FF" points="102.991942 66.2169118 120.434126 66.2169118 120.434126 49.4632353 102.991942 49.4632353"></polygon>
            <polygon id="Fill-14" fill="#AD91FF" points="85.5497583 82.1727941 102.991942 82.1727941 102.991942 65.4191176 85.5497583 65.4191176"></polygon>
            <polygon id="Fill-16" fill="#AD91FF" points="102.991942 106.106618 120.434126 106.106618 120.434126 78.9816176 102.991942 78.9816176"></polygon>
        </g>
        <text id="RAW" font-family="TTNorms-Bold, TT Norms" font-size="20" font-weight="bold" line-spacing="51" letter-spacing="1.058333" fill="#000000">
            <tspan x="50.2728638" y="171.5625">RAW</tspan>
        </text>
        <path d="M40.8676168,77.0234745 C40.8676168,77.0234745 36.6076168,76.4424745 36.0266168,83.9954745 C35.4456168,91.5464745 44.5466168,91.5464745 46.6766168,86.3184745 C48.8066168,81.0894745 45.3216168,76.6364745 40.8676168,77.0234745" id="Fill-6" fill="#000000"></path>
        <path d="M113.538398,78.4698793 C110.027398,79.6988793 110.827398,83.6508793 111.989398,86.7728793 C113.151398,89.8948793 117.605398,90.4758793 120.122398,88.9258793 C122.640398,87.3768793 122.833398,84.2788793 120.896398,81.5678793 C118.960398,78.8568793 117.411398,77.1148793 113.538398,78.4698793" id="Fill-8" fill="#000000"></path>
        <path d="M76.398923,120.825344 C75.0862558,131.136416 77.0131144,136.291952 82.1794988,136.291952 C87.3458832,136.291952 90.0121081,133.714184 90.1781734,128.558648 C88.5325411,143.519549 91.1044675,151 97.8939528,151 C104.683438,151 107.371777,139.666667 105.95897,117 L76.398923,120.825344 Z" id="Path-16" fill="#05B8EE"></path>
        <path d="M47.6628233,112.719997 C69.1399694,123.012728 90.1653201,123.012728 110.738875,112.719997" id="Path-15" stroke="#000000" stroke-width="3" stroke-linecap="round" stroke-linejoin="round"></path>
    </g>
</svg>