<?xml version="1.0" encoding="UTF-8"?>
<svg width="152px" height="217px" viewBox="0 0 152 217" version="1.1" xmlns="http://www.w3.org/2000/svg" xmlns:xlink="http://www.w3.org/1999/xlink">
    <!-- Generator: Sketch 50.2 (55047) - http://www.bohemiancoding.com/sketch -->
    <title>tar</title>
    <desc>Created with Sketch.</desc>
    <defs></defs>
    <g id="tar" stroke="none" stroke-width="1" fill="none" fill-rule="evenodd">
        <g id="Group">
            <path d="M53.7376024,0 L53.245433,0.473720886 L53.245433,43.3834066 C53.245433,47.7771079 49.5168773,51.3719545 44.9597536,51.3719545 L0.454055232,51.3719545 L0,51.8105257 L0,209.011452 C0,213.405153 3.72855573,217 8.28567941,217 L142.879913,217 C147.437037,217 151.165592,213.405153 151.165592,209.011452 L151.165592,7.98854782 C151.165592,3.59484652 147.437037,0 142.879913,0 L53.7376024,0 Z" id="Fill-1" fill="#FF8275"></path>
            <path d="M45.6446266,51.8566176 C50.2333233,51.8566176 53.9877115,48.250429 53.9877115,43.842865 L53.9877115,0.797794118 L0.830580177,51.8566176 L45.6446266,51.8566176 Z" id="Fill-7" fill="#E74C3C"></path>
            <polygon id="Fill-9" fill="#E74C3C" points="85.5497583 16.7536765 102.991942 16.7536765 102.991942 0 85.5497583 0"></polygon>
            <polygon id="Fill-11" fill="#E74C3C" points="102.991942 33.5073529 120.434126 33.5073529 120.434126 16.7536765 102.991942 16.7536765"></polygon>
            <polygon id="Fill-12" fill="#E74C3C" points="85.5497583 49.4632353 102.991942 49.4632353 102.991942 32.7095588 85.5497583 32.7095588"></polygon>
            <polygon id="Fill-13" fill="#E74C3C" points="102.991942 66.2169118 120.434126 66.2169118 120.434126 49.4632353 102.991942 49.4632353"></polygon>
            <polygon id="Fill-14" fill="#E74C3C" points="85.5497583 82.1727941 102.991942 82.1727941 102.991942 65.4191176 85.5497583 65.4191176"></polygon>
            <polygon id="Fill-16" fill="#E74C3C" points="102.991942 106.106618 120.434126 106.106618 120.434126 78.9816176 102.991942 78.9816176"></polygon>
        </g>
        <text id="TAR" font-family="TTNorms-Bold, TT Norms" font-size="20" font-weight="bold" line-spacing="51" letter-spacing="1.058333" fill="#000000">
            <tspan x="55.1703247" y="171.5625">TAR</tspan>
        </text>
        <g id="Group-2" transform="translate(25.000000, 78.000000)">
            <path d="M2.5,1.5 L33.5,1.5" id="Line-4" stroke="#000000" stroke-width="3" stroke-linecap="round" stroke-linejoin="round"></path>
            <path d="M8,8.00714963 C12.418278,8.00714963 16,4.42542763 16,0.00714963178 C12.6225378,0.179243812 12.0920869,0.00714963178 8,0.00714963178 C4.11627643,0.00714963178 2.32252257,0.00714963178 0,0.00714963178 C0,4.42542763 3.581722,8.00714963 8,8.00714963 Z" id="Oval" fill="#000000"></path>
        </g>
        <g id="Group-2" transform="translate(91.000000, 78.000000)">
            <path d="M2.5,1.5 L33.5,1.5" id="Line-4" stroke="#000000" stroke-width="3" stroke-linecap="round" stroke-linejoin="round"></path>
            <path d="M8,8.00714963 C12.418278,8.00714963 16,4.42542763 16,0.00714963178 C12.6225378,0.179243812 12.0920869,0.00714963178 8,0.00714963178 C4.11627643,0.00714963178 2.32252257,0.00714963178 0,0.00714963178 C0,4.42542763 3.581722,8.00714963 8,8.00714963 Z" id="Oval" fill="#000000"></path>
        </g>
        <path d="M56.7883805,57.1936782 C55.9064383,61.8459002 52.3400678,64.1720113 46.0892689,64.1720113" id="Path-7" stroke="#000000" stroke-width="3" stroke-linecap="round"></path>
        <path d="M91,56 C92.3088348,61.0291592 95.8243415,63.5437388 101.54652,63.5437388" id="Path-8" stroke="#000000" stroke-width="3" stroke-linecap="round" stroke-linejoin="round"></path>
        <path d="M44.206549,114.862887 C50.2132499,104.954296 59.5694256,100 72.275076,100 C84.9807264,100 96.5732288,104.954296 107.052583,114.862887 L44.206549,114.862887 Z" id="Path-9" stroke="#000000" stroke-width="3"></path>
        <path d="M71.5,114.5 L71.5,100.5" id="Line-5" stroke="#000000" stroke-width="3" stroke-linecap="square"></path>
        <path d="M85.5,114.5 L85.5,102.5" id="Line-5" stroke="#000000" stroke-width="3" stroke-linecap="square"></path>
        <path d="M59.5,114.5 L59.5,104.5" id="Line-5" stroke="#000000" stroke-width="3" stroke-linecap="square"></path>
    </g>
</svg>