<?xml version="1.0" encoding="UTF-8"?>
<svg width="152px" height="217px" viewBox="0 0 152 217" version="1.1" xmlns="http://www.w3.org/2000/svg" xmlns:xlink="http://www.w3.org/1999/xlink">
    <!-- Generator: Sketch 50.2 (55047) - http://www.bohemiancoding.com/sketch -->
    <title>txt</title>
    <desc>Created with Sketch.</desc>
    <defs></defs>
    <g id="txt" stroke="none" stroke-width="1" fill="none" fill-rule="evenodd">
        <g id="Group">
            <path d="M53.7376024,0 L53.245433,0.473720886 L53.245433,43.3834066 C53.245433,47.7771079 49.5168773,51.3719545 44.9597536,51.3719545 L0.454055232,51.3719545 L0,51.8105257 L0,209.011452 C0,213.405153 3.72855573,217 8.28567941,217 L142.879913,217 C147.437037,217 151.165592,213.405153 151.165592,209.011452 L151.165592,7.98854782 C151.165592,3.59484652 147.437037,0 142.879913,0 L53.7376024,0 Z" id="Fill-1" fill="#E6E6E6"></path>
            <path d="M45.6446266,51.8566176 C50.2333233,51.8566176 53.9877115,48.250429 53.9877115,43.842865 L53.9877115,0.797794118 L0.830580177,51.8566176 L45.6446266,51.8566176 Z" id="Fill-7" fill="#9B9B9B"></path>
            <polygon id="Fill-9" fill="#9B9B9B" points="85.5497583 16.7536765 102.991942 16.7536765 102.991942 0 85.5497583 0"></polygon>
            <polygon id="Fill-11" fill="#9B9B9B" points="102.991942 33.5073529 120.434126 33.5073529 120.434126 16.7536765 102.991942 16.7536765"></polygon>
            <polygon id="Fill-12" fill="#9B9B9B" points="85.5497583 49.4632353 102.991942 49.4632353 102.991942 32.7095588 85.5497583 32.7095588"></polygon>
            <polygon id="Fill-13" fill="#9B9B9B" points="102.991942 66.2169118 120.434126 66.2169118 120.434126 49.4632353 102.991942 49.4632353"></polygon>
            <polygon id="Fill-14" fill="#9B9B9B" points="85.5497583 82.1727941 102.991942 82.1727941 102.991942 65.4191176 85.5497583 65.4191176"></polygon>
            <polygon id="Fill-16" fill="#9B9B9B" points="102.991942 106.106618 120.434126 106.106618 120.434126 78.9816176 102.991942 78.9816176"></polygon>
        </g>
        <path d="M63.0622691,106.948027 C62.6452691,111.534027 64.3122691,116.848027 68.3772691,118.464027 C72.4412691,120.080027 79.4640803,118.550093 83.4240803,116.11181 C87.3840803,113.673528 89.117966,108.461664 87.3964156,104.379934 C85.6748652,100.298204 80.6738047,97.1762941 73.6922691,98.1940266 C68.5702691,99.1540266 63.4792691,102.363027 63.0622691,106.948027 Z" id="Fill-1" fill="#000000"></path>
        <text id="TXT" font-family="TTNorms-Bold, TT Norms" font-size="20" font-weight="bold" line-spacing="51" letter-spacing="1.058333" fill="#000000">
            <tspan x="56.073645" y="171.5625">TXT</tspan>
        </text>
        <path d="M51.8676168,82.0234745 C51.8676168,82.0234745 47.6076168,81.4424745 47.0266168,88.9954745 C46.4456168,96.5464745 55.5466168,96.5464745 57.6766168,91.3184745 C59.8066168,86.0894745 56.3216168,81.6364745 51.8676168,82.0234745" id="Fill-6" fill="#000000"></path>
        <path d="M99.5383978,83.4698793 C96.0273978,84.6988793 96.8273978,88.6508793 97.9893978,91.7728793 C99.1513978,94.8948793 103.605398,95.4758793 106.122398,93.9258793 C108.640398,92.3768793 108.833398,89.2788793 106.896398,86.5678793 C104.960398,83.8568793 103.411398,82.1148793 99.5383978,83.4698793" id="Fill-8" fill="#000000"></path>
        <path d="M50.3485678,122.306674 C56.8836958,135.158773 64.9610315,134.06504 74.5805748,119.025475" id="Path-5" stroke="#000000" stroke-width="3" stroke-linecap="round" stroke-linejoin="round"></path>
        <path d="M74.5308262,119.510801 C85.0178383,133.165511 93.5845531,134.518305 100.230971,123.569184" id="Path-6" stroke="#000000" stroke-width="3" stroke-linecap="round" stroke-linejoin="round"></path>
    </g>
</svg>