<?xml version="1.0" encoding="UTF-8"?>
<svg width="152px" height="217px" viewBox="0 0 152 217" version="1.1" xmlns="http://www.w3.org/2000/svg" xmlns:xlink="http://www.w3.org/1999/xlink">
    <!-- Generator: Sketch 50.2 (55047) - http://www.bohemiancoding.com/sketch -->
    <title>zip</title>
    <desc>Created with Sketch.</desc>
    <defs></defs>
    <g id="zip" stroke="none" stroke-width="1" fill="none" fill-rule="evenodd">
        <g id="Group-4">
            <g id="Group">
                <g id="file">
                    <g id="Group">
                        <path d="M53.7389556,0 L53.2467738,0.473720886 L53.2467738,43.3834066 C53.2467738,47.7771079 49.5181242,51.3719545 44.9608858,51.3719545 L0.454066666,51.3719545 L0,51.8105257 L0,209.011452 C0,213.405153 3.72864963,217 8.28588806,217 L142.883511,217 C147.440749,217 151.169399,213.405153 151.169399,209.011452 L151.169399,7.98854782 C151.169399,3.59484652 147.440749,0 142.883511,0 L53.7389556,0 Z" id="Fill-1" fill="#F9CD00"></path>
                        <polygon id="Fill-4" fill="#F9CD00" points="0 51.0588235 0 51.4976103 0.456 51.0588235"></polygon>
                        <path d="M45.645776,51.8566176 C50.2345883,51.8566176 53.989071,48.250429 53.989071,43.842865 L53.989071,0.797794118 L0.830601093,51.8566176 L45.645776,51.8566176 Z" id="Fill-7" fill="#C8A300"></path>
                        <polygon id="Fill-9" fill="#C8A300" points="85.5519126 16.7536765 102.994536 16.7536765 102.994536 0 85.5519126 0"></polygon>
                        <polygon id="Fill-11" fill="#C8A300" points="102.994536 33.5073529 120.437158 33.5073529 120.437158 16.7536765 102.994536 16.7536765"></polygon>
                        <polygon id="Fill-12" fill="#C8A300" points="85.5519126 49.4632353 102.994536 49.4632353 102.994536 32.7095588 85.5519126 32.7095588"></polygon>
                        <polygon id="Fill-13" fill="#C8A300" points="102.994536 66.2169118 120.437158 66.2169118 120.437158 49.4632353 102.994536 49.4632353"></polygon>
                        <polygon id="Fill-14" fill="#C8A300" points="85.5519126 82.1727941 102.994536 82.1727941 102.994536 65.4191176 85.5519126 65.4191176"></polygon>
                        <polygon id="Fill-15" fill="#C8A300" points="85.5519126 114.084559 102.994536 114.084559 102.994536 97.3308824 85.5519126 97.3308824"></polygon>
                        <polygon id="Fill-16" fill="#C8A300" points="102.994536 106.106618 120.437158 106.106618 120.437158 78.9816176 102.994536 78.9816176"></polygon>
                    </g>
                </g>
                <text id="ZIP" font-family="TTNorms-Bold, TT Norms" font-size="20" font-weight="bold" line-spacing="51" letter-spacing="1.058333" fill="#000000">
                    <tspan x="58.2757934" y="171.5625">ZIP</tspan>
                </text>
            </g>
            <g id="Group-3" transform="translate(29.000000, 88.000000)" fill="#000000">
                <path d="M28,9.80178278 C42.616798,21.4366262 56.2623821,21.8730402 69.302601,8 C69.5346862,8.12828968 69.7667715,8.25657937 70,8.38429633 C69.4346495,9.94095418 69.092238,11.629338 68.2627904,13.0284974 C66.0282553,16.794716 62.5755584,19.2591379 58.475195,20.4618537 C50.5545711,22.7848133 42.6150831,22.6737052 35.1872116,18.764879 C32.8640725,17.5432634 31.0411171,15.2552398 29.2158752,13.2489953 C28.5127598,12.4758209 28.4401617,11.1276338 28,9.80178278" id="Fill-1"></path>
                <path d="M93.9999378,4.77244774 C93.9901997,7.07593209 92.1083146,8.96799977 89.7955193,8.99943133 C86.945912,9.0381595 84.9562994,7.09501554 85.0007294,4.31781267 C85.040899,1.81395212 86.8807886,0.0324561869 89.460164,0.000463348673 C92.2373443,-0.033774601 94.0121104,1.83191302 93.9999378,4.77244774" id="Fill-3"></path>
                <path d="M8.9996585,4.61305428 C8.96203481,6.9200634 6.87513381,9.02147603 4.64319957,8.99983429 C2.30142843,8.97765151 0.0282294964,6.75396307 0.000315147493,4.45885691 C-0.0294197024,1.96951616 2.04898562,-0.0680533424 4.54671302,0.00174125809 C6.6135885,0.0585508166 9.03303435,2.56412287 8.9996585,4.61305428" id="Fill-6"></path>
            </g>
        </g>
    </g>
</svg>