<?xml version="1.0" encoding="UTF-8" standalone="no"?><!-- Generator: Gravit.io --><svg xmlns="http://www.w3.org/2000/svg" xmlns:xlink="http://www.w3.org/1999/xlink" style="isolation:isolate" viewBox="0 0 90 90" width="90pt" height="90pt"><defs><clipPath id="_clipPath_vIhbmb5Npx0sKiTij0enX6FwOaxse84l"><rect width="90" height="90"/></clipPath></defs><g clip-path="url(#_clipPath_vIhbmb5Npx0sKiTij0enX6FwOaxse84l)"><g><g><g><circle vector-effect="non-scaling-stroke" cx="44.9219406" cy="44.9219406" r="44.9219406" fill="rgb(231,231,231)"/><rect x="69.769" y="1.404" width="8.423" height="62.61" transform="matrix(1,0,0,1,0,0)" fill="rgb(255,255,255)"/><path d=" M 78.192 65.418 L 69.769 65.418 C 68.927 65.418 68.365 64.856 68.365 64.014 L 68.365 1.404 C 68.365 0.562 68.927 0 69.769 0 L 78.192 0 C 79.034 0 79.596 0.562 79.596 1.404 L 79.596 64.014 C 79.596 64.716 78.894 65.418 78.192 65.418 Z  M 71.173 62.61 L 76.788 62.61 L 76.788 2.808 L 71.173 2.808 L 71.173 62.61 L 71.173 62.61 Z " fill="rgb(24,54,81)"/><path d=" M 69.769 15.723 L 69.769 64.014 L 78.192 64.014 L 78.192 15.723" fill="rgb(3,92,148)"/><path d=" M 78.192 65.418 L 69.769 65.418 C 68.927 65.418 68.365 64.856 68.365 64.014 L 68.365 15.723 C 68.365 14.88 68.927 14.319 69.769 14.319 C 70.612 14.319 71.173 14.88 71.173 15.723 L 71.173 62.61 L 76.788 62.61 L 76.788 15.723 C 76.788 14.88 77.35 14.319 78.192 14.319 C 79.034 14.319 79.596 14.88 79.596 15.723 L 79.596 64.014 C 79.596 64.716 78.894 65.418 78.192 65.418 Z " fill="rgb(24,54,81)"/><path d=" M 40.71 1.404 L 49.133 1.404 L 49.133 64.014 L 40.71 64.014 L 40.71 1.404 Z " fill="rgb(255,255,255)"/><path d=" M 49.133 65.418 L 40.71 65.418 C 39.868 65.418 39.306 64.856 39.306 64.014 L 39.306 1.404 C 39.306 0.562 39.868 0 40.71 0 L 49.133 0 C 49.975 0 50.537 0.562 50.537 1.404 L 50.537 64.014 C 50.537 64.716 49.975 65.418 49.133 65.418 Z  M 42.114 62.61 L 47.73 62.61 L 47.73 2.808 L 42.114 2.808 L 42.114 62.61 L 42.114 62.61 L 42.114 62.61 Z " fill="rgb(24,54,81)"/><path d=" M 40.71 26.672 L 40.71 64.014 L 49.133 64.014 L 49.133 26.672" fill="rgb(174,235,242)"/><path d=" M 49.133 65.418 L 40.71 65.418 C 39.868 65.418 39.306 64.856 39.306 64.014 L 39.306 26.672 C 39.306 25.83 39.868 25.269 40.71 25.269 C 41.553 25.269 42.114 25.83 42.114 26.672 L 42.114 62.61 L 47.729 62.61 L 47.729 26.672 C 47.729 25.83 48.291 25.269 49.133 25.269 C 49.975 25.269 50.537 25.83 50.537 26.672 L 50.537 64.014 C 50.537 64.716 49.975 65.418 49.133 65.418 Z " fill="rgb(24,54,81)"/><rect x="11.652" y="1.404" width="8.423" height="62.61" transform="matrix(1,0,0,1,0,0)" fill="rgb(255,255,255)"/><path d=" M 20.074 65.418 L 11.652 65.418 C 10.809 65.418 10.248 64.856 10.248 64.014 L 10.248 1.404 C 10.248 0.562 10.809 0 11.652 0 L 20.074 0 C 20.917 0 21.478 0.562 21.478 1.404 L 21.478 64.014 C 21.478 64.716 20.917 65.418 20.074 65.418 Z  M 13.055 62.61 L 18.671 62.61 L 18.671 2.808 L 13.055 2.808 L 13.055 62.61 L 13.055 62.61 Z " fill="rgb(24,54,81)"/><path d=" M 11.652 37.341 L 11.652 64.014 L 20.074 64.014 L 20.074 37.341" fill="rgb(225,230,231)"/><g><path d=" M 20.074 65.418 L 11.652 65.418 C 10.809 65.418 10.248 64.856 10.248 64.014 L 10.248 37.341 C 10.248 36.499 10.809 35.937 11.652 35.937 C 12.494 35.937 13.055 36.499 13.055 37.341 L 13.055 62.61 L 18.671 62.61 L 18.671 37.341 C 18.671 36.499 19.232 35.937 20.074 35.937 C 20.917 35.937 21.478 36.499 21.478 37.341 L 21.478 64.014 C 21.478 64.716 20.917 65.418 20.074 65.418 Z " fill="rgb(24,54,81)"/><path d=" M 57.977 53.345 L 60.785 53.345 L 60.785 56.152 L 57.977 56.152 L 57.977 53.345 Z " fill="rgb(24,54,81)"/><path d=" M 57.977 44.922 L 60.785 44.922 L 60.785 47.73 L 57.977 47.73 L 57.977 44.922 Z " fill="rgb(24,54,81)"/><path d=" M 57.977 36.499 L 60.785 36.499 L 60.785 39.307 L 57.977 39.307 L 57.977 36.499 Z " fill="rgb(24,54,81)"/><path d=" M 57.977 28.076 L 60.785 28.076 L 60.785 30.884 L 57.977 30.884 L 57.977 28.076 Z " fill="rgb(24,54,81)"/><path d=" M 57.977 19.653 L 60.785 19.653 L 60.785 22.461 L 57.977 22.461 L 57.977 19.653 Z " fill="rgb(24,54,81)"/><path d=" M 57.977 11.23 L 60.785 11.23 L 60.785 14.038 L 57.977 14.038 L 57.977 11.23 Z " fill="rgb(24,54,81)"/><path d=" M 29.059 53.345 L 31.866 53.345 L 31.866 56.152 L 29.059 56.152 L 29.059 53.345 Z " fill="rgb(24,54,81)"/><path d=" M 29.059 44.922 L 31.866 44.922 L 31.866 47.73 L 29.059 47.73 L 29.059 44.922 Z " fill="rgb(24,54,81)"/><path d=" M 29.059 36.499 L 31.866 36.499 L 31.866 39.307 L 29.059 39.307 L 29.059 36.499 Z " fill="rgb(24,54,81)"/><path d=" M 29.059 28.076 L 31.866 28.076 L 31.866 30.884 L 29.059 30.884 L 29.059 28.076 Z " fill="rgb(24,54,81)"/><path d=" M 29.059 19.653 L 31.866 19.653 L 31.866 22.461 L 29.059 22.461 L 29.059 19.653 Z " fill="rgb(24,54,81)"/><path d=" M 29.059 11.23 L 31.866 11.23 L 31.866 14.038 L 29.059 14.038 L 29.059 11.23 Z " fill="rgb(24,54,81)"/></g><path d=" M 85.071 77.49 L 73.981 71.454 L 62.891 77.49 C 60.785 78.613 59.521 80.859 59.521 83.246 L 59.521 88.44 L 88.58 88.44 L 88.58 83.246 C 88.44 80.859 87.176 78.613 85.071 77.49 Z " fill="rgb(3,92,148)"/><path d=" M 88.44 89.844 L 59.381 89.844 C 58.539 89.844 57.977 89.282 57.977 88.44 L 57.977 83.246 C 57.977 80.298 59.522 77.63 62.048 76.227 L 73.138 70.19 C 73.56 69.91 74.121 69.91 74.542 70.19 L 85.632 76.227 C 88.159 77.63 89.703 80.298 89.703 83.246 L 89.703 88.44 C 89.844 89.282 89.282 89.844 88.44 89.844 Z  M 60.785 87.036 L 87.036 87.036 L 87.036 83.246 C 87.036 81.421 86.053 79.596 84.369 78.754 L 73.84 72.998 L 63.312 78.754 C 61.627 79.596 60.644 81.421 60.644 83.246 L 60.644 87.036 L 60.785 87.036 L 60.785 87.036 Z " fill="rgb(24,54,81)"/><path d=" M 56.012 77.49 L 44.922 71.454 L 33.832 77.49 C 31.726 78.613 30.462 80.859 30.462 83.246 L 30.462 88.44 L 59.521 88.44 L 59.521 83.246 C 59.381 80.859 58.118 78.613 56.012 77.49 Z " fill="rgb(155,155,155)"/><path d=" M 59.381 89.844 L 30.463 89.844 C 29.62 89.844 29.059 89.282 29.059 88.44 L 29.059 83.246 C 29.059 80.298 30.603 77.63 33.13 76.227 L 44.22 70.19 C 44.641 69.91 45.203 69.91 45.624 70.19 L 56.714 76.227 C 59.241 77.63 60.785 80.298 60.785 83.246 L 60.785 88.44 C 60.785 89.282 60.223 89.844 59.381 89.844 Z  M 31.866 87.036 L 58.118 87.036 L 58.118 83.246 C 58.118 81.421 57.135 79.596 55.45 78.754 L 44.922 72.998 L 34.393 78.754 C 32.709 79.596 31.726 81.421 31.726 83.246 L 31.726 87.036 L 31.866 87.036 L 31.866 87.036 Z " fill="rgb(24,54,81)"/><path d=" M 81.281 64.856 C 81.281 69.769 78.052 75.385 73.981 75.385 C 69.91 75.385 66.681 69.91 66.681 64.856 C 66.681 59.943 69.91 57.416 73.981 57.416 C 78.052 57.416 81.281 59.943 81.281 64.856 Z " fill="rgb(255,255,255)"/><path d=" M 73.981 76.788 C 69.067 76.788 65.277 70.471 65.277 64.856 C 65.277 59.522 68.787 56.012 73.981 56.012 C 79.175 56.012 82.684 59.521 82.684 64.856 C 82.684 70.471 78.894 76.788 73.981 76.788 Z  M 73.981 58.96 C 70.331 58.96 68.085 61.206 68.085 64.996 C 68.085 69.489 71.033 74.121 73.981 74.121 C 76.929 74.121 79.877 69.489 79.877 64.996 C 79.877 61.206 77.631 58.96 73.981 58.96 Z " fill="rgb(24,54,81)"/><path d=" M 52.222 64.856 C 52.222 69.769 48.993 75.385 44.922 75.385 C 40.851 75.385 37.622 69.91 37.622 64.856 C 37.622 59.943 40.851 57.416 44.922 57.416 C 48.993 57.416 52.222 59.943 52.222 64.856 Z " fill="rgb(255,255,255)"/><path d=" M 44.922 76.788 C 40.009 76.788 36.218 70.471 36.218 64.856 C 36.218 59.522 39.728 56.012 44.922 56.012 C 50.116 56.012 53.626 59.521 53.626 64.856 C 53.625 70.471 49.835 76.788 44.922 76.788 Z  M 44.922 58.96 C 41.272 58.96 39.026 61.206 39.026 64.996 C 39.026 69.489 41.974 74.121 44.922 74.121 C 47.87 74.121 50.818 69.489 50.818 64.996 C 50.818 61.206 48.572 58.96 44.922 58.96 Z " fill="rgb(24,54,81)"/><path d=" M 27.094 77.49 L 16.003 71.454 L 4.913 77.49 C 2.808 78.613 1.544 80.859 1.544 83.246 L 1.544 88.44 L 30.603 88.44 L 30.603 83.246 C 30.463 80.859 29.059 78.613 27.094 77.49 Z " fill="rgb(174,235,242)"/><path d=" M 30.463 89.844 L 1.404 89.844 C 0.562 89.844 0 89.282 0 88.44 L 0 83.246 C 0 80.298 1.544 77.63 4.071 76.227 L 15.161 70.19 C 15.582 69.91 16.144 69.91 16.565 70.19 L 27.655 76.227 C 30.182 77.63 31.726 80.298 31.726 83.246 L 31.726 88.44 C 31.866 89.282 31.165 89.844 30.463 89.844 Z  M 2.808 87.036 L 29.059 87.036 L 29.059 83.246 C 29.059 81.421 28.076 79.596 26.392 78.754 L 15.863 72.998 L 5.334 78.754 C 3.65 79.596 2.667 81.421 2.667 83.246 L 2.667 87.036 L 2.808 87.036 L 2.808 87.036 Z " fill="rgb(24,54,81)"/><path d=" M 23.163 64.856 C 23.163 69.769 19.934 75.385 15.863 75.385 C 11.792 75.385 8.563 69.91 8.563 64.856 C 8.563 59.943 11.792 57.416 15.863 57.416 C 19.934 57.416 23.163 59.943 23.163 64.856 Z " fill="rgb(255,255,255)"/><path d=" M 15.863 76.788 C 10.95 76.788 7.159 70.471 7.159 64.856 C 7.159 59.522 10.669 56.012 15.863 56.012 C 21.057 56.012 24.567 59.662 24.567 64.856 C 24.567 70.471 20.917 76.788 15.863 76.788 Z  M 15.863 58.96 C 12.213 58.96 9.967 61.206 9.967 64.996 C 9.967 69.489 12.915 74.121 15.863 74.121 C 18.811 74.121 21.759 69.489 21.759 64.996 C 21.759 61.206 19.653 58.96 15.863 58.96 Z " fill="rgb(24,54,81)"/></g></g></g></g></svg>
