<?xml version="1.0" encoding="UTF-8" standalone="no"?><!-- Generator: Gravit.io --><svg xmlns="http://www.w3.org/2000/svg" xmlns:xlink="http://www.w3.org/1999/xlink" style="isolation:isolate" viewBox="0 0 90 90" width="90pt" height="90pt"><defs><clipPath id="_clipPath_xLnP2VLkC9UVTdcJuQe4um9q6MbwF64G"><rect width="90" height="90"/></clipPath></defs><g clip-path="url(#_clipPath_xLnP2VLkC9UVTdcJuQe4um9q6MbwF64G)"><g><g><g><path d=" M 44.922 89.844 C 20.215 89.844 0 69.629 0 44.922 C 0 20.215 20.215 0 44.922 0 C 69.629 0 89.844 20.215 89.844 44.922 C 89.844 69.629 69.629 89.844 44.922 89.844 L 44.922 89.844 L 44.922 89.844 Z " fill="rgb(231,231,231)"/><path d=" M 61.935 56.81 L 56.873 61.872 L 49.428 54.428 L 54.49 49.365 L 61.935 56.81 Z " fill="rgb(255,255,255)"/><path d=" M 56.854 63.312 C 56.433 63.312 56.152 63.171 55.871 62.891 L 48.291 55.45 C 47.729 54.889 47.729 54.047 48.291 53.485 L 53.345 48.431 C 53.906 47.87 54.749 47.87 55.31 48.431 L 62.75 55.871 C 63.312 56.433 63.312 57.275 62.75 57.837 L 57.697 62.891 C 57.556 63.171 57.135 63.312 56.854 63.312 Z  M 51.379 54.468 L 56.854 59.943 L 59.942 56.854 L 54.468 51.379 L 51.379 54.468 L 51.379 54.468 Z " fill="rgb(24,54,81)"/><path d=" M 63.733 54.889 L 55.029 63.593 L 73.981 85.492 C 77.069 89.142 82.684 89.282 86.053 85.913 L 86.053 85.913 C 89.423 82.544 89.282 76.929 85.632 73.84 L 63.733 54.889 L 63.733 54.889 Z " fill="rgb(3,92,148)"/><path d=" M 72.858 86.474 L 53.906 64.716 C 53.485 64.154 53.485 63.312 53.906 62.75 L 62.61 54.047 C 63.171 53.485 64.014 53.485 64.575 54.047 L 86.475 72.998 C 90.686 76.648 90.967 83.246 86.896 87.176 C 82.965 90.967 76.507 90.686 72.858 86.474 Z  M 56.854 63.733 L 74.963 84.65 C 77.49 87.598 82.123 87.878 85.071 84.93 C 87.878 82.123 87.738 77.49 84.79 74.823 L 63.733 56.854 L 56.854 63.733 L 56.854 63.733 Z " fill="rgb(24,54,81)"/><circle vector-effect="non-scaling-stroke" cx="34.3933663" cy="34.3933663" r="28.637643600000004" fill="rgb(255,255,255)"/><path d=" M 34.393 64.435 L 34.393 64.435 C 17.688 64.435 4.211 50.958 4.211 34.393 C 4.211 17.828 17.688 4.352 34.253 4.352 C 50.818 4.352 64.435 17.828 64.435 34.534 C 64.435 50.958 50.958 64.435 34.393 64.435 Z  M 34.393 7.019 C 27.094 7.019 20.215 9.827 15.021 15.021 C 9.827 20.215 7.019 27.094 7.019 34.393 C 7.019 49.414 19.232 61.768 34.253 61.768 L 34.253 63.171 L 34.253 61.768 C 49.274 61.768 61.487 49.555 61.487 34.534 C 61.627 19.232 49.414 7.019 34.393 7.019 Z " fill="rgb(24,54,81)"/><path d=" M 11.932 34.253 C 11.932 21.899 22.04 11.792 34.393 11.792 C 46.747 11.792 56.854 21.899 56.854 34.253 C 56.714 46.747 46.747 56.714 34.393 56.714 C 22.04 56.714 11.932 46.606 11.932 34.253 Z " fill="rgb(174,235,242)"/><path d=" M 49.414 35.797 C 48.572 35.797 48.01 35.236 48.01 34.393 C 48.01 26.953 41.834 20.776 34.393 20.776 C 33.551 20.776 32.99 20.215 32.99 19.373 C 32.99 18.53 33.551 17.969 34.393 17.969 C 43.518 17.969 50.818 25.409 50.818 34.393 C 50.818 35.095 50.116 35.797 49.414 35.797 Z " fill="rgb(255,255,255)"/><g><path d=" M 67.728 69.624 L 65.743 67.639 L 67.728 65.653 L 69.713 67.639 L 67.728 69.624 Z " fill="rgb(24,54,81)"/><path d=" M 73.557 75.544 L 71.572 73.557 L 73.558 71.572 L 75.543 73.559 L 73.557 75.544 Z " fill="rgb(24,54,81)"/><path d=" M 79.385 81.468 L 77.4 79.483 L 79.385 77.498 L 81.371 79.483 L 79.385 81.468 Z " fill="rgb(24,54,81)"/></g></g></g></g></g></svg>
