<?xml version="1.0" encoding="UTF-8" standalone="no"?><!-- Generator: Gravit.io --><svg xmlns="http://www.w3.org/2000/svg" xmlns:xlink="http://www.w3.org/1999/xlink" style="isolation:isolate" viewBox="0 0 90 90" width="90pt" height="90pt"><defs><clipPath id="_clipPath_QybHFfyqb4Hk0vOfTPaWvMOkg75Xn9Wk"><rect width="90" height="90"/></clipPath></defs><g clip-path="url(#_clipPath_QybHFfyqb4Hk0vOfTPaWvMOkg75Xn9Wk)"><g><g><g><circle vector-effect="non-scaling-stroke" cx="62.469445500000006" cy="62.469445500000006" r="27.374257400000005" fill="rgb(89,89,89)"/><rect x="1.404" y="1.404" width="81.982" height="62.61" transform="matrix(1,0,0,1,0,0)" fill="rgb(174,235,242)"/><path d=" M 83.386 65.418 L 1.404 65.418 C 0.562 65.418 0 64.856 0 64.014 L 0 1.404 C 0 0.562 0.562 0 1.404 0 L 83.386 0 C 84.228 0 84.79 0.562 84.79 1.404 L 84.79 64.014 C 84.79 64.716 84.088 65.418 83.386 65.418 Z  M 2.808 62.61 L 81.982 62.61 L 81.982 2.808 L 2.808 2.808 L 2.808 62.61 L 2.808 62.61 Z " fill="rgb(24,54,81)"/><g><rect x="7.019" y="7.019" width="70.752" height="51.379" transform="matrix(1,0,0,1,0,0)" fill="rgb(255,255,255)"/><circle vector-effect="non-scaling-stroke" cx="62.469445500000006" cy="62.469445500000006" r="21.899405900000005" fill="rgb(255,255,255)"/></g><path d=" M 62.469 85.773 C 49.554 85.773 39.166 75.244 39.166 62.469 C 39.166 49.554 49.695 39.166 62.469 39.166 C 75.385 39.166 85.773 49.695 85.773 62.469 C 85.773 75.385 75.385 85.773 62.469 85.773 Z  M 62.469 41.974 C 51.099 41.974 41.974 51.239 41.974 62.469 C 41.974 73.7 51.099 82.965 62.469 82.965 C 73.84 82.965 82.965 73.84 82.965 62.469 C 82.965 51.099 73.84 41.974 62.469 41.974 Z " fill="rgb(24,54,81)"/><path d=" M 62.469 45.764 C 53.204 45.764 45.764 53.345 45.764 62.469 L 62.469 62.469 L 62.469 45.764 L 62.469 45.764 Z " fill="rgb(210,210,210)"/><path d=" M 62.469 62.469 L 62.469 79.175 L 62.469 79.175 C 71.735 79.175 79.175 71.594 79.175 62.469 L 62.469 62.469 L 62.469 62.469 Z " fill="rgb(174,235,242)"/><path d=" M 62.469 62.469 L 45.764 62.469 C 45.764 71.735 53.345 79.175 62.469 79.175 L 62.469 62.469 L 62.469 62.469 L 62.469 62.469 Z " fill="rgb(3,92,148)"/><path d=" M 62.469 45.764 L 62.469 45.764 L 62.469 62.469 L 62.469 62.469 L 74.261 50.677 C 71.314 47.589 67.102 45.764 62.469 45.764 Z " fill="rgb(224,221,16)"/><path d=" M 74.261 50.677 L 62.469 62.469 L 79.175 62.469 C 79.175 57.837 77.35 53.625 74.261 50.677 Z " fill="rgb(231,231,231)"/><path d=" M 39.166 28.778 C 38.745 28.778 38.464 28.638 38.184 28.357 L 27.374 17.688 L 19.513 25.549 C 18.951 26.111 18.109 26.111 17.548 25.549 C 16.986 24.988 16.986 24.145 17.548 23.584 L 26.392 14.74 C 26.953 14.178 27.795 14.178 28.357 14.74 L 39.026 25.409 L 47.028 17.548 C 47.589 16.986 48.431 16.986 48.993 17.548 C 49.555 18.109 49.555 18.951 48.993 19.513 L 40.149 28.357 C 39.868 28.638 39.447 28.778 39.166 28.778 Z " fill="rgb(24,54,81)"/><circle vector-effect="non-scaling-stroke" cx="39.1662178" cy="27.3742574" r="4.211465349999997" fill="rgb(255,255,255)"/><path d=" M 39.166 32.99 C 36.078 32.99 33.551 30.463 33.551 27.374 C 33.551 24.286 36.078 21.759 39.166 21.759 C 42.255 21.759 44.782 24.286 44.782 27.374 C 44.782 30.463 42.255 32.99 39.166 32.99 Z  M 39.166 24.567 C 37.622 24.567 36.359 25.83 36.359 27.374 C 36.359 28.919 37.622 30.182 39.166 30.182 C 40.71 30.182 41.974 28.919 41.974 27.374 C 41.974 25.83 40.71 24.567 39.166 24.567 Z " fill="rgb(24,54,81)"/><circle vector-effect="non-scaling-stroke" cx="51.0986139" cy="15.4418614" r="4.211465349999997" fill="rgb(255,255,255)"/><path d=" M 51.099 21.198 C 48.01 21.198 45.483 18.671 45.483 15.582 C 45.483 12.494 48.01 9.967 51.099 9.967 C 54.187 9.967 56.714 12.494 56.714 15.582 C 56.714 18.671 54.187 21.198 51.099 21.198 Z  M 51.099 12.634 C 49.554 12.634 48.291 13.898 48.291 15.442 C 48.291 16.986 49.554 18.25 51.099 18.25 C 52.643 18.25 53.906 16.986 53.906 15.442 C 53.906 13.898 52.643 12.634 51.099 12.634 Z " fill="rgb(24,54,81)"/><circle vector-effect="non-scaling-stroke" cx="15.4418614" cy="27.3742574" r="4.211465350000001" fill="rgb(255,255,255)"/><path d=" M 15.442 32.99 C 12.354 32.99 9.827 30.463 9.827 27.374 C 9.827 24.286 12.353 21.759 15.442 21.759 C 18.53 21.759 21.057 24.286 21.057 27.374 C 21.057 30.463 18.53 32.99 15.442 32.99 Z  M 15.442 24.567 C 13.898 24.567 12.634 25.83 12.634 27.374 C 12.634 28.919 13.898 30.182 15.442 30.182 C 16.986 30.182 18.25 28.919 18.25 27.374 C 18.25 25.83 16.986 24.567 15.442 24.567 Z " fill="rgb(24,54,81)"/><circle vector-effect="non-scaling-stroke" cx="27.3742574" cy="15.4418614" r="4.211465350000001" fill="rgb(255,255,255)"/><path d=" M 27.374 21.198 C 24.286 21.198 21.759 18.671 21.759 15.582 C 21.759 12.494 24.286 9.967 27.374 9.967 C 30.463 9.967 32.99 12.494 32.99 15.582 C 32.99 18.671 30.463 21.198 27.374 21.198 Z  M 27.374 12.634 C 25.83 12.634 24.567 13.898 24.567 15.442 C 24.567 16.986 25.83 18.25 27.374 18.25 C 28.919 18.25 30.182 16.986 30.182 15.442 C 30.182 13.898 28.919 12.634 27.374 12.634 Z " fill="rgb(24,54,81)"/><path d=" M 63.593 14.038 L 73.7 14.038 L 73.7 16.846 L 63.593 16.846 L 63.593 14.038 Z " fill="rgb(24,54,81)"/><rect x="63.593" y="20.496" width="10.107" height="2.808" transform="matrix(1,0,0,1,0,0)" fill="rgb(24,54,81)"/><path d=" M 63.593 26.953 L 73.7 26.953 L 73.7 29.761 L 63.593 29.761 L 63.593 26.953 Z " fill="rgb(24,54,81)"/><path d=" M 12.073 37.762 L 31.024 37.762 L 31.024 40.57 L 12.073 40.57 L 12.073 37.762 Z " fill="rgb(24,54,81)"/><g><path d=" M 12.073 44.782 L 31.024 44.782 L 31.024 47.589 L 12.073 47.589 L 12.073 44.782 Z " fill="rgb(24,54,81)"/><path d=" M 12.073 51.941 L 14.88 51.941 L 14.88 54.749 L 12.073 54.749 L 12.073 51.941 Z " fill="rgb(24,54,81)"/><path d=" M 20.074 51.941 L 22.882 51.941 L 22.882 54.749 L 20.074 54.749 L 20.074 51.941 Z " fill="rgb(24,54,81)"/><path d=" M 28.217 51.941 L 31.024 51.941 L 31.024 54.749 L 28.217 54.749 L 28.217 51.941 Z " fill="rgb(24,54,81)"/></g></g></g></g></g></svg>
