<?xml version="1.0" encoding="UTF-8" standalone="no"?><!-- Generator: Gravit.io --><svg xmlns="http://www.w3.org/2000/svg" xmlns:xlink="http://www.w3.org/1999/xlink" style="isolation:isolate" viewBox="0 0 90 90" width="90pt" height="90pt"><defs><clipPath id="_clipPath_nXvNtqlIfV0y50P240GoPT3zCIePEKRm"><rect width="90" height="90"/></clipPath></defs><g clip-path="url(#_clipPath_nXvNtqlIfV0y50P240GoPT3zCIePEKRm)"><g><g><g><circle vector-effect="non-scaling-stroke" cx="44.9219406" cy="44.9219406" r="44.9219406" fill="rgb(231,231,231)"/><g><path d=" M 60.785 34.814 L 63.593 34.814 L 63.593 37.622 L 60.785 37.622 L 60.785 34.814 Z " fill="rgb(24,54,81)"/><path d=" M 69.348 34.814 L 72.156 34.814 L 72.156 37.622 L 69.348 37.622 L 69.348 34.814 Z " fill="rgb(24,54,81)"/><path d=" M 77.771 34.814 L 80.579 34.814 L 80.579 37.622 L 77.771 37.622 L 77.771 34.814 Z " fill="rgb(24,54,81)"/><path d=" M 9.265 52.222 L 12.073 52.222 L 12.073 55.029 L 9.265 55.029 L 9.265 52.222 Z " fill="rgb(24,54,81)"/><path d=" M 17.688 52.222 L 20.496 52.222 L 20.496 55.029 L 17.688 55.029 L 17.688 52.222 Z " fill="rgb(24,54,81)"/><path d=" M 26.251 52.222 L 29.059 52.222 L 29.059 55.029 L 26.251 55.029 L 26.251 52.222 Z " fill="rgb(24,54,81)"/><path d=" M 26.111 11.652 L 24.145 9.686 L 26.672 7.019 L 24.145 4.352 L 26.111 2.387 L 30.743 7.019 L 26.111 11.652 Z " fill="rgb(24,54,81)"/><path d=" M 19.934 5.615 L 28.638 5.615 L 28.638 8.423 L 19.934 8.423 L 19.934 5.615 Z " fill="rgb(24,54,81)"/></g><rect x="35.657" y="77.069" width="18.53" height="11.371" transform="matrix(1,0,0,1,0,0)" fill="rgb(3,92,148)"/><path d=" M 54.187 89.844 L 35.657 89.844 C 34.814 89.844 34.253 89.282 34.253 88.44 L 34.253 77.069 C 34.253 76.227 34.814 75.665 35.657 75.665 L 54.187 75.665 C 55.029 75.665 55.591 76.227 55.591 77.069 L 55.591 88.44 C 55.591 89.282 55.029 89.844 54.187 89.844 Z  M 37.061 87.036 L 52.783 87.036 L 52.783 78.473 L 37.061 78.473 L 37.061 87.036 L 37.061 87.036 L 37.061 87.036 Z " fill="rgb(24,54,81)"/><rect x="35.657" y="58.118" width="18.53" height="11.371" transform="matrix(1,0,0,1,0,0)" fill="rgb(255,255,255)"/><path d=" M 54.187 70.892 L 35.657 70.892 C 34.814 70.892 34.253 70.331 34.253 69.489 L 34.253 58.118 C 34.253 57.275 34.814 56.714 35.657 56.714 L 54.187 56.714 C 55.029 56.714 55.591 57.275 55.591 58.118 L 55.591 69.489 C 55.591 70.331 55.029 70.892 54.187 70.892 Z  M 37.061 68.085 L 52.783 68.085 L 52.783 59.522 L 37.061 59.522 L 37.061 68.085 L 37.061 68.085 L 37.061 68.085 Z " fill="rgb(24,54,81)"/><rect x="35.657" y="39.307" width="18.53" height="11.371" transform="matrix(1,0,0,1,0,0)" fill="rgb(3,92,148)"/><path d=" M 54.187 51.941 L 35.657 51.941 C 34.814 51.941 34.253 51.379 34.253 50.537 L 34.253 39.166 C 34.253 38.324 34.814 37.762 35.657 37.762 L 54.187 37.762 C 55.029 37.762 55.591 38.324 55.591 39.166 L 55.591 50.537 C 55.591 51.379 55.029 51.941 54.187 51.941 Z  M 37.061 49.133 L 52.783 49.133 L 52.783 40.57 L 37.061 40.57 L 37.061 49.133 L 37.061 49.133 L 37.061 49.133 Z " fill="rgb(24,54,81)"/><rect x="35.657" y="20.355" width="18.53" height="11.371" transform="matrix(1,0,0,1,0,0)" fill="rgb(255,255,255)"/><path d=" M 54.187 33.13 L 35.657 33.13 C 34.814 33.13 34.253 32.568 34.253 31.726 L 34.253 20.355 C 34.253 19.513 34.814 18.951 35.657 18.951 L 54.187 18.951 C 55.029 18.951 55.591 19.513 55.591 20.355 L 55.591 31.726 C 55.591 32.428 55.029 33.13 54.187 33.13 Z  M 37.061 30.322 L 52.783 30.322 L 52.783 21.759 L 37.061 21.759 L 37.061 30.322 L 37.061 30.322 L 37.061 30.322 Z " fill="rgb(24,54,81)"/><rect x="35.657" y="1.404" width="18.53" height="11.371" transform="matrix(1,0,0,1,0,0)" fill="rgb(3,92,148)"/><g><path d=" M 54.187 14.178 L 35.657 14.178 C 34.814 14.178 34.253 13.617 34.253 12.775 L 34.253 1.404 C 34.253 0.562 34.814 0 35.657 0 L 54.187 0 C 55.029 0 55.591 0.562 55.591 1.404 L 55.591 12.775 C 55.591 13.476 55.029 14.178 54.187 14.178 Z  M 37.061 11.371 L 52.783 11.371 L 52.783 2.808 L 37.061 2.808 L 37.061 11.371 L 37.061 11.371 Z " fill="rgb(24,54,81)"/><path d=" M 60.364 86.896 L 58.398 84.93 L 60.925 82.403 L 58.398 79.736 L 60.364 77.771 L 64.856 82.403 L 60.364 86.896 Z " fill="rgb(24,54,81)"/><path d=" M 54.187 81 L 62.891 81 L 62.891 83.807 L 54.187 83.807 L 54.187 81 Z " fill="rgb(24,54,81)"/><path d=" M 27.234 86.334 L 25.128 84.369 L 27.795 81.702 L 25.128 79.034 L 27.234 77.069 L 31.726 81.702 L 27.234 86.334 Z " fill="rgb(24,54,81)"/><path d=" M 29.62 83.105 L 11.371 83.105 C 5.615 83.105 0.983 78.473 0.983 72.717 C 0.983 66.962 5.756 62.469 11.511 62.469 L 35.657 62.469 L 35.657 65.277 L 11.511 65.277 C 7.3 65.277 3.931 68.646 3.931 72.858 C 3.931 77.069 7.3 80.438 11.511 80.438 L 29.761 80.438 L 29.761 83.105 L 29.62 83.105 L 29.62 83.105 Z " fill="rgb(24,54,81)"/><path d=" M 27.234 48.431 L 25.128 46.466 L 27.795 43.939 L 25.128 41.272 L 27.234 39.307 L 31.726 43.939 L 27.234 48.431 Z " fill="rgb(24,54,81)"/><path d=" M 29.62 45.343 L 11.371 45.343 C 5.615 45.343 0.983 40.71 0.983 34.955 C 0.983 29.199 5.756 24.567 11.511 24.567 L 35.657 24.567 L 35.657 27.374 L 11.511 27.374 C 7.3 27.374 3.931 30.743 3.931 34.955 C 3.931 39.166 7.3 42.535 11.511 42.535 L 29.761 42.535 L 29.761 45.343 L 29.62 45.343 L 29.62 45.343 Z " fill="rgb(24,54,81)"/><path d=" M 62.61 68.085 L 58.118 63.452 L 62.61 58.96 L 64.716 60.925 L 62.048 63.452 L 64.716 66.119 L 62.61 68.085 Z " fill="rgb(24,54,81)"/><path d=" M 78.332 64.856 L 60.083 64.856 L 60.083 62.048 L 78.332 62.048 C 82.544 62.048 85.913 58.679 85.913 54.468 L 85.913 53.766 C 85.913 49.555 82.544 46.186 78.332 46.186 L 54.187 46.186 L 54.187 43.378 L 78.332 43.378 C 84.088 43.378 88.721 48.01 88.721 53.766 L 88.721 54.468 C 88.721 60.223 84.088 64.856 78.332 64.856 Z " fill="rgb(24,54,81)"/><path d=" M 62.61 30.322 L 58.118 25.69 L 62.61 21.057 L 64.716 23.023 L 62.048 25.69 L 64.716 28.357 L 62.61 30.322 Z " fill="rgb(24,54,81)"/><path d=" M 78.332 27.094 L 60.083 27.094 L 60.083 24.286 L 78.332 24.286 C 82.544 24.286 85.913 20.917 85.913 16.705 L 85.913 16.004 C 85.913 11.792 82.544 8.423 78.332 8.423 L 54.187 8.423 L 54.187 5.615 L 78.332 5.615 C 84.088 5.615 88.721 10.248 88.721 16.003 L 88.721 16.705 C 88.721 22.461 84.088 27.094 78.332 27.094 Z " fill="rgb(24,54,81)"/></g><path d=" M 69.91 77.069 L 88.44 77.069 L 88.44 88.44 L 69.91 88.44 L 69.91 77.069 Z " fill="rgb(224,221,16)"/><path d=" M 88.44 89.844 L 69.91 89.844 C 69.067 89.844 68.506 89.282 68.506 88.44 L 68.506 77.069 C 68.506 76.227 69.067 75.665 69.91 75.665 L 88.44 75.665 C 89.282 75.665 89.844 76.227 89.844 77.069 L 89.844 88.44 C 89.844 89.282 89.282 89.844 88.44 89.844 Z  M 71.314 87.036 L 87.036 87.036 L 87.036 78.473 L 71.314 78.473 L 71.314 87.036 L 71.314 87.036 Z " fill="rgb(24,54,81)"/><rect x="1.404" y="1.404" width="18.53" height="11.371" transform="matrix(1,0,0,1,0,0)" fill="rgb(224,221,16)"/><path d=" M 19.934 14.178 L 1.404 14.178 C 0.562 14.178 0 13.617 0 12.775 L 0 1.404 C 0 0.562 0.562 0 1.404 0 L 19.934 0 C 20.776 0 21.338 0.562 21.338 1.404 L 21.338 12.775 C 21.338 13.476 20.776 14.178 19.934 14.178 Z  M 2.808 11.371 L 18.53 11.371 L 18.53 2.808 L 2.808 2.808 L 2.808 11.371 L 2.808 11.371 Z " fill="rgb(24,54,81)"/></g></g></g></g></svg>
