<?xml version="1.0" encoding="UTF-8"?>
<svg width="136px" height="98px" viewBox="0 0 136 98" version="1.1" xmlns="http://www.w3.org/2000/svg" xmlns:xlink="http://www.w3.org/1999/xlink">
    <!-- Generator: Sketch 54 (76480) - https://sketchapp.com -->
    <title>Group</title>
    <desc>Created with Sketch.</desc>
    <defs>
        <rect id="path-1" x="65" y="2" width="71" height="96" rx="8"></rect>
        <mask id="mask-2" maskContentUnits="userSpaceOnUse" maskUnits="objectBoundingBox" x="0" y="0" width="71" height="96" fill="white">
            <use xlink:href="#path-1"></use>
        </mask>
    </defs>
    <g id="Page-1" stroke="none" stroke-width="1" fill="none" fill-rule="evenodd">
        <g id="1-index-1440-copy" transform="translate(-222.000000, -551.000000)">
            <g id="Group" transform="translate(222.000000, 551.000000)">
                <g id="Group-18">
                    <g id="Group-17">
                        <path d="M8.7461733,96.9537456 C11.4681067,97.2205561 14.1766313,96.3246093 16.2028981,94.4853532 C18.2291648,92.6468863 19.3846655,90.0364054 19.3846655,87.2988343 L19.3846655,50.1166509 C19.3846655,49.2238619 20.1079378,48.4999999 21,48.5 C21.8920623,48.4999999 22.6153345,49.2238619 22.6153345,50.1166509 L22.6153345,86.9515069 C22.5577565,92.0288015 26.3247671,96.3364501 31.3608566,96.9537456 C31.6692528,96.9829526 31.9776493,96.9987402 32.2860457,96.9987402 C34.8604851,97.004266 37.3308111,95.9851758 39.1527948,94.1648646 C40.9755673,92.3453429 41.9993488,89.8753718 41.9993488,87.2988343 L41.9993488,56.5832549 C41.9819965,49.6359183 37.9397165,43.3287691 31.6369146,40.416745 C37.9397165,37.5047209 41.9819965,31.1975717 41.9993488,24.2502351 L41.9993488,10.0477036 C42.0569266,4.9711984 38.289916,0.663549799 33.2538267,0.0462544549 C30.5318934,-0.22055621 27.8233687,0.675390555 25.7971018,2.51464671 C23.770835,4.35311373 22.6145457,6.96280511 22.6153345,9.70037622 L22.6153345,32.3334901 C22.6153345,33.2262793 21.8920623,33.950141 21,33.950141 C20.1079378,33.950141 19.3846655,33.2262793 19.3846655,32.3334901 L19.3846655,10.0477036 C19.4422433,4.9711984 15.6752327,0.663549799 10.6391434,0.0462544549 C7.91721008,-0.22055621 5.2086854,0.675390555 3.18241846,2.51464671 C1.15615172,4.35311373 -0.000137540384,6.96280511 0.000651207271,9.70037622 L0.000651207271,24.2502351 C0.0172146859,31.1975717 4.06028351,37.5047209 10.3630852,40.416745 C4.06028351,43.3287691 0.0172146859,49.6359183 0.000651207271,56.5832549 L0.000651207271,86.9515069 C-0.0569267456,92.0288015 3.71008384,96.3364501 8.7461733,96.9537456 L8.7461733,96.9537456 Z" id="Path" fill="#E7E7E7" fill-rule="nonzero"></path>
                        <rect id="Rectangle" fill="#FFFFFF" x="3" y="61" width="14" height="4"></rect>
                        <rect id="Rectangle" fill="#FFFFFF" x="3" y="67" width="14" height="13"></rect>
                        <rect id="Rectangle-Copy-2" fill="#3283C8" x="25" y="67" width="14" height="13"></rect>
                        <rect id="Rectangle-Copy-2" fill="#05B8EE" transform="translate(32.000000, 62.500000) scale(1, -1) translate(-32.000000, -62.500000) " x="25" y="58" width="14" height="9"></rect>
                        <rect id="Rectangle-Copy-3" fill="#3283C8" x="25" y="11" width="14" height="6"></rect>
                        <rect id="Rectangle-Copy-5" fill="#FFFFFF" x="3" y="11" width="14" height="6"></rect>
                        <path d="M3,5.6 C5.88782728,3.2 8.17999034,2 9.87648918,2 C11.572988,2 13.9474916,3.2 17,5.6 L17,11 L3,11 L3,5.6 Z" id="Rectangle-Copy-4" fill="#05B8EE"></path>
                        <path d="M24,5.6 C26.8878273,3.2 29.1799903,2 30.8764892,2 C32.572988,2 34.9474916,3.2 38,5.6 L38,11 L24,11 L24,5.6 Z" id="Rectangle-Copy-4" fill="#FFFFFF"></path>
                        <path d="M25,86 C27.8878273,82 30.1799903,80 31.8764892,80 C33.572988,80 35.9474916,82 39,86 L39,95 L25,95 L25,86 Z" id="Rectangle-Copy-6" fill="#FFFFFF" transform="translate(32.000000, 87.500000) rotate(-180.000000) translate(-32.000000, -87.500000) "></path>
                        <path d="M8.7461733,96.9537456 C11.4681067,97.2205561 14.1766313,96.3246093 16.2028981,94.4853532 C18.2291648,92.6468863 19.3846655,90.0364054 19.3846655,87.2988343 L19.3846655,50.1166509 C19.3846655,49.2238619 20.1079378,48.4999999 21,48.5 C21.8920623,48.4999999 22.6153345,49.2238619 22.6153345,50.1166509 L22.6153345,86.9515069 C22.5577565,92.0288015 26.3247671,96.3364501 31.3608566,96.9537456 C31.6692528,96.9829526 31.9776493,96.9987402 32.2860457,96.9987402 C34.8604851,97.004266 37.3308111,95.9851758 39.1527948,94.1648646 C40.9755673,92.3453429 41.9993488,89.8753718 41.9993488,87.2988343 L41.9993488,56.5832549 C41.9819965,49.6359183 37.9397165,43.3287691 31.6369146,40.416745 C37.9397165,37.5047209 41.9819965,31.1975717 41.9993488,24.2502351 L41.9993488,10.0477036 C42.0569266,4.9711984 38.289916,0.663549799 33.2538267,0.0462544549 C30.5318934,-0.22055621 27.8233687,0.675390555 25.7971018,2.51464671 C23.770835,4.35311373 22.6145457,6.96280511 22.6153345,9.70037622 L22.6153345,32.3334901 C22.6153345,33.2262793 21.8920623,33.950141 21,33.950141 C20.1079378,33.950141 19.3846655,33.2262793 19.3846655,32.3334901 L19.3846655,10.0477036 C19.4422433,4.9711984 15.6752327,0.663549799 10.6391434,0.0462544549 C7.91721008,-0.22055621 5.2086854,0.675390555 3.18241846,2.51464671 C1.15615172,4.35311373 -0.000137540384,6.96280511 0.000651207271,9.70037622 L0.000651207271,24.2502351 C0.0172146859,31.1975717 4.06028351,37.5047209 10.3630852,40.416745 C4.06028351,43.3287691 0.0172146859,49.6359183 0.000651207271,56.5832549 L0.000651207271,86.9515069 C-0.0569267456,92.0288015 3.71008384,96.3364501 8.7461733,96.9537456 L8.7461733,96.9537456 Z M14.0378135,92.0840582 C12.6843399,93.3202277 10.8686661,93.9201568 9.04668226,93.7346524 C5.66299824,93.2831268 3.15954512,90.3600515 3.23132029,86.9444026 L3.23132029,82.4488813 L16.1539965,82.4488813 L16.1539965,87.2988343 C16.1524189,89.1207242 15.3841886,90.857361 14.0378135,92.0840582 L14.0378135,92.0840582 Z M16.1539965,67.8998118 L16.1539965,79.2155794 L3.23132029,79.2155794 L3.23132029,67.8998118 L16.1539965,67.8998118 Z M3.23132029,64.6665098 L3.23132029,61.4332078 L16.1539965,61.4332078 L16.1539965,64.6665098 L3.23132029,64.6665098 Z M25.8460036,61.4332078 L38.7686798,61.4332078 L38.7686798,64.6665098 L25.8460036,64.6665098 L25.8460036,61.4332078 Z M25.8460036,67.8998118 L38.7686798,67.8998118 L38.7686798,79.2155794 L25.8460036,79.2155794 L25.8460036,67.8998118 Z M36.6524968,92.0840582 C35.2990232,93.3202277 33.4833494,93.9201568 31.6613656,93.7346524 C28.2776815,93.2831268 25.7742284,90.3600515 25.8460036,86.9444026 L25.8460036,82.4488813 L38.7686798,82.4488813 L38.7686798,87.2988343 C38.7671022,89.1207242 37.9988719,90.857361 36.6524968,92.0840582 L36.6524968,92.0840582 Z M38.7686798,16.1669802 L25.8460036,16.1669802 L25.8460036,12.9336782 L38.7686798,12.9336782 L38.7686798,16.1669802 Z M27.9621865,4.91594188 C29.3140826,3.67819346 31.1305452,3.07747506 32.9533178,3.26534748 C36.1989727,3.69713859 38.650369,6.42523714 38.7363414,9.70037622 L25.8460036,9.70037622 C25.847581,7.87848634 26.6158114,6.14263907 27.9621865,4.91594188 Z M16.1539965,16.1669802 L3.23132029,16.1669802 L3.23132029,12.9336782 L16.1539965,12.9336782 L16.1539965,16.1669802 Z M5.34750321,4.91594188 C6.69939929,3.67819346 8.51586194,3.07747506 10.3386345,3.26534748 C13.5842894,3.69713859 16.0356857,6.42523714 16.1216581,9.70037622 L3.23132029,9.70037622 C3.23289766,7.87848634 4.00112815,6.14263907 5.34750321,4.91594188 Z M14.8612555,42.3262561 C15.6137113,42.1723269 16.1539965,41.5100367 16.1539965,40.7419697 L16.1539965,40.0946778 C16.1539965,39.3266108 15.6137113,38.6643206 14.8612555,38.5103914 C8.0994085,37.1139775 3.24394009,31.1604709 3.23132029,24.2502351 L3.23132029,19.4002821 L16.1539965,19.4002821 L16.1539965,32.3334901 C16.1539965,35.0118576 18.3238133,37.183443 21,37.183443 C23.6761865,37.183443 25.8460036,35.0118576 25.8460036,32.3334901 L25.8460036,19.4002821 L38.7686798,19.4002821 L38.7686798,24.2502351 C38.7544824,31.1596814 33.899014,37.11082 27.1379556,38.507234 C26.3862888,38.6611631 25.8460036,39.3234532 25.8460036,40.0915203 L25.8460036,40.7388122 C25.8460036,41.5068794 26.3862888,42.1691694 27.1379556,42.3230986 C33.9005915,43.7195124 38.75606,49.6730193 38.7686798,56.5832549 L38.7686798,58.1999059 L25.8460036,58.1999059 L25.8460036,50.1166509 C25.8460036,47.4382834 23.6761865,45.266698 21,45.266698 C18.3238133,45.266698 16.1539965,47.4382834 16.1539965,50.1166509 L16.1539965,58.1999059 L3.23132029,58.1999059 L3.23132029,56.5832549 C3.24551746,49.6738086 8.10019719,43.72267 14.8612555,42.3262561 Z" id="Shape" fill="#183651" fill-rule="nonzero"></path>
                    </g>
                    <path d="M39.5,61.5 L68.5,4.5" id="Line" stroke="#05B8EE" stroke-width="1.5" stroke-linecap="round" stroke-linejoin="round" stroke-dasharray="2,3"></path>
                    <path d="M39.5,61.5 L68.5,97" id="Line" stroke="#05B8EE" stroke-width="1.5" stroke-linecap="round" stroke-linejoin="round" stroke-dasharray="2,3"></path>
                </g>
                <use id="Rectangle" stroke="#183651" mask="url(#mask-2)" stroke-width="4" fill="#E7E7E7" stroke-linejoin="round" stroke-dasharray="2,2" xlink:href="#path-1"></use>
                <path d="M113.799901,12.6250165 L88.200091,12.6250165 L88.200091,11 L85,11 L85.0001147,13.7850626 C85.0126146,20.1819782 88.3563399,26.0948801 93.7906748,29.3282504 L97.8242386,31.7189608 L94.4398886,33.7208733 C88.6047756,36.9923299 84.9868336,43.2313461 85.0001147,50.0003967 C84.9758963,57.2114076 88.7883681,63.8733406 94.9695723,67.4225101 L97.6398649,68.8848661 L94.2797336,70.7336399 C88.557901,73.8773486 84.9946461,79.9552912 85.0001147,86.5624752 L85,89 L88.200091,89 L88.200091,87.3749835 L113.799901,87.3749835 L113.799901,89 L117,89 L116.999878,86.5624752 C117.003003,79.9568783 113.440529,73.8829029 107.719478,70.7407811 L104.360128,68.8912139 L107.03042,67.4288578 C113.212406,63.8788949 117.024878,57.213788 116.999878,50.0003967 C117.012378,43.2313461 113.394436,36.9923299 107.560104,33.7208733 L104.175754,31.7189608 L108.209318,29.3282504 C113.643653,26.0948801 116.987378,20.1819782 116.999878,13.7850626 L117,11 L113.799901,11 L113.799901,12.6250165 Z" id="Shape" fill="#183651" fill-rule="nonzero"></path>
                <path d="M88.3602462,15.8750496 L113.639746,15.8750496 C113.391311,17.5825865 112.849909,19.2329939 112.039758,20.7500992 L89.9602344,20.7500992 C89.1493028,19.2329939 88.6079006,17.5825865 88.3602462,15.8750496 Z" id="Path" fill="#FFFFFF" fill-rule="nonzero"></path>
                <path d="M113.694434,48.3753802 L88.3039966,48.3753802 C88.4743078,46.6845062 88.9274294,45.0356856 89.6446117,43.5003306 L112.360069,43.5003306 C113.074907,45.036479 113.526466,46.6852996 113.694434,48.3753802 Z" id="Path" fill="#FFFFFF" fill-rule="nonzero"></path>
                <path d="M113.691309,51.6254132 C113.538966,53.3004181 113.144438,54.942891 112.519442,56.5004628 L89.4797691,56.5004628 C88.8547738,54.942891 88.4594643,53.3004181 88.3071216,51.6254132 L113.691309,51.6254132 Z" id="Path" fill="#FFFFFF" fill-rule="nonzero"></path>
                <path d="M88.4227458,84.1249504 C88.6993061,82.4110658 89.2743019,80.759865 90.1196082,79.2499008 L111.879603,79.2499008 C112.725691,80.759865 113.299905,82.4110658 113.577247,84.1249504 L88.4227458,84.1249504 Z" id="Path" fill="#FFFFFF" fill-rule="nonzero"></path>
                <path d="M106.196833,73.5972554 C107.370262,74.244723 108.450722,75.0540574 109.407747,76.0006612 L92.5922461,76.0006612 C93.548489,75.0540574 94.6289498,74.244723 95.8031599,73.5972554 L100.999996,70.739194 L106.196833,73.5972554 Z" id="Path" fill="#FFFFFF" fill-rule="nonzero"></path>
                <path d="M100.999996,67.0432337 L96.4929984,64.5636553 C94.4078577,63.3909138 92.6195897,61.7436802 91.2672559,59.7504959 L110.732737,59.7504959 C109.379622,61.7428868 107.591354,63.3909138 105.506994,64.5636553 L100.999996,67.0432337 Z" id="Path" fill="#FFFFFF" fill-rule="nonzero"></path>
                <path d="M105.942147,36.5289463 C107.596041,37.5041149 109.070249,38.763344 110.300709,40.2502975 L91.6992839,40.2502975 C92.9297436,38.763344 94.4039515,37.5049083 96.0578454,36.5289463 L100.999996,33.60106 L105.942147,36.5289463 Z" id="Path" fill="#FFFFFF" fill-rule="nonzero"></path>
                <path d="M100.999996,29.8368615 L95.4000377,26.5217644 C94.2469214,25.8330367 93.1930228,24.984029 92.2703735,24.0001322 L109.729619,24.0001322 C108.806188,24.984029 107.753071,25.8330367 106.599955,26.5217644 L100.999996,29.8368615 Z" id="Path" fill="#FFFFFF" fill-rule="nonzero"></path>
            </g>
        </g>
    </g>
</svg>