<?xml version="1.0" encoding="UTF-8"?>
<svg width="138px" height="102px" viewBox="0 0 138 102" version="1.1" xmlns="http://www.w3.org/2000/svg" xmlns:xlink="http://www.w3.org/1999/xlink">
    <!-- Generator: Sketch 54 (76480) - https://sketchapp.com -->
    <title>Group 15</title>
    <desc>Created with Sketch.</desc>
    <defs>
        <rect id="path-1" x="0" y="0" width="71" height="69" rx="8"></rect>
        <mask id="mask-2" maskContentUnits="userSpaceOnUse" maskUnits="objectBoundingBox" x="0" y="0" width="71" height="69" fill="white">
            <use xlink:href="#path-1"></use>
        </mask>
        <rect id="path-3" x="34" y="33" width="104" height="69" rx="8"></rect>
        <mask id="mask-4" maskContentUnits="userSpaceOnUse" maskUnits="objectBoundingBox" x="0" y="0" width="104" height="69" fill="white">
            <use xlink:href="#path-3"></use>
        </mask>
        <rect id="path-5" x="103" y="0" width="35" height="69" rx="8"></rect>
        <mask id="mask-6" maskContentUnits="userSpaceOnUse" maskUnits="objectBoundingBox" x="0" y="0" width="35" height="69" fill="white">
            <use xlink:href="#path-5"></use>
        </mask>
    </defs>
    <g id="Page-1" stroke="none" stroke-width="1" fill="none" fill-rule="evenodd">
        <g id="1-index-1440-copy" transform="translate(-539.000000, -516.000000)">
            <g id="Group-16" transform="translate(105.000000, 147.000000)">
                <g id="Group-15" transform="translate(434.000000, 369.000000)">
                    <g id="Group-3" transform="translate(108.000000, 5.000000)" fill-rule="nonzero" stroke="#183651" stroke-width="2">
                        <path d="M12.500585,2.67857143 C5.59646191,2.67857143 0,6.15440895 0,12.8598261 C0,19.5652432 5.59646191,25 12.500585,25 C19.4039281,25 25,19.5652432 25,12.8598261 C25,6.15440895 19.4039281,2.67857143 12.500585,2.67857143 L12.500585,2.67857143 Z" id="Path" fill="#E7E7E7"></path>
                        <path d="M25,9.55614797 C24.1205709,-0.708274857 19.8033371,0.872222503 12.807061,0.872222503 C7.51770039,0.872222503 4.97770457,0.364670645 3.8956991,0.0409866391 C3.4629768,-0.0888700558 2.99709119,0.0980622602 2.79131834,0.485333948 C1.92747207,2.11064917 0,6.50738913 0,13.3928571 C0,13.3928571 3.06301838,8.10474114 12.8066614,8.10474114 C17.339657,8.10474114 16.9604757,9.55614797 25,9.55614797 L25,9.55614797 Z" id="Path" fill="#606060"></path>
                    </g>
                    <g id="Group-3-Copy-2" transform="translate(108.000000, 39.000000)" fill-rule="nonzero" stroke="#183651" stroke-width="2">
                        <path d="M0,12.8598261 C0,19.5652432 5.59646191,25 12.500585,25 C19.4039281,25 25,19.5652432 25,12.8598261 C25,6.15440895 19.4039281,2.67857143 12.500585,2.67857143 C5.59646191,2.67857143 0,6.15440895 0,12.8598261 Z" id="Path" fill="#E7E7E7"></path>
                        <path d="M25,9.55614797 C24.1205709,-0.708274857 19.8033371,0.872222503 12.807061,0.872222503 C7.51770039,0.872222503 4.97770457,0.364670645 3.8956991,0.0409866391 C3.4629768,-0.0888700558 2.99709119,0.0980622602 2.79131834,0.485333948 C1.92747207,2.11064917 0,6.50738913 0,13.3928571 C0,13.3928571 3.06301838,8.10474114 12.8066614,8.10474114 C17.339657,8.10474114 16.9604757,9.55614797 25,9.55614797 L25,9.55614797 Z" id="Path" fill="#3283C8"></path>
                    </g>
                    <g id="Group-3-Copy-4" transform="translate(108.000000, 71.000000)" fill-rule="nonzero" stroke="#183651" stroke-width="2">
                        <path d="M0,12.8598261 C0,19.5652432 5.59646191,25 12.500585,25 C19.4039281,25 25,19.5652432 25,12.8598261 C25,6.15440895 19.4039281,2.67857143 12.500585,2.67857143 C5.59646191,2.67857143 0,6.15440895 0,12.8598261 Z" id="Path" fill="#E7E7E7"></path>
                        <path d="M25,9.55614797 C24.1205709,-0.708274857 19.8033371,0.872222503 12.807061,0.872222503 C7.51770039,0.872222503 4.97770457,0.364670645 3.8956991,0.0409866391 C3.4629768,-0.0888700558 2.99709119,0.0980622602 2.79131834,0.485333948 C1.92747207,2.11064917 0,6.50738913 0,13.3928571 C0,13.3928571 3.06301838,8.10474114 12.8066614,8.10474114 C17.339657,8.10474114 16.9604757,9.55614797 25,9.55614797 L25,9.55614797 Z" id="Path" fill="#BDBDBD"></path>
                    </g>
                    <g id="Group-3-Copy-3" transform="translate(6.000000, 39.000000)" fill-rule="nonzero" stroke="#183651" stroke-width="2">
                        <path d="M0,12.8598261 C0,19.5652432 5.59646191,25 12.500585,25 C19.4039281,25 25,19.5652432 25,12.8598261 C25,6.15440895 19.4039281,2.67857143 12.500585,2.67857143 C5.59646191,2.67857143 0,6.15440895 0,12.8598261 Z" id="Path" fill="#FFFFFF"></path>
                        <path d="M25,9.55614797 C24.1205709,-0.708274857 19.8033371,0.872222503 12.807061,0.872222503 C7.51770039,0.872222503 4.97770457,0.364670645 3.8956991,0.0409866391 C3.4629768,-0.0888700558 2.99709119,0.0980622602 2.79131834,0.485333948 C1.92747207,2.11064917 0,6.50738913 0,13.3928571 C0,13.3928571 3.06301838,8.10474114 12.8066614,8.10474114 C17.339657,8.10474114 16.9604757,9.55614797 25,9.55614797 L25,9.55614797 Z" id="Path" fill="#4A4A4A"></path>
                    </g>
                    <g id="Group-3-Copy-7" transform="translate(6.000000, 71.000000)" fill-rule="nonzero" stroke="#183651" stroke-width="2">
                        <path d="M0,12.8598261 C0,19.5652432 5.59646191,25 12.500585,25 C19.4039281,25 25,19.5652432 25,12.8598261 C25,6.15440895 19.4039281,2.67857143 12.500585,2.67857143 C5.59646191,2.67857143 0,6.15440895 0,12.8598261 Z" id="Path" fill="#FFFFFF"></path>
                        <path d="M25,9.55614797 C24.1205709,-0.708274857 19.8033371,0.872222503 12.807061,0.872222503 C7.51770039,0.872222503 4.97770457,0.364670645 3.8956991,0.0409866391 C3.4629768,-0.0888700558 2.99709119,0.0980622602 2.79131834,0.485333948 C1.92747207,2.11064917 0,6.50738913 0,13.3928571 C0,13.3928571 3.06301838,8.10474114 12.8066614,8.10474114 C17.339657,8.10474114 16.9604757,9.55614797 25,9.55614797 L25,9.55614797 Z" id="Path" fill="#3283C8"></path>
                    </g>
                    <g id="Group-14" transform="translate(74.000000, 6.000000)" fill-rule="nonzero" stroke="#183651" stroke-width="2">
                        <path d="M0,11.5555556 L0,19.5024852 C0,21.482146 1.44965323,23.1457551 3.36611917,23.3645021 L8.92857143,24 L0,11.5555556 Z" id="Path" fill="#05B8EE"></path>
                        <path d="M25,11.5555556 L25,19.5024852 C25,21.482146 23.5506543,23.1457551 21.6341097,23.3645021 L16.0714286,24 L25,11.5555556 Z" id="Path" fill="#05B8EE"></path>
                        <path d="M24.9906401,10.6321093 C24.98986,10.6332905 24.98986,10.6332905 24.98986,10.6332905 L12.2225169,0.888888889 L0.0101398811,10.6332905 L0.00896996396,10.6321093 C0.00311997878,10.7978693 0,10.9632355 0,11.1301766 C0,18.2381683 5.59607192,24 12.499805,24 C19.403928,24 25,18.2381683 25,11.1301766 C25,10.9636292 24.99688,10.7978693 24.9906401,10.6321093 L24.9906401,10.6321093 Z" id="Path" fill="#BDBDBD"></path>
                        <path d="M6.65551457e-17,11.5544523 L0.00117077557,11.5555556 C6.71482763,10.8557426 12.5,4.74570994 12.5,4.74570994 C12.5,4.74570994 18.2855626,10.8557426 24.9992194,11.5555556 C24.9992194,11.5555556 24.9992194,11.5555556 25,11.5544523 C24.7459254,5.13147132 19.2472212,0 12.5,0 C5.75316908,0 0.254464843,5.13147132 6.65551457e-17,11.5544523 Z" id="Path" fill="#05B8EE"></path>
                    </g>
                    <g id="Group-14-Copy-2" transform="translate(40.000000, 40.000000)" fill-rule="nonzero" stroke="#183651" stroke-width="2">
                        <path d="M0,11.5555556 L0,19.5024852 C0,21.482146 1.44965323,23.1457551 3.36611917,23.3645021 L8.92857143,24 L0,11.5555556 Z" id="Path" fill="#05B8EE"></path>
                        <path d="M25,11.5555556 L25,19.5024852 C25,21.482146 23.5506543,23.1457551 21.6341097,23.3645021 L16.0714286,24 L25,11.5555556 Z" id="Path" fill="#05B8EE"></path>
                        <path d="M12.2225169,0.888888889 L0.0101398811,10.6332905 C0.00311997878,10.7978693 0,10.9632355 0,11.1301766 C0,18.2381683 5.59607192,24 12.499805,24 C19.403928,24 25,18.2381683 25,11.1301766 C25,10.9636292 24.99688,10.7978693 24.9906401,10.6321093 L12.2225169,0.888888889 Z" id="Path" fill="#BDBDBD"></path>
                        <path d="M6.65551457e-17,11.5544523 L0.00117077557,11.5555556 C6.71482763,10.8557426 12.5,4.74570994 12.5,4.74570994 C12.5,4.74570994 18.2855626,10.8557426 24.9992194,11.5555556 C24.9992194,11.5555556 24.9992194,11.5555556 25,11.5544523 C24.7459254,5.13147132 19.2472212,0 12.5,0 C5.75316908,0 0.254464843,5.13147132 6.65551457e-17,11.5544523 Z" id="Path" fill="#05B8EE"></path>
                    </g>
                    <g id="Group-14-Copy-3" transform="translate(40.000000, 72.000000)" fill-rule="nonzero" stroke="#183651" stroke-width="2">
                        <path d="M0,11.5555556 L0,19.5024852 C0,21.482146 1.44965323,23.1457551 3.36611917,23.3645021 L8.92857143,24 L0,11.5555556 Z" id="Path" fill="#05B8EE"></path>
                        <path d="M25,11.5555556 L25,19.5024852 C25,21.482146 23.5506543,23.1457551 21.6341097,23.3645021 L16.0714286,24 L25,11.5555556 Z" id="Path" fill="#05B8EE"></path>
                        <path d="M24.9906401,10.6321093 C24.98986,10.6332905 24.98986,10.6332905 24.98986,10.6332905 L12.2225169,0.888888889 L0.0101398811,10.6332905 L0.00896996396,10.6321093 C0.00311997878,10.7978693 0,10.9632355 0,11.1301766 C0,18.2381683 5.59607192,24 12.499805,24 C19.403928,24 25,18.2381683 25,11.1301766 C25,10.9636292 24.99688,10.7978693 24.9906401,10.6321093 L24.9906401,10.6321093 Z" id="Path" fill="#E7E7E7"></path>
                        <path d="M6.65551457e-17,11.5544523 L0.00117077557,11.5555556 C6.71482763,10.8557426 12.5,4.74570994 12.5,4.74570994 C12.5,4.74570994 18.2855626,10.8557426 24.9992194,11.5555556 C24.9992194,11.5555556 24.9992194,11.5555556 25,11.5544523 C24.7459254,5.13147132 19.2472212,0 12.5,0 C5.75316908,0 0.254464843,5.13147132 6.65551457e-17,11.5544523 Z" id="Path" fill="#05B8EE"></path>
                    </g>
                    <g id="Group-14-Copy-5" transform="translate(6.000000, 6.000000)" fill-rule="nonzero" stroke="#183651" stroke-width="2">
                        <path d="M0,11.5555556 L0,19.5024852 C0,21.482146 1.44965323,23.1457551 3.36611917,23.3645021 L8.92857143,24 L0,11.5555556 Z" id="Path" fill="#3283C8"></path>
                        <path d="M25,11.5555556 L25,19.5024852 C25,21.482146 23.5506543,23.1457551 21.6341097,23.3645021 L16.0714286,24 L25,11.5555556 Z" id="Path" fill="#3283C8"></path>
                        <path d="M24.9906401,10.6321093 C24.98986,10.6332905 24.98986,10.6332905 24.98986,10.6332905 L12.2225169,0.888888889 L0.0101398811,10.6332905 L0.00896996396,10.6321093 C0.00311997878,10.7978693 0,10.9632355 0,11.1301766 C0,18.2381683 5.59607192,24 12.499805,24 C19.403928,24 25,18.2381683 25,11.1301766 C25,10.9636292 24.99688,10.7978693 24.9906401,10.6321093 L24.9906401,10.6321093 Z" id="Path" fill="#E7E7E7"></path>
                        <path d="M6.65551457e-17,11.5544523 L0.00117077557,11.5555556 C6.71482763,10.8557426 12.5,4.74570994 12.5,4.74570994 C12.5,4.74570994 18.2855626,10.8557426 24.9992194,11.5555556 C24.9992194,11.5555556 24.9992194,11.5555556 25,11.5544523 C24.7459254,5.13147132 19.2472212,0 12.5,0 C5.75316908,0 0.254464843,5.13147132 6.65551457e-17,11.5544523 Z" id="Path" fill="#3283C8"></path>
                    </g>
                    <g id="Group-3-Copy-5" transform="translate(40.000000, 5.000000)" fill-rule="nonzero" stroke="#183651" stroke-width="2">
                        <path d="M12.500585,2.67857143 C5.59646191,2.67857143 0,6.15440895 0,12.8598261 C0,19.5652432 5.59646191,25 12.500585,25 C19.4039281,25 25,19.5652432 25,12.8598261 C25,6.15440895 19.4039281,2.67857143 12.500585,2.67857143 L12.500585,2.67857143 Z" id="Path" fill="#E7E7E7"></path>
                        <path d="M25,9.55614797 C24.1205709,-0.708274857 19.8033371,0.872222503 12.807061,0.872222503 C7.51770039,0.872222503 4.97770457,0.364670645 3.8956991,0.0409866391 C3.4629768,-0.0888700558 2.99709119,0.0980622602 2.79131834,0.485333948 C1.92747207,2.11064917 0,6.50738913 0,13.3928571 C0,13.3928571 3.06301838,8.10474114 12.8066614,8.10474114 C17.339657,8.10474114 16.9604757,9.55614797 25,9.55614797 L25,9.55614797 Z" id="Path" fill="#606060"></path>
                    </g>
                    <g id="Group-3-Copy-6" transform="translate(74.000000, 39.000000)" fill-rule="nonzero" stroke="#183651" stroke-width="2">
                        <path d="M12.500585,2.67857143 C5.59646191,2.67857143 0,6.15440895 0,12.8598261 C0,19.5652432 5.59646191,25 12.500585,25 C19.4039281,25 25,19.5652432 25,12.8598261 C25,6.15440895 19.4039281,2.67857143 12.500585,2.67857143 L12.500585,2.67857143 Z" id="Path" fill="#FFFFFF"></path>
                        <path d="M25,9.55614797 C24.1205709,-0.708274857 19.8033371,0.872222503 12.807061,0.872222503 C7.51770039,0.872222503 4.97770457,0.364670645 3.8956991,0.0409866391 C3.4629768,-0.0888700558 2.99709119,0.0980622602 2.79131834,0.485333948 C1.92747207,2.11064917 0,6.50738913 0,13.3928571 C0,13.3928571 3.06301838,8.10474114 12.8066614,8.10474114 C17.339657,8.10474114 16.9604757,9.55614797 25,9.55614797 L25,9.55614797 Z" id="Path" fill="#3283C8"></path>
                    </g>
                    <g id="Group-3-Copy-8" transform="translate(74.000000, 71.000000)" fill-rule="nonzero" stroke="#183651" stroke-width="2">
                        <path d="M12.500585,2.67857143 C5.59646191,2.67857143 0,6.15440895 0,12.8598261 C0,19.5652432 5.59646191,25 12.500585,25 C19.4039281,25 25,19.5652432 25,12.8598261 C25,6.15440895 19.4039281,2.67857143 12.500585,2.67857143 L12.500585,2.67857143 Z" id="Path" fill="#BDBDBD"></path>
                        <path d="M25,9.55614797 C24.1205709,-0.708274857 19.8033371,0.872222503 12.807061,0.872222503 C7.51770039,0.872222503 4.97770457,0.364670645 3.8956991,0.0409866391 C3.4629768,-0.0888700558 2.99709119,0.0980622602 2.79131834,0.485333948 C1.92747207,2.11064917 0,6.50738913 0,13.3928571 C0,13.3928571 3.06301838,8.10474114 12.8066614,8.10474114 C17.339657,8.10474114 16.9604757,9.55614797 25,9.55614797 L25,9.55614797 Z" id="Path" fill="#4A4A4A"></path>
                    </g>
                    <use id="Rectangle" stroke="#606060" mask="url(#mask-2)" stroke-width="4" stroke-linejoin="round" stroke-dasharray="2,2" xlink:href="#path-1"></use>
                    <use id="Rectangle" stroke="#3283C8" mask="url(#mask-4)" stroke-width="4" stroke-linejoin="round" stroke-dasharray="2,2" xlink:href="#path-3"></use>
                    <use id="Rectangle" stroke="#05B8EE" mask="url(#mask-6)" stroke-width="4" stroke-linejoin="round" stroke-dasharray="2,2" xlink:href="#path-5"></use>
                </g>
            </g>
        </g>
    </g>
</svg>
