<?xml version="1.0" encoding="UTF-8"?>
<svg width="123px" height="100px" viewBox="0 0 123 100" version="1.1" xmlns="http://www.w3.org/2000/svg" xmlns:xlink="http://www.w3.org/1999/xlink">
    <!-- Generator: Sketch 52.3 (67297) - http://www.bohemiancoding.com/sketch -->
    <title>Group 15</title>
    <desc>Created with Sketch.</desc>
    <g id="specs" stroke="none" stroke-width="1" fill="none" fill-rule="evenodd">
        <g id="file-upload-submission" transform="translate(-800.000000, -2306.000000)">
            <g id="Group-15" transform="translate(800.000000, 2306.000000)">
                <g id="floor" transform="translate(-0.000000, 54.838710)">
                    <path d="M65.0694773,0.9505 C63.0530956,0.40925 59.9915604,0.268 57.8591922,0.9505 L1.48717706,18.7355 C-0.496065576,20.6805 -0.496065576,23.86175 1.48717706,25.80675 L57.8591922,43.59175 C60.3254997,44.6005 62.919265,44.6705 65.0694773,43.59175 L121.441492,25.80675 C123.424735,23.86175 123.424735,20.6805 121.441492,18.7355 L65.0694773,0.9505 Z" id="Fill-1" fill="#F5F5F5"></path>
                    <path d="M65.1074859,41.1461564 C62.955876,42.2304495 60.3604247,42.1613462 57.8925141,41.1461564 L1.48385713,23.2697704 C0.726265966,22.5234551 0.262018178,22.2199585 0.083461337,21.25 C-0.206055827,22.8205287 0.256916554,24.5028791 1.48385713,25.711558 L57.8925141,43.587944 C60.3604247,44.6018774 62.955876,44.6722371 65.1074859,43.587944 L121.516143,25.711558 C122.743083,24.5028791 123.206056,22.8205287 122.916539,21.25 C122.737982,22.2199585 122.273734,22.5234551 121.516143,23.2697704 L65.1074859,41.1461564 Z" id="Fill-4" fill="#9B9B9B"></path>
                </g>
                <path d="M107.526882,45.9171532 L100.333182,37.2328629 C99.424504,36.3345654 99.5002272,36.3345654 98.5915493,37.2328629 L91.3978495,45.9171532 L96.4713009,45.9171532 L96.4713009,60.2150538 L102.528396,60.2150538 L102.528396,45.9171532 L107.526882,45.9171532 Z" id="Fill-13" fill="#3283C8"></path>
                <g id="Group-36" transform="translate(26.807197, 33.380084)">
                    <polygon id="Path" fill="#9B9B9B" points="33.4998691 5.00554006 5.19171484 12.4498952 33.4998691 26.5078723 61.8081543 12.4498952"></polygon>
                    <polygon id="Path" fill="#606060" points="61.8081543 12.4498952 33.4998691 4.93945417 33.4998691 26.6331878"></polygon>
                </g>
                <path d="M69.413393,56.9424965 L66.4750346,56.9424965 L66.4750346,39.7794769 L82.1190119,39.7794769 C82.1361019,39.6597144 82.1462791,39.5227773 82.1462791,39.3767292 L82.1462791,16.6900421 L85.0846375,16.6900421 L85.0846375,39.3767292 C85.0846375,41.1602119 84.4145727,42.7247785 82.7933735,42.7247785 L69.413393,42.7247785 L69.413393,56.9424965 Z" id="Path" fill="#EF8523" fill-rule="nonzero"></path>
                <path d="M48.8448845,37.9095213 L38.3520424,37.9095213 C36.5891688,37.9095213 35.1325455,36.4993314 35.1325455,34.7423484 L35.1325455,13.7447405 L38.0709039,13.7447405 L38.0709039,34.7423484 C38.0709039,34.8493397 38.1895665,34.9642197 38.3520424,34.9642197 L51.7832428,34.9642197 L51.7832428,62.8330996 L48.8448845,62.8330996 L48.8448845,37.9095213 Z" id="Path" fill="#EF8523" fill-rule="nonzero"></path>
                <g id="Path" transform="translate(27.786650, 45.161290)">
                    <path d="M60.2624592,32.7014246 L32.9999475,42.0262542 L32.9999475,10.1857969 L60.8857209,-3.41060513e-13 L60.8857209,31.7517737 C60.885592,32.1596648 60.6423459,32.5303492 60.2624592,32.7014246 Z" fill="#9B9B9B"></path>
                    <path d="M5.73717795,32.7014246 L32.9998186,41.9349344 L32.9998186,10.1940335 L5.11417404,-3.41060513e-13 L5.11417404,31.751648 C5.11417404,32.1596648 5.35742014,32.5303492 5.73717795,32.7014246 Z" fill="#606060"></path>
                    <path d="M60.885592,-9.9475983e-14 L32.9998186,10.1567877 L37.9834631,24.7392779 C38.1855881,25.3305628 38.8700803,25.6192919 39.4504162,25.3582165 L65.376428,16.0799581 C65.8725881,15.8565922 66.1172522,15.3051536 65.9443889,14.799595 L60.885592,-9.9475983e-14 Z" fill="#E7E7E7"></path>
                    <path d="M5.11417404,-9.9475983e-14 L32.9999475,10.1749892 L28.016174,24.7486299 C27.814049,25.3399148 27.1295569,25.6286439 26.5492209,25.3675684 L0.6232092,16.0798324 C0.127049044,15.8564665 -0.117615019,15.3050279 0.0552482626,14.7994693 L5.11417404,-9.9475983e-14 Z" fill="#D1D1D1"></path>
                </g>
                <path d="M48.3861946,10.3403004 C47.8672284,10.3403004 47.3493016,10.3937659 46.8407286,10.5003383 C46.4572203,8.51780636 45.2173138,6.82664374 43.476456,5.91127023 C41.7359447,4.99589663 39.6860631,4.95750188 37.9143723,5.80685088 C36.3110509,1.2324948 31.4311062,-1.12931978 27.0146973,0.53134228 C22.5982884,2.19200434 20.3180246,7.24683289 21.921346,11.8208302 C18.0526577,11.9474969 14.9967162,15.2641562 15.0545715,19.2726384 C15.1127733,23.2814796 18.2636392,26.501255 22.1344062,26.5077139 L48.3861946,26.5077139 C52.6962466,26.5077139 56.1907804,22.8885615 56.1907804,18.4240071 C56.1907804,13.9594529 52.6962466,10.3403004 48.3861946,10.3403004 Z" id="Path" fill="#05B8EE"></path>
                <path d="M103.57238,13.4040931 C102.880425,13.4040931 102.189856,13.4734003 101.511759,13.6115496 C101.000415,11.0416008 99.3472059,8.849353 97.0260622,7.66275771 C94.7053804,6.4761623 91.9722049,6.42639132 89.6099505,7.52739929 C87.4721887,1.59767845 80.9655957,-1.46393305 75.0770505,0.68877703 C69.1885054,2.84148711 66.1481537,9.39404264 68.2859154,15.3232984 C63.1276644,15.487496 59.0530757,19.7868692 59.1302162,24.9830498 C59.2078185,30.1796958 63.4089731,34.3534787 68.5699957,34.3618513 L103.57238,34.3618513 C109.319116,34.3618513 113.978495,29.6703575 113.978495,23.8829722 C113.978495,18.095587 109.319116,13.4040931 103.57238,13.4040931 Z" id="Path" fill="#3283C8"></path>
                <path d="M30.1075269,38.3902714 L22.913827,29.7059811 C22.0051492,28.8076837 22.0808723,28.8076837 21.1721945,29.7059811 L13.9784946,38.3902714 L19.0519461,38.3902714 L19.0519461,52.688172 L25.1090413,52.688172 L25.1090413,38.3902714 L30.1075269,38.3902714 Z" id="Fill-13" fill="#05B8EE"></path>
                <polygon id="Fill-38" fill="#000000" points="17.2043011 59.4946237 21.1827957 59.4946237 21.1827957 55.9139785 17.2043011 55.9139785"></polygon>
                <polygon id="Fill-39" fill="#000000" points="17.2043011 66.9462366 21.1827957 66.9462366 21.1827957 63.3655914 17.2043011 63.3655914"></polygon>
                <polygon id="Fill-40" fill="#000000" points="17.2043011 74.3978495 21.1827957 74.3978495 21.1827957 70.8172043 17.2043011 70.8172043"></polygon>
                <polygon id="Fill-38" fill="#000000" points="9.67741935 49.8172043 13.655914 49.8172043 13.655914 46.2365591 9.67741935 46.2365591"></polygon>
                <polygon id="Fill-39" fill="#000000" points="9.67741935 57.2688172 13.655914 57.2688172 13.655914 53.688172 9.67741935 53.688172"></polygon>
                <polygon id="Fill-40" fill="#000000" points="9.67741935 64.7204301 13.655914 64.7204301 13.655914 61.1397849 9.67741935 61.1397849"></polygon>
                <polygon id="Fill-38" fill="#000000" points="110.752688 44.4408602 114.731183 44.4408602 114.731183 40.8602151 110.752688 40.8602151"></polygon>
                <polygon id="Fill-39" fill="#000000" points="110.752688 51.8924731 114.731183 51.8924731 114.731183 48.311828 110.752688 48.311828"></polygon>
                <polygon id="Fill-40" fill="#000000" points="110.752688 59.344086 114.731183 59.344086 114.731183 55.7634409 110.752688 55.7634409"></polygon>
            </g>
        </g>
    </g>
</svg>