<svg width="123" height="100" xmlns="http://www.w3.org/2000/svg"><g fill="none" fill-rule="evenodd"><path d="M65.07 55.79c-2.017-.542-5.078-.683-7.21 0L1.486 73.573a4.946 4.946 0 000 7.071L57.86 98.43c2.466 1.01 5.06 1.08 7.21 0l56.372-17.785a4.946 4.946 0 000-7.07L65.07 55.788z" fill="#F5F5F5"/><path d="M65.107 95.985c-2.151 1.084-4.747 1.015-7.214 0L1.483 78.108c-.757-.746-1.221-1.05-1.4-2.02a4.977 4.977 0 001.4 4.462l56.41 17.877c2.467 1.014 5.063 1.084 7.214 0l56.41-17.877a4.977 4.977 0 001.4-4.461c-.179.97-.643 1.273-1.4 2.02l-56.41 17.876z" fill="#9B9B9B"/><path d="M107.527 45.917l-7.194-8.684c-.908-.898-.833-.898-1.741 0l-7.194 8.684h5.073v14.298h6.057V45.917h4.999z" fill="#3283C8"/><path fill="#9B9B9B" d="M60.307 38.386L32 45.83l28.308 14.058L88.615 45.83z"/><path fill="#606060" d="M88.615 45.83l-28.308-7.51v21.693z"/><path d="M69.413 56.942h-2.938V39.78h15.644a2.89 2.89 0 00.027-.402V16.69h2.939v22.687c0 1.783-.67 3.348-2.292 3.348h-13.38v14.217zM48.845 37.91H38.352c-1.763 0-3.22-1.41-3.22-3.168V13.745h2.939v20.997c0 .107.119.222.281.222h13.431v27.87h-2.938V37.91z" fill="#EF8523" fill-rule="nonzero"/><path d="M88.05 77.863l-27.263 9.325v-31.84L88.672 45.16v31.752c0 .408-.243.779-.623.95z" fill="#9B9B9B"/><path d="M33.524 77.863l27.262 9.233v-31.74L32.901 45.16v31.752c0 .408.243.779.623.95z" fill="#606060"/><path d="M88.672 45.161L60.786 55.318l4.984 14.583c.202.59.887.88 1.467.619l25.926-9.279c.496-.223.74-.775.568-1.28l-5.059-14.8z" fill="#E7E7E7"/><path d="M32.9 45.161l27.887 10.175-4.984 14.574c-.202.591-.887.88-1.467.619L28.41 61.24a1.037 1.037 0 01-.568-1.28l5.059-14.8z" fill="#D1D1D1"/><path d="M48.386 10.34c-.519 0-1.037.054-1.545.16-.384-1.982-1.624-3.673-3.365-4.589a6.176 6.176 0 00-5.562-.104C36.311 1.232 31.431-1.13 27.014.53c-4.416 1.661-6.696 6.716-5.093 11.29-3.868.126-6.924 3.443-6.866 7.452.058 4.008 3.209 7.228 7.08 7.235h26.251c4.31 0 7.805-3.62 7.805-8.084 0-4.465-3.495-8.084-7.805-8.084z" fill="#05B8EE"/><path d="M103.572 13.404c-.692 0-1.382.07-2.06.208a8.55 8.55 0 00-4.486-5.95 8.444 8.444 0 00-7.416-.135c-2.138-5.93-8.644-8.99-14.533-6.838-5.888 2.152-8.929 8.705-6.791 14.634-5.158.164-9.233 4.464-9.156 9.66.078 5.197 4.279 9.37 9.44 9.379h35.002c5.747 0 10.406-4.692 10.406-10.479 0-5.787-4.659-10.479-10.406-10.479z" fill="#3283C8"/><path d="M30.108 38.39l-7.194-8.684c-.909-.898-.833-.898-1.742 0l-7.194 8.684h5.074v14.298h6.057V38.39h4.999z" fill="#05B8EE"/><path fill="#000" d="M17.204 59.495h3.979v-3.581h-3.979zm0 7.451h3.979v-3.58h-3.979zm0 7.452h3.979v-3.58h-3.979zM9.677 49.817h3.979v-3.58H9.677zm0 7.452h3.979v-3.58H9.677zm0 7.451h3.979v-3.58H9.677zm101.076-20.28h3.978v-3.58h-3.978zm0 7.452h3.978v-3.58h-3.978zm0 7.452h3.978v-3.58h-3.978z"/></g></svg>