<?xml version="1.0" encoding="UTF-8"?>
<svg width="171px" height="107px" viewBox="0 0 171 107" version="1.1" xmlns="http://www.w3.org/2000/svg" xmlns:xlink="http://www.w3.org/1999/xlink">
    <!-- Generator: Sketch 52.3 (67297) - http://www.bohemiancoding.com/sketch -->
    <title>Group 11</title>
    <desc>Created with Sketch.</desc>
    <g id="specs" stroke="none" stroke-width="1" fill="none" fill-rule="evenodd">
        <g id="01-file-upload-submission" transform="translate(-151.000000, -564.000000)">
            <g id="Group-14" transform="translate(0.000000, 268.000000)">
                <g id="Group-11" transform="translate(151.000000, 296.000000)">
                    <g id="floor" transform="translate(0.000000, 44.000000)">
                        <path d="M90.462444,1.3307 C87.6591817,0.57295 83.402901,0.3752 80.4383891,1.3307 L2.06753885,26.2297 C-0.689652142,28.9527 -0.689652142,33.40645 2.06753885,36.12945 L80.4383891,61.02845 C83.8671581,62.4407 87.4731245,62.5387 90.462444,61.02845 L168.833294,36.12945 C171.590485,33.40645 171.590485,28.9527 168.833294,26.2297 L90.462444,1.3307 Z" id="Fill-1" fill="#F5F5F5"></path>
                        <path d="M90.5152853,57.604619 C87.5240227,59.1226292 83.9157124,59.0258847 80.4847147,57.604619 L2.06292333,32.5776785 C1.00968683,31.5328372 0.364269175,31.1079419 0.116031615,29.75 C-0.286467857,31.9487402 0.357176673,34.3040307 2.06292333,35.9961812 L80.4847147,61.0231217 C83.9157124,62.4426283 87.5240227,62.5411319 90.5152853,61.0231217 L168.937077,35.9961812 C170.642823,34.3040307 171.286468,31.9487402 170.883968,29.75 C170.635731,31.1079419 169.990313,31.5328372 168.937077,32.5776785 L90.5152853,57.604619 Z" id="Fill-4" fill="#9B9B9B"></path>
                    </g>
                    <g id="Group-9" transform="translate(23.000000, 0.000000)">
                        <g id="Group-8" transform="translate(11.000000, 0.000000)">
                            <path d="M15.1546392,39.7205882 L15.1546392,51.5294118 C15.1546392,52.1223057 14.669999,52.6029412 14.0721649,52.6029412 C13.4743309,52.6029412 12.9896907,52.1223057 12.9896907,51.5294118 L12.9896907,37.5735294 L93.0927835,37.5735294 L93.0927835,51.5294118 C93.0927835,52.1223057 92.6081433,52.6029412 92.0103093,52.6029412 C91.4124753,52.6029412 90.9278351,52.1223057 90.9278351,51.5294118 L90.9278351,39.7205882 L15.1546392,39.7205882 Z" id="Stroke-1" fill="#EF8523" fill-rule="nonzero"></path>
                            <path d="M54.1237113,53.6764706 C54.1237113,54.2693645 53.6390711,54.75 53.0412371,54.75 C52.4434031,54.75 51.9587629,54.2693645 51.9587629,53.6764706 L51.9587629,26.8382353 C51.9587629,26.2453414 52.4434031,25.7647059 53.0412371,25.7647059 C53.6390711,25.7647059 54.1237113,26.2453414 54.1237113,26.8382353 L54.1237113,53.6764706 Z" id="Stroke-2" fill="#EF8523" fill-rule="nonzero"></path>
                            <path d="M53.3030224,70.8165844 L61.2164373,70.8165844 C64.8134441,70.8165844 66.9716481,68.7806049 66.9716481,65.1449273 L66.9716481,56.5647281 C66.9716481,53.3653318 64.9558855,51.0384981 61.7905196,51.0384981 C56.1806278,50.893071 50.5678584,50.893071 44.9565279,51.0384981 C41.7926007,51.1839252 39.7768381,53.3653318 39.7768381,56.5647281 L39.7768381,65.2903544 C39.9207184,68.4897507 41.9350422,70.6711573 45.1004081,70.6711573 C47.8341333,70.9620115 50.5678584,70.8165844 53.3030224,70.8165844 Z M52.987282,25.0134621 L64.9293445,25.0134621 C68.2385907,25.0134621 70.2529145,23.1229097 70.2529145,19.7780863 C70.3967948,14.8335647 70.3967948,10.0344703 70.2529145,5.08994869 C70.2529145,1.89055237 68.2385907,0 65.0746636,0 L41.1890998,0 C37.7374121,0 35.7216495,1.89055237 35.7216495,5.3808029 L35.7216495,19.7780863 C35.7216495,23.1229097 37.7374121,25.0134621 41.0452195,25.0134621 L52.987282,25.0134621 Z" id="Fill-3" fill="#FFFFFF"></path>
                            <path d="M52.8448405,70.817544 L60.7582555,70.817544 C64.3552622,70.817544 66.5134663,68.8353032 66.5134663,65.2955875 L66.5134663,56.9418584 C66.5134663,53.8269085 64.4977037,51.5614904 61.3323377,51.5614904 C55.722446,51.4199018 50.1096766,51.4199018 44.498346,51.5614904 C41.3344189,51.7030791 39.3186563,53.8269085 39.3186563,56.9418584 L39.3186563,65.4371761 C39.4625365,68.552126 41.4768603,70.6759554 44.6422263,70.6759554 C47.3759514,70.9591326 50.1096766,70.817544 52.8448405,70.817544 Z M52.987282,26.5003031 L64.9293445,26.5003031 C68.2385907,26.5003031 70.2529145,24.6596509 70.2529145,21.4031124 C70.3967948,16.589099 70.3967948,11.9166742 70.2529145,7.10266085 C70.2529145,3.987711 68.2385907,2.14705882 65.0746636,2.14705882 L41.1890998,2.14705882 C37.7374121,2.14705882 35.7216495,3.987711 35.7216495,7.38583811 L35.7216495,21.4031124 C35.7216495,24.6596509 37.7374121,26.5003031 41.0452195,26.5003031 L52.987282,26.5003031 Z" id="Stroke-5" stroke="#3283C8" stroke-width="2"></path>
                            <path d="M91.4145871,73 C91.4145871,72.8586945 91.4145871,72.8586945 91.4145871,73 L99.5873421,73 C102.741739,72.8586945 104.892464,70.8804172 104.892464,67.7716959 C105.035845,64.80428 105.035845,61.9781697 104.892464,59.0107538 C104.749082,56.043338 102.88512,53.9237552 99.8741054,53.7824497 C94.2822205,53.6411442 88.6917693,53.6411442 83.0984505,53.7824497 C79.9440538,53.9237552 77.9381443,56.043338 77.9381443,59.1520594 L77.9381443,67.6303904 C77.9381443,70.8804172 80.0888693,72.8586945 83.3852138,73 L91.4145871,73 Z" id="Path" fill="#FFFFFF"></path>
                            <path d="M91.4145871,70.8529412 C91.4145871,70.7116357 91.4145871,70.7116357 91.4145871,70.8529412 L99.5873421,70.8529412 C102.741739,70.7116357 104.892464,68.7333584 104.892464,65.6246371 C105.035845,62.6572212 105.035845,59.8311109 104.892464,56.863695 C104.749082,53.8962792 102.88512,51.7766964 99.8741054,51.6353909 C94.2822205,51.4940854 88.6917693,51.4940854 83.0984505,51.6353909 C79.9440538,51.7766964 77.9381443,53.8962792 77.9381443,57.0050005 L77.9381443,65.4833315 C77.9381443,68.7333584 80.0888693,70.7116357 83.3852138,70.8529412 L91.4145871,70.8529412 Z" id="Path" stroke="#3283C8" stroke-width="2"></path>
                            <path d="M21.7062329,70.7116357 C24.8273905,70.7116357 26.9554526,68.7333584 26.9554526,65.6246371 C27.0973234,62.6572212 27.0973234,59.8311109 26.9554526,56.863695 C26.8135818,53.7549737 24.9692613,51.6353909 21.7062329,51.6353909 C16.1732715,51.4940854 10.782181,51.4940854 5.24921971,51.6353909 C2.12806204,51.6353909 0.141870803,53.8962792 0,57.0050005 L0,65.4833315 C0,68.7333584 1.98619124,70.7116357 5.39109051,70.8529412 C8.08663577,70.8529412 10.6403102,70.7116357 13.3358555,70.7116357 L21.7062329,70.7116357 Z" id="Path" fill="#FFFFFF"></path>
                            <path d="M13.3358555,70.7116357 L21.7062329,70.7116357 C24.8273905,70.7116357 26.9554526,68.7333584 26.9554526,65.6246371 C27.0973234,62.6572212 27.0973234,59.8311109 26.9554526,56.863695 C26.8135818,53.7549737 24.9692613,51.6353909 21.7062329,51.6353909 C16.1732715,51.4940854 10.782181,51.4940854 5.24921971,51.6353909 C2.12806204,51.6353909 0.141870803,53.8962792 0,57.0050005 L0,65.4833315 C0,68.7333584 1.98619124,70.7116357 5.39109051,70.8529412 C8.08663577,70.8529412 10.6403102,70.7116357 13.3358555,70.7116357 Z" id="Path" stroke="#3283C8" stroke-width="2"></path>
                        </g>
                        <g id="Group-6">
                            <g id="Group-10" transform="translate(17.297297, 0.000000)">
                                <path d="M21.9202571,8.94046094 C24.2028513,14.6172783 21.3216292,21.0190758 15.4842263,23.2390744 C9.64734402,25.459073 3.06451931,22.6563564 0.782445652,16.9795391 C-1.50014856,11.3027217 1.38107355,4.90092417 7.21847639,2.68092558 C13.0553587,0.460926998 19.6376628,3.26364357 21.9202571,8.94046094" id="Fill-213" fill="#606060"></path>
                                <path d="M21.9202571,7.02046094 C24.2028513,12.6972783 21.3216292,19.0990758 15.4842263,21.3190744 C9.64734402,23.539073 3.06451931,20.7363564 0.782445652,15.0595391 C-1.50014856,9.38272169 1.38107355,2.98092417 7.21847639,0.760925585 C13.0553587,-1.459073 19.6376628,1.34364357 21.9202571,7.02046094" id="Fill-213" fill="#EF8523"></path>
                                <path d="M13.1917914,2.88002894 C13.503461,2.87759194 13.6697204,3.02917339 13.7686207,3.29041988 C13.9824592,3.85190486 14.0947244,4.42752445 14.1235926,5.02020305 C14.1513916,5.59679744 14.0936552,6.16754303 13.9824592,6.73438942 C13.8354452,7.48108647 13.6002229,8.20585051 13.2751884,8.90380754 C13.0677651,9.34929128 12.8266622,9.78259003 12.6015972,10.2217376 C12.5882323,10.246595 12.5780749,10.2729146 12.5609679,10.3109318 C12.6352767,10.3353018 12.7042396,10.3572348 12.772668,10.3801426 C13.4975804,10.6218931 14.2043166,10.9011734 14.8805808,11.2404039 C15.8326966,11.7180561 16.707296,12.2917261 17.4477118,13.0203893 C17.9828426,13.5477563 18.4212115,14.1375105 18.7098934,14.8115849 C18.7863407,14.9909482 18.768699,15.155202 18.6227542,15.2994725 C18.4864322,15.4344823 18.3180344,15.4666507 18.1298565,15.4135241 C17.9972767,15.3764817 17.8898228,15.3028843 17.8385016,15.1829838 C17.6385626,14.7116679 17.3611072,14.2793439 16.9997202,13.9016088 C16.6923273,13.5804121 16.3544625,13.2796862 16.004302,12.9965067 C15.5589834,12.6358306 15.0543246,12.3448527 14.5357662,12.0787322 C13.9824592,11.7950653 13.4104412,11.5455164 12.8154356,11.3427579 C12.5711252,11.2594125 12.3268147,11.1755797 12.067001,11.0863855 C11.9322827,11.3334973 11.7900801,11.5635502 11.6772803,11.8053007 C11.4458002,12.3004993 11.2057665,12.7937482 11.0138464,13.3021066 C10.7369256,14.0361312 10.5653202,14.7935511 10.5316407,15.5733913 C10.5022379,16.2796342 10.5872387,16.9693054 10.8641595,17.6346066 C10.9630598,17.8719705 10.8406373,18.1220068 10.594723,18.2092514 C10.3413244,18.298933 10.0708187,18.1873184 9.96657246,17.9411813 C9.80031304,17.5502864 9.68697864,17.1472065 9.62389629,16.7309667 C9.51056189,15.9847571 9.54691444,15.2434214 9.68323647,14.5040354 C9.83025043,13.7056739 10.0777685,12.9326573 10.4273944,12.189372 C10.6310755,11.7575355 10.8630903,11.3364217 11.0822747,10.910434 C11.0951051,10.8846018 11.1106083,10.8597444 11.1341306,10.8192902 C10.9978085,10.7729872 10.8711092,10.7315581 10.7454791,10.6881795 C9.99169848,10.4264456 9.25823248,10.1252323 8.55898064,9.75480822 C7.89020079,9.4004683 7.26044646,8.99787577 6.69430907,8.51778661 C5.96084308,7.8963514 5.36209532,7.18474717 4.98360121,6.33033468 C4.88202793,6.09930701 4.94457569,5.91409495 5.13649572,5.75179069 C5.20225106,5.72839549 5.26800639,5.70500028 5.33322713,5.68160507 C5.57807219,5.68794127 5.77319981,5.7615387 5.87156551,5.98671757 C6.20943031,6.76363343 6.77022173,7.39530404 7.44381296,7.94752842 C8.08372462,8.47294579 8.80115273,8.90088314 9.57204046,9.24888685 C10.0440889,9.46236812 10.5327098,9.64758018 11.0181232,9.83717885 C11.2105778,9.91272587 11.4131898,9.96682729 11.6104558,10.0301893 C11.6350472,9.9941217 11.6537581,9.97121389 11.6665884,9.94538168 C11.9130373,9.46431772 12.1760586,8.98958996 12.4016582,8.5002402 C12.7363154,7.77450136 12.964588,7.01951851 13.0843375,6.23772865 C13.2276093,5.29802114 13.1880492,4.37391044 12.8197124,3.47465714 C12.7876366,3.39716051 12.7833599,3.29334428 12.8122281,3.21536025 C12.848046,3.11934242 12.9319776,3.03794659 12.99506,2.95021457 C13.0608153,2.92681936 13.1265706,2.90342415 13.1917914,2.88002894" id="Fill-214" fill="#FFFFFF"></path>
                                <path d="M14.4706585,16.6339263 C13.8034594,16.8385783 13.1362603,17.0436429 12.4685351,17.2474696 C12.2601669,17.3110107 12.0802126,17.280478 11.9523503,17.1645361 C11.7687127,16.9978437 11.827119,16.7527565 12.0765293,16.6458918 C12.1070479,16.6326885 12.1396712,16.622786 12.1722945,16.6124709 C13.4940642,16.207293 14.8153078,15.8017025 16.1376037,15.3969372 C16.3806999,15.3222557 16.5817015,15.3618658 16.7053544,15.5062775 C16.8558425,15.6820471 16.7721795,15.9151688 16.5206644,16.0030536 C16.3670192,16.0562796 16.2091645,16.1008409 16.0528884,16.1487031 C15.5256538,16.3104442 14.9984192,16.4721852 14.4706585,16.6339263" id="Fill-215" fill="#FFFFFF"></path>
                                <path d="M13.9711483,14.7809138 C13.4747848,14.9612385 12.9778927,15.1430373 12.4810005,15.3223793 C12.2119387,15.4186834 11.9650785,15.3253273 11.872572,15.0968505 C11.8017384,14.9204566 11.869929,14.7273569 12.0417268,14.6271219 C12.0861299,14.6010805 12.1331761,14.5784785 12.1818081,14.5607899 C13.1681918,14.2011233 14.1556327,13.8424393 15.142545,13.4842466 C15.3116998,13.4228281 15.4766257,13.4149666 15.628865,13.5279766 C15.8582811,13.6974916 15.8461231,14.0149024 15.6008487,14.1721337 C15.5522167,14.2030886 15.4961842,14.2256907 15.4412089,14.2458359 C14.9511887,14.4246866 14.4611685,14.6025545 13.9711483,14.7809138" id="Fill-216" fill="#FFFFFF"></path>
                                <path d="M9.53650405,5.11394693 C8.8691276,5.31840967 8.20280379,5.52287241 7.53542734,5.72651071 C7.3296354,5.78958087 7.15542277,5.76278635 7.02542121,5.65272274 C6.8301557,5.48618454 6.88910378,5.22730833 7.14594897,5.12342806 C7.17700198,5.11106136 7.20963395,5.10075578 7.24226592,5.09086242 C8.56280813,4.6864714 9.88387665,4.28208037 11.2044189,3.87727712 C11.3749472,3.82451254 11.5391597,3.81956586 11.6875826,3.91643833 C11.9328487,4.07596874 11.8833744,4.37441838 11.5944235,4.48159643 C11.5538967,4.49643647 11.5112646,4.50921539 11.4686326,4.52199431 C10.8244143,4.71944926 10.1807223,4.91690421 9.53650405,5.11394693" id="Fill-217" fill="#FFFFFF"></path>
                                <path d="M8.51549894,7.64279273 C8.24786742,7.73865402 8.01197087,7.64475911 7.92152622,7.41321721 C7.85012255,7.23181813 7.93633587,7.02682243 8.12568782,6.92751996 C8.15319145,6.91326367 8.18228183,6.90048216 8.21137222,6.89015863 C9.2126103,6.5258857 10.2143773,6.16210436 11.2150865,5.79832303 C11.3600095,5.74621381 11.5022879,5.74129784 11.6398061,5.82093646 C11.7799688,5.90204987 11.8508436,6.020033 11.8444966,6.17242789 C11.8370917,6.32728075 11.7593411,6.44821347 11.6054265,6.51556218 C11.5007011,6.56128064 11.3917444,6.59815037 11.2838455,6.63747808 C10.864944,6.78987297 10.4460425,6.94177626 10.027141,7.09417114 C9.52308402,7.277045 9.02008486,7.46188525 8.51549894,7.64279273 Z" id="Fill-218" fill="#FFFFFF"></path>
                            </g>
                            <path d="M13.4209172,6.03434042 C13.7006547,5.68148974 14.2108917,5.62428134 14.5605636,5.90656188 C14.9102354,6.18884242 14.9669284,6.703718 14.6871909,7.05656868 C12.0412066,10.3941171 12.0412066,13.6058829 14.6871909,16.9434313 C14.9669284,17.296282 14.9102354,17.8111576 14.5605636,18.0934381 C14.2108917,18.3757187 13.7006547,18.3185103 13.4209172,17.9656596 C10.3011357,14.0304807 10.3011357,9.96951931 13.4209172,6.03434042 Z" id="Path-7" fill="#F4B940" fill-rule="nonzero"></path>
                            <path d="M8.01551178,6.03434042 C8.29524925,5.68148974 8.80548631,5.62428134 9.15515815,5.90656188 C9.50482999,6.18884242 9.56152299,6.703718 9.28178552,7.05656868 C6.63580122,10.3941171 6.63580122,13.6058829 9.28178552,16.9434313 C9.56152299,17.296282 9.50482999,17.8111576 9.15515815,18.0934381 C8.80548631,18.3757187 8.29524925,18.3185103 8.01551178,17.9656596 C4.89573031,14.0304807 4.89573031,9.96951931 8.01551178,6.03434042 Z" id="Path-7" fill="#F4B940" fill-rule="nonzero"></path>
                            <path d="M2.61010637,6.03434042 C2.88984384,5.68148974 3.4000809,5.62428134 3.74975274,5.90656188 C4.09942458,6.18884242 4.15611759,6.703718 3.87638012,7.05656868 C1.23039582,10.3941171 1.23039582,13.6058829 3.87638012,16.9434313 C4.15611759,17.296282 4.09942458,17.8111576 3.74975274,18.0934381 C3.4000809,18.3757187 2.88984384,18.3185103 2.61010637,17.9656596 C-0.509675097,14.0304807 -0.509675097,9.96951931 2.61010637,6.03434042 Z" id="Path-7" fill="#F4B940" fill-rule="nonzero"></path>
                        </g>
                        <path d="M101.863816,72.4866009 L92.8297461,60.8000482 C91.6884858,59.5912873 91.783634,59.5912465 90.6413371,60.8009861 L81.5972461,72.4952867 L87.9721765,72.4925546 L87.9639268,91.7397875 L95.5748325,91.7365257 L95.5830821,72.4892927 L101.863816,72.4866009 Z" id="Fill-13" fill="#F4B940" transform="translate(91.730531, 75.816683) rotate(42.000000) translate(-91.730531, -75.816683) "></path>
                        <path d="M112.043222,47.0209992 C111.985154,47.6203005 111.48192,48.0559958 110.919216,47.9941518 C110.356512,47.9323078 109.947424,47.3963436 110.005491,46.7970423 L110.956778,36.9790008 C111.014846,36.3796995 111.51808,35.9440042 112.080784,36.0058482 C112.643488,36.0676922 113.052576,36.6036564 112.994509,37.2029577 L112.043222,47.0209992 Z" id="Line" fill="#F4B940" fill-rule="nonzero"></path>
                        <path d="M118.885742,50.6733266 C118.46915,51.094302 117.776842,51.1105466 117.339429,50.7096101 C116.902016,50.3086736 116.885137,49.6423824 117.301729,49.2214071 L125.114258,41.3266734 C125.53085,40.905698 126.223158,40.8894534 126.660571,41.2903899 C127.097984,41.6913264 127.114863,42.3576176 126.698271,42.7785929 L118.885742,50.6733266 Z" id="Line" fill="#F4B940" fill-rule="nonzero"></path>
                        <path d="M121.27594,56.9809765 C120.696562,57.087654 120.134412,56.7348926 120.020342,56.1930619 C119.906272,55.6512311 120.283479,55.1255114 120.862856,55.0188339 L131.72406,53.0190235 C132.303438,52.912346 132.865588,53.2651074 132.979658,53.8069381 C133.093728,54.3487689 132.716521,54.8744886 132.137144,54.9811661 L121.27594,56.9809765 Z" id="Line" fill="#F4B940" fill-rule="nonzero"></path>
                    </g>
                </g>
            </g>
        </g>
    </g>
</svg>
