<svg width="171" height="107" xmlns="http://www.w3.org/2000/svg"><g fill="none" fill-rule="evenodd"><path d="M90.462 45.33c-2.803-.757-7.06-.955-10.024 0l-78.37 24.9a6.958 6.958 0 000 9.9l78.37 24.898c3.43 1.413 7.035 1.51 10.024 0l78.371-24.899a6.958 6.958 0 000-9.9l-78.37-24.898z" fill="#F5F5F5"/><path d="M90.515 101.605c-2.991 1.518-6.6 1.42-10.03 0L2.063 76.578C1.01 75.533.364 75.108.116 73.75a7 7 0 001.947 6.246l78.422 25.027c3.43 1.42 7.039 1.518 10.03 0l78.422-25.027a7 7 0 001.947-6.246c-.248 1.358-.894 1.783-1.947 2.828l-78.422 25.027z" fill="#9B9B9B"/><path d="M49.155 39.72v11.81c0 .592-.485 1.073-1.083 1.073s-1.082-.48-1.082-1.074V37.574h80.103v13.955c0 .593-.485 1.074-1.083 1.074s-1.082-.48-1.082-1.074V39.721H49.155z" fill="#EF8523" fill-rule="nonzero"/><path d="M88.124 53.676c0 .593-.485 1.074-1.083 1.074s-1.082-.48-1.082-1.074V26.838c0-.593.484-1.073 1.082-1.073.598 0 1.083.48 1.083 1.073v26.838z" fill="#EF8523" fill-rule="nonzero"/><path d="M87.303 70.817h7.913c3.597 0 5.756-2.036 5.756-5.672v-8.58c0-3.2-2.016-5.527-5.181-5.527a324.826 324.826 0 00-16.834 0c-3.164.146-5.18 2.327-5.18 5.527v8.725c.144 3.2 2.158 5.381 5.323 5.381 2.734.291 5.468.146 8.203.146zm-.316-45.804H98.93c3.31 0 5.324-1.89 5.324-5.235a249.75 249.75 0 000-14.688c0-3.2-2.014-5.09-5.178-5.09H75.189c-3.452 0-5.467 1.89-5.467 5.38v14.398c0 3.345 2.015 5.235 5.323 5.235h11.942z" fill="#FFF"/><path d="M86.845 70.818h7.913c3.597 0 5.755-1.983 5.755-5.522v-8.354c0-3.115-2.015-5.38-5.18-5.38a333.629 333.629 0 00-16.835 0c-3.164.141-5.18 2.265-5.18 5.38v8.495c.145 3.115 2.159 5.239 5.324 5.239 2.734.283 5.468.142 8.203.142zm.142-44.318H98.93c3.31 0 5.324-1.84 5.324-5.097.144-4.814.144-9.486 0-14.3 0-3.115-2.014-4.956-5.178-4.956H75.189c-3.452 0-5.467 1.84-5.467 5.239v14.017c0 3.257 2.015 5.097 5.323 5.097h11.942z" stroke="#3283C8" stroke-width="2"/><path d="M125.415 73c0-.141 0-.141 0 0h8.172c3.155-.141 5.305-2.12 5.305-5.228a89.273 89.273 0 000-8.761c-.143-2.968-2.007-5.087-5.018-5.229a331.985 331.985 0 00-16.776 0c-3.154.142-5.16 2.261-5.16 5.37v8.478c0 3.25 2.15 5.229 5.447 5.37h8.03z" fill="#FFF"/><path d="M125.415 70.853c0-.141 0-.141 0 0h8.172c3.155-.141 5.305-2.12 5.305-5.228a89.273 89.273 0 000-8.761c-.143-2.968-2.007-5.087-5.018-5.229a331.985 331.985 0 00-16.776 0c-3.154.142-5.16 2.261-5.16 5.37v8.478c0 3.25 2.15 5.229 5.447 5.37h8.03z" stroke="#3283C8" stroke-width="2"/><path d="M55.706 70.712c3.121 0 5.25-1.979 5.25-5.087a90.222 90.222 0 000-8.761c-.142-3.109-1.987-5.229-5.25-5.229a319.495 319.495 0 00-16.457 0c-3.12 0-5.107 2.261-5.249 5.37v8.478c0 3.25 1.986 5.229 5.391 5.37 2.696 0 5.25-.141 7.945-.141h8.37z" fill="#FFF"/><path d="M47.336 70.712h8.37c3.121 0 5.25-1.979 5.25-5.087a90.222 90.222 0 000-8.761c-.142-3.109-1.987-5.229-5.25-5.229a319.495 319.495 0 00-16.457 0c-3.12 0-5.107 2.261-5.249 5.37v8.478c0 3.25 1.986 5.229 5.391 5.37 2.696 0 5.25-.141 7.945-.141z" stroke="#3283C8" stroke-width="2"/><path d="M62.218 8.94c2.282 5.677-.6 12.08-6.436 14.3-5.837 2.22-12.42-.584-14.702-6.26-2.283-5.677.598-12.08 6.436-14.3 5.837-2.22 12.419.584 14.702 6.26" fill="#606060"/><path d="M62.218 7.02c2.282 5.677-.6 12.08-6.436 14.3-5.837 2.22-12.42-.584-14.702-6.26-2.283-5.677.598-12.08 6.436-14.3 5.837-2.22 12.419.584 14.702 6.26" fill="#EF8523"/><path d="M53.49 2.88c.31-.002.477.15.576.41a5.58 5.58 0 01.355 1.73 7.104 7.104 0 01-.141 1.714 9.448 9.448 0 01-.708 2.17c-.207.445-.448.879-.673 1.318-.013.025-.024.05-.04.089.074.024.143.046.211.07.725.24 1.432.52 2.108.86.952.477 1.827 1.05 2.567 1.78.535.527.974 1.117 1.262 1.79.077.18.059.344-.087.488-.136.135-.305.168-.493.115-.132-.038-.24-.111-.291-.231a4.23 4.23 0 00-.839-1.281 10.614 10.614 0 00-.995-.905c-.446-.361-.95-.652-1.469-.918a12.872 12.872 0 00-1.72-.736 409.63 409.63 0 01-.749-.257c-.134.247-.277.478-.39.72-.23.494-.47.988-.663 1.496a7.309 7.309 0 00-.482 2.271c-.03.707.056 1.396.332 2.062.1.237-.023.487-.269.574a.492.492 0 01-.628-.268 4.986 4.986 0 01-.343-1.21 6.67 6.67 0 01.06-2.227 9.434 9.434 0 01.744-2.315c.203-.431.435-.853.655-1.279.012-.025.028-.05.051-.09-.136-.047-.263-.088-.388-.132a15.545 15.545 0 01-2.187-.933 10.363 10.363 0 01-1.864-1.237c-.734-.622-1.333-1.333-1.711-2.188-.102-.23-.04-.416.153-.578l.197-.07c.244.006.44.08.538.305.338.777.899 1.408 1.572 1.96.64.526 1.357.954 2.128 1.302.472.213.961.399 1.446.588.193.076.395.13.593.193.024-.036.043-.059.056-.085.246-.48.51-.955.735-1.445a8.43 8.43 0 00.683-2.262c.143-.94.103-1.864-.265-2.763a.38.38 0 01-.007-.26c.035-.096.12-.177.182-.265l.197-.07" fill="#FFF"/><path d="M54.768 16.634c-.667.205-1.334.41-2.002.613-.209.064-.388.033-.516-.082-.184-.167-.126-.412.124-.52.03-.012.063-.022.096-.033l3.965-1.215c.243-.075.444-.035.568.11.15.175.066.408-.185.496-.154.053-.312.098-.468.146l-1.582.485m-.5-1.854c-.496.181-.993.363-1.49.542-.269.097-.516.003-.608-.225a.375.375 0 01.169-.47.857.857 0 01.14-.066c.986-.36 1.974-.719 2.96-1.077.17-.061.335-.069.487.044.23.17.217.487-.028.644a.829.829 0 01-.16.074l-1.47.535m-4.434-9.667l-2.001.613c-.206.063-.38.036-.51-.074-.196-.167-.137-.426.12-.53a1.21 1.21 0 01.097-.032l3.962-1.214c.17-.052.334-.057.483.04.245.159.196.457-.093.565-.04.014-.083.027-.126.04l-1.932.592m-1.021 2.529c-.268.096-.504.002-.594-.23-.072-.181.015-.386.204-.485a.688.688 0 01.086-.038l3.003-1.092a.482.482 0 01.425.023c.14.081.211.199.205.351a.374.374 0 01-.24.344c-.104.045-.213.082-.32.121l-1.258.457c-.504.183-1.007.368-1.511.549z" fill="#FFF"/><path d="M36.42 6.034a.806.806 0 011.14-.127c.35.282.407.797.127 1.15-2.646 3.337-2.646 6.549 0 9.886a.823.823 0 01-.126 1.15.806.806 0 01-1.14-.127c-3.12-3.936-3.12-7.996 0-11.932zm-5.404 0a.806.806 0 011.14-.127.823.823 0 01.126 1.15c-2.646 3.337-2.646 6.549 0 9.886a.823.823 0 01-.127 1.15.806.806 0 01-1.14-.127c-3.12-3.936-3.12-7.996 0-11.932zm-5.406 0a.806.806 0 011.14-.127c.35.282.406.797.126 1.15-2.646 3.337-2.646 6.549 0 9.886a.823.823 0 01-.126 1.15.806.806 0 01-1.14-.127c-3.12-3.936-3.12-7.996 0-11.932z" fill="#F4B940" fill-rule="nonzero"/><path d="M124.49 80.122l1.105-14.73c-.039-1.661.032-1.598-1.626-1.463l-14.547 2.639 4.74 4.264-12.885 14.298 5.658 5.09 12.885-14.298 4.67 4.2z" fill="#F4B940"/><path d="M135.043 47.021c-.058.6-.561 1.035-1.124.973-.562-.062-.972-.598-.914-1.197l.952-9.818c.058-.6.561-1.035 1.124-.973.562.062.972.598.914 1.197l-.952 9.818zm6.843 3.652a1.124 1.124 0 01-1.547.037 1.025 1.025 0 01-.037-1.489l7.812-7.894a1.124 1.124 0 011.547-.037c.437.401.454 1.068.037 1.489l-7.812 7.894zm2.39 6.308c-.58.107-1.142-.246-1.256-.788-.114-.542.263-1.067.843-1.174l10.861-2c.58-.107 1.142.246 1.256.788.114.542-.263 1.067-.843 1.174l-10.861 2z" fill="#F4B940" fill-rule="nonzero"/></g></svg>