<svg width="302" height="203" xmlns="http://www.w3.org/2000/svg" xmlns:xlink="http://www.w3.org/1999/xlink"><defs><path id="a" d="M0 .745h301.118V117H0z"/><path id="c" d="M.456.955h298.662V83H.456z"/></defs><g fill="none" fill-rule="evenodd"><g transform="translate(0 85.826)"><mask id="b" fill="#fff"><use xlink:href="#a"/></mask><path d="M2.561 80.756C-11.264 52.016 30.074-.854 146.338.782 280.239 2.666 312.66 55.124 297.803 79.438 265.66 132.04 24.572 126.518 2.561 80.756" fill="#D8D8D8" mask="url(#b)"/></g><g transform="translate(2 119.826)"><mask id="d" fill="#fff"><use xlink:href="#c"/></mask><path d="M295.823 45.438c6.891-11.277 3.53-29.956-15.368-44.483 1.49 1.145 2.067 11.694 2.36 13.893.588 4.428.598 8.851-1.275 13-4.33 9.594-13.762 14.495-22.489 19.393-19.854 11.145-40.445 16.14-63.01 18.028-21.795 1.823-43.657 2.533-65.524 2.652C49.243 68.363 24.65 59.712.457 46.478c.042.092.08.187.124.278 22.011 45.762 263.1 51.283 295.242-1.318" fill="#CECECE" mask="url(#d)"/></g><path d="M144.68 148.461c4.746 12.37 22.611 18.422 34.136 22.168 16.6 5.397 58.178 16.813 59.088-7.638.645-17.326-23.632-29.819-38.906-32.355-14.403-2.392-46.58-13.14-54.67 3.66-2.167 4.498-1.376 9.663.352 14.165" fill="#1D2732"/><path d="M180.51 73.662c8.368 3.32 17.485 10.067 24.265 25.887 6.78 15.82 14.274 48.18-6.423 58.606-20.697 10.426-47.248 3.25-53.672-9.695-6.423-12.943.496-17.046 1.71-36.81 1.215-19.766-3.054-29.795 3.579-34.79 6.632-4.996 22.95-6.209 30.54-3.198" fill="#EE8E32"/><path d="M146.62 104.586s.052 6.001 3.052 8.574l3 2.572s-7.15 4.772-8.64 11.146c0 0 3.823-18.22 2.588-22.292" fill="#DB5A00"/><path d="M210.11 144.002s-37.438 20.53-39.748 15.376c-2.14-4.776-1.099-8.682-1.099-8.682s-2.054 3.947-5.587 6.598c-2.648 1.987-6.357 1.955-5.757 2.219 4.155 1.826 12.426 2.732 14.757 3.639 2.062.803 23.912-8.725 27.103-8.331 7.47.924 10.331-10.82 10.331-10.82" fill="#FFF"/><path d="M180.51 73.662c8.368 3.32 17.485 10.067 24.265 25.887 6.78 15.82 14.274 48.18-6.423 58.606-20.697 10.426-47.248 3.25-53.672-9.695-6.423-12.943.496-17.046 1.71-36.81 1.215-19.766-3.054-29.795 3.579-34.79 6.632-4.996 22.95-6.209 30.54-3.198z" stroke="#000"/><path d="M138.888 53.947c2.146-.846 2.87.249 2.647 1.255-.222 1.007-1.05 5.159-3.582 3.12-.737-.593-.945-3.633.935-4.375" fill="#060101"/><path d="M143.256 71.936c-.674-.75-4.76-3.752-4.76-7.66 0-3.91-.124-7.819 2.88-9.226 3.007-1.407 7.015-4.69 9.144-3.44 2.129 1.251-3.507 24.516-7.264 20.326" fill="#EE8E32"/><path d="M143.256 71.936c-.674-.75-4.76-3.752-4.76-7.66 0-3.91-.124-7.819 2.88-9.226 3.007-1.407 7.015-4.69 9.144-3.44 2.129 1.251-3.507 24.516-7.264 20.326z" stroke="#000"/><path d="M146.155 61.886s-8.9-2.195-7.659 2.39c.43 1.587 1.06 3.517 1.814 4.622 1.715 2.507 3.722 3.214 3.722 3.214l2.123-10.226z" fill="#FFF"/><path d="M143.256 71.936c-.674-.75-4.76-3.752-4.76-7.66 0-3.91-.124-7.819 2.88-9.226 3.007-1.407 7.015-4.69 9.144-3.44 2.129 1.251-3.507 24.516-7.264 20.326z" stroke="#000"/><path d="M185.825 71.077s-.721-17.81-3.984-22.414c0 0 1.433-10.087-1.334-11.282-2.766-1.195-8.3 8.893-8.3 8.893s-5.31-1.194-9.9 0c0 0-6.435-8.229-10.124-7.83-3.69.397-2.503 13.14-2.503 13.14s-8.3 16.061-4.48 25.352c3.82 9.292 40.386 8.322 40.625-5.859" fill="#EE8E32"/><path d="M149.11 79.892s5.423-8.542 2.182-13.168c-3.242-4.627-5.614-4.837-5.614-4.837s-.236 1.108-.658 2.577c-.967 3.366-1.639 9.525.027 12.623 2.39 4.452 4.063 2.805 4.063 2.805" fill="#FFF"/><path d="M138.496 61.323s.208 2.623 1.609 3.917" stroke="#000" stroke-linecap="round" stroke-linejoin="round"/><path d="M158.786 47.428c-1.022-3.19-2.91-3.063-4.728-6.191-1.982-3.41 6.448 1.699 7.03 4.897.582 3.198-1.781 2.916-2.302 1.294m20.801 1.859c-2.66-3.52-3.868 1.102-8.954 2.045-5.602 1.039-13.71-5.565-11.463 6.749 1.516 8.304.443 14.36 1.576 18.805.969 3.799 10.635 5.457 19.279.777 8.645-4.68 2.22-24.856-.438-28.376" fill="#DB5A00"/><path d="M162.404 82.996c1.035 6.151 11.634 10.962 18.344 17.444 7.716 7.454 6.151 24.604 0 28.883-6.15 4.28-11.919 25.674-3.82 28.35 8.1 2.673 29.656-9.74 31.26-14.823 1.115-3.528 3.268-23.419-5.277-42.167-3.76-8.249-10.55-19.598-19.778-23.74 0 0-3.59 3.531-9.286 4.677-6.16 1.24-11.443 1.376-11.443 1.376" fill="#DB5A00"/><path d="M170.206 146.573s-7.425 17.552 11.137 19.278c18.562 1.726 26.733-4.97 26.844-12.085.189-12.099-13.815-17.944-23.124-11.282-4.83 3.456-5.872 14.182 2.726 12.941" fill="#EE8E32"/><path d="M170.206 146.573s-7.425 17.552 11.137 19.278c18.562 1.726 26.733-4.97 26.844-12.085.189-12.099-13.815-17.944-23.124-11.282-4.83 3.456-5.872 14.182 2.726 12.941" stroke="#000" stroke-linecap="round" stroke-linejoin="round"/><path d="M185.825 71.077s-.721-17.81-3.984-22.414c0 0 1.433-10.087-1.334-11.282-2.766-1.195-8.3 8.893-8.3 8.893s-5.31-1.194-9.9 0c0 0-6.435-8.229-10.124-7.83-3.69.397-2.503 13.14-2.503 13.14s-8.3 16.061-4.48 25.352c3.82 9.292 40.386 8.322 40.625-5.859z" stroke="#000"/><path fill="#33A202" d="M225.995 125.928l-.71-9.02 5.673 9.02z"/><path fill="#5DCA40" d="M234.098 115.116l-7.09 10.812h5.14z"/><path fill="#33A202" d="M74.98 103.454l-.296-3.763 2.367 3.763z"/><path fill="#5DCA40" d="M79.196 98.943l-2.958 4.511h2.145z"/><path fill="#33A202" d="M66.45 98.374l-.303-3.87 2.434 3.87z"/><path fill="#5DCA40" d="M70.787 93.733l-3.043 4.641h2.207z"/><path fill="#33A202" d="M14.584 162.678l-.374-4.755 2.99 4.755z"/><path fill="#5DCA40" d="M19.911 156.978l-3.738 5.7h2.71z"/><path d="M55.944 109.774c3.05 3.34 6.89 4.521 10.409 5.807 5.21 1.903 10.067 2.662 14.612 4.366.818.307 5.092-2.056 4.317-2.352-3.878-1.484-6.817-3.065-11.502-3.939-4.398-.82-10.722-3.319-14.391-5.154-1.127-.563-2.297.143-2.962.657-.221.171-.758.314-.483.615" fill="#1D2732"/><path fill="#1D2732" d="M45.58 117.947l18.912-5.502 5.448.936-20.505 5.428z"/><path d="M29.953 112.307c.796.618.852 1.022 1.667 1.531 4.35 2.713 9.665 4.17 13.779 5.666 7.23 2.632 12.583 6.298 18.89 8.655 1.136.424 4.574-2.843 3.499-3.252-5.382-2.053-9.414-4.232-13.395-5.523-6.271-2.034-14.07-3.93-19.162-6.469-1.563-.779-3.251-1.715-4.173-1.005-.308.237-1.551.05-1.105.397" fill="#1D2732"/><path fill="#1D2732" d="M51.58 119.947l18.912-5.502 6.448-.064-21.505 6.428z"/><path d="M14.238 58.878s1.418-3.114 8.185-5.233c6.766-2.12 10.708-3.38 10.708-3.38s3.026-20.687 20.84-20.683c12.487.003 16.817 9.211 17.533 11.914 1.8-2.612 4.242-4.814 10.526-4.186 6.888.69 7.623 6.295 7.623 6.295s2.154-5.067 7.597-4.206c5.443.862 5.673 4.306 6.72 8.324 1.325 5.076 16.172.46 14.679 6.35-1.976 7.795-106.39 13.06-104.411 4.805m197.982 6.674c-1.235-.097-2.532-.249-3.323-.763-2.119-1.377 1.064-2.024 2.382-2.59 1.141-.492 3.132-.968 3.942-1.985 2.837-3.56 7.212-8.765 10.506-8.357 5.07.627 3.26 2.46 7.481 1.996 4.221-.463 2.897-7.662 8.562-8.602 4.921-.817 6.04 5.257 8.898 3.953 2.86-1.304 4.344-6.809 9.872-4.834 5.4 1.928 7.25 11.764 9.785 15.77.89 1.403 3.454.911 3.948 2.25.894 2.501-16.25 4.184-17.685 4.34-11.826 1.274-23.367 1.686-35.18.095a205.403 205.403 0 01-7.022-1.07c-.593-.1-1.367-.14-2.166-.203m-40.979-42.07c.394.424.5.877-.044 1.288-.897.675-2.748.751-3.82.904-1.547.221-3.108.318-4.669.37-3.013.1-6.033.021-9.039.296-9.984.914-20.03.996-30.04.557a339.398 339.398 0 01-15.218-1.03 467.362 467.362 0 01-7.379-.72c-1.999-.21-5.045.033-6.887-.792-.349-.157-.617-.568-.478-.925.09-.229.311-.374.524-.497 1.84-1.07 3.87-1.566 5.858-2.278l8.213-2.94c.402-6.812 6.677-17.209 17.506-17.698 3.994-.18 6.728 1.095 10.025 3.391 1.76 1.225 4.107 4.071 4.107 4.071 4.633-1.12 7.473 1.046 9.09 2.568 1.8-1.368 7.042-.953 9.276 1.292 3.655 3.67 2.49 8.961 2.49 8.961.06.216 2.637.53 2.945.59 1.595.318 3.227.501 4.773 1.025.481.162 2.071.818 2.767 1.567" fill="#B1E2F0"/><path fill="#60A1C3" d="M56.346 81.78l3.214-.388.978 1.842v27.02l-3.2.664z"/><path fill="#2B646C" d="M56.346 81.78l.991 1.703v27.435l-1.445-1.406V82.988z"/><path fill="#60A1C3" d="M56.292 96.572v3.252L33.1 103.45v-2.253z"/><path fill="#2B646C" d="M56.292 96.572l1 1-24.192 3.626v-1.03z"/><path fill="#60A1C3" d="M56.292 88.572v3.252L33.1 95.45v-2.253z"/><path fill="#2B646C" d="M56.292 88.572l1 1L33.1 93.198v-1.03z"/><path fill="#60A1C3" d="M30.276 84.512l3.214-.39.978 1.843v27.02l-3.201.663z"/><path fill="#2B646C" d="M30.276 84.512l.99 1.702v27.434l-1.445-1.405V85.718z"/><path fill="#1D2732" d="M23.05 154.007l16.436 1.678 4.268 1.897-15.88-1.585zm12.008 5.034l16.436.677 4.268 1.897-15.881-.585z"/><path d="M5.933 148.677c4.835 3.685 9.803 6.483 14.562 8.266 7.044 2.637 14.159 6.24 20.302 8.596 1.106.424 4.003-2.452 2.957-2.861-5.24-2.045-6.899-3.742-13.049-5.89-5.778-2.016-13.963-5.623-18.899-8.09-1.515-.755-4.421-1.351-5.359-.76-.313.197-.942.413-.514.739m32.357 6.361c5.043 3.916 10.362 4.254 15.246 6.032 7.23 2.632 15.583 6.298 21.891 8.655 1.135.424 4.357-3.079 3.282-3.489-5.382-2.052-7.979-2.036-14.865-4.828-5.753-2.334-14.785-4.426-19.878-6.965-1.563-.779-4.055-1.029-4.978-.318-.307.237-.698.913-.698.913" fill="#1D2732"/><path fill="#2B646C" d="M9.919 114.635l-2.18-.4-1.961 2.184v31.963l2.609 1.026z"/><path fill="#60A1C3" d="M9.919 114.635l-1.708 2.09.176 32.683 3.419-.71v-32.581z"/><path fill="#60A1C3" d="M10.008 127.185v2.767l30.088 5.683v-2.767z"/><path fill="#2B646C" d="M10.924 125.98l-.916 1.205 30.088 5.683v-1.264z"/><path fill="#60A1C3" d="M10.008 136.147v2.767l30.088 5.683v-2.767z"/><path fill="#2B646C" d="M10.924 134.942l-.916 1.205 30.088 5.683v-1.264z"/><path fill="#2B646C" d="M42.431 121.29l-2.18-.397-1.96 2.183v31.963l2.608 1.025z"/><path fill="#60A1C3" d="M42.431 121.29l-1.708 2.092.176 32.682 3.42-.71v-32.581z"/><path fill="#33A202" d="M143.752 176.906l-.709-9.019 5.672 9.02z"/><path fill="#33A202" d="M141.559 176.906l-.709-9.019 5.671 9.02z"/><path fill="#5DCA40" d="M151.855 166.094l-7.09 10.812h5.14z"/><path fill="#33A202" d="M238.053 134.465l.406-5.81-3.244 5.81z"/><path fill="#5DCA40" d="M233.419 127.5l4.055 6.965h-2.94z"/><path fill="#33A202" d="M239.307 134.465l.406-5.81-3.244 5.81z"/></g></svg>